<?xml version="1.0"?>
<svg xmlns="http://www.w3.org/2000/svg" version="1.1" height="165mm" width="440mm" >
 <g style="fill-opacity:1.0; stroke:black; stroke-width:1;">
  <line x1="430.000000mm" y1="155.000000mm" x2="430.000000mm" y2="155.000000mm" />
  <line x1="430.000000mm" y1="155.000000mm" x2="0.000000mm" y2="155.000000mm" />
  <line x1="0.000000mm" y1="155.000000mm" x2="0.000000mm" y2="0.000000mm" />
  <line x1="0.000000mm" y1="0.000000mm" x2="405.000000mm" y2="0.000000mm" />
  <line x1="405.000000mm" y1="0.000000mm" x2="407.179000mm" y2="0.095000mm" />
  <line x1="407.179000mm" y1="0.095000mm" x2="409.341000mm" y2="0.380000mm" />
  <line x1="409.341000mm" y1="0.380000mm" x2="411.470000mm" y2="0.852000mm" />
  <line x1="411.470000mm" y1="0.852000mm" x2="413.551000mm" y2="1.508000mm" />
  <line x1="413.551000mm" y1="1.508000mm" x2="415.565000mm" y2="2.342000mm" />
  <line x1="415.565000mm" y1="2.342000mm" x2="417.500000mm" y2="3.349000mm" />
  <line x1="417.500000mm" y1="3.349000mm" x2="419.339000mm" y2="4.521000mm" />
  <line x1="419.339000mm" y1="4.521000mm" x2="421.070000mm" y2="5.849000mm" />
  <line x1="421.070000mm" y1="5.849000mm" x2="422.678000mm" y2="7.322000mm" />
  <line x1="422.678000mm" y1="7.322000mm" x2="424.151000mm" y2="8.930000mm" />
  <line x1="424.151000mm" y1="8.930000mm" x2="425.479000mm" y2="10.661000mm" />
  <line x1="425.479000mm" y1="10.661000mm" x2="426.651000mm" y2="12.500000mm" />
  <line x1="426.651000mm" y1="12.500000mm" x2="427.658000mm" y2="14.435000mm" />
  <line x1="427.658000mm" y1="14.435000mm" x2="428.492000mm" y2="16.449000mm" />
  <line x1="428.492000mm" y1="16.449000mm" x2="429.148000mm" y2="18.530000mm" />
  <line x1="429.148000mm" y1="18.530000mm" x2="429.620000mm" y2="20.659000mm" />
  <line x1="429.620000mm" y1="20.659000mm" x2="429.905000mm" y2="22.821000mm" />
  <line x1="429.905000mm" y1="22.821000mm" x2="430.000000mm" y2="25.000000mm" />
  <line x1="430.000000mm" y1="25.000000mm" x2="430.000000mm" y2="155.000000mm" />
  <circle cx="8.200066mm" cy="30.920138mm" r="1.000138mm" fill="none"/>
  <line x1="10.200342mm" y1="30.920138mm" x2="6.199790mm" y2="30.920138mm" />
  <line x1="8.200066mm" y1="28.919862mm" x2="8.200066mm" y2="32.920414mm" />
  <text x="9mm" y="29mm" font-size="24">
   2.0
  </text>
  <circle cx="8.200066mm" cy="9.700138mm" r="1.000138mm" fill="none"/>
  <line x1="10.200342mm" y1="9.700138mm" x2="6.199790mm" y2="9.700138mm" />
  <line x1="8.200066mm" y1="7.699862mm" x2="8.200066mm" y2="11.700414mm" />
  <text x="9mm" y="8mm" font-size="24">
   2.0
  </text>
  <circle cx="26.100371mm" cy="146.799769mm" r="1.000161mm" fill="none"/>
  <line x1="28.100692mm" y1="146.799769mm" x2="24.100050mm" y2="146.799769mm" />
  <line x1="26.100371mm" y1="144.799448mm" x2="26.100371mm" y2="148.800090mm" />
  <text x="27mm" y="145mm" font-size="24">
   2.0
  </text>
  <circle cx="47.320371mm" cy="146.799769mm" r="1.000161mm" fill="none"/>
  <line x1="49.320692mm" y1="146.799769mm" x2="45.320050mm" y2="146.799769mm" />
  <line x1="47.320371mm" y1="144.799448mm" x2="47.320371mm" y2="148.800090mm" />
  <text x="48mm" y="145mm" font-size="24">
   2.0
  </text>
  <circle cx="51.749964mm" cy="132.349964mm" r="2.200229mm" fill="none"/>
  <line x1="56.150421mm" y1="132.349964mm" x2="47.349507mm" y2="132.349964mm" />
  <line x1="51.749964mm" y1="127.949507mm" x2="51.749964mm" y2="136.750421mm" />
  <text x="53mm" y="130mm" font-size="24">
   4.4
  </text>
  <circle cx="51.749964mm" cy="60.849964mm" r="2.200229mm" fill="none"/>
  <line x1="56.150421mm" y1="60.849964mm" x2="47.349507mm" y2="60.849964mm" />
  <line x1="51.749964mm" y1="56.449507mm" x2="51.749964mm" y2="65.250421mm" />
  <text x="53mm" y="58mm" font-size="24">
   4.4
  </text>
  <circle cx="87.500225mm" cy="96.599651mm" r="37.499925mm" fill="none"/>
  <line x1="162.500075mm" y1="96.599651mm" x2="12.500375mm" y2="96.599651mm" />
  <line x1="87.500225mm" y1="21.599800mm" x2="87.500225mm" y2="171.599501mm" />
  <text x="125mm" y="59mm" font-size="24">
   75.0
  </text>
  <circle cx="123.249964mm" cy="132.349964mm" r="2.200229mm" fill="none"/>
  <line x1="127.650421mm" y1="132.349964mm" x2="118.849507mm" y2="132.349964mm" />
  <line x1="123.249964mm" y1="127.949507mm" x2="123.249964mm" y2="136.750421mm" />
  <text x="125mm" y="130mm" font-size="24">
   4.4
  </text>
  <circle cx="123.249964mm" cy="60.849964mm" r="2.200229mm" fill="none"/>
  <line x1="127.650421mm" y1="60.849964mm" x2="118.849507mm" y2="60.849964mm" />
  <line x1="123.249964mm" y1="56.449507mm" x2="123.249964mm" y2="65.250421mm" />
  <text x="125mm" y="58mm" font-size="24">
   4.4
  </text>
  <circle cx="358.079808mm" cy="147.000013mm" r="2.999761mm" fill="none"/>
  <line x1="364.079330mm" y1="147.000013mm" x2="352.080285mm" y2="147.000013mm" />
  <line x1="358.079808mm" y1="141.000490mm" x2="358.079808mm" y2="152.999535mm" />
  <text x="361mm" y="144mm" font-size="24">
   6.0
  </text>
  <circle cx="369.579818mm" cy="148.000055mm" r="2.000011mm" fill="none"/>
  <line x1="373.579840mm" y1="148.000055mm" x2="365.579795mm" y2="148.000055mm" />
  <line x1="369.579818mm" y1="144.000033mm" x2="369.579818mm" y2="152.000077mm" />
  <text x="371mm" y="146mm" font-size="24">
   4.0
  </text>
  <circle cx="382.680371mm" cy="146.799769mm" r="1.000161mm" fill="none"/>
  <line x1="384.680692mm" y1="146.799769mm" x2="380.680050mm" y2="146.799769mm" />
  <line x1="382.680371mm" y1="144.799448mm" x2="382.680371mm" y2="148.800090mm" />
  <text x="383mm" y="145mm" font-size="24">
   2.0
  </text>
  <circle cx="403.900371mm" cy="146.799769mm" r="1.000161mm" fill="none"/>
  <line x1="405.900692mm" y1="146.799769mm" x2="401.900050mm" y2="146.799769mm" />
  <line x1="403.900371mm" y1="144.799448mm" x2="403.900371mm" y2="148.800090mm" />
  <text x="404mm" y="145mm" font-size="24">
   2.0
  </text>
 </g>
</svg>
