<?xml version="1.0"?>
<svg xmlns="http://www.w3.org/2000/svg" version="1.1" height="445mm" width="572mm" >
 <g style="fill-opacity:1.0; stroke:black; stroke-width:1;">
  <line x1="112.500000mm" y1="435.000000mm" x2="112.500000mm" y2="435.000000mm" />
  <line x1="112.500000mm" y1="435.000000mm" x2="0.000000mm" y2="435.000000mm" />
  <line x1="0.000000mm" y1="435.000000mm" x2="0.000000mm" y2="25.000000mm" />
  <line x1="0.000000mm" y1="25.000000mm" x2="0.095000mm" y2="22.821000mm" />
  <line x1="0.095000mm" y1="22.821000mm" x2="0.380000mm" y2="20.659000mm" />
  <line x1="0.380000mm" y1="20.659000mm" x2="0.852000mm" y2="18.530000mm" />
  <line x1="0.852000mm" y1="18.530000mm" x2="1.508000mm" y2="16.449000mm" />
  <line x1="1.508000mm" y1="16.449000mm" x2="2.342000mm" y2="14.435000mm" />
  <line x1="2.342000mm" y1="14.435000mm" x2="3.349000mm" y2="12.500000mm" />
  <line x1="3.349000mm" y1="12.500000mm" x2="4.521000mm" y2="10.661000mm" />
  <line x1="4.521000mm" y1="10.661000mm" x2="5.849000mm" y2="8.930000mm" />
  <line x1="5.849000mm" y1="8.930000mm" x2="7.322000mm" y2="7.322000mm" />
  <line x1="7.322000mm" y1="7.322000mm" x2="8.930000mm" y2="5.849000mm" />
  <line x1="8.930000mm" y1="5.849000mm" x2="10.661000mm" y2="4.521000mm" />
  <line x1="10.661000mm" y1="4.521000mm" x2="12.500000mm" y2="3.349000mm" />
  <line x1="12.500000mm" y1="3.349000mm" x2="14.435000mm" y2="2.342000mm" />
  <line x1="14.435000mm" y1="2.342000mm" x2="16.449000mm" y2="1.508000mm" />
  <line x1="16.449000mm" y1="1.508000mm" x2="18.530000mm" y2="0.852000mm" />
  <line x1="18.530000mm" y1="0.852000mm" x2="20.659000mm" y2="0.380000mm" />
  <line x1="20.659000mm" y1="0.380000mm" x2="22.821000mm" y2="0.095000mm" />
  <line x1="22.821000mm" y1="0.095000mm" x2="25.000000mm" y2="0.000000mm" />
  <line x1="25.000000mm" y1="0.000000mm" x2="536.500000mm" y2="0.000000mm" />
  <line x1="536.500000mm" y1="0.000000mm" x2="538.679000mm" y2="0.095000mm" />
  <line x1="538.679000mm" y1="0.095000mm" x2="540.841000mm" y2="0.380000mm" />
  <line x1="540.841000mm" y1="0.380000mm" x2="542.970000mm" y2="0.852000mm" />
  <line x1="542.970000mm" y1="0.852000mm" x2="545.051000mm" y2="1.508000mm" />
  <line x1="545.051000mm" y1="1.508000mm" x2="547.065000mm" y2="2.342000mm" />
  <line x1="547.065000mm" y1="2.342000mm" x2="549.000000mm" y2="3.349000mm" />
  <line x1="549.000000mm" y1="3.349000mm" x2="550.839000mm" y2="4.521000mm" />
  <line x1="550.839000mm" y1="4.521000mm" x2="552.570000mm" y2="5.849000mm" />
  <line x1="552.570000mm" y1="5.849000mm" x2="554.178000mm" y2="7.322000mm" />
  <line x1="554.178000mm" y1="7.322000mm" x2="555.651000mm" y2="8.930000mm" />
  <line x1="555.651000mm" y1="8.930000mm" x2="556.979000mm" y2="10.661000mm" />
  <line x1="556.979000mm" y1="10.661000mm" x2="558.151000mm" y2="12.500000mm" />
  <line x1="558.151000mm" y1="12.500000mm" x2="559.158000mm" y2="14.435000mm" />
  <line x1="559.158000mm" y1="14.435000mm" x2="559.992000mm" y2="16.449000mm" />
  <line x1="559.992000mm" y1="16.449000mm" x2="560.648000mm" y2="18.530000mm" />
  <line x1="560.648000mm" y1="18.530000mm" x2="561.120000mm" y2="20.659000mm" />
  <line x1="561.120000mm" y1="20.659000mm" x2="561.405000mm" y2="22.821000mm" />
  <line x1="561.405000mm" y1="22.821000mm" x2="561.500000mm" y2="25.000000mm" />
  <line x1="561.500000mm" y1="25.000000mm" x2="561.500000mm" y2="435.000000mm" />
  <line x1="561.500000mm" y1="435.000000mm" x2="435.500000mm" y2="435.000000mm" />
  <line x1="435.500000mm" y1="435.000000mm" x2="435.500000mm" y2="106.900000mm" />
  <line x1="435.500000mm" y1="106.900000mm" x2="435.475000mm" y2="106.402000mm" />
  <line x1="435.475000mm" y1="106.402000mm" x2="435.401000mm" y2="105.909000mm" />
  <line x1="435.401000mm" y1="105.909000mm" x2="435.278000mm" y2="105.426000mm" />
  <line x1="435.278000mm" y1="105.426000mm" x2="435.107000mm" y2="104.958000mm" />
  <line x1="435.107000mm" y1="104.958000mm" x2="434.891000mm" y2="104.509000mm" />
  <line x1="434.891000mm" y1="104.509000mm" x2="434.631000mm" y2="104.083000mm" />
  <line x1="434.631000mm" y1="104.083000mm" x2="434.330000mm" y2="103.686000mm" />
  <line x1="434.330000mm" y1="103.686000mm" x2="433.991000mm" y2="103.321000mm" />
  <line x1="433.991000mm" y1="103.321000mm" x2="433.617000mm" y2="102.991000mm" />
  <line x1="433.617000mm" y1="102.991000mm" x2="433.213000mm" y2="102.700000mm" />
  <line x1="433.213000mm" y1="102.700000mm" x2="432.781000mm" y2="102.451000mm" />
  <line x1="432.781000mm" y1="102.451000mm" x2="432.327000mm" y2="102.246000mm" />
  <line x1="432.327000mm" y1="102.246000mm" x2="431.854000mm" y2="102.087000mm" />
  <line x1="431.854000mm" y1="102.087000mm" x2="431.368000mm" y2="101.976000mm" />
  <line x1="431.368000mm" y1="101.976000mm" x2="430.874000mm" y2="101.914000mm" />
  <line x1="430.874000mm" y1="101.914000mm" x2="430.500000mm" y2="101.905000mm" />
  <line x1="430.500000mm" y1="101.905000mm" x2="430.500000mm" y2="101.900000mm" />
  <line x1="430.500000mm" y1="101.900000mm" x2="117.500000mm" y2="101.900000mm" />
  <line x1="117.500000mm" y1="101.900000mm" x2="117.500000mm" y2="101.905000mm" />
  <line x1="117.500000mm" y1="101.905000mm" x2="117.375000mm" y2="101.902000mm" />
  <line x1="117.375000mm" y1="101.902000mm" x2="116.878000mm" y2="101.939000mm" />
  <line x1="116.878000mm" y1="101.939000mm" x2="116.387000mm" y2="102.025000mm" />
  <line x1="116.387000mm" y1="102.025000mm" x2="115.908000mm" y2="102.160000mm" />
  <line x1="115.908000mm" y1="102.160000mm" x2="115.444000mm" y2="102.342000mm" />
  <line x1="115.444000mm" y1="102.342000mm" x2="115.000000mm" y2="102.570000mm" />
  <line x1="115.000000mm" y1="102.570000mm" x2="114.581000mm" y2="102.840000mm" />
  <line x1="114.581000mm" y1="102.840000mm" x2="114.192000mm" y2="103.151000mm" />
  <line x1="114.192000mm" y1="103.151000mm" x2="113.835000mm" y2="103.499000mm" />
  <line x1="113.835000mm" y1="103.499000mm" x2="113.514000mm" y2="103.881000mm" />
  <line x1="113.514000mm" y1="103.881000mm" x2="113.234000mm" y2="104.293000mm" />
  <line x1="113.234000mm" y1="104.293000mm" x2="112.995000mm" y2="104.731000mm" />
  <line x1="112.995000mm" y1="104.731000mm" x2="112.802000mm" y2="105.190000mm" />
  <line x1="112.802000mm" y1="105.190000mm" x2="112.655000mm" y2="105.666000mm" />
  <line x1="112.655000mm" y1="105.666000mm" x2="112.556000mm" y2="106.155000mm" />
  <line x1="112.556000mm" y1="106.155000mm" x2="112.506000mm" y2="106.651000mm" />
  <line x1="112.506000mm" y1="106.651000mm" x2="112.506000mm" y2="106.900000mm" />
  <line x1="112.506000mm" y1="106.900000mm" x2="112.500000mm" y2="106.900000mm" />
  <line x1="112.500000mm" y1="106.900000mm" x2="112.500000mm" y2="435.000000mm" />
  <circle cx="7.499659mm" cy="325.900016mm" r="1.000019mm" fill="none"/>
  <line x1="9.499698mm" y1="325.900016mm" x2="5.499621mm" y2="325.900016mm" />
  <line x1="7.499659mm" y1="323.899978mm" x2="7.499659mm" y2="327.900054mm" />
  <text x="8mm" y="324mm" font-size="24">
   2.0
  </text>
  <circle cx="7.499659mm" cy="284.500016mm" r="1.000019mm" fill="none"/>
  <line x1="9.499698mm" y1="284.500016mm" x2="5.499621mm" y2="284.500016mm" />
  <line x1="7.499659mm" y1="282.499978mm" x2="7.499659mm" y2="286.500054mm" />
  <text x="8mm" y="283mm" font-size="24">
   2.0
  </text>
  <circle cx="9.700371mm" cy="426.799769mm" r="1.000161mm" fill="none"/>
  <line x1="11.700692mm" y1="426.799769mm" x2="7.700050mm" y2="426.799769mm" />
  <line x1="9.700371mm" y1="424.799448mm" x2="9.700371mm" y2="428.800090mm" />
  <text x="10mm" y="425mm" font-size="24">
   2.0
  </text>
  <circle cx="16.499659mm" cy="373.500016mm" r="1.000019mm" fill="none"/>
  <line x1="18.499698mm" y1="373.500016mm" x2="14.499621mm" y2="373.500016mm" />
  <line x1="16.499659mm" y1="371.499978mm" x2="16.499659mm" y2="375.500054mm" />
  <text x="17mm" y="372mm" font-size="24">
   2.0
  </text>
  <circle cx="30.920371mm" cy="426.799769mm" r="1.000161mm" fill="none"/>
  <line x1="32.920692mm" y1="426.799769mm" x2="28.920050mm" y2="426.799769mm" />
  <line x1="30.920371mm" y1="424.799448mm" x2="30.920371mm" y2="428.800090mm" />
  <text x="31mm" y="425mm" font-size="24">
   2.0
  </text>
  <circle cx="33.499818mm" cy="361.500055mm" r="2.000011mm" fill="none"/>
  <line x1="37.499840mm" y1="361.500055mm" x2="29.499795mm" y2="361.500055mm" />
  <line x1="33.499818mm" y1="357.500033mm" x2="33.499818mm" y2="365.500077mm" />
  <text x="35mm" y="359mm" font-size="24">
   4.0
  </text>
  <circle cx="39.499818mm" cy="19.000055mm" r="2.000011mm" fill="none"/>
  <line x1="43.499840mm" y1="19.000055mm" x2="35.499795mm" y2="19.000055mm" />
  <line x1="39.499818mm" y1="15.000033mm" x2="39.499818mm" y2="23.000077mm" />
  <text x="41mm" y="17mm" font-size="24">
   4.0
  </text>
  <circle cx="39.500000mm" cy="8.499997mm" r="0.999978mm" fill="none"/>
  <line x1="41.499956mm" y1="8.499997mm" x2="37.500044mm" y2="8.499997mm" />
  <line x1="39.500000mm" y1="6.500041mm" x2="39.500000mm" y2="10.499953mm" />
  <text x="40mm" y="7mm" font-size="24">
   2.0
  </text>
  <circle cx="43.120170mm" cy="427.499939mm" r="2.500268mm" fill="none"/>
  <line x1="48.120707mm" y1="427.499939mm" x2="38.119633mm" y2="427.499939mm" />
  <line x1="43.120170mm" y1="422.499402mm" x2="43.120170mm" y2="432.500476mm" />
  <text x="45mm" y="424mm" font-size="24">
   5.0
  </text>
  <circle cx="48.499659mm" cy="373.500016mm" r="1.000019mm" fill="none"/>
  <line x1="50.499698mm" y1="373.500016mm" x2="46.499621mm" y2="373.500016mm" />
  <line x1="48.499659mm" y1="371.499978mm" x2="48.499659mm" y2="375.500054mm" />
  <text x="49mm" y="372mm" font-size="24">
   2.0
  </text>
  <circle cx="74.500000mm" cy="8.499997mm" r="0.999978mm" fill="none"/>
  <line x1="76.499956mm" y1="8.499997mm" x2="72.500044mm" y2="8.499997mm" />
  <line x1="74.500000mm" y1="6.500041mm" x2="74.500000mm" y2="10.499953mm" />
  <text x="75mm" y="7mm" font-size="24">
   2.0
  </text>
  <circle cx="76.700066mm" cy="398.290138mm" r="1.000138mm" fill="none"/>
  <line x1="78.700342mm" y1="398.290138mm" x2="74.699790mm" y2="398.290138mm" />
  <line x1="76.700066mm" y1="396.289862mm" x2="76.700066mm" y2="400.290414mm" />
  <text x="77mm" y="397mm" font-size="24">
   2.0
  </text>
  <circle cx="76.700066mm" cy="36.710138mm" r="1.000138mm" fill="none"/>
  <line x1="78.700342mm" y1="36.710138mm" x2="74.699790mm" y2="36.710138mm" />
  <line x1="76.700066mm" y1="34.709862mm" x2="76.700066mm" y2="38.710414mm" />
  <text x="77mm" y="35mm" font-size="24">
   2.0
  </text>
  <circle cx="77.500000mm" cy="65.819997mm" r="0.999978mm" fill="none"/>
  <line x1="79.499956mm" y1="65.819997mm" x2="75.500044mm" y2="65.819997mm" />
  <line x1="77.500000mm" y1="63.820041mm" x2="77.500000mm" y2="67.819953mm" />
  <text x="78mm" y="64mm" font-size="24">
   2.0
  </text>
  <circle cx="82.080371mm" cy="426.799769mm" r="1.000161mm" fill="none"/>
  <line x1="84.080692mm" y1="426.799769mm" x2="80.080050mm" y2="426.799769mm" />
  <line x1="82.080371mm" y1="424.799448mm" x2="82.080371mm" y2="428.800090mm" />
  <text x="83mm" y="425mm" font-size="24">
   2.0
  </text>
  <circle cx="103.300371mm" cy="426.799769mm" r="1.000161mm" fill="none"/>
  <line x1="105.300692mm" y1="426.799769mm" x2="101.300050mm" y2="426.799769mm" />
  <line x1="103.300371mm" y1="424.799448mm" x2="103.300371mm" y2="428.800090mm" />
  <text x="104mm" y="425mm" font-size="24">
   2.0
  </text>
  <line x1="125.510000mm" y1="432.248000mm" x2="125.510000mm" y2="432.248000mm" />
  <line x1="125.510000mm" y1="432.248000mm" x2="125.500000mm" y2="228.000000mm" />
  <line x1="125.500000mm" y1="228.000000mm" x2="125.541000mm" y2="227.506000mm" />
  <line x1="125.541000mm" y1="227.506000mm" x2="125.663000mm" y2="227.026000mm" />
  <line x1="125.663000mm" y1="227.026000mm" x2="125.862000mm" y2="226.572000mm" />
  <line x1="125.862000mm" y1="226.572000mm" x2="126.133000mm" y2="226.157000mm" />
  <line x1="126.133000mm" y1="226.157000mm" x2="126.468000mm" y2="225.793000mm" />
  <line x1="126.468000mm" y1="225.793000mm" x2="126.859000mm" y2="225.489000mm" />
  <line x1="126.859000mm" y1="225.489000mm" x2="127.295000mm" y2="225.253000mm" />
  <line x1="127.295000mm" y1="225.253000mm" x2="127.764000mm" y2="225.092000mm" />
  <line x1="127.764000mm" y1="225.092000mm" x2="128.252000mm" y2="225.010000mm" />
  <line x1="128.252000mm" y1="225.010000mm" x2="255.490000mm" y2="225.006000mm" />
  <line x1="255.490000mm" y1="225.006000mm" x2="255.490000mm" y2="230.850000mm" />
  <line x1="255.490000mm" y1="230.850000mm" x2="292.510000mm" y2="230.850000mm" />
  <line x1="292.510000mm" y1="230.850000mm" x2="292.510000mm" y2="225.004000mm" />
  <line x1="292.510000mm" y1="225.004000mm" x2="419.500000mm" y2="225.000000mm" />
  <line x1="419.500000mm" y1="225.000000mm" x2="419.994000mm" y2="225.041000mm" />
  <line x1="419.994000mm" y1="225.041000mm" x2="420.474000mm" y2="225.163000mm" />
  <line x1="420.474000mm" y1="225.163000mm" x2="420.928000mm" y2="225.362000mm" />
  <line x1="420.928000mm" y1="225.362000mm" x2="421.343000mm" y2="225.633000mm" />
  <line x1="421.343000mm" y1="225.633000mm" x2="421.707000mm" y2="225.968000mm" />
  <line x1="421.707000mm" y1="225.968000mm" x2="422.011000mm" y2="226.359000mm" />
  <line x1="422.011000mm" y1="226.359000mm" x2="422.247000mm" y2="226.795000mm" />
  <line x1="422.247000mm" y1="226.795000mm" x2="422.408000mm" y2="227.264000mm" />
  <line x1="422.408000mm" y1="227.264000mm" x2="422.490000mm" y2="227.752000mm" />
  <line x1="422.490000mm" y1="227.752000mm" x2="422.500000mm" y2="432.000000mm" />
  <line x1="422.500000mm" y1="432.000000mm" x2="422.459000mm" y2="432.494000mm" />
  <line x1="422.459000mm" y1="432.494000mm" x2="422.337000mm" y2="432.974000mm" />
  <line x1="422.337000mm" y1="432.974000mm" x2="422.138000mm" y2="433.428000mm" />
  <line x1="422.138000mm" y1="433.428000mm" x2="421.867000mm" y2="433.843000mm" />
  <line x1="421.867000mm" y1="433.843000mm" x2="421.532000mm" y2="434.207000mm" />
  <line x1="421.532000mm" y1="434.207000mm" x2="421.141000mm" y2="434.511000mm" />
  <line x1="421.141000mm" y1="434.511000mm" x2="420.705000mm" y2="434.747000mm" />
  <line x1="420.705000mm" y1="434.747000mm" x2="420.236000mm" y2="434.908000mm" />
  <line x1="420.236000mm" y1="434.908000mm" x2="419.748000mm" y2="434.990000mm" />
  <line x1="419.748000mm" y1="434.990000mm" x2="128.500000mm" y2="435.000000mm" />
  <line x1="128.500000mm" y1="435.000000mm" x2="128.006000mm" y2="434.959000mm" />
  <line x1="128.006000mm" y1="434.959000mm" x2="127.526000mm" y2="434.837000mm" />
  <line x1="127.526000mm" y1="434.837000mm" x2="127.072000mm" y2="434.638000mm" />
  <line x1="127.072000mm" y1="434.638000mm" x2="126.657000mm" y2="434.367000mm" />
  <line x1="126.657000mm" y1="434.367000mm" x2="126.293000mm" y2="434.032000mm" />
  <line x1="126.293000mm" y1="434.032000mm" x2="125.989000mm" y2="433.641000mm" />
  <line x1="125.989000mm" y1="433.641000mm" x2="125.753000mm" y2="433.205000mm" />
  <line x1="125.753000mm" y1="433.205000mm" x2="125.592000mm" y2="432.736000mm" />
  <line x1="125.592000mm" y1="432.736000mm" x2="125.510000mm" y2="432.248000mm" />
  <circle cx="131.999964mm" cy="414.499964mm" r="2.200229mm" fill="none"/>
  <line x1="136.400421mm" y1="414.499964mm" x2="127.599507mm" y2="414.499964mm" />
  <line x1="131.999964mm" y1="410.099507mm" x2="131.999964mm" y2="418.900421mm" />
  <text x="134mm" y="412mm" font-size="24">
   4.4
  </text>
  <circle cx="131.999964mm" cy="269.499964mm" r="2.200229mm" fill="none"/>
  <line x1="136.400421mm" y1="269.499964mm" x2="127.599507mm" y2="269.499964mm" />
  <line x1="131.999964mm" y1="265.099507mm" x2="131.999964mm" y2="273.900421mm" />
  <text x="134mm" y="267mm" font-size="24">
   4.4
  </text>
  <circle cx="135.500087mm" cy="425.000061mm" r="1.250061mm" fill="none"/>
  <line x1="138.000208mm" y1="425.000061mm" x2="132.999966mm" y2="425.000061mm" />
  <line x1="135.500087mm" y1="422.499939mm" x2="135.500087mm" y2="427.500182mm" />
  <text x="136mm" y="423mm" font-size="24">
   2.5
  </text>
  <circle cx="135.500087mm" cy="235.000061mm" r="1.250061mm" fill="none"/>
  <line x1="138.000208mm" y1="235.000061mm" x2="132.999966mm" y2="235.000061mm" />
  <line x1="135.500087mm" y1="232.499939mm" x2="135.500087mm" y2="237.500182mm" />
  <text x="136mm" y="233mm" font-size="24">
   2.5
  </text>
  <circle cx="168.999964mm" cy="390.499964mm" r="2.200229mm" fill="none"/>
  <line x1="173.400421mm" y1="390.499964mm" x2="164.599507mm" y2="390.499964mm" />
  <line x1="168.999964mm" y1="386.099507mm" x2="168.999964mm" y2="394.900421mm" />
  <text x="171mm" y="388mm" font-size="24">
   4.4
  </text>
  <circle cx="168.999964mm" cy="245.499964mm" r="2.200229mm" fill="none"/>
  <line x1="173.400421mm" y1="245.499964mm" x2="164.599507mm" y2="245.499964mm" />
  <line x1="168.999964mm" y1="241.099507mm" x2="168.999964mm" y2="249.900421mm" />
  <text x="171mm" y="243mm" font-size="24">
   4.4
  </text>
  <circle cx="242.489999mm" cy="380.174893mm" r="1.650220mm" fill="none"/>
  <line x1="245.790439mm" y1="380.174893mm" x2="239.189559mm" y2="380.174893mm" />
  <line x1="242.489999mm" y1="376.874453mm" x2="242.489999mm" y2="383.475333mm" />
  <text x="244mm" y="378mm" font-size="24">
   3.3
  </text>
  <circle cx="242.489999mm" cy="365.525893mm" r="1.650220mm" fill="none"/>
  <line x1="245.790439mm" y1="365.525893mm" x2="239.189559mm" y2="365.525893mm" />
  <line x1="242.489999mm" y1="362.225453mm" x2="242.489999mm" y2="368.826333mm" />
  <text x="244mm" y="363mm" font-size="24">
   3.3
  </text>
  <circle cx="242.489767mm" cy="298.324407mm" r="1.650015mm" fill="none"/>
  <line x1="245.789796mm" y1="298.324407mm" x2="239.189737mm" y2="298.324407mm" />
  <line x1="242.489767mm" y1="295.024377mm" x2="242.489767mm" y2="301.624436mm" />
  <text x="244mm" y="296mm" font-size="24">
   3.3
  </text>
  <circle cx="242.489767mm" cy="283.675407mm" r="1.650015mm" fill="none"/>
  <line x1="245.789796mm" y1="283.675407mm" x2="239.189737mm" y2="283.675407mm" />
  <line x1="242.489767mm" y1="280.375377mm" x2="242.489767mm" y2="286.975436mm" />
  <text x="244mm" y="282mm" font-size="24">
   3.3
  </text>
  <circle cx="252.789964mm" cy="236.699964mm" r="2.200229mm" fill="none"/>
  <line x1="257.190421mm" y1="236.699964mm" x2="248.389507mm" y2="236.699964mm" />
  <line x1="252.789964mm" y1="232.299507mm" x2="252.789964mm" y2="241.100421mm" />
  <text x="254mm" y="234mm" font-size="24">
   4.4
  </text>
  <circle cx="295.209964mm" cy="236.699964mm" r="2.200229mm" fill="none"/>
  <line x1="299.610421mm" y1="236.699964mm" x2="290.809507mm" y2="236.699964mm" />
  <line x1="295.209964mm" y1="232.299507mm" x2="295.209964mm" y2="241.100421mm" />
  <text x="297mm" y="234mm" font-size="24">
   4.4
  </text>
  <circle cx="378.999964mm" cy="341.999964mm" r="2.200229mm" fill="none"/>
  <line x1="383.400421mm" y1="341.999964mm" x2="374.599507mm" y2="341.999964mm" />
  <line x1="378.999964mm" y1="337.599507mm" x2="378.999964mm" y2="346.400421mm" />
  <text x="381mm" y="339mm" font-size="24">
   4.4
  </text>
  <circle cx="412.500087mm" cy="425.000061mm" r="1.250061mm" fill="none"/>
  <line x1="415.000208mm" y1="425.000061mm" x2="409.999966mm" y2="425.000061mm" />
  <line x1="412.500087mm" y1="422.499939mm" x2="412.500087mm" y2="427.500182mm" />
  <text x="413mm" y="423mm" font-size="24">
   2.5
  </text>
  <circle cx="412.500087mm" cy="235.000061mm" r="1.250061mm" fill="none"/>
  <line x1="415.000208mm" y1="235.000061mm" x2="409.999966mm" y2="235.000061mm" />
  <line x1="412.500087mm" y1="232.499939mm" x2="412.500087mm" y2="237.500182mm" />
  <text x="413mm" y="233mm" font-size="24">
   2.5
  </text>
  <circle cx="415.999964mm" cy="317.999964mm" r="2.200229mm" fill="none"/>
  <line x1="420.400421mm" y1="317.999964mm" x2="411.599507mm" y2="317.999964mm" />
  <line x1="415.999964mm" y1="313.599507mm" x2="415.999964mm" y2="322.400421mm" />
  <text x="418mm" y="315mm" font-size="24">
   4.4
  </text>
  <circle cx="448.500000mm" cy="65.819997mm" r="0.999978mm" fill="none"/>
  <line x1="450.499956mm" y1="65.819997mm" x2="446.500044mm" y2="65.819997mm" />
  <line x1="448.500000mm" y1="63.820041mm" x2="448.500000mm" y2="67.819953mm" />
  <text x="449mm" y="64mm" font-size="24">
   2.0
  </text>
  <circle cx="449.300000mm" cy="398.289997mm" r="0.999978mm" fill="none"/>
  <line x1="451.299956mm" y1="398.289997mm" x2="447.300044mm" y2="398.289997mm" />
  <line x1="449.300000mm" y1="396.290041mm" x2="449.300000mm" y2="400.289953mm" />
  <text x="450mm" y="397mm" font-size="24">
   2.0
  </text>
  <circle cx="449.300000mm" cy="36.709997mm" r="0.999978mm" fill="none"/>
  <line x1="451.299956mm" y1="36.709997mm" x2="447.300044mm" y2="36.709997mm" />
  <line x1="449.300000mm" y1="34.710041mm" x2="449.300000mm" y2="38.709953mm" />
  <text x="450mm" y="35mm" font-size="24">
   2.0
  </text>
  <circle cx="449.500000mm" cy="8.499997mm" r="0.999978mm" fill="none"/>
  <line x1="451.499956mm" y1="8.499997mm" x2="447.500044mm" y2="8.499997mm" />
  <line x1="449.500000mm" y1="6.500041mm" x2="449.500000mm" y2="10.499953mm" />
  <text x="450mm" y="7mm" font-size="24">
   2.0
  </text>
  <circle cx="468.499659mm" cy="373.500016mm" r="1.000019mm" fill="none"/>
  <line x1="470.499698mm" y1="373.500016mm" x2="466.499621mm" y2="373.500016mm" />
  <line x1="468.499659mm" y1="371.499978mm" x2="468.499659mm" y2="375.500054mm" />
  <text x="469mm" y="372mm" font-size="24">
   2.0
  </text>
  <circle cx="479.200371mm" cy="426.799769mm" r="1.000161mm" fill="none"/>
  <line x1="481.200692mm" y1="426.799769mm" x2="477.200050mm" y2="426.799769mm" />
  <line x1="479.200371mm" y1="424.799448mm" x2="479.200371mm" y2="428.800090mm" />
  <text x="480mm" y="425mm" font-size="24">
   2.0
  </text>
  <circle cx="483.500170mm" cy="414.099939mm" r="2.500268mm" fill="none"/>
  <line x1="488.500707mm" y1="414.099939mm" x2="478.499633mm" y2="414.099939mm" />
  <line x1="483.500170mm" y1="409.099402mm" x2="483.500170mm" y2="419.100476mm" />
  <text x="486mm" y="411mm" font-size="24">
   5.0
  </text>
  <circle cx="484.500000mm" cy="8.499997mm" r="0.999978mm" fill="none"/>
  <line x1="486.499956mm" y1="8.499997mm" x2="482.500044mm" y2="8.499997mm" />
  <line x1="484.500000mm" y1="6.500041mm" x2="484.500000mm" y2="10.499953mm" />
  <text x="485mm" y="7mm" font-size="24">
   2.0
  </text>
  <circle cx="500.420371mm" cy="426.799769mm" r="1.000161mm" fill="none"/>
  <line x1="502.420692mm" y1="426.799769mm" x2="498.420050mm" y2="426.799769mm" />
  <line x1="500.420371mm" y1="424.799448mm" x2="500.420371mm" y2="428.800090mm" />
  <text x="501mm" y="425mm" font-size="24">
   2.0
  </text>
  <circle cx="500.499659mm" cy="373.500016mm" r="1.000019mm" fill="none"/>
  <line x1="502.499698mm" y1="373.500016mm" x2="498.499621mm" y2="373.500016mm" />
  <line x1="500.499659mm" y1="371.499978mm" x2="500.499659mm" y2="375.500054mm" />
  <text x="501mm" y="372mm" font-size="24">
   2.0
  </text>
  <circle cx="510.799659mm" cy="12.000016mm" r="1.000019mm" fill="none"/>
  <line x1="512.799698mm" y1="12.000016mm" x2="508.799621mm" y2="12.000016mm" />
  <line x1="510.799659mm" y1="9.999978mm" x2="510.799659mm" y2="14.000054mm" />
  <text x="511mm" y="10mm" font-size="24">
   2.0
  </text>
  <circle cx="530.580371mm" cy="426.799769mm" r="1.000161mm" fill="none"/>
  <line x1="532.580692mm" y1="426.799769mm" x2="528.580050mm" y2="426.799769mm" />
  <line x1="530.580371mm" y1="424.799448mm" x2="530.580371mm" y2="428.800090mm" />
  <text x="531mm" y="425mm" font-size="24">
   2.0
  </text>
  <circle cx="545.199659mm" cy="12.000016mm" r="1.000019mm" fill="none"/>
  <line x1="547.199698mm" y1="12.000016mm" x2="543.199621mm" y2="12.000016mm" />
  <line x1="545.199659mm" y1="9.999978mm" x2="545.199659mm" y2="14.000054mm" />
  <text x="546mm" y="10mm" font-size="24">
   2.0
  </text>
  <circle cx="551.800371mm" cy="426.799769mm" r="1.000161mm" fill="none"/>
  <line x1="553.800692mm" y1="426.799769mm" x2="549.800050mm" y2="426.799769mm" />
  <line x1="551.800371mm" y1="424.799448mm" x2="551.800371mm" y2="428.800090mm" />
  <text x="552mm" y="425mm" font-size="24">
   2.0
  </text>
 </g>
</svg>
