  0
SECTION
  2
BLOCKS
  0
ENDSEC
  0
SECTION
  2
ENTITIES
  0
LINE
  8
0
 10
-272.721
 11
-272.721
 20
104.861
 21
105.339
  0
LINE
  8
0
 10
-272.721
 11
-272.499
 20
105.339
 21
105.763
  0
LINE
  8
0
 10
-272.499
 11
-272.105
 20
105.763
 21
106.035
  0
LINE
  8
0
 10
-272.105
 11
-271.629
 20
106.035
 21
106.093
  0
LINE
  8
0
 10
-271.629
 11
-271.182
 20
106.093
 21
105.923
  0
LINE
  8
0
 10
-271.182
 11
-270.865
 20
105.923
 21
105.565
  0
LINE
  8
0
 10
-270.865
 11
-270.75
 20
105.565
 21
105.1
  0
LINE
  8
0
 10
-270.75
 11
-270.865
 20
105.1
 21
104.635
  0
LINE
  8
0
 10
-270.865
 11
-271.182
 20
104.635
 21
104.277
  0
LINE
  8
0
 10
-271.182
 11
-271.629
 20
104.277
 21
104.107
  0
LINE
  8
0
 10
-271.629
 11
-272.105
 20
104.107
 21
104.165
  0
LINE
  8
0
 10
-272.105
 11
-272.499
 20
104.165
 21
104.437
  0
LINE
  8
0
 10
-272.499
 11
-272.721
 20
104.437
 21
104.861
  0
LINE
  8
0
 10
-272.721
 11
-272.721
 20
146.261
 21
146.739
  0
LINE
  8
0
 10
-272.721
 11
-272.499
 20
146.739
 21
147.163
  0
LINE
  8
0
 10
-272.499
 11
-272.105
 20
147.163
 21
147.435
  0
LINE
  8
0
 10
-272.105
 11
-271.629
 20
147.435
 21
147.493
  0
LINE
  8
0
 10
-271.629
 11
-271.182
 20
147.493
 21
147.323
  0
LINE
  8
0
 10
-271.182
 11
-270.865
 20
147.323
 21
146.965
  0
LINE
  8
0
 10
-270.865
 11
-270.75
 20
146.965
 21
146.5
  0
LINE
  8
0
 10
-270.75
 11
-270.865
 20
146.5
 21
146.035
  0
LINE
  8
0
 10
-270.865
 11
-271.182
 20
146.035
 21
145.677
  0
LINE
  8
0
 10
-271.182
 11
-271.629
 20
145.677
 21
145.507
  0
LINE
  8
0
 10
-271.629
 11
-272.105
 20
145.507
 21
145.565
  0
LINE
  8
0
 10
-272.105
 11
-272.499
 20
145.565
 21
145.837
  0
LINE
  8
0
 10
-272.499
 11
-272.721
 20
145.837
 21
146.261
  0
LINE
  8
0
 10
-270.55
 11
-270.435
 20
8.2
 21
8.665
  0
LINE
  8
0
 10
-270.435
 11
-270.118
 20
8.665
 21
9.023
  0
LINE
  8
0
 10
-270.118
 11
-269.671
 20
9.023
 21
9.193
  0
LINE
  8
0
 10
-269.671
 11
-269.195
 20
9.193
 21
9.135
  0
LINE
  8
0
 10
-269.195
 11
-268.801
 20
9.135
 21
8.863
  0
LINE
  8
0
 10
-268.801
 11
-268.579
 20
8.863
 21
8.439
  0
LINE
  8
0
 10
-268.579
 11
-268.579
 20
8.439
 21
7.961
  0
LINE
  8
0
 10
-268.579
 11
-268.801
 20
7.961
 21
7.537
  0
LINE
  8
0
 10
-268.801
 11
-269.195
 20
7.537
 21
7.265
  0
LINE
  8
0
 10
-269.195
 11
-269.671
 20
7.265
 21
7.207
  0
LINE
  8
0
 10
-269.671
 11
-270.118
 20
7.207
 21
7.377
  0
LINE
  8
0
 10
-270.118
 11
-270.435
 20
7.377
 21
7.735
  0
LINE
  8
0
 10
-270.435
 11
-270.55
 20
7.735
 21
8.2
  0
LINE
  8
0
 10
-263.721
 11
-263.721
 20
61.261
 21
61.739
  0
LINE
  8
0
 10
-263.721
 11
-263.499
 20
61.739
 21
62.163
  0
LINE
  8
0
 10
-263.499
 11
-263.105
 20
62.163
 21
62.435
  0
LINE
  8
0
 10
-263.105
 11
-262.629
 20
62.435
 21
62.493
  0
LINE
  8
0
 10
-262.629
 11
-262.182
 20
62.493
 21
62.323
  0
LINE
  8
0
 10
-262.182
 11
-261.865
 20
62.323
 21
61.965
  0
LINE
  8
0
 10
-261.865
 11
-261.75
 20
61.965
 21
61.5
  0
LINE
  8
0
 10
-261.75
 11
-261.865
 20
61.5
 21
61.035
  0
LINE
  8
0
 10
-261.865
 11
-262.182
 20
61.035
 21
60.677
  0
LINE
  8
0
 10
-262.182
 11
-262.629
 20
60.677
 21
60.507
  0
LINE
  8
0
 10
-262.629
 11
-263.105
 20
60.507
 21
60.565
  0
LINE
  8
0
 10
-263.105
 11
-263.499
 20
60.565
 21
60.837
  0
LINE
  8
0
 10
-263.499
 11
-263.721
 20
60.837
 21
61.261
  0
LINE
  8
0
 10
-249.33
 11
-249.215
 20
8.2
 21
8.665
  0
LINE
  8
0
 10
-249.215
 11
-248.898
 20
8.665
 21
9.023
  0
LINE
  8
0
 10
-248.898
 11
-248.451
 20
9.023
 21
9.193
  0
LINE
  8
0
 10
-248.451
 11
-247.975
 20
9.193
 21
9.135
  0
LINE
  8
0
 10
-247.975
 11
-247.581
 20
9.135
 21
8.863
  0
LINE
  8
0
 10
-247.581
 11
-247.359
 20
8.863
 21
8.439
  0
LINE
  8
0
 10
-247.359
 11
-247.359
 20
8.439
 21
7.961
  0
LINE
  8
0
 10
-247.359
 11
-247.581
 20
7.961
 21
7.537
  0
LINE
  8
0
 10
-247.581
 11
-247.975
 20
7.537
 21
7.265
  0
LINE
  8
0
 10
-247.975
 11
-248.451
 20
7.265
 21
7.207
  0
LINE
  8
0
 10
-248.451
 11
-248.898
 20
7.207
 21
7.377
  0
LINE
  8
0
 10
-248.898
 11
-249.215
 20
7.377
 21
7.735
  0
LINE
  8
0
 10
-249.215
 11
-249.33
 20
7.735
 21
8.2
  0
LINE
  8
0
 10
-247.75
 11
-247.692
 20
73.5
 21
73.979
  0
LINE
  8
0
 10
-247.692
 11
-247.521
 20
73.979
 21
74.429
  0
LINE
  8
0
 10
-247.521
 11
-247.247
 20
74.429
 21
74.826
  0
LINE
  8
0
 10
-247.247
 11
-246.886
 20
74.826
 21
75.146
  0
LINE
  8
0
 10
-246.886
 11
-246.459
 20
75.146
 21
75.37
  0
LINE
  8
0
 10
-246.459
 11
-245.991
 20
75.37
 21
75.485
  0
LINE
  8
0
 10
-245.991
 11
-245.509
 20
75.485
 21
75.485
  0
LINE
  8
0
 10
-245.509
 11
-245.041
 20
75.485
 21
75.37
  0
LINE
  8
0
 10
-245.041
 11
-244.614
 20
75.37
 21
75.146
  0
LINE
  8
0
 10
-244.614
 11
-244.253
 20
75.146
 21
74.826
  0
LINE
  8
0
 10
-244.253
 11
-243.979
 20
74.826
 21
74.429
  0
LINE
  8
0
 10
-243.979
 11
-243.808
 20
74.429
 21
73.979
  0
LINE
  8
0
 10
-243.808
 11
-243.75
 20
73.979
 21
73.5
  0
LINE
  8
0
 10
-243.75
 11
-243.808
 20
73.5
 21
73.021
  0
LINE
  8
0
 10
-243.808
 11
-243.979
 20
73.021
 21
72.571
  0
LINE
  8
0
 10
-243.979
 11
-244.253
 20
72.571
 21
72.174
  0
LINE
  8
0
 10
-244.253
 11
-244.614
 20
72.174
 21
71.854
  0
LINE
  8
0
 10
-244.614
 11
-245.041
 20
71.854
 21
71.63
  0
LINE
  8
0
 10
-245.041
 11
-245.509
 20
71.63
 21
71.515
  0
LINE
  8
0
 10
-245.509
 11
-245.991
 20
71.515
 21
71.515
  0
LINE
  8
0
 10
-245.991
 11
-246.459
 20
71.515
 21
71.63
  0
LINE
  8
0
 10
-246.459
 11
-246.886
 20
71.63
 21
71.854
  0
LINE
  8
0
 10
-246.886
 11
-247.247
 20
71.854
 21
72.174
  0
LINE
  8
0
 10
-247.247
 11
-247.521
 20
72.174
 21
72.571
  0
LINE
  8
0
 10
-247.521
 11
-247.692
 20
72.571
 21
73.021
  0
LINE
  8
0
 10
-247.692
 11
-247.75
 20
73.021
 21
73.5
  0
LINE
  8
0
 10
-241.75
 11
-241.692
 20
411
 21
411.479
  0
LINE
  8
0
 10
-241.692
 11
-241.521
 20
411.479
 21
411.929
  0
LINE
  8
0
 10
-241.521
 11
-241.247
 20
411.929
 21
412.326
  0
LINE
  8
0
 10
-241.247
 11
-240.886
 20
412.326
 21
412.646
  0
LINE
  8
0
 10
-240.886
 11
-240.459
 20
412.646
 21
412.87
  0
LINE
  8
0
 10
-240.459
 11
-239.991
 20
412.87
 21
412.985
  0
LINE
  8
0
 10
-239.991
 11
-239.509
 20
412.985
 21
412.985
  0
LINE
  8
0
 10
-239.509
 11
-239.041
 20
412.985
 21
412.87
  0
LINE
  8
0
 10
-239.041
 11
-238.614
 20
412.87
 21
412.646
  0
LINE
  8
0
 10
-238.614
 11
-238.253
 20
412.646
 21
412.326
  0
LINE
  8
0
 10
-238.253
 11
-237.979
 20
412.326
 21
411.929
  0
LINE
  8
0
 10
-237.979
 11
-237.808
 20
411.929
 21
411.479
  0
LINE
  8
0
 10
-237.808
 11
-237.75
 20
411.479
 21
411
  0
LINE
  8
0
 10
-237.75
 11
-237.808
 20
411
 21
410.521
  0
LINE
  8
0
 10
-237.808
 11
-237.979
 20
410.521
 21
410.071
  0
LINE
  8
0
 10
-237.979
 11
-238.253
 20
410.071
 21
409.674
  0
LINE
  8
0
 10
-238.253
 11
-238.614
 20
409.674
 21
409.354
  0
LINE
  8
0
 10
-238.614
 11
-239.041
 20
409.354
 21
409.13
  0
LINE
  8
0
 10
-239.041
 11
-239.509
 20
409.13
 21
409.015
  0
LINE
  8
0
 10
-239.509
 11
-239.991
 20
409.015
 21
409.015
  0
LINE
  8
0
 10
-239.991
 11
-240.459
 20
409.015
 21
409.13
  0
LINE
  8
0
 10
-240.459
 11
-240.886
 20
409.13
 21
409.354
  0
LINE
  8
0
 10
-240.886
 11
-241.247
 20
409.354
 21
409.674
  0
LINE
  8
0
 10
-241.247
 11
-241.521
 20
409.674
 21
410.071
  0
LINE
  8
0
 10
-241.521
 11
-241.692
 20
410.071
 21
410.521
  0
LINE
  8
0
 10
-241.692
 11
-241.75
 20
410.521
 21
411
  0
LINE
  8
0
 10
-240.743
 11
-240.685
 20
421.379
 21
421.855
  0
LINE
  8
0
 10
-240.685
 11
-240.413
 20
421.855
 21
422.249
  0
LINE
  8
0
 10
-240.413
 11
-239.989
 20
422.249
 21
422.471
  0
LINE
  8
0
 10
-239.989
 11
-239.511
 20
422.471
 21
422.471
  0
LINE
  8
0
 10
-239.511
 11
-239.087
 20
422.471
 21
422.249
  0
LINE
  8
0
 10
-239.087
 11
-238.815
 20
422.249
 21
421.855
  0
LINE
  8
0
 10
-238.815
 11
-238.757
 20
421.855
 21
421.379
  0
LINE
  8
0
 10
-238.757
 11
-238.927
 20
421.379
 21
420.932
  0
LINE
  8
0
 10
-238.927
 11
-239.285
 20
420.932
 21
420.615
  0
LINE
  8
0
 10
-239.285
 11
-239.75
 20
420.615
 21
420.5
  0
LINE
  8
0
 10
-239.75
 11
-240.215
 20
420.5
 21
420.615
  0
LINE
  8
0
 10
-240.215
 11
-240.573
 20
420.615
 21
420.932
  0
LINE
  8
0
 10
-240.573
 11
-240.743
 20
420.932
 21
421.379
  0
LINE
  8
0
 10
-238.63
 11
-238.582
 20
7.5
 21
7.988
  0
LINE
  8
0
 10
-238.582
 11
-238.44
 20
7.988
 21
8.457
  0
LINE
  8
0
 10
-238.44
 11
-238.209
 20
8.457
 21
8.889
  0
LINE
  8
0
 10
-238.209
 11
-237.898
 20
8.889
 21
9.268
  0
LINE
  8
0
 10
-237.898
 11
-237.519
 20
9.268
 21
9.579
  0
LINE
  8
0
 10
-237.519
 11
-237.087
 20
9.579
 21
9.81
  0
LINE
  8
0
 10
-237.087
 11
-236.618
 20
9.81
 21
9.952
  0
LINE
  8
0
 10
-236.618
 11
-236.13
 20
9.952
 21
10
  0
LINE
  8
0
 10
-236.13
 11
-235.642
 20
10
 21
9.952
  0
LINE
  8
0
 10
-235.642
 11
-235.173
 20
9.952
 21
9.81
  0
LINE
  8
0
 10
-235.173
 11
-234.741
 20
9.81
 21
9.579
  0
LINE
  8
0
 10
-234.741
 11
-234.362
 20
9.579
 21
9.268
  0
LINE
  8
0
 10
-234.362
 11
-234.051
 20
9.268
 21
8.889
  0
LINE
  8
0
 10
-234.051
 11
-233.82
 20
8.889
 21
8.457
  0
LINE
  8
0
 10
-233.82
 11
-233.678
 20
8.457
 21
7.988
  0
LINE
  8
0
 10
-233.678
 11
-233.63
 20
7.988
 21
7.5
  0
LINE
  8
0
 10
-233.63
 11
-233.678
 20
7.5
 21
7.012
  0
LINE
  8
0
 10
-233.678
 11
-233.82
 20
7.012
 21
6.543
  0
LINE
  8
0
 10
-233.82
 11
-234.051
 20
6.543
 21
6.111
  0
LINE
  8
0
 10
-234.051
 11
-234.362
 20
6.111
 21
5.732
  0
LINE
  8
0
 10
-234.362
 11
-234.741
 20
5.732
 21
5.421
  0
LINE
  8
0
 10
-234.741
 11
-235.173
 20
5.421
 21
5.19
  0
LINE
  8
0
 10
-235.173
 11
-235.642
 20
5.19
 21
5.048
  0
LINE
  8
0
 10
-235.642
 11
-236.13
 20
5.048
 21
5
  0
LINE
  8
0
 10
-236.13
 11
-236.618
 20
5
 21
5.048
  0
LINE
  8
0
 10
-236.618
 11
-237.087
 20
5.048
 21
5.19
  0
LINE
  8
0
 10
-237.087
 11
-237.519
 20
5.19
 21
5.421
  0
LINE
  8
0
 10
-237.519
 11
-237.898
 20
5.421
 21
5.732
  0
LINE
  8
0
 10
-237.898
 11
-238.209
 20
5.732
 21
6.111
  0
LINE
  8
0
 10
-238.209
 11
-238.44
 20
6.111
 21
6.543
  0
LINE
  8
0
 10
-238.44
 11
-238.582
 20
6.543
 21
7.012
  0
LINE
  8
0
 10
-238.582
 11
-238.63
 20
7.012
 21
7.5
  0
LINE
  8
0
 10
-231.721
 11
-231.721
 20
61.261
 21
61.739
  0
LINE
  8
0
 10
-231.721
 11
-231.499
 20
61.739
 21
62.163
  0
LINE
  8
0
 10
-231.499
 11
-231.105
 20
62.163
 21
62.435
  0
LINE
  8
0
 10
-231.105
 11
-230.629
 20
62.435
 21
62.493
  0
LINE
  8
0
 10
-230.629
 11
-230.182
 20
62.493
 21
62.323
  0
LINE
  8
0
 10
-230.182
 11
-229.865
 20
62.323
 21
61.965
  0
LINE
  8
0
 10
-229.865
 11
-229.75
 20
61.965
 21
61.5
  0
LINE
  8
0
 10
-229.75
 11
-229.865
 20
61.5
 21
61.035
  0
LINE
  8
0
 10
-229.865
 11
-230.182
 20
61.035
 21
60.677
  0
LINE
  8
0
 10
-230.182
 11
-230.629
 20
60.677
 21
60.507
  0
LINE
  8
0
 10
-230.629
 11
-231.105
 20
60.507
 21
60.565
  0
LINE
  8
0
 10
-231.105
 11
-231.499
 20
60.565
 21
60.837
  0
LINE
  8
0
 10
-231.499
 11
-231.721
 20
60.837
 21
61.261
  0
LINE
  8
0
 10
-205.743
 11
-205.685
 20
421.379
 21
421.855
  0
LINE
  8
0
 10
-205.685
 11
-205.413
 20
421.855
 21
422.249
  0
LINE
  8
0
 10
-205.413
 11
-204.989
 20
422.249
 21
422.471
  0
LINE
  8
0
 10
-204.989
 11
-204.511
 20
422.471
 21
422.471
  0
LINE
  8
0
 10
-204.511
 11
-204.087
 20
422.471
 21
422.249
  0
LINE
  8
0
 10
-204.087
 11
-203.815
 20
422.249
 21
421.855
  0
LINE
  8
0
 10
-203.815
 11
-203.757
 20
421.855
 21
421.379
  0
LINE
  8
0
 10
-203.757
 11
-203.927
 20
421.379
 21
420.932
  0
LINE
  8
0
 10
-203.927
 11
-204.285
 20
420.932
 21
420.615
  0
LINE
  8
0
 10
-204.285
 11
-204.75
 20
420.615
 21
420.5
  0
LINE
  8
0
 10
-204.75
 11
-205.215
 20
420.5
 21
420.615
  0
LINE
  8
0
 10
-205.215
 11
-205.573
 20
420.615
 21
420.932
  0
LINE
  8
0
 10
-205.573
 11
-205.743
 20
420.932
 21
421.379
  0
LINE
  8
0
 10
-204.043
 11
-203.873
 20
36.831
 21
37.278
  0
LINE
  8
0
 10
-203.873
 11
-203.515
 20
37.278
 21
37.595
  0
LINE
  8
0
 10
-203.515
 11
-203.05
 20
37.595
 21
37.71
  0
LINE
  8
0
 10
-203.05
 11
-202.585
 20
37.71
 21
37.595
  0
LINE
  8
0
 10
-202.585
 11
-202.227
 20
37.595
 21
37.278
  0
LINE
  8
0
 10
-202.227
 11
-202.057
 20
37.278
 21
36.831
  0
LINE
  8
0
 10
-202.057
 11
-202.115
 20
36.831
 21
36.355
  0
LINE
  8
0
 10
-202.115
 11
-202.387
 20
36.355
 21
35.961
  0
LINE
  8
0
 10
-202.387
 11
-202.811
 20
35.961
 21
35.739
  0
LINE
  8
0
 10
-202.811
 11
-203.289
 20
35.739
 21
35.739
  0
LINE
  8
0
 10
-203.289
 11
-203.713
 20
35.739
 21
35.961
  0
LINE
  8
0
 10
-203.713
 11
-203.985
 20
35.961
 21
36.355
  0
LINE
  8
0
 10
-203.985
 11
-204.043
 20
36.355
 21
36.831
  0
LINE
  8
0
 10
-204.043
 11
-203.873
 20
393.411
 21
393.858
  0
LINE
  8
0
 10
-203.873
 11
-203.515
 20
393.858
 21
394.175
  0
LINE
  8
0
 10
-203.515
 11
-203.05
 20
394.175
 21
394.29
  0
LINE
  8
0
 10
-203.05
 11
-202.585
 20
394.29
 21
394.175
  0
LINE
  8
0
 10
-202.585
 11
-202.227
 20
394.175
 21
393.858
  0
LINE
  8
0
 10
-202.227
 11
-202.057
 20
393.858
 21
393.411
  0
LINE
  8
0
 10
-202.057
 11
-202.115
 20
393.411
 21
392.935
  0
LINE
  8
0
 10
-202.115
 11
-202.387
 20
392.935
 21
392.541
  0
LINE
  8
0
 10
-202.387
 11
-202.811
 20
392.541
 21
392.319
  0
LINE
  8
0
 10
-202.811
 11
-203.289
 20
392.319
 21
392.319
  0
LINE
  8
0
 10
-203.289
 11
-203.713
 20
392.319
 21
392.541
  0
LINE
  8
0
 10
-203.713
 11
-203.985
 20
392.541
 21
392.935
  0
LINE
  8
0
 10
-203.985
 11
-204.043
 20
392.935
 21
393.411
  0
LINE
  8
0
 10
-203.243
 11
-203.185
 20
364.059
 21
364.535
  0
LINE
  8
0
 10
-203.185
 11
-202.913
 20
364.535
 21
364.929
  0
LINE
  8
0
 10
-202.913
 11
-202.489
 20
364.929
 21
365.151
  0
LINE
  8
0
 10
-202.489
 11
-202.011
 20
365.151
 21
365.151
  0
LINE
  8
0
 10
-202.011
 11
-201.587
 20
365.151
 21
364.929
  0
LINE
  8
0
 10
-201.587
 11
-201.315
 20
364.929
 21
364.535
  0
LINE
  8
0
 10
-201.315
 11
-201.257
 20
364.535
 21
364.059
  0
LINE
  8
0
 10
-201.257
 11
-201.427
 20
364.059
 21
363.612
  0
LINE
  8
0
 10
-201.427
 11
-201.785
 20
363.612
 21
363.295
  0
LINE
  8
0
 10
-201.785
 11
-202.25
 20
363.295
 21
363.18
  0
LINE
  8
0
 10
-202.25
 11
-202.715
 20
363.18
 21
363.295
  0
LINE
  8
0
 10
-202.715
 11
-203.073
 20
363.295
 21
363.612
  0
LINE
  8
0
 10
-203.073
 11
-203.243
 20
363.612
 21
364.059
  0
LINE
  8
0
 10
-199.17
 11
-199.055
 20
8.2
 21
8.665
  0
LINE
  8
0
 10
-199.055
 11
-198.738
 20
8.665
 21
9.023
  0
LINE
  8
0
 10
-198.738
 11
-198.291
 20
9.023
 21
9.193
  0
LINE
  8
0
 10
-198.291
 11
-197.815
 20
9.193
 21
9.135
  0
LINE
  8
0
 10
-197.815
 11
-197.421
 20
9.135
 21
8.863
  0
LINE
  8
0
 10
-197.421
 11
-197.199
 20
8.863
 21
8.439
  0
LINE
  8
0
 10
-197.199
 11
-197.199
 20
8.439
 21
7.961
  0
LINE
  8
0
 10
-197.199
 11
-197.421
 20
7.961
 21
7.537
  0
LINE
  8
0
 10
-197.421
 11
-197.815
 20
7.537
 21
7.265
  0
LINE
  8
0
 10
-197.815
 11
-198.291
 20
7.265
 21
7.207
  0
LINE
  8
0
 10
-198.291
 11
-198.738
 20
7.207
 21
7.377
  0
LINE
  8
0
 10
-198.738
 11
-199.055
 20
7.377
 21
7.735
  0
LINE
  8
0
 10
-199.055
 11
-199.17
 20
7.735
 21
8.2
  0
LINE
  8
0
 10
-177.95
 11
-177.835
 20
8.2
 21
8.665
  0
LINE
  8
0
 10
-177.835
 11
-177.518
 20
8.665
 21
9.023
  0
LINE
  8
0
 10
-177.518
 11
-177.071
 20
9.023
 21
9.193
  0
LINE
  8
0
 10
-177.071
 11
-176.595
 20
9.193
 21
9.135
  0
LINE
  8
0
 10
-176.595
 11
-176.201
 20
9.135
 21
8.863
  0
LINE
  8
0
 10
-176.201
 11
-175.979
 20
8.863
 21
8.439
  0
LINE
  8
0
 10
-175.979
 11
-175.979
 20
8.439
 21
7.961
  0
LINE
  8
0
 10
-175.979
 11
-176.201
 20
7.961
 21
7.537
  0
LINE
  8
0
 10
-176.201
 11
-176.595
 20
7.537
 21
7.265
  0
LINE
  8
0
 10
-176.595
 11
-177.071
 20
7.265
 21
7.207
  0
LINE
  8
0
 10
-177.071
 11
-177.518
 20
7.207
 21
7.377
  0
LINE
  8
0
 10
-177.518
 11
-177.835
 20
7.377
 21
7.735
  0
LINE
  8
0
 10
-177.835
 11
-177.95
 20
7.735
 21
8.2
  0
LINE
  8
0
 10
-279.25
 11
-279.25
 20
0
 21
405
  0
LINE
  8
0
 10
-279.25
 11
-279.155
 20
405
 21
407.179
  0
LINE
  8
0
 10
-279.155
 11
-278.87
 20
407.179
 21
409.341
  0
LINE
  8
0
 10
-278.87
 11
-278.398
 20
409.341
 21
411.47
  0
LINE
  8
0
 10
-278.398
 11
-277.742
 20
411.47
 21
413.551
  0
LINE
  8
0
 10
-277.742
 11
-276.908
 20
413.551
 21
415.565
  0
LINE
  8
0
 10
-276.908
 11
-275.901
 20
415.565
 21
417.5
  0
LINE
  8
0
 10
-275.901
 11
-274.729
 20
417.5
 21
419.339
  0
LINE
  8
0
 10
-274.729
 11
-273.401
 20
419.339
 21
421.07
  0
LINE
  8
0
 10
-273.401
 11
-271.928
 20
421.07
 21
422.678
  0
LINE
  8
0
 10
-271.928
 11
-270.32
 20
422.678
 21
424.151
  0
LINE
  8
0
 10
-270.32
 11
-268.589
 20
424.151
 21
425.479
  0
LINE
  8
0
 10
-268.589
 11
-266.75
 20
425.479
 21
426.651
  0
LINE
  8
0
 10
-266.75
 11
-264.815
 20
426.651
 21
427.658
  0
LINE
  8
0
 10
-264.815
 11
-262.801
 20
427.658
 21
428.492
  0
LINE
  8
0
 10
-262.801
 11
-260.72
 20
428.492
 21
429.148
  0
LINE
  8
0
 10
-260.72
 11
-258.591
 20
429.148
 21
429.62
  0
LINE
  8
0
 10
-258.591
 11
-256.429
 20
429.62
 21
429.905
  0
LINE
  8
0
 10
-256.429
 11
-254.25
 20
429.905
 21
430
  0
LINE
  8
0
 10
-254.25
 11
254.25
 20
430
 21
430
  0
LINE
  8
0
 10
254.25
 11
256.429
 20
430
 21
429.905
  0
LINE
  8
0
 10
256.429
 11
258.591
 20
429.905
 21
429.62
  0
LINE
  8
0
 10
258.591
 11
260.72
 20
429.62
 21
429.148
  0
LINE
  8
0
 10
260.72
 11
262.801
 20
429.148
 21
428.492
  0
LINE
  8
0
 10
262.801
 11
264.815
 20
428.492
 21
427.658
  0
LINE
  8
0
 10
264.815
 11
266.75
 20
427.658
 21
426.651
  0
LINE
  8
0
 10
266.75
 11
268.589
 20
426.651
 21
425.479
  0
LINE
  8
0
 10
268.589
 11
270.32
 20
425.479
 21
424.151
  0
LINE
  8
0
 10
270.32
 11
271.928
 20
424.151
 21
422.678
  0
LINE
  8
0
 10
271.928
 11
273.401
 20
422.678
 21
421.07
  0
LINE
  8
0
 10
273.401
 11
274.729
 20
421.07
 21
419.339
  0
LINE
  8
0
 10
274.729
 11
275.901
 20
419.339
 21
417.5
  0
LINE
  8
0
 10
275.901
 11
276.908
 20
417.5
 21
415.565
  0
LINE
  8
0
 10
276.908
 11
277.742
 20
415.565
 21
413.551
  0
LINE
  8
0
 10
277.742
 11
278.398
 20
413.551
 21
411.47
  0
LINE
  8
0
 10
278.398
 11
278.87
 20
411.47
 21
409.341
  0
LINE
  8
0
 10
278.87
 11
279.155
 20
409.341
 21
407.179
  0
LINE
  8
0
 10
279.155
 11
279.25
 20
407.179
 21
405
  0
LINE
  8
0
 10
279.25
 11
279.25
 20
405
 21
0
  0
LINE
  8
0
 10
279.25
 11
155.25
 20
0
 21
0
  0
LINE
  8
0
 10
155.25
 11
155.25
 20
0
 21
328.1
  0
LINE
  8
0
 10
155.25
 11
155.225
 20
328.1
 21
328.598
  0
LINE
  8
0
 10
155.225
 11
155.151
 20
328.598
 21
329.091
  0
LINE
  8
0
 10
155.151
 11
155.028
 20
329.091
 21
329.574
  0
LINE
  8
0
 10
155.028
 11
154.857
 20
329.574
 21
330.042
  0
LINE
  8
0
 10
154.857
 11
154.641
 20
330.042
 21
330.491
  0
LINE
  8
0
 10
154.641
 11
154.381
 20
330.491
 21
330.917
  0
LINE
  8
0
 10
154.381
 11
154.08
 20
330.917
 21
331.314
  0
LINE
  8
0
 10
154.08
 11
153.741
 20
331.314
 21
331.679
  0
LINE
  8
0
 10
153.741
 11
153.367
 20
331.679
 21
332.009
  0
LINE
  8
0
 10
153.367
 11
152.963
 20
332.009
 21
332.3
  0
LINE
  8
0
 10
152.963
 11
152.531
 20
332.3
 21
332.549
  0
LINE
  8
0
 10
152.531
 11
152.077
 20
332.549
 21
332.754
  0
LINE
  8
0
 10
152.077
 11
151.604
 20
332.754
 21
332.913
  0
LINE
  8
0
 10
151.604
 11
151.118
 20
332.913
 21
333.024
  0
LINE
  8
0
 10
151.118
 11
150.624
 20
333.024
 21
333.086
  0
LINE
  8
0
 10
150.624
 11
150.25
 20
333.086
 21
333.095
  0
LINE
  8
0
 10
150.25
 11
150.25
 20
333.095
 21
333.1
  0
LINE
  8
0
 10
150.25
 11
-162.75
 20
333.1
 21
333.1
  0
LINE
  8
0
 10
-162.75
 11
-162.75
 20
333.1
 21
333.095
  0
LINE
  8
0
 10
-162.75
 11
-162.875
 20
333.095
 21
333.098
  0
LINE
  8
0
 10
-162.875
 11
-163.372
 20
333.098
 21
333.061
  0
LINE
  8
0
 10
-163.372
 11
-163.863
 20
333.061
 21
332.975
  0
LINE
  8
0
 10
-163.863
 11
-164.342
 20
332.975
 21
332.84
  0
LINE
  8
0
 10
-164.342
 11
-164.806
 20
332.84
 21
332.658
  0
LINE
  8
0
 10
-164.806
 11
-165.25
 20
332.658
 21
332.43
  0
LINE
  8
0
 10
-165.25
 11
-165.669
 20
332.43
 21
332.16
  0
LINE
  8
0
 10
-165.669
 11
-166.058
 20
332.16
 21
331.849
  0
LINE
  8
0
 10
-166.058
 11
-166.415
 20
331.849
 21
331.501
  0
LINE
  8
0
 10
-166.415
 11
-166.736
 20
331.501
 21
331.119
  0
LINE
  8
0
 10
-166.736
 11
-167.016
 20
331.119
 21
330.707
  0
LINE
  8
0
 10
-167.016
 11
-167.255
 20
330.707
 21
330.269
  0
LINE
  8
0
 10
-167.255
 11
-167.448
 20
330.269
 21
329.81
  0
LINE
  8
0
 10
-167.448
 11
-167.595
 20
329.81
 21
329.334
  0
LINE
  8
0
 10
-167.595
 11
-167.694
 20
329.334
 21
328.845
  0
LINE
  8
0
 10
-167.694
 11
-167.744
 20
328.845
 21
328.349
  0
LINE
  8
0
 10
-167.744
 11
-167.744
 20
328.349
 21
328.1
  0
LINE
  8
0
 10
-167.744
 11
-167.75
 20
328.1
 21
328.1
  0
LINE
  8
0
 10
-167.75
 11
-167.75
 20
328.1
 21
0
  0
LINE
  8
0
 10
-167.75
 11
-279.25
 20
0
 21
0
  0
LINE
  8
0
 10
163.95
 11
164.065
 20
8.2
 21
8.665
  0
LINE
  8
0
 10
164.065
 11
164.382
 20
8.665
 21
9.023
  0
LINE
  8
0
 10
164.382
 11
164.829
 20
9.023
 21
9.193
  0
LINE
  8
0
 10
164.829
 11
165.305
 20
9.193
 21
9.135
  0
LINE
  8
0
 10
165.305
 11
165.699
 20
9.135
 21
8.863
  0
LINE
  8
0
 10
165.699
 11
165.921
 20
8.863
 21
8.439
  0
LINE
  8
0
 10
165.921
 11
165.921
 20
8.439
 21
7.961
  0
LINE
  8
0
 10
165.921
 11
165.699
 20
7.961
 21
7.537
  0
LINE
  8
0
 10
165.699
 11
165.305
 20
7.537
 21
7.265
  0
LINE
  8
0
 10
165.305
 11
164.829
 20
7.265
 21
7.207
  0
LINE
  8
0
 10
164.829
 11
164.382
 20
7.207
 21
7.377
  0
LINE
  8
0
 10
164.382
 11
164.065
 20
7.377
 21
7.735
  0
LINE
  8
0
 10
164.065
 11
163.95
 20
7.735
 21
8.2
  0
LINE
  8
0
 10
166.257
 11
166.315
 20
421.379
 21
421.855
  0
LINE
  8
0
 10
166.315
 11
166.587
 20
421.855
 21
422.249
  0
LINE
  8
0
 10
166.587
 11
167.011
 20
422.249
 21
422.471
  0
LINE
  8
0
 10
167.011
 11
167.489
 20
422.471
 21
422.471
  0
LINE
  8
0
 10
167.489
 11
167.913
 20
422.471
 21
422.249
  0
LINE
  8
0
 10
167.913
 11
168.185
 20
422.249
 21
421.855
  0
LINE
  8
0
 10
168.185
 11
168.243
 20
421.855
 21
421.379
  0
LINE
  8
0
 10
168.243
 11
168.073
 20
421.379
 21
420.932
  0
LINE
  8
0
 10
168.073
 11
167.715
 20
420.932
 21
420.615
  0
LINE
  8
0
 10
167.715
 11
167.25
 20
420.615
 21
420.5
  0
LINE
  8
0
 10
167.25
 11
166.785
 20
420.5
 21
420.615
  0
LINE
  8
0
 10
166.785
 11
166.427
 20
420.615
 21
420.932
  0
LINE
  8
0
 10
166.427
 11
166.257
 20
420.932
 21
421.379
  0
LINE
  8
0
 10
185.17
 11
185.285
 20
8.2
 21
8.665
  0
LINE
  8
0
 10
185.285
 11
185.602
 20
8.665
 21
9.023
  0
LINE
  8
0
 10
185.602
 11
186.049
 20
9.023
 21
9.193
  0
LINE
  8
0
 10
186.049
 11
186.525
 20
9.193
 21
9.135
  0
LINE
  8
0
 10
186.525
 11
186.919
 20
9.135
 21
8.863
  0
LINE
  8
0
 10
186.919
 11
187.141
 20
8.863
 21
8.439
  0
LINE
  8
0
 10
187.141
 11
187.141
 20
8.439
 21
7.961
  0
LINE
  8
0
 10
187.141
 11
186.919
 20
7.961
 21
7.537
  0
LINE
  8
0
 10
186.919
 11
186.525
 20
7.537
 21
7.265
  0
LINE
  8
0
 10
186.525
 11
186.049
 20
7.265
 21
7.207
  0
LINE
  8
0
 10
186.049
 11
185.602
 20
7.207
 21
7.377
  0
LINE
  8
0
 10
185.602
 11
185.285
 20
7.377
 21
7.735
  0
LINE
  8
0
 10
185.285
 11
185.17
 20
7.735
 21
8.2
  0
LINE
  8
0
 10
185.279
 11
185.279
 20
61.261
 21
61.739
  0
LINE
  8
0
 10
185.279
 11
185.501
 20
61.739
 21
62.163
  0
LINE
  8
0
 10
185.501
 11
185.895
 20
62.163
 21
62.435
  0
LINE
  8
0
 10
185.895
 11
186.371
 20
62.435
 21
62.493
  0
LINE
  8
0
 10
186.371
 11
186.818
 20
62.493
 21
62.323
  0
LINE
  8
0
 10
186.818
 11
187.135
 20
62.323
 21
61.965
  0
LINE
  8
0
 10
187.135
 11
187.25
 20
61.965
 21
61.5
  0
LINE
  8
0
 10
187.25
 11
187.135
 20
61.5
 21
61.035
  0
LINE
  8
0
 10
187.135
 11
186.818
 20
61.035
 21
60.677
  0
LINE
  8
0
 10
186.818
 11
186.371
 20
60.677
 21
60.507
  0
LINE
  8
0
 10
186.371
 11
185.895
 20
60.507
 21
60.565
  0
LINE
  8
0
 10
185.895
 11
185.501
 20
60.565
 21
60.837
  0
LINE
  8
0
 10
185.501
 11
185.279
 20
60.837
 21
61.261
  0
LINE
  8
0
 10
198.75
 11
198.798
 20
7.5
 21
7.988
  0
LINE
  8
0
 10
198.798
 11
198.94
 20
7.988
 21
8.457
  0
LINE
  8
0
 10
198.94
 11
199.171
 20
8.457
 21
8.889
  0
LINE
  8
0
 10
199.171
 11
199.482
 20
8.889
 21
9.268
  0
LINE
  8
0
 10
199.482
 11
199.861
 20
9.268
 21
9.579
  0
LINE
  8
0
 10
199.861
 11
200.293
 20
9.579
 21
9.81
  0
LINE
  8
0
 10
200.293
 11
200.762
 20
9.81
 21
9.952
  0
LINE
  8
0
 10
200.762
 11
201.25
 20
9.952
 21
10
  0
LINE
  8
0
 10
201.25
 11
201.738
 20
10
 21
9.952
  0
LINE
  8
0
 10
201.738
 11
202.207
 20
9.952
 21
9.81
  0
LINE
  8
0
 10
202.207
 11
202.639
 20
9.81
 21
9.579
  0
LINE
  8
0
 10
202.639
 11
203.018
 20
9.579
 21
9.268
  0
LINE
  8
0
 10
203.018
 11
203.329
 20
9.268
 21
8.889
  0
LINE
  8
0
 10
203.329
 11
203.56
 20
8.889
 21
8.457
  0
LINE
  8
0
 10
203.56
 11
203.702
 20
8.457
 21
7.988
  0
LINE
  8
0
 10
203.702
 11
203.75
 20
7.988
 21
7.5
  0
LINE
  8
0
 10
203.75
 11
203.702
 20
7.5
 21
7.012
  0
LINE
  8
0
 10
203.702
 11
203.56
 20
7.012
 21
6.543
  0
LINE
  8
0
 10
203.56
 11
203.329
 20
6.543
 21
6.111
  0
LINE
  8
0
 10
203.329
 11
203.018
 20
6.111
 21
5.732
  0
LINE
  8
0
 10
203.018
 11
202.639
 20
5.732
 21
5.421
  0
LINE
  8
0
 10
202.639
 11
202.207
 20
5.421
 21
5.19
  0
LINE
  8
0
 10
202.207
 11
201.738
 20
5.19
 21
5.048
  0
LINE
  8
0
 10
201.738
 11
201.25
 20
5.048
 21
5
  0
LINE
  8
0
 10
201.25
 11
200.762
 20
5
 21
5.048
  0
LINE
  8
0
 10
200.762
 11
200.293
 20
5.048
 21
5.19
  0
LINE
  8
0
 10
200.293
 11
199.861
 20
5.19
 21
5.421
  0
LINE
  8
0
 10
199.861
 11
199.482
 20
5.421
 21
5.732
  0
LINE
  8
0
 10
199.482
 11
199.171
 20
5.732
 21
6.111
  0
LINE
  8
0
 10
199.171
 11
198.94
 20
6.111
 21
6.543
  0
LINE
  8
0
 10
198.94
 11
198.798
 20
6.543
 21
7.012
  0
LINE
  8
0
 10
198.798
 11
198.75
 20
7.012
 21
7.5
  0
LINE
  8
0
 10
201.257
 11
201.315
 20
421.379
 21
421.855
  0
LINE
  8
0
 10
201.315
 11
201.587
 20
421.855
 21
422.249
  0
LINE
  8
0
 10
201.587
 11
202.011
 20
422.249
 21
422.471
  0
LINE
  8
0
 10
202.011
 11
202.489
 20
422.471
 21
422.471
  0
LINE
  8
0
 10
202.489
 11
202.913
 20
422.471
 21
422.249
  0
LINE
  8
0
 10
202.913
 11
203.185
 20
422.249
 21
421.855
  0
LINE
  8
0
 10
203.185
 11
203.243
 20
421.855
 21
421.379
  0
LINE
  8
0
 10
203.243
 11
203.073
 20
421.379
 21
420.932
  0
LINE
  8
0
 10
203.073
 11
202.715
 20
420.932
 21
420.615
  0
LINE
  8
0
 10
202.715
 11
202.25
 20
420.615
 21
420.5
  0
LINE
  8
0
 10
202.25
 11
201.785
 20
420.5
 21
420.615
  0
LINE
  8
0
 10
201.785
 11
201.427
 20
420.615
 21
420.932
  0
LINE
  8
0
 10
201.427
 11
201.257
 20
420.932
 21
421.379
  0
LINE
  8
0
 10
213.757
 11
213.815
 20
364.059
 21
364.535
  0
LINE
  8
0
 10
213.815
 11
214.087
 20
364.535
 21
364.929
  0
LINE
  8
0
 10
214.087
 11
214.511
 20
364.929
 21
365.151
  0
LINE
  8
0
 10
214.511
 11
214.989
 20
365.151
 21
365.151
  0
LINE
  8
0
 10
214.989
 11
215.413
 20
365.151
 21
364.929
  0
LINE
  8
0
 10
215.413
 11
215.685
 20
364.929
 21
364.535
  0
LINE
  8
0
 10
215.685
 11
215.743
 20
364.535
 21
364.059
  0
LINE
  8
0
 10
215.743
 11
215.573
 20
364.059
 21
363.612
  0
LINE
  8
0
 10
215.573
 11
215.215
 20
363.612
 21
363.295
  0
LINE
  8
0
 10
215.215
 11
214.75
 20
363.295
 21
363.18
  0
LINE
  8
0
 10
214.75
 11
214.285
 20
363.18
 21
363.295
  0
LINE
  8
0
 10
214.285
 11
213.927
 20
363.295
 21
363.612
  0
LINE
  8
0
 10
213.927
 11
213.757
 20
363.612
 21
364.059
  0
LINE
  8
0
 10
214.557
 11
214.615
 20
36.589
 21
37.065
  0
LINE
  8
0
 10
214.615
 11
214.887
 20
37.065
 21
37.459
  0
LINE
  8
0
 10
214.887
 11
215.311
 20
37.459
 21
37.681
  0
LINE
  8
0
 10
215.311
 11
215.789
 20
37.681
 21
37.681
  0
LINE
  8
0
 10
215.789
 11
216.213
 20
37.681
 21
37.459
  0
LINE
  8
0
 10
216.213
 11
216.485
 20
37.459
 21
37.065
  0
LINE
  8
0
 10
216.485
 11
216.543
 20
37.065
 21
36.589
  0
LINE
  8
0
 10
216.543
 11
216.373
 20
36.589
 21
36.142
  0
LINE
  8
0
 10
216.373
 11
216.015
 20
36.142
 21
35.825
  0
LINE
  8
0
 10
216.015
 11
215.55
 20
35.825
 21
35.71
  0
LINE
  8
0
 10
215.55
 11
215.085
 20
35.71
 21
35.825
  0
LINE
  8
0
 10
215.085
 11
214.727
 20
35.825
 21
36.142
  0
LINE
  8
0
 10
214.727
 11
214.557
 20
36.142
 21
36.589
  0
LINE
  8
0
 10
214.557
 11
214.615
 20
393.169
 21
393.645
  0
LINE
  8
0
 10
214.615
 11
214.887
 20
393.645
 21
394.039
  0
LINE
  8
0
 10
214.887
 11
215.311
 20
394.039
 21
394.261
  0
LINE
  8
0
 10
215.311
 11
215.789
 20
394.261
 21
394.261
  0
LINE
  8
0
 10
215.789
 11
216.213
 20
394.261
 21
394.039
  0
LINE
  8
0
 10
216.213
 11
216.485
 20
394.039
 21
393.645
  0
LINE
  8
0
 10
216.485
 11
216.543
 20
393.645
 21
393.169
  0
LINE
  8
0
 10
216.543
 11
216.373
 20
393.169
 21
392.722
  0
LINE
  8
0
 10
216.373
 11
216.015
 20
392.722
 21
392.405
  0
LINE
  8
0
 10
216.015
 11
215.55
 20
392.405
 21
392.29
  0
LINE
  8
0
 10
215.55
 11
215.085
 20
392.29
 21
392.405
  0
LINE
  8
0
 10
215.085
 11
214.727
 20
392.405
 21
392.722
  0
LINE
  8
0
 10
214.727
 11
214.557
 20
392.722
 21
393.169
  0
LINE
  8
0
 10
217.279
 11
217.279
 20
61.261
 21
61.739
  0
LINE
  8
0
 10
217.279
 11
217.501
 20
61.739
 21
62.163
  0
LINE
  8
0
 10
217.501
 11
217.895
 20
62.163
 21
62.435
  0
LINE
  8
0
 10
217.895
 11
218.371
 20
62.435
 21
62.493
  0
LINE
  8
0
 10
218.371
 11
218.818
 20
62.493
 21
62.323
  0
LINE
  8
0
 10
218.818
 11
219.135
 20
62.323
 21
61.965
  0
LINE
  8
0
 10
219.135
 11
219.25
 20
61.965
 21
61.5
  0
LINE
  8
0
 10
219.25
 11
219.135
 20
61.5
 21
61.035
  0
LINE
  8
0
 10
219.135
 11
218.818
 20
61.035
 21
60.677
  0
LINE
  8
0
 10
218.818
 11
218.371
 20
60.677
 21
60.507
  0
LINE
  8
0
 10
218.371
 11
217.895
 20
60.507
 21
60.565
  0
LINE
  8
0
 10
217.895
 11
217.501
 20
60.565
 21
60.837
  0
LINE
  8
0
 10
217.501
 11
217.279
 20
60.837
 21
61.261
  0
LINE
  8
0
 10
227.579
 11
227.579
 20
416.761
 21
417.239
  0
LINE
  8
0
 10
227.579
 11
227.801
 20
417.239
 21
417.663
  0
LINE
  8
0
 10
227.801
 11
228.195
 20
417.663
 21
417.935
  0
LINE
  8
0
 10
228.195
 11
228.671
 20
417.935
 21
417.993
  0
LINE
  8
0
 10
228.671
 11
229.118
 20
417.993
 21
417.823
  0
LINE
  8
0
 10
229.118
 11
229.435
 20
417.823
 21
417.465
  0
LINE
  8
0
 10
229.435
 11
229.55
 20
417.465
 21
417
  0
LINE
  8
0
 10
229.55
 11
229.435
 20
417
 21
416.535
  0
LINE
  8
0
 10
229.435
 11
229.118
 20
416.535
 21
416.177
  0
LINE
  8
0
 10
229.118
 11
228.671
 20
416.177
 21
416.007
  0
LINE
  8
0
 10
228.671
 11
228.195
 20
416.007
 21
416.065
  0
LINE
  8
0
 10
228.195
 11
227.801
 20
416.065
 21
416.337
  0
LINE
  8
0
 10
227.801
 11
227.579
 20
416.337
 21
416.761
  0
LINE
  8
0
 10
247.33
 11
247.445
 20
8.2
 21
8.665
  0
LINE
  8
0
 10
247.445
 11
247.762
 20
8.665
 21
9.023
  0
LINE
  8
0
 10
247.762
 11
248.209
 20
9.023
 21
9.193
  0
LINE
  8
0
 10
248.209
 11
248.685
 20
9.193
 21
9.135
  0
LINE
  8
0
 10
248.685
 11
249.079
 20
9.135
 21
8.863
  0
LINE
  8
0
 10
249.079
 11
249.301
 20
8.863
 21
8.439
  0
LINE
  8
0
 10
249.301
 11
249.301
 20
8.439
 21
7.961
  0
LINE
  8
0
 10
249.301
 11
249.079
 20
7.961
 21
7.537
  0
LINE
  8
0
 10
249.079
 11
248.685
 20
7.537
 21
7.265
  0
LINE
  8
0
 10
248.685
 11
248.209
 20
7.265
 21
7.207
  0
LINE
  8
0
 10
248.209
 11
247.762
 20
7.207
 21
7.377
  0
LINE
  8
0
 10
247.762
 11
247.445
 20
7.377
 21
7.735
  0
LINE
  8
0
 10
247.445
 11
247.33
 20
7.735
 21
8.2
  0
LINE
  8
0
 10
261.979
 11
261.979
 20
416.761
 21
417.239
  0
LINE
  8
0
 10
261.979
 11
262.201
 20
417.239
 21
417.663
  0
LINE
  8
0
 10
262.201
 11
262.595
 20
417.663
 21
417.935
  0
LINE
  8
0
 10
262.595
 11
263.071
 20
417.935
 21
417.993
  0
LINE
  8
0
 10
263.071
 11
263.518
 20
417.993
 21
417.823
  0
LINE
  8
0
 10
263.518
 11
263.835
 20
417.823
 21
417.465
  0
LINE
  8
0
 10
263.835
 11
263.95
 20
417.465
 21
417
  0
LINE
  8
0
 10
263.95
 11
263.835
 20
417
 21
416.535
  0
LINE
  8
0
 10
263.835
 11
263.518
 20
416.535
 21
416.177
  0
LINE
  8
0
 10
263.518
 11
263.071
 20
416.177
 21
416.007
  0
LINE
  8
0
 10
263.071
 11
262.595
 20
416.007
 21
416.065
  0
LINE
  8
0
 10
262.595
 11
262.201
 20
416.065
 21
416.337
  0
LINE
  8
0
 10
262.201
 11
261.979
 20
416.337
 21
416.761
  0
LINE
  8
0
 10
268.55
 11
268.665
 20
8.2
 21
8.665
  0
LINE
  8
0
 10
268.665
 11
268.982
 20
8.665
 21
9.023
  0
LINE
  8
0
 10
268.982
 11
269.429
 20
9.023
 21
9.193
  0
LINE
  8
0
 10
269.429
 11
269.905
 20
9.193
 21
9.135
  0
LINE
  8
0
 10
269.905
 11
270.299
 20
9.135
 21
8.863
  0
LINE
  8
0
 10
270.299
 11
270.521
 20
8.863
 21
8.439
  0
LINE
  8
0
 10
270.521
 11
270.521
 20
8.439
 21
7.961
  0
LINE
  8
0
 10
270.521
 11
270.299
 20
7.961
 21
7.537
  0
LINE
  8
0
 10
270.299
 11
269.905
 20
7.537
 21
7.265
  0
LINE
  8
0
 10
269.905
 11
269.429
 20
7.265
 21
7.207
  0
LINE
  8
0
 10
269.429
 11
268.982
 20
7.207
 21
7.377
  0
LINE
  8
0
 10
268.982
 11
268.665
 20
7.377
 21
7.735
  0
LINE
  8
0
 10
268.665
 11
268.55
 20
7.735
 21
8.2
  0
ENDSEC
  0
SECTION
  2
OBJECTS
  0
DICTIONARY
  0
ENDSEC
  0
EOF
