  0
SECTION
  2
BLOCKS
  0
ENDSEC
  0
SECTION
  2
ENTITIES
  0
LINE
  8
0
 10
0
 11
0
 20
-157
 21
-4
  0
LINE
  8
0
 10
0
 11
435
 20
-4
 21
-4
  0
LINE
  8
0
 10
435
 11
435
 20
-4
 21
-132
  0
LINE
  8
0
 10
435
 11
434.905
 20
-132
 21
-134.179
  0
LINE
  8
0
 10
434.905
 11
434.62
 20
-134.179
 21
-136.341
  0
LINE
  8
0
 10
434.62
 11
434.148
 20
-136.341
 21
-138.47
  0
LINE
  8
0
 10
434.148
 11
433.492
 20
-138.47
 21
-140.551
  0
LINE
  8
0
 10
433.492
 11
432.658
 20
-140.551
 21
-142.565
  0
LINE
  8
0
 10
432.658
 11
431.651
 20
-142.565
 21
-144.5
  0
LINE
  8
0
 10
431.651
 11
430.479
 20
-144.5
 21
-146.339
  0
LINE
  8
0
 10
430.479
 11
429.151
 20
-146.339
 21
-148.07
  0
LINE
  8
0
 10
429.151
 11
427.678
 20
-148.07
 21
-149.678
  0
LINE
  8
0
 10
427.678
 11
426.07
 20
-149.678
 21
-151.151
  0
LINE
  8
0
 10
426.07
 11
424.339
 20
-151.151
 21
-152.479
  0
LINE
  8
0
 10
424.339
 11
422.5
 20
-152.479
 21
-153.651
  0
LINE
  8
0
 10
422.5
 11
420.565
 20
-153.651
 21
-154.658
  0
LINE
  8
0
 10
420.565
 11
418.551
 20
-154.658
 21
-155.492
  0
LINE
  8
0
 10
418.551
 11
416.47
 20
-155.492
 21
-156.148
  0
LINE
  8
0
 10
416.47
 11
414.341
 20
-156.148
 21
-156.62
  0
LINE
  8
0
 10
414.341
 11
412.179
 20
-156.62
 21
-156.905
  0
LINE
  8
0
 10
412.179
 11
410
 20
-156.905
 21
-157
  0
LINE
  8
0
 10
410
 11
0
 20
-157
 21
-157
  0
LINE
  8
0
 10
0
 11
0
 20
0
 21
153
  0
LINE
  8
0
 10
0
 11
410
 20
153
 21
153
  0
LINE
  8
0
 10
410
 11
412.179
 20
153
 21
152.905
  0
LINE
  8
0
 10
412.179
 11
414.341
 20
152.905
 21
152.62
  0
LINE
  8
0
 10
414.341
 11
416.47
 20
152.62
 21
152.148
  0
LINE
  8
0
 10
416.47
 11
418.551
 20
152.148
 21
151.492
  0
LINE
  8
0
 10
418.551
 11
420.565
 20
151.492
 21
150.658
  0
LINE
  8
0
 10
420.565
 11
422.5
 20
150.658
 21
149.651
  0
LINE
  8
0
 10
422.5
 11
424.339
 20
149.651
 21
148.479
  0
LINE
  8
0
 10
424.339
 11
426.07
 20
148.479
 21
147.151
  0
LINE
  8
0
 10
426.07
 11
427.678
 20
147.151
 21
145.678
  0
LINE
  8
0
 10
427.678
 11
429.151
 20
145.678
 21
144.07
  0
LINE
  8
0
 10
429.151
 11
430.479
 20
144.07
 21
142.339
  0
LINE
  8
0
 10
430.479
 11
431.651
 20
142.339
 21
140.5
  0
LINE
  8
0
 10
431.651
 11
432.658
 20
140.5
 21
138.565
  0
LINE
  8
0
 10
432.658
 11
433.492
 20
138.565
 21
136.551
  0
LINE
  8
0
 10
433.492
 11
434.148
 20
136.551
 21
134.47
  0
LINE
  8
0
 10
434.148
 11
434.62
 20
134.47
 21
132.341
  0
LINE
  8
0
 10
434.62
 11
434.905
 20
132.341
 21
130.179
  0
LINE
  8
0
 10
434.905
 11
435
 20
130.179
 21
128
  0
LINE
  8
0
 10
435
 11
435
 20
128
 21
0
  0
LINE
  8
0
 10
435
 11
0
 20
0
 21
0
  0
LINE
  8
0
 10
5
 11
5.036
 20
-98.6
 21
-98.102
  0
LINE
  8
0
 10
5.036
 11
5.142
 20
-98.102
 21
-97.614
  0
LINE
  8
0
 10
5.142
 11
5.316
 20
-97.614
 21
-97.146
  0
LINE
  8
0
 10
5.316
 11
5.556
 20
-97.146
 21
-96.708
  0
LINE
  8
0
 10
5.556
 11
5.855
 20
-96.708
 21
-96.308
  0
LINE
  8
0
 10
5.855
 11
6.208
 20
-96.308
 21
-95.955
  0
LINE
  8
0
 10
6.208
 11
6.608
 20
-95.955
 21
-95.656
  0
LINE
  8
0
 10
6.608
 11
7.046
 20
-95.656
 21
-95.416
  0
LINE
  8
0
 10
7.046
 11
7.514
 20
-95.416
 21
-95.242
  0
LINE
  8
0
 10
7.514
 11
8.002
 20
-95.242
 21
-95.136
  0
LINE
  8
0
 10
8.002
 11
8.5
 20
-95.136
 21
-95.1
  0
LINE
  8
0
 10
8.5
 11
8.998
 20
-95.1
 21
-95.136
  0
LINE
  8
0
 10
8.998
 11
9.486
 20
-95.136
 21
-95.242
  0
LINE
  8
0
 10
9.486
 11
9.954
 20
-95.242
 21
-95.416
  0
LINE
  8
0
 10
9.954
 11
10.392
 20
-95.416
 21
-95.656
  0
LINE
  8
0
 10
10.392
 11
10.792
 20
-95.656
 21
-95.955
  0
LINE
  8
0
 10
10.792
 11
11.145
 20
-95.955
 21
-96.308
  0
LINE
  8
0
 10
11.145
 11
11.444
 20
-96.308
 21
-96.708
  0
LINE
  8
0
 10
11.444
 11
11.684
 20
-96.708
 21
-97.146
  0
LINE
  8
0
 10
11.684
 11
11.858
 20
-97.146
 21
-97.614
  0
LINE
  8
0
 10
11.858
 11
11.964
 20
-97.614
 21
-98.102
  0
LINE
  8
0
 10
11.964
 11
12
 20
-98.102
 21
-98.6
  0
LINE
  8
0
 10
12
 11
11.964
 20
-98.6
 21
-99.098
  0
LINE
  8
0
 10
11.964
 11
11.858
 20
-99.098
 21
-99.586
  0
LINE
  8
0
 10
11.858
 11
11.684
 20
-99.586
 21
-100.054
  0
LINE
  8
0
 10
11.684
 11
11.444
 20
-100.054
 21
-100.492
  0
LINE
  8
0
 10
11.444
 11
11.145
 20
-100.492
 21
-100.892
  0
LINE
  8
0
 10
11.145
 11
10.792
 20
-100.892
 21
-101.245
  0
LINE
  8
0
 10
10.792
 11
10.392
 20
-101.245
 21
-101.544
  0
LINE
  8
0
 10
10.392
 11
9.954
 20
-101.544
 21
-101.784
  0
LINE
  8
0
 10
9.954
 11
9.486
 20
-101.784
 21
-101.958
  0
LINE
  8
0
 10
9.486
 11
8.998
 20
-101.958
 21
-102.064
  0
LINE
  8
0
 10
8.998
 11
8.5
 20
-102.064
 21
-102.1
  0
LINE
  8
0
 10
8.5
 11
8.002
 20
-102.1
 21
-102.064
  0
LINE
  8
0
 10
8.002
 11
7.514
 20
-102.064
 21
-101.958
  0
LINE
  8
0
 10
7.514
 11
7.046
 20
-101.958
 21
-101.784
  0
LINE
  8
0
 10
7.046
 11
6.608
 20
-101.784
 21
-101.544
  0
LINE
  8
0
 10
6.608
 11
6.208
 20
-101.544
 21
-101.245
  0
LINE
  8
0
 10
6.208
 11
5.855
 20
-101.245
 21
-100.892
  0
LINE
  8
0
 10
5.855
 11
5.556
 20
-100.892
 21
-100.492
  0
LINE
  8
0
 10
5.556
 11
5.316
 20
-100.492
 21
-100.054
  0
LINE
  8
0
 10
5.316
 11
5.142
 20
-100.054
 21
-99.586
  0
LINE
  8
0
 10
5.142
 11
5.036
 20
-99.586
 21
-99.098
  0
LINE
  8
0
 10
5.036
 11
5
 20
-99.098
 21
-98.6
  0
LINE
  8
0
 10
5
 11
5.048
 20
-22.9
 21
-22.412
  0
LINE
  8
0
 10
5.048
 11
5.19
 20
-22.412
 21
-21.943
  0
LINE
  8
0
 10
5.19
 11
5.421
 20
-21.943
 21
-21.511
  0
LINE
  8
0
 10
5.421
 11
5.732
 20
-21.511
 21
-21.132
  0
LINE
  8
0
 10
5.732
 11
6.111
 20
-21.132
 21
-20.821
  0
LINE
  8
0
 10
6.111
 11
6.543
 20
-20.821
 21
-20.59
  0
LINE
  8
0
 10
6.543
 11
7.012
 20
-20.59
 21
-20.448
  0
LINE
  8
0
 10
7.012
 11
7.5
 20
-20.448
 21
-20.4
  0
LINE
  8
0
 10
7.5
 11
7.988
 20
-20.4
 21
-20.448
  0
LINE
  8
0
 10
7.988
 11
8.457
 20
-20.448
 21
-20.59
  0
LINE
  8
0
 10
8.457
 11
8.889
 20
-20.59
 21
-20.821
  0
LINE
  8
0
 10
8.889
 11
9.268
 20
-20.821
 21
-21.132
  0
LINE
  8
0
 10
9.268
 11
9.579
 20
-21.132
 21
-21.511
  0
LINE
  8
0
 10
9.579
 11
9.81
 20
-21.511
 21
-21.943
  0
LINE
  8
0
 10
9.81
 11
9.952
 20
-21.943
 21
-22.412
  0
LINE
  8
0
 10
9.952
 11
10
 20
-22.412
 21
-22.9
  0
LINE
  8
0
 10
10
 11
9.952
 20
-22.9
 21
-23.388
  0
LINE
  8
0
 10
9.952
 11
9.81
 20
-23.388
 21
-23.857
  0
LINE
  8
0
 10
9.81
 11
9.579
 20
-23.857
 21
-24.289
  0
LINE
  8
0
 10
9.579
 11
9.268
 20
-24.289
 21
-24.668
  0
LINE
  8
0
 10
9.268
 11
8.889
 20
-24.668
 21
-24.979
  0
LINE
  8
0
 10
8.889
 11
8.457
 20
-24.979
 21
-25.21
  0
LINE
  8
0
 10
8.457
 11
7.988
 20
-25.21
 21
-25.352
  0
LINE
  8
0
 10
7.988
 11
7.5
 20
-25.352
 21
-25.4
  0
LINE
  8
0
 10
7.5
 11
7.012
 20
-25.4
 21
-25.352
  0
LINE
  8
0
 10
7.012
 11
6.543
 20
-25.352
 21
-25.21
  0
LINE
  8
0
 10
6.543
 11
6.111
 20
-25.21
 21
-24.979
  0
LINE
  8
0
 10
6.111
 11
5.732
 20
-24.979
 21
-24.668
  0
LINE
  8
0
 10
5.732
 11
5.421
 20
-24.668
 21
-24.289
  0
LINE
  8
0
 10
5.421
 11
5.19
 20
-24.289
 21
-23.857
  0
LINE
  8
0
 10
5.19
 11
5.048
 20
-23.857
 21
-23.388
  0
LINE
  8
0
 10
5.048
 11
5
 20
-23.388
 21
-22.9
  0
LINE
  8
0
 10
5.015
 11
5.015
 20
-86.641
 21
-86.159
  0
LINE
  8
0
 10
5.015
 11
5.13
 20
-86.159
 21
-85.691
  0
LINE
  8
0
 10
5.13
 11
5.354
 20
-85.691
 21
-85.264
  0
LINE
  8
0
 10
5.354
 11
5.674
 20
-85.264
 21
-84.903
  0
LINE
  8
0
 10
5.674
 11
6.071
 20
-84.903
 21
-84.629
  0
LINE
  8
0
 10
6.071
 11
6.521
 20
-84.629
 21
-84.458
  0
LINE
  8
0
 10
6.521
 11
7
 20
-84.458
 21
-84.4
  0
LINE
  8
0
 10
7
 11
7.479
 20
-84.4
 21
-84.458
  0
LINE
  8
0
 10
7.479
 11
7.929
 20
-84.458
 21
-84.629
  0
LINE
  8
0
 10
7.929
 11
8.326
 20
-84.629
 21
-84.903
  0
LINE
  8
0
 10
8.326
 11
8.646
 20
-84.903
 21
-85.264
  0
LINE
  8
0
 10
8.646
 11
8.87
 20
-85.264
 21
-85.691
  0
LINE
  8
0
 10
8.87
 11
8.985
 20
-85.691
 21
-86.159
  0
LINE
  8
0
 10
8.985
 11
8.985
 20
-86.159
 21
-86.641
  0
LINE
  8
0
 10
8.985
 11
8.87
 20
-86.641
 21
-87.109
  0
LINE
  8
0
 10
8.87
 11
8.646
 20
-87.109
 21
-87.536
  0
LINE
  8
0
 10
8.646
 11
8.326
 20
-87.536
 21
-87.897
  0
LINE
  8
0
 10
8.326
 11
7.929
 20
-87.897
 21
-88.171
  0
LINE
  8
0
 10
7.929
 11
7.479
 20
-88.171
 21
-88.342
  0
LINE
  8
0
 10
7.479
 11
7
 20
-88.342
 21
-88.4
  0
LINE
  8
0
 10
7
 11
6.521
 20
-88.4
 21
-88.342
  0
LINE
  8
0
 10
6.521
 11
6.071
 20
-88.342
 21
-88.171
  0
LINE
  8
0
 10
6.071
 11
5.674
 20
-88.171
 21
-87.897
  0
LINE
  8
0
 10
5.674
 11
5.354
 20
-87.897
 21
-87.536
  0
LINE
  8
0
 10
5.354
 11
5.13
 20
-87.536
 21
-87.109
  0
LINE
  8
0
 10
5.13
 11
5.015
 20
-87.109
 21
-86.641
  0
LINE
  8
0
 10
5.015
 11
5.015
 20
-32.641
 21
-32.159
  0
LINE
  8
0
 10
5.015
 11
5.13
 20
-32.159
 21
-31.691
  0
LINE
  8
0
 10
5.13
 11
5.354
 20
-31.691
 21
-31.264
  0
LINE
  8
0
 10
5.354
 11
5.674
 20
-31.264
 21
-30.903
  0
LINE
  8
0
 10
5.674
 11
6.071
 20
-30.903
 21
-30.629
  0
LINE
  8
0
 10
6.071
 11
6.521
 20
-30.629
 21
-30.458
  0
LINE
  8
0
 10
6.521
 11
7
 20
-30.458
 21
-30.4
  0
LINE
  8
0
 10
7
 11
7.479
 20
-30.4
 21
-30.458
  0
LINE
  8
0
 10
7.479
 11
7.929
 20
-30.458
 21
-30.629
  0
LINE
  8
0
 10
7.929
 11
8.326
 20
-30.629
 21
-30.903
  0
LINE
  8
0
 10
8.326
 11
8.646
 20
-30.903
 21
-31.264
  0
LINE
  8
0
 10
8.646
 11
8.87
 20
-31.264
 21
-31.691
  0
LINE
  8
0
 10
8.87
 11
8.985
 20
-31.691
 21
-32.159
  0
LINE
  8
0
 10
8.985
 11
8.985
 20
-32.159
 21
-32.641
  0
LINE
  8
0
 10
8.985
 11
8.87
 20
-32.641
 21
-33.109
  0
LINE
  8
0
 10
8.87
 11
8.646
 20
-33.109
 21
-33.536
  0
LINE
  8
0
 10
8.646
 11
8.326
 20
-33.536
 21
-33.897
  0
LINE
  8
0
 10
8.326
 11
7.929
 20
-33.897
 21
-34.171
  0
LINE
  8
0
 10
7.929
 11
7.479
 20
-34.171
 21
-34.342
  0
LINE
  8
0
 10
7.479
 11
7
 20
-34.342
 21
-34.4
  0
LINE
  8
0
 10
7
 11
6.521
 20
-34.4
 21
-34.342
  0
LINE
  8
0
 10
6.521
 11
6.071
 20
-34.342
 21
-34.171
  0
LINE
  8
0
 10
6.071
 11
5.674
 20
-34.171
 21
-33.897
  0
LINE
  8
0
 10
5.674
 11
5.354
 20
-33.897
 21
-33.536
  0
LINE
  8
0
 10
5.354
 11
5.13
 20
-33.536
 21
-33.109
  0
LINE
  8
0
 10
5.13
 11
5.015
 20
-33.109
 21
-32.641
  0
LINE
  8
0
 10
7.207
 11
7.377
 20
-147.179
 21
-146.732
  0
LINE
  8
0
 10
7.377
 11
7.735
 20
-146.732
 21
-146.415
  0
LINE
  8
0
 10
7.735
 11
8.2
 20
-146.415
 21
-146.3
  0
LINE
  8
0
 10
8.2
 11
8.665
 20
-146.3
 21
-146.415
  0
LINE
  8
0
 10
8.665
 11
9.023
 20
-146.415
 21
-146.732
  0
LINE
  8
0
 10
9.023
 11
9.193
 20
-146.732
 21
-147.179
  0
LINE
  8
0
 10
9.193
 11
9.135
 20
-147.179
 21
-147.655
  0
LINE
  8
0
 10
9.135
 11
8.863
 20
-147.655
 21
-148.049
  0
LINE
  8
0
 10
8.863
 11
8.439
 20
-148.049
 21
-148.271
  0
LINE
  8
0
 10
8.439
 11
7.961
 20
-148.271
 21
-148.271
  0
LINE
  8
0
 10
7.961
 11
7.537
 20
-148.271
 21
-148.049
  0
LINE
  8
0
 10
7.537
 11
7.265
 20
-148.049
 21
-147.655
  0
LINE
  8
0
 10
7.265
 11
7.207
 20
-147.655
 21
-147.179
  0
LINE
  8
0
 10
7.207
 11
7.377
 20
-125.959
 21
-125.512
  0
LINE
  8
0
 10
7.377
 11
7.735
 20
-125.512
 21
-125.195
  0
LINE
  8
0
 10
7.735
 11
8.2
 20
-125.195
 21
-125.08
  0
LINE
  8
0
 10
8.2
 11
8.665
 20
-125.08
 21
-125.195
  0
LINE
  8
0
 10
8.665
 11
9.023
 20
-125.195
 21
-125.512
  0
LINE
  8
0
 10
9.023
 11
9.193
 20
-125.512
 21
-125.959
  0
LINE
  8
0
 10
9.193
 11
9.135
 20
-125.959
 21
-126.435
  0
LINE
  8
0
 10
9.135
 11
8.863
 20
-126.435
 21
-126.829
  0
LINE
  8
0
 10
8.863
 11
8.439
 20
-126.829
 21
-127.051
  0
LINE
  8
0
 10
8.439
 11
7.961
 20
-127.051
 21
-127.051
  0
LINE
  8
0
 10
7.961
 11
7.537
 20
-127.051
 21
-126.829
  0
LINE
  8
0
 10
7.537
 11
7.265
 20
-126.829
 21
-126.435
  0
LINE
  8
0
 10
7.265
 11
7.207
 20
-126.435
 21
-125.959
  0
LINE
  8
0
 10
7.207
 11
7.377
 20
122.201
 21
122.648
  0
LINE
  8
0
 10
7.377
 11
7.735
 20
122.648
 21
122.965
  0
LINE
  8
0
 10
7.735
 11
8.2
 20
122.965
 21
123.08
  0
LINE
  8
0
 10
8.2
 11
8.665
 20
123.08
 21
122.965
  0
LINE
  8
0
 10
8.665
 11
9.023
 20
122.965
 21
122.648
  0
LINE
  8
0
 10
9.023
 11
9.193
 20
122.648
 21
122.201
  0
LINE
  8
0
 10
9.193
 11
9.135
 20
122.201
 21
121.725
  0
LINE
  8
0
 10
9.135
 11
8.863
 20
121.725
 21
121.331
  0
LINE
  8
0
 10
8.863
 11
8.439
 20
121.331
 21
121.109
  0
LINE
  8
0
 10
8.439
 11
7.961
 20
121.109
 21
121.109
  0
LINE
  8
0
 10
7.961
 11
7.537
 20
121.109
 21
121.331
  0
LINE
  8
0
 10
7.537
 11
7.265
 20
121.331
 21
121.725
  0
LINE
  8
0
 10
7.265
 11
7.207
 20
121.725
 21
122.201
  0
LINE
  8
0
 10
7.207
 11
7.377
 20
143.421
 21
143.868
  0
LINE
  8
0
 10
7.377
 11
7.735
 20
143.868
 21
144.185
  0
LINE
  8
0
 10
7.735
 11
8.2
 20
144.185
 21
144.3
  0
LINE
  8
0
 10
8.2
 11
8.665
 20
144.3
 21
144.185
  0
LINE
  8
0
 10
8.665
 11
9.023
 20
144.185
 21
143.868
  0
LINE
  8
0
 10
9.023
 11
9.193
 20
143.868
 21
143.421
  0
LINE
  8
0
 10
9.193
 11
9.135
 20
143.421
 21
142.945
  0
LINE
  8
0
 10
9.135
 11
8.863
 20
142.945
 21
142.551
  0
LINE
  8
0
 10
8.863
 11
8.439
 20
142.551
 21
142.329
  0
LINE
  8
0
 10
8.439
 11
7.961
 20
142.329
 21
142.329
  0
LINE
  8
0
 10
7.961
 11
7.537
 20
142.329
 21
142.551
  0
LINE
  8
0
 10
7.537
 11
7.265
 20
142.551
 21
142.945
  0
LINE
  8
0
 10
7.265
 11
7.207
 20
142.945
 21
143.421
  0
LINE
  8
0
 10
25.1
 11
25.215
 20
8.2
 21
8.665
  0
LINE
  8
0
 10
25.215
 11
25.532
 20
8.665
 21
9.023
  0
LINE
  8
0
 10
25.532
 11
25.979
 20
9.023
 21
9.193
  0
LINE
  8
0
 10
25.979
 11
26.455
 20
9.193
 21
9.135
  0
LINE
  8
0
 10
26.455
 11
26.849
 20
9.135
 21
8.863
  0
LINE
  8
0
 10
26.849
 11
27.071
 20
8.863
 21
8.439
  0
LINE
  8
0
 10
27.071
 11
27.071
 20
8.439
 21
7.961
  0
LINE
  8
0
 10
27.071
 11
26.849
 20
7.961
 21
7.537
  0
LINE
  8
0
 10
26.849
 11
26.455
 20
7.537
 21
7.265
  0
LINE
  8
0
 10
26.455
 11
25.979
 20
7.265
 21
7.207
  0
LINE
  8
0
 10
25.979
 11
25.532
 20
7.207
 21
7.377
  0
LINE
  8
0
 10
25.532
 11
25.215
 20
7.377
 21
7.735
  0
LINE
  8
0
 10
25.215
 11
25.1
 20
7.735
 21
8.2
  0
LINE
  8
0
 10
25.129
 11
25.129
 20
-12.439
 21
-11.961
  0
LINE
  8
0
 10
25.129
 11
25.351
 20
-11.961
 21
-11.537
  0
LINE
  8
0
 10
25.351
 11
25.745
 20
-11.537
 21
-11.265
  0
LINE
  8
0
 10
25.745
 11
26.221
 20
-11.265
 21
-11.207
  0
LINE
  8
0
 10
26.221
 11
26.668
 20
-11.207
 21
-11.377
  0
LINE
  8
0
 10
26.668
 11
26.985
 20
-11.377
 21
-11.735
  0
LINE
  8
0
 10
26.985
 11
27.1
 20
-11.735
 21
-12.2
  0
LINE
  8
0
 10
27.1
 11
26.985
 20
-12.2
 21
-12.665
  0
LINE
  8
0
 10
26.985
 11
26.668
 20
-12.665
 21
-13.023
  0
LINE
  8
0
 10
26.668
 11
26.221
 20
-13.023
 21
-13.193
  0
LINE
  8
0
 10
26.221
 11
25.745
 20
-13.193
 21
-13.135
  0
LINE
  8
0
 10
25.745
 11
25.351
 20
-13.135
 21
-12.863
  0
LINE
  8
0
 10
25.351
 11
25.129
 20
-12.863
 21
-12.439
  0
LINE
  8
0
 10
31.929
 11
31.929
 20
-150.239
 21
-149.761
  0
LINE
  8
0
 10
31.929
 11
32.151
 20
-149.761
 21
-149.337
  0
LINE
  8
0
 10
32.151
 11
32.545
 20
-149.337
 21
-149.065
  0
LINE
  8
0
 10
32.545
 11
33.021
 20
-149.065
 21
-149.007
  0
LINE
  8
0
 10
33.021
 11
33.468
 20
-149.007
 21
-149.177
  0
LINE
  8
0
 10
33.468
 11
33.785
 20
-149.177
 21
-149.535
  0
LINE
  8
0
 10
33.785
 11
33.9
 20
-149.535
 21
-150
  0
LINE
  8
0
 10
33.9
 11
33.785
 20
-150
 21
-150.465
  0
LINE
  8
0
 10
33.785
 11
33.468
 20
-150.465
 21
-150.823
  0
LINE
  8
0
 10
33.468
 11
33.021
 20
-150.823
 21
-150.993
  0
LINE
  8
0
 10
33.021
 11
32.545
 20
-150.993
 21
-150.935
  0
LINE
  8
0
 10
32.545
 11
32.151
 20
-150.935
 21
-150.663
  0
LINE
  8
0
 10
32.151
 11
31.929
 20
-150.663
 21
-150.239
  0
LINE
  8
0
 10
46.32
 11
46.435
 20
8.2
 21
8.665
  0
LINE
  8
0
 10
46.435
 11
46.752
 20
8.665
 21
9.023
  0
LINE
  8
0
 10
46.752
 11
47.199
 20
9.023
 21
9.193
  0
LINE
  8
0
 10
47.199
 11
47.675
 20
9.193
 21
9.135
  0
LINE
  8
0
 10
47.675
 11
48.069
 20
9.135
 21
8.863
  0
LINE
  8
0
 10
48.069
 11
48.291
 20
8.863
 21
8.439
  0
LINE
  8
0
 10
48.291
 11
48.291
 20
8.439
 21
7.961
  0
LINE
  8
0
 10
48.291
 11
48.069
 20
7.961
 21
7.537
  0
LINE
  8
0
 10
48.069
 11
47.675
 20
7.537
 21
7.265
  0
LINE
  8
0
 10
47.675
 11
47.199
 20
7.265
 21
7.207
  0
LINE
  8
0
 10
47.199
 11
46.752
 20
7.207
 21
7.377
  0
LINE
  8
0
 10
46.752
 11
46.435
 20
7.377
 21
7.735
  0
LINE
  8
0
 10
46.435
 11
46.32
 20
7.735
 21
8.2
  0
LINE
  8
0
 10
46.349
 11
46.349
 20
-12.439
 21
-11.961
  0
LINE
  8
0
 10
46.349
 11
46.571
 20
-11.961
 21
-11.537
  0
LINE
  8
0
 10
46.571
 11
46.965
 20
-11.537
 21
-11.265
  0
LINE
  8
0
 10
46.965
 11
47.441
 20
-11.265
 21
-11.207
  0
LINE
  8
0
 10
47.441
 11
47.888
 20
-11.207
 21
-11.377
  0
LINE
  8
0
 10
47.888
 11
48.205
 20
-11.377
 21
-11.735
  0
LINE
  8
0
 10
48.205
 11
48.32
 20
-11.735
 21
-12.2
  0
LINE
  8
0
 10
48.32
 11
48.205
 20
-12.2
 21
-12.665
  0
LINE
  8
0
 10
48.205
 11
47.888
 20
-12.665
 21
-13.023
  0
LINE
  8
0
 10
47.888
 11
47.441
 20
-13.023
 21
-13.193
  0
LINE
  8
0
 10
47.441
 11
46.965
 20
-13.193
 21
-13.135
  0
LINE
  8
0
 10
46.965
 11
46.571
 20
-13.135
 21
-12.863
  0
LINE
  8
0
 10
46.571
 11
46.349
 20
-12.863
 21
-12.439
  0
LINE
  8
0
 10
49.55
 11
49.605
 20
22.65
 21
23.14
  0
LINE
  8
0
 10
49.605
 11
49.768
 20
23.14
 21
23.605
  0
LINE
  8
0
 10
49.768
 11
50.03
 20
23.605
 21
24.022
  0
LINE
  8
0
 10
50.03
 11
50.378
 20
24.022
 21
24.37
  0
LINE
  8
0
 10
50.378
 11
50.795
 20
24.37
 21
24.632
  0
LINE
  8
0
 10
50.795
 11
51.26
 20
24.632
 21
24.795
  0
LINE
  8
0
 10
51.26
 11
51.75
 20
24.795
 21
24.85
  0
LINE
  8
0
 10
51.75
 11
52.24
 20
24.85
 21
24.795
  0
LINE
  8
0
 10
52.24
 11
52.705
 20
24.795
 21
24.632
  0
LINE
  8
0
 10
52.705
 11
53.122
 20
24.632
 21
24.37
  0
LINE
  8
0
 10
53.122
 11
53.47
 20
24.37
 21
24.022
  0
LINE
  8
0
 10
53.47
 11
53.732
 20
24.022
 21
23.605
  0
LINE
  8
0
 10
53.732
 11
53.895
 20
23.605
 21
23.14
  0
LINE
  8
0
 10
53.895
 11
53.95
 20
23.14
 21
22.65
  0
LINE
  8
0
 10
53.95
 11
53.895
 20
22.65
 21
22.16
  0
LINE
  8
0
 10
53.895
 11
53.732
 20
22.16
 21
21.695
  0
LINE
  8
0
 10
53.732
 11
53.47
 20
21.695
 21
21.278
  0
LINE
  8
0
 10
53.47
 11
53.122
 20
21.278
 21
20.93
  0
LINE
  8
0
 10
53.122
 11
52.705
 20
20.93
 21
20.668
  0
LINE
  8
0
 10
52.705
 11
52.24
 20
20.668
 21
20.505
  0
LINE
  8
0
 10
52.24
 11
51.75
 20
20.505
 21
20.45
  0
LINE
  8
0
 10
51.75
 11
51.26
 20
20.45
 21
20.505
  0
LINE
  8
0
 10
51.26
 11
50.795
 20
20.505
 21
20.668
  0
LINE
  8
0
 10
50.795
 11
50.378
 20
20.668
 21
20.93
  0
LINE
  8
0
 10
50.378
 11
50.03
 20
20.93
 21
21.278
  0
LINE
  8
0
 10
50.03
 11
49.768
 20
21.278
 21
21.695
  0
LINE
  8
0
 10
49.768
 11
49.605
 20
21.695
 21
22.16
  0
LINE
  8
0
 10
49.605
 11
49.55
 20
22.16
 21
22.65
  0
LINE
  8
0
 10
49.55
 11
49.605
 20
94.15
 21
94.64
  0
LINE
  8
0
 10
49.605
 11
49.768
 20
94.64
 21
95.105
  0
LINE
  8
0
 10
49.768
 11
50.03
 20
95.105
 21
95.522
  0
LINE
  8
0
 10
50.03
 11
50.378
 20
95.522
 21
95.87
  0
LINE
  8
0
 10
50.378
 11
50.795
 20
95.87
 21
96.132
  0
LINE
  8
0
 10
50.795
 11
51.26
 20
96.132
 21
96.295
  0
LINE
  8
0
 10
51.26
 11
51.75
 20
96.295
 21
96.35
  0
LINE
  8
0
 10
51.75
 11
52.24
 20
96.35
 21
96.295
  0
LINE
  8
0
 10
52.24
 11
52.705
 20
96.295
 21
96.132
  0
LINE
  8
0
 10
52.705
 11
53.122
 20
96.132
 21
95.87
  0
LINE
  8
0
 10
53.122
 11
53.47
 20
95.87
 21
95.522
  0
LINE
  8
0
 10
53.47
 11
53.732
 20
95.522
 21
95.105
  0
LINE
  8
0
 10
53.732
 11
53.895
 20
95.105
 21
94.64
  0
LINE
  8
0
 10
53.895
 11
53.95
 20
94.64
 21
94.15
  0
LINE
  8
0
 10
53.95
 11
53.895
 20
94.15
 21
93.66
  0
LINE
  8
0
 10
53.895
 11
53.732
 20
93.66
 21
93.195
  0
LINE
  8
0
 10
53.732
 11
53.47
 20
93.195
 21
92.778
  0
LINE
  8
0
 10
53.47
 11
53.122
 20
92.778
 21
92.43
  0
LINE
  8
0
 10
53.122
 11
52.705
 20
92.43
 21
92.168
  0
LINE
  8
0
 10
52.705
 11
52.24
 20
92.168
 21
92.005
  0
LINE
  8
0
 10
52.24
 11
51.75
 20
92.005
 21
91.95
  0
LINE
  8
0
 10
51.75
 11
51.26
 20
91.95
 21
92.005
  0
LINE
  8
0
 10
51.26
 11
50.795
 20
92.005
 21
92.168
  0
LINE
  8
0
 10
50.795
 11
50.378
 20
92.168
 21
92.43
  0
LINE
  8
0
 10
50.378
 11
50.03
 20
92.43
 21
92.778
  0
LINE
  8
0
 10
50.03
 11
49.768
 20
92.778
 21
93.195
  0
LINE
  8
0
 10
49.768
 11
49.605
 20
93.195
 21
93.66
  0
LINE
  8
0
 10
49.605
 11
49.55
 20
93.66
 21
94.15
  0
LINE
  8
0
 10
50
 11
50.143
 20
58.4
 21
61.668
  0
LINE
  8
0
 10
50.143
 11
50.57
 20
61.668
 21
64.912
  0
LINE
  8
0
 10
50.57
 11
51.278
 20
64.912
 21
68.106
  0
LINE
  8
0
 10
51.278
 11
52.262
 20
68.106
 21
71.226
  0
LINE
  8
0
 10
52.262
 11
53.513
 20
71.226
 21
74.248
  0
LINE
  8
0
 10
53.513
 11
55.024
 20
74.248
 21
77.15
  0
LINE
  8
0
 10
55.024
 11
56.782
 20
77.15
 21
79.909
  0
LINE
  8
0
 10
56.782
 11
58.773
 20
79.909
 21
82.505
  0
LINE
  8
0
 10
58.773
 11
60.983
 20
82.505
 21
84.917
  0
LINE
  8
0
 10
60.983
 11
63.395
 20
84.917
 21
87.127
  0
LINE
  8
0
 10
63.395
 11
65.991
 20
87.127
 21
89.118
  0
LINE
  8
0
 10
65.991
 11
68.75
 20
89.118
 21
90.876
  0
LINE
  8
0
 10
68.75
 11
71.652
 20
90.876
 21
92.387
  0
LINE
  8
0
 10
71.652
 11
74.674
 20
92.387
 21
93.638
  0
LINE
  8
0
 10
74.674
 11
77.794
 20
93.638
 21
94.622
  0
LINE
  8
0
 10
77.794
 11
80.988
 20
94.622
 21
95.33
  0
LINE
  8
0
 10
80.988
 11
84.232
 20
95.33
 21
95.757
  0
LINE
  8
0
 10
84.232
 11
87.5
 20
95.757
 21
95.9
  0
LINE
  8
0
 10
87.5
 11
90.768
 20
95.9
 21
95.757
  0
LINE
  8
0
 10
90.768
 11
94.012
 20
95.757
 21
95.33
  0
LINE
  8
0
 10
94.012
 11
97.206
 20
95.33
 21
94.622
  0
LINE
  8
0
 10
97.206
 11
100.326
 20
94.622
 21
93.638
  0
LINE
  8
0
 10
100.326
 11
103.348
 20
93.638
 21
92.387
  0
LINE
  8
0
 10
103.348
 11
106.25
 20
92.387
 21
90.876
  0
LINE
  8
0
 10
106.25
 11
109.009
 20
90.876
 21
89.118
  0
LINE
  8
0
 10
109.009
 11
111.605
 20
89.118
 21
87.127
  0
LINE
  8
0
 10
111.605
 11
114.017
 20
87.127
 21
84.917
  0
LINE
  8
0
 10
114.017
 11
116.227
 20
84.917
 21
82.505
  0
LINE
  8
0
 10
116.227
 11
118.218
 20
82.505
 21
79.909
  0
LINE
  8
0
 10
118.218
 11
119.976
 20
79.909
 21
77.15
  0
LINE
  8
0
 10
119.976
 11
121.487
 20
77.15
 21
74.248
  0
LINE
  8
0
 10
121.487
 11
122.738
 20
74.248
 21
71.226
  0
LINE
  8
0
 10
122.738
 11
123.722
 20
71.226
 21
68.106
  0
LINE
  8
0
 10
123.722
 11
124.43
 20
68.106
 21
64.912
  0
LINE
  8
0
 10
124.43
 11
124.857
 20
64.912
 21
61.668
  0
LINE
  8
0
 10
124.857
 11
125
 20
61.668
 21
58.4
  0
LINE
  8
0
 10
125
 11
124.857
 20
58.4
 21
55.132
  0
LINE
  8
0
 10
124.857
 11
124.43
 20
55.132
 21
51.888
  0
LINE
  8
0
 10
124.43
 11
123.722
 20
51.888
 21
48.694
  0
LINE
  8
0
 10
123.722
 11
122.738
 20
48.694
 21
45.574
  0
LINE
  8
0
 10
122.738
 11
121.487
 20
45.574
 21
42.552
  0
LINE
  8
0
 10
121.487
 11
119.976
 20
42.552
 21
39.65
  0
LINE
  8
0
 10
119.976
 11
118.218
 20
39.65
 21
36.891
  0
LINE
  8
0
 10
118.218
 11
116.227
 20
36.891
 21
34.295
  0
LINE
  8
0
 10
116.227
 11
114.017
 20
34.295
 21
31.883
  0
LINE
  8
0
 10
114.017
 11
111.605
 20
31.883
 21
29.673
  0
LINE
  8
0
 10
111.605
 11
109.009
 20
29.673
 21
27.682
  0
LINE
  8
0
 10
109.009
 11
106.25
 20
27.682
 21
25.924
  0
LINE
  8
0
 10
106.25
 11
103.348
 20
25.924
 21
24.413
  0
LINE
  8
0
 10
103.348
 11
100.326
 20
24.413
 21
23.162
  0
LINE
  8
0
 10
100.326
 11
97.206
 20
23.162
 21
22.178
  0
LINE
  8
0
 10
97.206
 11
94.012
 20
22.178
 21
21.47
  0
LINE
  8
0
 10
94.012
 11
90.768
 20
21.47
 21
21.043
  0
LINE
  8
0
 10
90.768
 11
87.5
 20
21.043
 21
20.9
  0
LINE
  8
0
 10
87.5
 11
84.232
 20
20.9
 21
21.043
  0
LINE
  8
0
 10
84.232
 11
80.988
 20
21.043
 21
21.47
  0
LINE
  8
0
 10
80.988
 11
77.794
 20
21.47
 21
22.178
  0
LINE
  8
0
 10
77.794
 11
74.674
 20
22.178
 21
23.162
  0
LINE
  8
0
 10
74.674
 11
71.652
 20
23.162
 21
24.413
  0
LINE
  8
0
 10
71.652
 11
68.75
 20
24.413
 21
25.924
  0
LINE
  8
0
 10
68.75
 11
65.991
 20
25.924
 21
27.682
  0
LINE
  8
0
 10
65.991
 11
63.395
 20
27.682
 21
29.673
  0
LINE
  8
0
 10
63.395
 11
60.983
 20
29.673
 21
31.883
  0
LINE
  8
0
 10
60.983
 11
58.773
 20
31.883
 21
34.295
  0
LINE
  8
0
 10
58.773
 11
56.782
 20
34.295
 21
36.891
  0
LINE
  8
0
 10
56.782
 11
55.024
 20
36.891
 21
39.65
  0
LINE
  8
0
 10
55.024
 11
53.513
 20
39.65
 21
42.552
  0
LINE
  8
0
 10
53.513
 11
52.262
 20
42.552
 21
45.574
  0
LINE
  8
0
 10
52.262
 11
51.278
 20
45.574
 21
48.694
  0
LINE
  8
0
 10
51.278
 11
50.57
 20
48.694
 21
51.888
  0
LINE
  8
0
 10
50.57
 11
50.143
 20
51.888
 21
55.132
  0
LINE
  8
0
 10
50.143
 11
50
 20
55.132
 21
58.4
  0
LINE
  8
0
 10
121.05
 11
121.105
 20
22.65
 21
23.14
  0
LINE
  8
0
 10
121.105
 11
121.268
 20
23.14
 21
23.605
  0
LINE
  8
0
 10
121.268
 11
121.53
 20
23.605
 21
24.022
  0
LINE
  8
0
 10
121.53
 11
121.878
 20
24.022
 21
24.37
  0
LINE
  8
0
 10
121.878
 11
122.295
 20
24.37
 21
24.632
  0
LINE
  8
0
 10
122.295
 11
122.76
 20
24.632
 21
24.795
  0
LINE
  8
0
 10
122.76
 11
123.25
 20
24.795
 21
24.85
  0
LINE
  8
0
 10
123.25
 11
123.74
 20
24.85
 21
24.795
  0
LINE
  8
0
 10
123.74
 11
124.205
 20
24.795
 21
24.632
  0
LINE
  8
0
 10
124.205
 11
124.622
 20
24.632
 21
24.37
  0
LINE
  8
0
 10
124.622
 11
124.97
 20
24.37
 21
24.022
  0
LINE
  8
0
 10
124.97
 11
125.232
 20
24.022
 21
23.605
  0
LINE
  8
0
 10
125.232
 11
125.395
 20
23.605
 21
23.14
  0
LINE
  8
0
 10
125.395
 11
125.45
 20
23.14
 21
22.65
  0
LINE
  8
0
 10
125.45
 11
125.395
 20
22.65
 21
22.16
  0
LINE
  8
0
 10
125.395
 11
125.232
 20
22.16
 21
21.695
  0
LINE
  8
0
 10
125.232
 11
124.97
 20
21.695
 21
21.278
  0
LINE
  8
0
 10
124.97
 11
124.622
 20
21.278
 21
20.93
  0
LINE
  8
0
 10
124.622
 11
124.205
 20
20.93
 21
20.668
  0
LINE
  8
0
 10
124.205
 11
123.74
 20
20.668
 21
20.505
  0
LINE
  8
0
 10
123.74
 11
123.25
 20
20.505
 21
20.45
  0
LINE
  8
0
 10
123.25
 11
122.76
 20
20.45
 21
20.505
  0
LINE
  8
0
 10
122.76
 11
122.295
 20
20.505
 21
20.668
  0
LINE
  8
0
 10
122.295
 11
121.878
 20
20.668
 21
20.93
  0
LINE
  8
0
 10
121.878
 11
121.53
 20
20.93
 21
21.278
  0
LINE
  8
0
 10
121.53
 11
121.268
 20
21.278
 21
21.695
  0
LINE
  8
0
 10
121.268
 11
121.105
 20
21.695
 21
22.16
  0
LINE
  8
0
 10
121.105
 11
121.05
 20
22.16
 21
22.65
  0
LINE
  8
0
 10
121.05
 11
121.105
 20
94.15
 21
94.64
  0
LINE
  8
0
 10
121.105
 11
121.268
 20
94.64
 21
95.105
  0
LINE
  8
0
 10
121.268
 11
121.53
 20
95.105
 21
95.522
  0
LINE
  8
0
 10
121.53
 11
121.878
 20
95.522
 21
95.87
  0
LINE
  8
0
 10
121.878
 11
122.295
 20
95.87
 21
96.132
  0
LINE
  8
0
 10
122.295
 11
122.76
 20
96.132
 21
96.295
  0
LINE
  8
0
 10
122.76
 11
123.25
 20
96.295
 21
96.35
  0
LINE
  8
0
 10
123.25
 11
123.74
 20
96.35
 21
96.295
  0
LINE
  8
0
 10
123.74
 11
124.205
 20
96.295
 21
96.132
  0
LINE
  8
0
 10
124.205
 11
124.622
 20
96.132
 21
95.87
  0
LINE
  8
0
 10
124.622
 11
124.97
 20
95.87
 21
95.522
  0
LINE
  8
0
 10
124.97
 11
125.232
 20
95.522
 21
95.105
  0
LINE
  8
0
 10
125.232
 11
125.395
 20
95.105
 21
94.64
  0
LINE
  8
0
 10
125.395
 11
125.45
 20
94.64
 21
94.15
  0
LINE
  8
0
 10
125.45
 11
125.395
 20
94.15
 21
93.66
  0
LINE
  8
0
 10
125.395
 11
125.232
 20
93.66
 21
93.195
  0
LINE
  8
0
 10
125.232
 11
124.97
 20
93.195
 21
92.778
  0
LINE
  8
0
 10
124.97
 11
124.622
 20
92.778
 21
92.43
  0
LINE
  8
0
 10
124.622
 11
124.205
 20
92.43
 21
92.168
  0
LINE
  8
0
 10
124.205
 11
123.74
 20
92.168
 21
92.005
  0
LINE
  8
0
 10
123.74
 11
123.25
 20
92.005
 21
91.95
  0
LINE
  8
0
 10
123.25
 11
122.76
 20
91.95
 21
92.005
  0
LINE
  8
0
 10
122.76
 11
122.295
 20
92.005
 21
92.168
  0
LINE
  8
0
 10
122.295
 11
121.878
 20
92.168
 21
92.43
  0
LINE
  8
0
 10
121.878
 11
121.53
 20
92.43
 21
92.778
  0
LINE
  8
0
 10
121.53
 11
121.268
 20
92.778
 21
93.195
  0
LINE
  8
0
 10
121.268
 11
121.105
 20
93.195
 21
93.66
  0
LINE
  8
0
 10
121.105
 11
121.05
 20
93.66
 21
94.15
  0
LINE
  8
0
 10
148.929
 11
148.929
 20
-150.239
 21
-149.761
  0
LINE
  8
0
 10
148.929
 11
149.151
 20
-149.761
 21
-149.337
  0
LINE
  8
0
 10
149.151
 11
149.545
 20
-149.337
 21
-149.065
  0
LINE
  8
0
 10
149.545
 11
150.021
 20
-149.065
 21
-149.007
  0
LINE
  8
0
 10
150.021
 11
150.468
 20
-149.007
 21
-149.177
  0
LINE
  8
0
 10
150.468
 11
150.785
 20
-149.177
 21
-149.535
  0
LINE
  8
0
 10
150.785
 11
150.9
 20
-149.535
 21
-150
  0
LINE
  8
0
 10
150.9
 11
150.785
 20
-150
 21
-150.465
  0
LINE
  8
0
 10
150.785
 11
150.468
 20
-150.465
 21
-150.823
  0
LINE
  8
0
 10
150.468
 11
150.021
 20
-150.823
 21
-150.993
  0
LINE
  8
0
 10
150.021
 11
149.545
 20
-150.993
 21
-150.935
  0
LINE
  8
0
 10
149.545
 11
149.151
 20
-150.935
 21
-150.663
  0
LINE
  8
0
 10
149.151
 11
148.929
 20
-150.663
 21
-150.239
  0
LINE
  8
0
 10
191.234
 11
191.234
 20
-142.689
 21
-142.211
  0
LINE
  8
0
 10
191.234
 11
191.493
 20
-142.211
 21
-141.808
  0
LINE
  8
0
 10
191.493
 11
191.929
 20
-141.808
 21
-141.609
  0
LINE
  8
0
 10
191.929
 11
192.403
 20
-141.609
 21
-141.677
  0
LINE
  8
0
 10
192.403
 11
192.765
 20
-141.677
 21
-141.99
  0
LINE
  8
0
 10
192.765
 11
192.9
 20
-141.99
 21
-142.45
  0
LINE
  8
0
 10
192.9
 11
192.765
 20
-142.45
 21
-142.91
  0
LINE
  8
0
 10
192.765
 11
192.403
 20
-142.91
 21
-143.223
  0
LINE
  8
0
 10
192.403
 11
191.929
 20
-143.223
 21
-143.291
  0
LINE
  8
0
 10
191.929
 11
191.493
 20
-143.291
 21
-143.092
  0
LINE
  8
0
 10
191.493
 11
191.234
 20
-143.092
 21
-142.689
  0
LINE
  8
0
 10
191.234
 11
191.234
 20
-111.189
 21
-110.711
  0
LINE
  8
0
 10
191.234
 11
191.493
 20
-110.711
 21
-110.308
  0
LINE
  8
0
 10
191.493
 11
191.929
 20
-110.308
 21
-110.109
  0
LINE
  8
0
 10
191.929
 11
192.403
 20
-110.109
 21
-110.177
  0
LINE
  8
0
 10
192.403
 11
192.765
 20
-110.177
 21
-110.49
  0
LINE
  8
0
 10
192.765
 11
192.9
 20
-110.49
 21
-110.95
  0
LINE
  8
0
 10
192.9
 11
192.765
 20
-110.95
 21
-111.41
  0
LINE
  8
0
 10
192.765
 11
192.403
 20
-111.41
 21
-111.723
  0
LINE
  8
0
 10
192.403
 11
191.929
 20
-111.723
 21
-111.791
  0
LINE
  8
0
 10
191.929
 11
191.493
 20
-111.791
 21
-111.592
  0
LINE
  8
0
 10
191.493
 11
191.234
 20
-111.592
 21
-111.189
  0
LINE
  8
0
 10
205.534
 11
205.534
 20
-126.789
 21
-126.311
  0
LINE
  8
0
 10
205.534
 11
205.793
 20
-126.311
 21
-125.908
  0
LINE
  8
0
 10
205.793
 11
206.229
 20
-125.908
 21
-125.709
  0
LINE
  8
0
 10
206.229
 11
206.703
 20
-125.709
 21
-125.777
  0
LINE
  8
0
 10
206.703
 11
207.065
 20
-125.777
 21
-126.09
  0
LINE
  8
0
 10
207.065
 11
207.2
 20
-126.09
 21
-126.55
  0
LINE
  8
0
 10
207.2
 11
207.065
 20
-126.55
 21
-127.01
  0
LINE
  8
0
 10
207.065
 11
206.703
 20
-127.01
 21
-127.323
  0
LINE
  8
0
 10
206.703
 11
206.229
 20
-127.323
 21
-127.391
  0
LINE
  8
0
 10
206.229
 11
205.793
 20
-127.391
 21
-127.192
  0
LINE
  8
0
 10
205.793
 11
205.534
 20
-127.192
 21
-126.789
  0
LINE
  8
0
 10
205.534
 11
205.534
 20
-95.289
 21
-94.811
  0
LINE
  8
0
 10
205.534
 11
205.793
 20
-94.811
 21
-94.408
  0
LINE
  8
0
 10
205.793
 11
206.229
 20
-94.408
 21
-94.209
  0
LINE
  8
0
 10
206.229
 11
206.703
 20
-94.209
 21
-94.277
  0
LINE
  8
0
 10
206.703
 11
207.065
 20
-94.277
 21
-94.59
  0
LINE
  8
0
 10
207.065
 11
207.2
 20
-94.59
 21
-95.05
  0
LINE
  8
0
 10
207.2
 11
207.065
 20
-95.05
 21
-95.51
  0
LINE
  8
0
 10
207.065
 11
206.703
 20
-95.51
 21
-95.823
  0
LINE
  8
0
 10
206.703
 11
206.229
 20
-95.823
 21
-95.891
  0
LINE
  8
0
 10
206.229
 11
205.793
 20
-95.891
 21
-95.692
  0
LINE
  8
0
 10
205.793
 11
205.534
 20
-95.692
 21
-95.289
  0
LINE
  8
0
 10
252.46
 11
252.555
 20
-102.09
 21
-101.612
  0
LINE
  8
0
 10
252.555
 11
252.826
 20
-101.612
 21
-101.206
  0
LINE
  8
0
 10
252.826
 11
253.232
 20
-101.206
 21
-100.935
  0
LINE
  8
0
 10
253.232
 11
253.71
 20
-100.935
 21
-100.84
  0
LINE
  8
0
 10
253.71
 11
254.188
 20
-100.84
 21
-100.935
  0
LINE
  8
0
 10
254.188
 11
254.594
 20
-100.935
 21
-101.206
  0
LINE
  8
0
 10
254.594
 11
254.865
 20
-101.206
 21
-101.612
  0
LINE
  8
0
 10
254.865
 11
254.96
 20
-101.612
 21
-102.09
  0
LINE
  8
0
 10
254.96
 11
254.865
 20
-102.09
 21
-102.568
  0
LINE
  8
0
 10
254.865
 11
254.594
 20
-102.568
 21
-102.974
  0
LINE
  8
0
 10
254.594
 11
254.188
 20
-102.974
 21
-103.245
  0
LINE
  8
0
 10
254.188
 11
253.71
 20
-103.245
 21
-103.34
  0
LINE
  8
0
 10
253.71
 11
253.232
 20
-103.34
 21
-103.245
  0
LINE
  8
0
 10
253.232
 11
252.826
 20
-103.245
 21
-102.974
  0
LINE
  8
0
 10
252.826
 11
252.555
 20
-102.974
 21
-102.568
  0
LINE
  8
0
 10
252.555
 11
252.46
 20
-102.568
 21
-102.09
  0
LINE
  8
0
 10
252.46
 11
252.555
 20
-58.91
 21
-58.432
  0
LINE
  8
0
 10
252.555
 11
252.826
 20
-58.432
 21
-58.026
  0
LINE
  8
0
 10
252.826
 11
253.232
 20
-58.026
 21
-57.755
  0
LINE
  8
0
 10
253.232
 11
253.71
 20
-57.755
 21
-57.66
  0
LINE
  8
0
 10
253.71
 11
254.188
 20
-57.66
 21
-57.755
  0
LINE
  8
0
 10
254.188
 11
254.594
 20
-57.755
 21
-58.026
  0
LINE
  8
0
 10
254.594
 11
254.865
 20
-58.026
 21
-58.432
  0
LINE
  8
0
 10
254.865
 11
254.96
 20
-58.432
 21
-58.91
  0
LINE
  8
0
 10
254.96
 11
254.865
 20
-58.91
 21
-59.388
  0
LINE
  8
0
 10
254.865
 11
254.594
 20
-59.388
 21
-59.794
  0
LINE
  8
0
 10
254.594
 11
254.188
 20
-59.794
 21
-60.065
  0
LINE
  8
0
 10
254.188
 11
253.71
 20
-60.065
 21
-60.16
  0
LINE
  8
0
 10
253.71
 11
253.232
 20
-60.16
 21
-60.065
  0
LINE
  8
0
 10
253.232
 11
252.826
 20
-60.065
 21
-59.794
  0
LINE
  8
0
 10
252.826
 11
252.555
 20
-59.794
 21
-59.388
  0
LINE
  8
0
 10
252.555
 11
252.46
 20
-59.388
 21
-58.91
  0
LINE
  8
0
 10
335.512
 11
335.626
 20
-36.1
 21
-35.635
  0
LINE
  8
0
 10
335.626
 11
335.944
 20
-35.635
 21
-35.277
  0
LINE
  8
0
 10
335.944
 11
336.391
 20
-35.277
 21
-35.107
  0
LINE
  8
0
 10
336.391
 11
336.866
 20
-35.107
 21
-35.165
  0
LINE
  8
0
 10
336.866
 11
337.26
 20
-35.165
 21
-35.437
  0
LINE
  8
0
 10
337.26
 11
337.483
 20
-35.437
 21
-35.861
  0
LINE
  8
0
 10
337.483
 11
337.483
 20
-35.861
 21
-36.339
  0
LINE
  8
0
 10
337.483
 11
337.26
 20
-36.339
 21
-36.763
  0
LINE
  8
0
 10
337.26
 11
336.866
 20
-36.763
 21
-37.035
  0
LINE
  8
0
 10
336.866
 11
336.391
 20
-37.035
 21
-37.093
  0
LINE
  8
0
 10
336.391
 11
335.944
 20
-37.093
 21
-36.923
  0
LINE
  8
0
 10
335.944
 11
335.626
 20
-36.923
 21
-36.565
  0
LINE
  8
0
 10
335.626
 11
335.512
 20
-36.565
 21
-36.1
  0
LINE
  8
0
 10
335.512
 11
335.626
 20
88.9
 21
89.365
  0
LINE
  8
0
 10
335.626
 11
335.944
 20
89.365
 21
89.723
  0
LINE
  8
0
 10
335.944
 11
336.391
 20
89.723
 21
89.893
  0
LINE
  8
0
 10
336.391
 11
336.866
 20
89.893
 21
89.835
  0
LINE
  8
0
 10
336.866
 11
337.26
 20
89.835
 21
89.563
  0
LINE
  8
0
 10
337.26
 11
337.483
 20
89.563
 21
89.139
  0
LINE
  8
0
 10
337.483
 11
337.483
 20
89.139
 21
88.661
  0
LINE
  8
0
 10
337.483
 11
337.26
 20
88.661
 21
88.237
  0
LINE
  8
0
 10
337.26
 11
336.866
 20
88.237
 21
87.965
  0
LINE
  8
0
 10
336.866
 11
336.391
 20
87.965
 21
87.907
  0
LINE
  8
0
 10
336.391
 11
335.944
 20
87.907
 21
88.077
  0
LINE
  8
0
 10
335.944
 11
335.626
 20
88.077
 21
88.435
  0
LINE
  8
0
 10
335.626
 11
335.512
 20
88.435
 21
88.9
  0
LINE
  8
0
 10
346.44
 11
346.535
 20
-102.09
 21
-101.612
  0
LINE
  8
0
 10
346.535
 11
346.806
 20
-101.612
 21
-101.206
  0
LINE
  8
0
 10
346.806
 11
347.212
 20
-101.206
 21
-100.935
  0
LINE
  8
0
 10
347.212
 11
347.69
 20
-100.935
 21
-100.84
  0
LINE
  8
0
 10
347.69
 11
348.168
 20
-100.84
 21
-100.935
  0
LINE
  8
0
 10
348.168
 11
348.574
 20
-100.935
 21
-101.206
  0
LINE
  8
0
 10
348.574
 11
348.845
 20
-101.206
 21
-101.612
  0
LINE
  8
0
 10
348.845
 11
348.94
 20
-101.612
 21
-102.09
  0
LINE
  8
0
 10
348.94
 11
348.845
 20
-102.09
 21
-102.568
  0
LINE
  8
0
 10
348.845
 11
348.574
 20
-102.568
 21
-102.974
  0
LINE
  8
0
 10
348.574
 11
348.168
 20
-102.974
 21
-103.245
  0
LINE
  8
0
 10
348.168
 11
347.69
 20
-103.245
 21
-103.34
  0
LINE
  8
0
 10
347.69
 11
347.212
 20
-103.34
 21
-103.245
  0
LINE
  8
0
 10
347.212
 11
346.806
 20
-103.245
 21
-102.974
  0
LINE
  8
0
 10
346.806
 11
346.535
 20
-102.974
 21
-102.568
  0
LINE
  8
0
 10
346.535
 11
346.44
 20
-102.568
 21
-102.09
  0
LINE
  8
0
 10
346.44
 11
346.535
 20
-58.91
 21
-58.432
  0
LINE
  8
0
 10
346.535
 11
346.806
 20
-58.432
 21
-58.026
  0
LINE
  8
0
 10
346.806
 11
347.212
 20
-58.026
 21
-57.755
  0
LINE
  8
0
 10
347.212
 11
347.69
 20
-57.755
 21
-57.66
  0
LINE
  8
0
 10
347.69
 11
348.168
 20
-57.66
 21
-57.755
  0
LINE
  8
0
 10
348.168
 11
348.574
 20
-57.755
 21
-58.026
  0
LINE
  8
0
 10
348.574
 11
348.845
 20
-58.026
 21
-58.432
  0
LINE
  8
0
 10
348.845
 11
348.94
 20
-58.432
 21
-58.91
  0
LINE
  8
0
 10
348.94
 11
348.845
 20
-58.91
 21
-59.388
  0
LINE
  8
0
 10
348.845
 11
348.574
 20
-59.388
 21
-59.794
  0
LINE
  8
0
 10
348.574
 11
348.168
 20
-59.794
 21
-60.065
  0
LINE
  8
0
 10
348.168
 11
347.69
 20
-60.065
 21
-60.16
  0
LINE
  8
0
 10
347.69
 11
347.212
 20
-60.16
 21
-60.065
  0
LINE
  8
0
 10
347.212
 11
346.806
 20
-60.065
 21
-59.794
  0
LINE
  8
0
 10
346.806
 11
346.535
 20
-59.794
 21
-59.388
  0
LINE
  8
0
 10
346.535
 11
346.44
 20
-59.388
 21
-58.91
  0
LINE
  8
0
 10
360.08
 11
360.121
 20
-12
 21
-11.506
  0
LINE
  8
0
 10
360.121
 11
360.243
 20
-11.506
 21
-11.026
  0
LINE
  8
0
 10
360.243
 11
360.442
 20
-11.026
 21
-10.572
  0
LINE
  8
0
 10
360.442
 11
360.713
 20
-10.572
 21
-10.157
  0
LINE
  8
0
 10
360.713
 11
361.048
 20
-10.157
 21
-9.793
  0
LINE
  8
0
 10
361.048
 11
361.439
 20
-9.793
 21
-9.489
  0
LINE
  8
0
 10
361.439
 11
361.875
 20
-9.489
 21
-9.253
  0
LINE
  8
0
 10
361.875
 11
362.344
 20
-9.253
 21
-9.092
  0
LINE
  8
0
 10
362.344
 11
362.832
 20
-9.092
 21
-9.01
  0
LINE
  8
0
 10
362.832
 11
363.328
 20
-9.01
 21
-9.01
  0
LINE
  8
0
 10
363.328
 11
363.816
 20
-9.01
 21
-9.092
  0
LINE
  8
0
 10
363.816
 11
364.285
 20
-9.092
 21
-9.253
  0
LINE
  8
0
 10
364.285
 11
364.721
 20
-9.253
 21
-9.489
  0
LINE
  8
0
 10
364.721
 11
365.112
 20
-9.489
 21
-9.793
  0
LINE
  8
0
 10
365.112
 11
365.447
 20
-9.793
 21
-10.157
  0
LINE
  8
0
 10
365.447
 11
365.718
 20
-10.157
 21
-10.572
  0
LINE
  8
0
 10
365.718
 11
365.917
 20
-10.572
 21
-11.026
  0
LINE
  8
0
 10
365.917
 11
366.039
 20
-11.026
 21
-11.506
  0
LINE
  8
0
 10
366.039
 11
366.08
 20
-11.506
 21
-12
  0
LINE
  8
0
 10
366.08
 11
366.039
 20
-12
 21
-12.494
  0
LINE
  8
0
 10
366.039
 11
365.917
 20
-12.494
 21
-12.974
  0
LINE
  8
0
 10
365.917
 11
365.718
 20
-12.974
 21
-13.428
  0
LINE
  8
0
 10
365.718
 11
365.447
 20
-13.428
 21
-13.843
  0
LINE
  8
0
 10
365.447
 11
365.112
 20
-13.843
 21
-14.207
  0
LINE
  8
0
 10
365.112
 11
364.721
 20
-14.207
 21
-14.511
  0
LINE
  8
0
 10
364.721
 11
364.285
 20
-14.511
 21
-14.747
  0
LINE
  8
0
 10
364.285
 11
363.816
 20
-14.747
 21
-14.908
  0
LINE
  8
0
 10
363.816
 11
363.328
 20
-14.908
 21
-14.99
  0
LINE
  8
0
 10
363.328
 11
362.832
 20
-14.99
 21
-14.99
  0
LINE
  8
0
 10
362.832
 11
362.344
 20
-14.99
 21
-14.908
  0
LINE
  8
0
 10
362.344
 11
361.875
 20
-14.908
 21
-14.747
  0
LINE
  8
0
 10
361.875
 11
361.439
 20
-14.747
 21
-14.511
  0
LINE
  8
0
 10
361.439
 11
361.048
 20
-14.511
 21
-14.207
  0
LINE
  8
0
 10
361.048
 11
360.713
 20
-14.207
 21
-13.843
  0
LINE
  8
0
 10
360.713
 11
360.442
 20
-13.843
 21
-13.428
  0
LINE
  8
0
 10
360.442
 11
360.243
 20
-13.428
 21
-12.974
  0
LINE
  8
0
 10
360.243
 11
360.121
 20
-12.974
 21
-12.494
  0
LINE
  8
0
 10
360.121
 11
360.08
 20
-12.494
 21
-12
  0
LINE
  8
0
 10
360.08
 11
360.121
 20
8
 21
8.494
  0
LINE
  8
0
 10
360.121
 11
360.243
 20
8.494
 21
8.974
  0
LINE
  8
0
 10
360.243
 11
360.442
 20
8.974
 21
9.428
  0
LINE
  8
0
 10
360.442
 11
360.713
 20
9.428
 21
9.843
  0
LINE
  8
0
 10
360.713
 11
361.048
 20
9.843
 21
10.207
  0
LINE
  8
0
 10
361.048
 11
361.439
 20
10.207
 21
10.511
  0
LINE
  8
0
 10
361.439
 11
361.875
 20
10.511
 21
10.747
  0
LINE
  8
0
 10
361.875
 11
362.344
 20
10.747
 21
10.908
  0
LINE
  8
0
 10
362.344
 11
362.832
 20
10.908
 21
10.99
  0
LINE
  8
0
 10
362.832
 11
363.328
 20
10.99
 21
10.99
  0
LINE
  8
0
 10
363.328
 11
363.816
 20
10.99
 21
10.908
  0
LINE
  8
0
 10
363.816
 11
364.285
 20
10.908
 21
10.747
  0
LINE
  8
0
 10
364.285
 11
364.721
 20
10.747
 21
10.511
  0
LINE
  8
0
 10
364.721
 11
365.112
 20
10.511
 21
10.207
  0
LINE
  8
0
 10
365.112
 11
365.447
 20
10.207
 21
9.843
  0
LINE
  8
0
 10
365.447
 11
365.718
 20
9.843
 21
9.428
  0
LINE
  8
0
 10
365.718
 11
365.917
 20
9.428
 21
8.974
  0
LINE
  8
0
 10
365.917
 11
366.039
 20
8.974
 21
8.494
  0
LINE
  8
0
 10
366.039
 11
366.08
 20
8.494
 21
8
  0
LINE
  8
0
 10
366.08
 11
366.039
 20
8
 21
7.506
  0
LINE
  8
0
 10
366.039
 11
365.917
 20
7.506
 21
7.026
  0
LINE
  8
0
 10
365.917
 11
365.718
 20
7.026
 21
6.572
  0
LINE
  8
0
 10
365.718
 11
365.447
 20
6.572
 21
6.157
  0
LINE
  8
0
 10
365.447
 11
365.112
 20
6.157
 21
5.793
  0
LINE
  8
0
 10
365.112
 11
364.721
 20
5.793
 21
5.489
  0
LINE
  8
0
 10
364.721
 11
364.285
 20
5.489
 21
5.253
  0
LINE
  8
0
 10
364.285
 11
363.816
 20
5.253
 21
5.092
  0
LINE
  8
0
 10
363.816
 11
363.328
 20
5.092
 21
5.01
  0
LINE
  8
0
 10
363.328
 11
362.832
 20
5.01
 21
5.01
  0
LINE
  8
0
 10
362.832
 11
362.344
 20
5.01
 21
5.092
  0
LINE
  8
0
 10
362.344
 11
361.875
 20
5.092
 21
5.253
  0
LINE
  8
0
 10
361.875
 11
361.439
 20
5.253
 21
5.489
  0
LINE
  8
0
 10
361.439
 11
361.048
 20
5.489
 21
5.793
  0
LINE
  8
0
 10
361.048
 11
360.713
 20
5.793
 21
6.157
  0
LINE
  8
0
 10
360.713
 11
360.442
 20
6.157
 21
6.572
  0
LINE
  8
0
 10
360.442
 11
360.243
 20
6.572
 21
7.026
  0
LINE
  8
0
 10
360.243
 11
360.121
 20
7.026
 21
7.506
  0
LINE
  8
0
 10
360.121
 11
360.08
 20
7.506
 21
8
  0
LINE
  8
0
 10
372.58
 11
372.638
 20
-11
 21
-10.521
  0
LINE
  8
0
 10
372.638
 11
372.809
 20
-10.521
 21
-10.071
  0
LINE
  8
0
 10
372.809
 11
373.083
 20
-10.071
 21
-9.674
  0
LINE
  8
0
 10
373.083
 11
373.444
 20
-9.674
 21
-9.354
  0
LINE
  8
0
 10
373.444
 11
373.871
 20
-9.354
 21
-9.13
  0
LINE
  8
0
 10
373.871
 11
374.339
 20
-9.13
 21
-9.015
  0
LINE
  8
0
 10
374.339
 11
374.821
 20
-9.015
 21
-9.015
  0
LINE
  8
0
 10
374.821
 11
375.289
 20
-9.015
 21
-9.13
  0
LINE
  8
0
 10
375.289
 11
375.716
 20
-9.13
 21
-9.354
  0
LINE
  8
0
 10
375.716
 11
376.077
 20
-9.354
 21
-9.674
  0
LINE
  8
0
 10
376.077
 11
376.351
 20
-9.674
 21
-10.071
  0
LINE
  8
0
 10
376.351
 11
376.522
 20
-10.071
 21
-10.521
  0
LINE
  8
0
 10
376.522
 11
376.58
 20
-10.521
 21
-11
  0
LINE
  8
0
 10
376.58
 11
376.522
 20
-11
 21
-11.479
  0
LINE
  8
0
 10
376.522
 11
376.351
 20
-11.479
 21
-11.929
  0
LINE
  8
0
 10
376.351
 11
376.077
 20
-11.929
 21
-12.326
  0
LINE
  8
0
 10
376.077
 11
375.716
 20
-12.326
 21
-12.646
  0
LINE
  8
0
 10
375.716
 11
375.289
 20
-12.646
 21
-12.87
  0
LINE
  8
0
 10
375.289
 11
374.821
 20
-12.87
 21
-12.985
  0
LINE
  8
0
 10
374.821
 11
374.339
 20
-12.985
 21
-12.985
  0
LINE
  8
0
 10
374.339
 11
373.871
 20
-12.985
 21
-12.87
  0
LINE
  8
0
 10
373.871
 11
373.444
 20
-12.87
 21
-12.646
  0
LINE
  8
0
 10
373.444
 11
373.083
 20
-12.646
 21
-12.326
  0
LINE
  8
0
 10
373.083
 11
372.809
 20
-12.326
 21
-11.929
  0
LINE
  8
0
 10
372.809
 11
372.638
 20
-11.929
 21
-11.479
  0
LINE
  8
0
 10
372.638
 11
372.58
 20
-11.479
 21
-11
  0
LINE
  8
0
 10
372.58
 11
372.638
 20
7
 21
7.479
  0
LINE
  8
0
 10
372.638
 11
372.809
 20
7.479
 21
7.929
  0
LINE
  8
0
 10
372.809
 11
373.083
 20
7.929
 21
8.326
  0
LINE
  8
0
 10
373.083
 11
373.444
 20
8.326
 21
8.646
  0
LINE
  8
0
 10
373.444
 11
373.871
 20
8.646
 21
8.87
  0
LINE
  8
0
 10
373.871
 11
374.339
 20
8.87
 21
8.985
  0
LINE
  8
0
 10
374.339
 11
374.821
 20
8.985
 21
8.985
  0
LINE
  8
0
 10
374.821
 11
375.289
 20
8.985
 21
8.87
  0
LINE
  8
0
 10
375.289
 11
375.716
 20
8.87
 21
8.646
  0
LINE
  8
0
 10
375.716
 11
376.077
 20
8.646
 21
8.326
  0
LINE
  8
0
 10
376.077
 11
376.351
 20
8.326
 21
7.929
  0
LINE
  8
0
 10
376.351
 11
376.522
 20
7.929
 21
7.479
  0
LINE
  8
0
 10
376.522
 11
376.58
 20
7.479
 21
7
  0
LINE
  8
0
 10
376.58
 11
376.522
 20
7
 21
6.521
  0
LINE
  8
0
 10
376.522
 11
376.351
 20
6.521
 21
6.071
  0
LINE
  8
0
 10
376.351
 11
376.077
 20
6.071
 21
5.674
  0
LINE
  8
0
 10
376.077
 11
375.716
 20
5.674
 21
5.354
  0
LINE
  8
0
 10
375.716
 11
375.289
 20
5.354
 21
5.13
  0
LINE
  8
0
 10
375.289
 11
374.821
 20
5.13
 21
5.015
  0
LINE
  8
0
 10
374.821
 11
374.339
 20
5.015
 21
5.015
  0
LINE
  8
0
 10
374.339
 11
373.871
 20
5.015
 21
5.13
  0
LINE
  8
0
 10
373.871
 11
373.444
 20
5.13
 21
5.354
  0
LINE
  8
0
 10
373.444
 11
373.083
 20
5.354
 21
5.674
  0
LINE
  8
0
 10
373.083
 11
372.809
 20
5.674
 21
6.071
  0
LINE
  8
0
 10
372.809
 11
372.638
 20
6.071
 21
6.521
  0
LINE
  8
0
 10
372.638
 11
372.58
 20
6.521
 21
7
  0
LINE
  8
0
 10
386.68
 11
386.795
 20
8.2
 21
8.665
  0
LINE
  8
0
 10
386.795
 11
387.112
 20
8.665
 21
9.023
  0
LINE
  8
0
 10
387.112
 11
387.559
 20
9.023
 21
9.193
  0
LINE
  8
0
 10
387.559
 11
388.035
 20
9.193
 21
9.135
  0
LINE
  8
0
 10
388.035
 11
388.429
 20
9.135
 21
8.863
  0
LINE
  8
0
 10
388.429
 11
388.651
 20
8.863
 21
8.439
  0
LINE
  8
0
 10
388.651
 11
388.651
 20
8.439
 21
7.961
  0
LINE
  8
0
 10
388.651
 11
388.429
 20
7.961
 21
7.537
  0
LINE
  8
0
 10
388.429
 11
388.035
 20
7.537
 21
7.265
  0
LINE
  8
0
 10
388.035
 11
387.559
 20
7.265
 21
7.207
  0
LINE
  8
0
 10
387.559
 11
387.112
 20
7.207
 21
7.377
  0
LINE
  8
0
 10
387.112
 11
386.795
 20
7.377
 21
7.735
  0
LINE
  8
0
 10
386.795
 11
386.68
 20
7.735
 21
8.2
  0
LINE
  8
0
 10
386.709
 11
386.709
 20
-12.439
 21
-11.961
  0
LINE
  8
0
 10
386.709
 11
386.931
 20
-11.961
 21
-11.537
  0
LINE
  8
0
 10
386.931
 11
387.325
 20
-11.537
 21
-11.265
  0
LINE
  8
0
 10
387.325
 11
387.801
 20
-11.265
 21
-11.207
  0
LINE
  8
0
 10
387.801
 11
388.248
 20
-11.207
 21
-11.377
  0
LINE
  8
0
 10
388.248
 11
388.565
 20
-11.377
 21
-11.735
  0
LINE
  8
0
 10
388.565
 11
388.68
 20
-11.735
 21
-12.2
  0
LINE
  8
0
 10
388.68
 11
388.565
 20
-12.2
 21
-12.665
  0
LINE
  8
0
 10
388.565
 11
388.248
 20
-12.665
 21
-13.023
  0
LINE
  8
0
 10
388.248
 11
387.801
 20
-13.023
 21
-13.193
  0
LINE
  8
0
 10
387.801
 11
387.325
 20
-13.193
 21
-13.135
  0
LINE
  8
0
 10
387.325
 11
386.931
 20
-13.135
 21
-12.863
  0
LINE
  8
0
 10
386.931
 11
386.709
 20
-12.863
 21
-12.439
  0
LINE
  8
0
 10
407.9
 11
408.015
 20
8.2
 21
8.665
  0
LINE
  8
0
 10
408.015
 11
408.332
 20
8.665
 21
9.023
  0
LINE
  8
0
 10
408.332
 11
408.779
 20
9.023
 21
9.193
  0
LINE
  8
0
 10
408.779
 11
409.255
 20
9.193
 21
9.135
  0
LINE
  8
0
 10
409.255
 11
409.649
 20
9.135
 21
8.863
  0
LINE
  8
0
 10
409.649
 11
409.871
 20
8.863
 21
8.439
  0
LINE
  8
0
 10
409.871
 11
409.871
 20
8.439
 21
7.961
  0
LINE
  8
0
 10
409.871
 11
409.649
 20
7.961
 21
7.537
  0
LINE
  8
0
 10
409.649
 11
409.255
 20
7.537
 21
7.265
  0
LINE
  8
0
 10
409.255
 11
408.779
 20
7.265
 21
7.207
  0
LINE
  8
0
 10
408.779
 11
408.332
 20
7.207
 21
7.377
  0
LINE
  8
0
 10
408.332
 11
408.015
 20
7.377
 21
7.735
  0
LINE
  8
0
 10
408.015
 11
407.9
 20
7.735
 21
8.2
  0
LINE
  8
0
 10
407.929
 11
407.929
 20
-12.439
 21
-11.961
  0
LINE
  8
0
 10
407.929
 11
408.151
 20
-11.961
 21
-11.537
  0
LINE
  8
0
 10
408.151
 11
408.545
 20
-11.537
 21
-11.265
  0
LINE
  8
0
 10
408.545
 11
409.021
 20
-11.265
 21
-11.207
  0
LINE
  8
0
 10
409.021
 11
409.468
 20
-11.207
 21
-11.377
  0
LINE
  8
0
 10
409.468
 11
409.785
 20
-11.377
 21
-11.735
  0
LINE
  8
0
 10
409.785
 11
409.9
 20
-11.735
 21
-12.2
  0
LINE
  8
0
 10
409.9
 11
409.785
 20
-12.2
 21
-12.665
  0
LINE
  8
0
 10
409.785
 11
409.468
 20
-12.665
 21
-13.023
  0
LINE
  8
0
 10
409.468
 11
409.021
 20
-13.023
 21
-13.193
  0
LINE
  8
0
 10
409.021
 11
408.545
 20
-13.193
 21
-13.135
  0
LINE
  8
0
 10
408.545
 11
408.151
 20
-13.135
 21
-12.863
  0
LINE
  8
0
 10
408.151
 11
407.929
 20
-12.863
 21
-12.439
  0
ENDSEC
  0
SECTION
  2
OBJECTS
  0
DICTIONARY
  0
ENDSEC
  0
EOF
