  0
SECTION
  2
BLOCKS
  0
ENDSEC
  0
SECTION
  2
ENTITIES
  0
LINE
  8
0
 10
-280.75
 11
-280.75
 20
0
 21
410
  0
LINE
  8
0
 10
-280.75
 11
-280.655
 20
410
 21
412.179
  0
LINE
  8
0
 10
-280.655
 11
-280.37
 20
412.179
 21
414.341
  0
LINE
  8
0
 10
-280.37
 11
-279.898
 20
414.341
 21
416.47
  0
LINE
  8
0
 10
-279.898
 11
-279.242
 20
416.47
 21
418.551
  0
LINE
  8
0
 10
-279.242
 11
-278.408
 20
418.551
 21
420.565
  0
LINE
  8
0
 10
-278.408
 11
-277.401
 20
420.565
 21
422.5
  0
LINE
  8
0
 10
-277.401
 11
-276.229
 20
422.5
 21
424.339
  0
LINE
  8
0
 10
-276.229
 11
-274.901
 20
424.339
 21
426.07
  0
LINE
  8
0
 10
-274.901
 11
-273.428
 20
426.07
 21
427.678
  0
LINE
  8
0
 10
-273.428
 11
-271.82
 20
427.678
 21
429.151
  0
LINE
  8
0
 10
-271.82
 11
-270.089
 20
429.151
 21
430.479
  0
LINE
  8
0
 10
-270.089
 11
-268.25
 20
430.479
 21
431.651
  0
LINE
  8
0
 10
-268.25
 11
-266.315
 20
431.651
 21
432.658
  0
LINE
  8
0
 10
-266.315
 11
-264.301
 20
432.658
 21
433.492
  0
LINE
  8
0
 10
-264.301
 11
-262.22
 20
433.492
 21
434.148
  0
LINE
  8
0
 10
-262.22
 11
-260.091
 20
434.148
 21
434.62
  0
LINE
  8
0
 10
-260.091
 11
-257.929
 20
434.62
 21
434.905
  0
LINE
  8
0
 10
-257.929
 11
-255.75
 20
434.905
 21
435
  0
LINE
  8
0
 10
-255.75
 11
255.75
 20
435
 21
435
  0
LINE
  8
0
 10
255.75
 11
257.929
 20
435
 21
434.905
  0
LINE
  8
0
 10
257.929
 11
260.091
 20
434.905
 21
434.62
  0
LINE
  8
0
 10
260.091
 11
262.22
 20
434.62
 21
434.148
  0
LINE
  8
0
 10
262.22
 11
264.301
 20
434.148
 21
433.492
  0
LINE
  8
0
 10
264.301
 11
266.315
 20
433.492
 21
432.658
  0
LINE
  8
0
 10
266.315
 11
268.25
 20
432.658
 21
431.651
  0
LINE
  8
0
 10
268.25
 11
270.089
 20
431.651
 21
430.479
  0
LINE
  8
0
 10
270.089
 11
271.82
 20
430.479
 21
429.151
  0
LINE
  8
0
 10
271.82
 11
273.428
 20
429.151
 21
427.678
  0
LINE
  8
0
 10
273.428
 11
274.901
 20
427.678
 21
426.07
  0
LINE
  8
0
 10
274.901
 11
276.229
 20
426.07
 21
424.339
  0
LINE
  8
0
 10
276.229
 11
277.401
 20
424.339
 21
422.5
  0
LINE
  8
0
 10
277.401
 11
278.408
 20
422.5
 21
420.565
  0
LINE
  8
0
 10
278.408
 11
279.242
 20
420.565
 21
418.551
  0
LINE
  8
0
 10
279.242
 11
279.898
 20
418.551
 21
416.47
  0
LINE
  8
0
 10
279.898
 11
280.37
 20
416.47
 21
414.341
  0
LINE
  8
0
 10
280.37
 11
280.655
 20
414.341
 21
412.179
  0
LINE
  8
0
 10
280.655
 11
280.75
 20
412.179
 21
410
  0
LINE
  8
0
 10
280.75
 11
280.75
 20
410
 21
0
  0
LINE
  8
0
 10
280.75
 11
154.75
 20
0
 21
0
  0
LINE
  8
0
 10
154.75
 11
154.75
 20
0
 21
328.1
  0
LINE
  8
0
 10
154.75
 11
154.725
 20
328.1
 21
328.598
  0
LINE
  8
0
 10
154.725
 11
154.651
 20
328.598
 21
329.091
  0
LINE
  8
0
 10
154.651
 11
154.528
 20
329.091
 21
329.574
  0
LINE
  8
0
 10
154.528
 11
154.357
 20
329.574
 21
330.042
  0
LINE
  8
0
 10
154.357
 11
154.141
 20
330.042
 21
330.491
  0
LINE
  8
0
 10
154.141
 11
153.881
 20
330.491
 21
330.917
  0
LINE
  8
0
 10
153.881
 11
153.58
 20
330.917
 21
331.314
  0
LINE
  8
0
 10
153.58
 11
153.241
 20
331.314
 21
331.679
  0
LINE
  8
0
 10
153.241
 11
152.867
 20
331.679
 21
332.009
  0
LINE
  8
0
 10
152.867
 11
152.463
 20
332.009
 21
332.3
  0
LINE
  8
0
 10
152.463
 11
152.031
 20
332.3
 21
332.549
  0
LINE
  8
0
 10
152.031
 11
151.577
 20
332.549
 21
332.754
  0
LINE
  8
0
 10
151.577
 11
151.104
 20
332.754
 21
332.913
  0
LINE
  8
0
 10
151.104
 11
150.618
 20
332.913
 21
333.024
  0
LINE
  8
0
 10
150.618
 11
150.124
 20
333.024
 21
333.086
  0
LINE
  8
0
 10
150.124
 11
149.75
 20
333.086
 21
333.095
  0
LINE
  8
0
 10
149.75
 11
149.75
 20
333.095
 21
333.1
  0
LINE
  8
0
 10
149.75
 11
-163.25
 20
333.1
 21
333.1
  0
LINE
  8
0
 10
-163.25
 11
-163.25
 20
333.1
 21
333.095
  0
LINE
  8
0
 10
-163.25
 11
-163.375
 20
333.095
 21
333.098
  0
LINE
  8
0
 10
-163.375
 11
-163.872
 20
333.098
 21
333.061
  0
LINE
  8
0
 10
-163.872
 11
-164.363
 20
333.061
 21
332.975
  0
LINE
  8
0
 10
-164.363
 11
-164.842
 20
332.975
 21
332.84
  0
LINE
  8
0
 10
-164.842
 11
-165.306
 20
332.84
 21
332.658
  0
LINE
  8
0
 10
-165.306
 11
-165.75
 20
332.658
 21
332.43
  0
LINE
  8
0
 10
-165.75
 11
-166.169
 20
332.43
 21
332.16
  0
LINE
  8
0
 10
-166.169
 11
-166.558
 20
332.16
 21
331.849
  0
LINE
  8
0
 10
-166.558
 11
-166.915
 20
331.849
 21
331.501
  0
LINE
  8
0
 10
-166.915
 11
-167.236
 20
331.501
 21
331.119
  0
LINE
  8
0
 10
-167.236
 11
-167.516
 20
331.119
 21
330.707
  0
LINE
  8
0
 10
-167.516
 11
-167.755
 20
330.707
 21
330.269
  0
LINE
  8
0
 10
-167.755
 11
-167.948
 20
330.269
 21
329.81
  0
LINE
  8
0
 10
-167.948
 11
-168.095
 20
329.81
 21
329.334
  0
LINE
  8
0
 10
-168.095
 11
-168.194
 20
329.334
 21
328.845
  0
LINE
  8
0
 10
-168.194
 11
-168.244
 20
328.845
 21
328.349
  0
LINE
  8
0
 10
-168.244
 11
-168.244
 20
328.349
 21
328.1
  0
LINE
  8
0
 10
-168.244
 11
-168.25
 20
328.1
 21
328.1
  0
LINE
  8
0
 10
-168.25
 11
-168.25
 20
328.1
 21
0
  0
LINE
  8
0
 10
-168.25
 11
-280.75
 20
0
 21
0
  0
LINE
  8
0
 10
-274.221
 11
-274.221
 20
108.861
 21
109.339
  0
LINE
  8
0
 10
-274.221
 11
-273.999
 20
109.339
 21
109.763
  0
LINE
  8
0
 10
-273.999
 11
-273.605
 20
109.763
 21
110.035
  0
LINE
  8
0
 10
-273.605
 11
-273.129
 20
110.035
 21
110.093
  0
LINE
  8
0
 10
-273.129
 11
-272.682
 20
110.093
 21
109.923
  0
LINE
  8
0
 10
-272.682
 11
-272.365
 20
109.923
 21
109.565
  0
LINE
  8
0
 10
-272.365
 11
-272.25
 20
109.565
 21
109.1
  0
LINE
  8
0
 10
-272.25
 11
-272.365
 20
109.1
 21
108.635
  0
LINE
  8
0
 10
-272.365
 11
-272.682
 20
108.635
 21
108.277
  0
LINE
  8
0
 10
-272.682
 11
-273.129
 20
108.277
 21
108.107
  0
LINE
  8
0
 10
-273.129
 11
-273.605
 20
108.107
 21
108.165
  0
LINE
  8
0
 10
-273.605
 11
-273.999
 20
108.165
 21
108.437
  0
LINE
  8
0
 10
-273.999
 11
-274.221
 20
108.437
 21
108.861
  0
LINE
  8
0
 10
-274.221
 11
-274.221
 20
150.261
 21
150.739
  0
LINE
  8
0
 10
-274.221
 11
-273.999
 20
150.739
 21
151.163
  0
LINE
  8
0
 10
-273.999
 11
-273.605
 20
151.163
 21
151.435
  0
LINE
  8
0
 10
-273.605
 11
-273.129
 20
151.435
 21
151.493
  0
LINE
  8
0
 10
-273.129
 11
-272.682
 20
151.493
 21
151.323
  0
LINE
  8
0
 10
-272.682
 11
-272.365
 20
151.323
 21
150.965
  0
LINE
  8
0
 10
-272.365
 11
-272.25
 20
150.965
 21
150.5
  0
LINE
  8
0
 10
-272.25
 11
-272.365
 20
150.5
 21
150.035
  0
LINE
  8
0
 10
-272.365
 11
-272.682
 20
150.035
 21
149.677
  0
LINE
  8
0
 10
-272.682
 11
-273.129
 20
149.677
 21
149.507
  0
LINE
  8
0
 10
-273.129
 11
-273.605
 20
149.507
 21
149.565
  0
LINE
  8
0
 10
-273.605
 11
-273.999
 20
149.565
 21
149.837
  0
LINE
  8
0
 10
-273.999
 11
-274.221
 20
149.837
 21
150.261
  0
LINE
  8
0
 10
-272.05
 11
-271.935
 20
8.2
 21
8.665
  0
LINE
  8
0
 10
-271.935
 11
-271.618
 20
8.665
 21
9.023
  0
LINE
  8
0
 10
-271.618
 11
-271.171
 20
9.023
 21
9.193
  0
LINE
  8
0
 10
-271.171
 11
-270.695
 20
9.193
 21
9.135
  0
LINE
  8
0
 10
-270.695
 11
-270.301
 20
9.135
 21
8.863
  0
LINE
  8
0
 10
-270.301
 11
-270.079
 20
8.863
 21
8.439
  0
LINE
  8
0
 10
-270.079
 11
-270.079
 20
8.439
 21
7.961
  0
LINE
  8
0
 10
-270.079
 11
-270.301
 20
7.961
 21
7.537
  0
LINE
  8
0
 10
-270.301
 11
-270.695
 20
7.537
 21
7.265
  0
LINE
  8
0
 10
-270.695
 11
-271.171
 20
7.265
 21
7.207
  0
LINE
  8
0
 10
-271.171
 11
-271.618
 20
7.207
 21
7.377
  0
LINE
  8
0
 10
-271.618
 11
-271.935
 20
7.377
 21
7.735
  0
LINE
  8
0
 10
-271.935
 11
-272.05
 20
7.735
 21
8.2
  0
LINE
  8
0
 10
-265.221
 11
-265.221
 20
61.261
 21
61.739
  0
LINE
  8
0
 10
-265.221
 11
-264.999
 20
61.739
 21
62.163
  0
LINE
  8
0
 10
-264.999
 11
-264.605
 20
62.163
 21
62.435
  0
LINE
  8
0
 10
-264.605
 11
-264.129
 20
62.435
 21
62.493
  0
LINE
  8
0
 10
-264.129
 11
-263.682
 20
62.493
 21
62.323
  0
LINE
  8
0
 10
-263.682
 11
-263.365
 20
62.323
 21
61.965
  0
LINE
  8
0
 10
-263.365
 11
-263.25
 20
61.965
 21
61.5
  0
LINE
  8
0
 10
-263.25
 11
-263.365
 20
61.5
 21
61.035
  0
LINE
  8
0
 10
-263.365
 11
-263.682
 20
61.035
 21
60.677
  0
LINE
  8
0
 10
-263.682
 11
-264.129
 20
60.677
 21
60.507
  0
LINE
  8
0
 10
-264.129
 11
-264.605
 20
60.507
 21
60.565
  0
LINE
  8
0
 10
-264.605
 11
-264.999
 20
60.565
 21
60.837
  0
LINE
  8
0
 10
-264.999
 11
-265.221
 20
60.837
 21
61.261
  0
LINE
  8
0
 10
-250.83
 11
-250.715
 20
8.2
 21
8.665
  0
LINE
  8
0
 10
-250.715
 11
-250.398
 20
8.665
 21
9.023
  0
LINE
  8
0
 10
-250.398
 11
-249.951
 20
9.023
 21
9.193
  0
LINE
  8
0
 10
-249.951
 11
-249.475
 20
9.193
 21
9.135
  0
LINE
  8
0
 10
-249.475
 11
-249.081
 20
9.135
 21
8.863
  0
LINE
  8
0
 10
-249.081
 11
-248.859
 20
8.863
 21
8.439
  0
LINE
  8
0
 10
-248.859
 11
-248.859
 20
8.439
 21
7.961
  0
LINE
  8
0
 10
-248.859
 11
-249.081
 20
7.961
 21
7.537
  0
LINE
  8
0
 10
-249.081
 11
-249.475
 20
7.537
 21
7.265
  0
LINE
  8
0
 10
-249.475
 11
-249.951
 20
7.265
 21
7.207
  0
LINE
  8
0
 10
-249.951
 11
-250.398
 20
7.207
 21
7.377
  0
LINE
  8
0
 10
-250.398
 11
-250.715
 20
7.377
 21
7.735
  0
LINE
  8
0
 10
-250.715
 11
-250.83
 20
7.735
 21
8.2
  0
LINE
  8
0
 10
-249.25
 11
-249.192
 20
73.5
 21
73.979
  0
LINE
  8
0
 10
-249.192
 11
-249.021
 20
73.979
 21
74.429
  0
LINE
  8
0
 10
-249.021
 11
-248.747
 20
74.429
 21
74.826
  0
LINE
  8
0
 10
-248.747
 11
-248.386
 20
74.826
 21
75.146
  0
LINE
  8
0
 10
-248.386
 11
-247.959
 20
75.146
 21
75.37
  0
LINE
  8
0
 10
-247.959
 11
-247.491
 20
75.37
 21
75.485
  0
LINE
  8
0
 10
-247.491
 11
-247.009
 20
75.485
 21
75.485
  0
LINE
  8
0
 10
-247.009
 11
-246.541
 20
75.485
 21
75.37
  0
LINE
  8
0
 10
-246.541
 11
-246.114
 20
75.37
 21
75.146
  0
LINE
  8
0
 10
-246.114
 11
-245.753
 20
75.146
 21
74.826
  0
LINE
  8
0
 10
-245.753
 11
-245.479
 20
74.826
 21
74.429
  0
LINE
  8
0
 10
-245.479
 11
-245.308
 20
74.429
 21
73.979
  0
LINE
  8
0
 10
-245.308
 11
-245.25
 20
73.979
 21
73.5
  0
LINE
  8
0
 10
-245.25
 11
-245.308
 20
73.5
 21
73.021
  0
LINE
  8
0
 10
-245.308
 11
-245.479
 20
73.021
 21
72.571
  0
LINE
  8
0
 10
-245.479
 11
-245.753
 20
72.571
 21
72.174
  0
LINE
  8
0
 10
-245.753
 11
-246.114
 20
72.174
 21
71.854
  0
LINE
  8
0
 10
-246.114
 11
-246.541
 20
71.854
 21
71.63
  0
LINE
  8
0
 10
-246.541
 11
-247.009
 20
71.63
 21
71.515
  0
LINE
  8
0
 10
-247.009
 11
-247.491
 20
71.515
 21
71.515
  0
LINE
  8
0
 10
-247.491
 11
-247.959
 20
71.515
 21
71.63
  0
LINE
  8
0
 10
-247.959
 11
-248.386
 20
71.63
 21
71.854
  0
LINE
  8
0
 10
-248.386
 11
-248.747
 20
71.854
 21
72.174
  0
LINE
  8
0
 10
-248.747
 11
-249.021
 20
72.174
 21
72.571
  0
LINE
  8
0
 10
-249.021
 11
-249.192
 20
72.571
 21
73.021
  0
LINE
  8
0
 10
-249.192
 11
-249.25
 20
73.021
 21
73.5
  0
LINE
  8
0
 10
-243.25
 11
-243.192
 20
416
 21
416.479
  0
LINE
  8
0
 10
-243.192
 11
-243.021
 20
416.479
 21
416.929
  0
LINE
  8
0
 10
-243.021
 11
-242.747
 20
416.929
 21
417.326
  0
LINE
  8
0
 10
-242.747
 11
-242.386
 20
417.326
 21
417.646
  0
LINE
  8
0
 10
-242.386
 11
-241.959
 20
417.646
 21
417.87
  0
LINE
  8
0
 10
-241.959
 11
-241.491
 20
417.87
 21
417.985
  0
LINE
  8
0
 10
-241.491
 11
-241.009
 20
417.985
 21
417.985
  0
LINE
  8
0
 10
-241.009
 11
-240.541
 20
417.985
 21
417.87
  0
LINE
  8
0
 10
-240.541
 11
-240.114
 20
417.87
 21
417.646
  0
LINE
  8
0
 10
-240.114
 11
-239.753
 20
417.646
 21
417.326
  0
LINE
  8
0
 10
-239.753
 11
-239.479
 20
417.326
 21
416.929
  0
LINE
  8
0
 10
-239.479
 11
-239.308
 20
416.929
 21
416.479
  0
LINE
  8
0
 10
-239.308
 11
-239.25
 20
416.479
 21
416
  0
LINE
  8
0
 10
-239.25
 11
-239.308
 20
416
 21
415.521
  0
LINE
  8
0
 10
-239.308
 11
-239.479
 20
415.521
 21
415.071
  0
LINE
  8
0
 10
-239.479
 11
-239.753
 20
415.071
 21
414.674
  0
LINE
  8
0
 10
-239.753
 11
-240.114
 20
414.674
 21
414.354
  0
LINE
  8
0
 10
-240.114
 11
-240.541
 20
414.354
 21
414.13
  0
LINE
  8
0
 10
-240.541
 11
-241.009
 20
414.13
 21
414.015
  0
LINE
  8
0
 10
-241.009
 11
-241.491
 20
414.015
 21
414.015
  0
LINE
  8
0
 10
-241.491
 11
-241.959
 20
414.015
 21
414.13
  0
LINE
  8
0
 10
-241.959
 11
-242.386
 20
414.13
 21
414.354
  0
LINE
  8
0
 10
-242.386
 11
-242.747
 20
414.354
 21
414.674
  0
LINE
  8
0
 10
-242.747
 11
-243.021
 20
414.674
 21
415.071
  0
LINE
  8
0
 10
-243.021
 11
-243.192
 20
415.071
 21
415.521
  0
LINE
  8
0
 10
-243.192
 11
-243.25
 20
415.521
 21
416
  0
LINE
  8
0
 10
-242.243
 11
-242.185
 20
426.379
 21
426.855
  0
LINE
  8
0
 10
-242.185
 11
-241.913
 20
426.855
 21
427.249
  0
LINE
  8
0
 10
-241.913
 11
-241.489
 20
427.249
 21
427.471
  0
LINE
  8
0
 10
-241.489
 11
-241.011
 20
427.471
 21
427.471
  0
LINE
  8
0
 10
-241.011
 11
-240.587
 20
427.471
 21
427.249
  0
LINE
  8
0
 10
-240.587
 11
-240.315
 20
427.249
 21
426.855
  0
LINE
  8
0
 10
-240.315
 11
-240.257
 20
426.855
 21
426.379
  0
LINE
  8
0
 10
-240.257
 11
-240.427
 20
426.379
 21
425.932
  0
LINE
  8
0
 10
-240.427
 11
-240.785
 20
425.932
 21
425.615
  0
LINE
  8
0
 10
-240.785
 11
-241.25
 20
425.615
 21
425.5
  0
LINE
  8
0
 10
-241.25
 11
-241.715
 20
425.5
 21
425.615
  0
LINE
  8
0
 10
-241.715
 11
-242.073
 20
425.615
 21
425.932
  0
LINE
  8
0
 10
-242.073
 11
-242.243
 20
425.932
 21
426.379
  0
LINE
  8
0
 10
-240.13
 11
-240.082
 20
7.5
 21
7.988
  0
LINE
  8
0
 10
-240.082
 11
-239.94
 20
7.988
 21
8.457
  0
LINE
  8
0
 10
-239.94
 11
-239.709
 20
8.457
 21
8.889
  0
LINE
  8
0
 10
-239.709
 11
-239.398
 20
8.889
 21
9.268
  0
LINE
  8
0
 10
-239.398
 11
-239.019
 20
9.268
 21
9.579
  0
LINE
  8
0
 10
-239.019
 11
-238.587
 20
9.579
 21
9.81
  0
LINE
  8
0
 10
-238.587
 11
-238.118
 20
9.81
 21
9.952
  0
LINE
  8
0
 10
-238.118
 11
-237.63
 20
9.952
 21
10
  0
LINE
  8
0
 10
-237.63
 11
-237.142
 20
10
 21
9.952
  0
LINE
  8
0
 10
-237.142
 11
-236.673
 20
9.952
 21
9.81
  0
LINE
  8
0
 10
-236.673
 11
-236.241
 20
9.81
 21
9.579
  0
LINE
  8
0
 10
-236.241
 11
-235.862
 20
9.579
 21
9.268
  0
LINE
  8
0
 10
-235.862
 11
-235.551
 20
9.268
 21
8.889
  0
LINE
  8
0
 10
-235.551
 11
-235.32
 20
8.889
 21
8.457
  0
LINE
  8
0
 10
-235.32
 11
-235.178
 20
8.457
 21
7.988
  0
LINE
  8
0
 10
-235.178
 11
-235.13
 20
7.988
 21
7.5
  0
LINE
  8
0
 10
-235.13
 11
-235.178
 20
7.5
 21
7.012
  0
LINE
  8
0
 10
-235.178
 11
-235.32
 20
7.012
 21
6.543
  0
LINE
  8
0
 10
-235.32
 11
-235.551
 20
6.543
 21
6.111
  0
LINE
  8
0
 10
-235.551
 11
-235.862
 20
6.111
 21
5.732
  0
LINE
  8
0
 10
-235.862
 11
-236.241
 20
5.732
 21
5.421
  0
LINE
  8
0
 10
-236.241
 11
-236.673
 20
5.421
 21
5.19
  0
LINE
  8
0
 10
-236.673
 11
-237.142
 20
5.19
 21
5.048
  0
LINE
  8
0
 10
-237.142
 11
-237.63
 20
5.048
 21
5
  0
LINE
  8
0
 10
-237.63
 11
-238.118
 20
5
 21
5.048
  0
LINE
  8
0
 10
-238.118
 11
-238.587
 20
5.048
 21
5.19
  0
LINE
  8
0
 10
-238.587
 11
-239.019
 20
5.19
 21
5.421
  0
LINE
  8
0
 10
-239.019
 11
-239.398
 20
5.421
 21
5.732
  0
LINE
  8
0
 10
-239.398
 11
-239.709
 20
5.732
 21
6.111
  0
LINE
  8
0
 10
-239.709
 11
-239.94
 20
6.111
 21
6.543
  0
LINE
  8
0
 10
-239.94
 11
-240.082
 20
6.543
 21
7.012
  0
LINE
  8
0
 10
-240.082
 11
-240.13
 20
7.012
 21
7.5
  0
LINE
  8
0
 10
-233.221
 11
-233.221
 20
61.261
 21
61.739
  0
LINE
  8
0
 10
-233.221
 11
-232.999
 20
61.739
 21
62.163
  0
LINE
  8
0
 10
-232.999
 11
-232.605
 20
62.163
 21
62.435
  0
LINE
  8
0
 10
-232.605
 11
-232.129
 20
62.435
 21
62.493
  0
LINE
  8
0
 10
-232.129
 11
-231.682
 20
62.493
 21
62.323
  0
LINE
  8
0
 10
-231.682
 11
-231.365
 20
62.323
 21
61.965
  0
LINE
  8
0
 10
-231.365
 11
-231.25
 20
61.965
 21
61.5
  0
LINE
  8
0
 10
-231.25
 11
-231.365
 20
61.5
 21
61.035
  0
LINE
  8
0
 10
-231.365
 11
-231.682
 20
61.035
 21
60.677
  0
LINE
  8
0
 10
-231.682
 11
-232.129
 20
60.677
 21
60.507
  0
LINE
  8
0
 10
-232.129
 11
-232.605
 20
60.507
 21
60.565
  0
LINE
  8
0
 10
-232.605
 11
-232.999
 20
60.565
 21
60.837
  0
LINE
  8
0
 10
-232.999
 11
-233.221
 20
60.837
 21
61.261
  0
LINE
  8
0
 10
-207.243
 11
-207.185
 20
426.379
 21
426.855
  0
LINE
  8
0
 10
-207.185
 11
-206.913
 20
426.855
 21
427.249
  0
LINE
  8
0
 10
-206.913
 11
-206.489
 20
427.249
 21
427.471
  0
LINE
  8
0
 10
-206.489
 11
-206.011
 20
427.471
 21
427.471
  0
LINE
  8
0
 10
-206.011
 11
-205.587
 20
427.471
 21
427.249
  0
LINE
  8
0
 10
-205.587
 11
-205.315
 20
427.249
 21
426.855
  0
LINE
  8
0
 10
-205.315
 11
-205.257
 20
426.855
 21
426.379
  0
LINE
  8
0
 10
-205.257
 11
-205.427
 20
426.379
 21
425.932
  0
LINE
  8
0
 10
-205.427
 11
-205.785
 20
425.932
 21
425.615
  0
LINE
  8
0
 10
-205.785
 11
-206.25
 20
425.615
 21
425.5
  0
LINE
  8
0
 10
-206.25
 11
-206.715
 20
425.5
 21
425.615
  0
LINE
  8
0
 10
-206.715
 11
-207.073
 20
425.615
 21
425.932
  0
LINE
  8
0
 10
-207.073
 11
-207.243
 20
425.932
 21
426.379
  0
LINE
  8
0
 10
-205.043
 11
-204.873
 20
36.831
 21
37.278
  0
LINE
  8
0
 10
-204.873
 11
-204.515
 20
37.278
 21
37.595
  0
LINE
  8
0
 10
-204.515
 11
-204.05
 20
37.595
 21
37.71
  0
LINE
  8
0
 10
-204.05
 11
-203.585
 20
37.71
 21
37.595
  0
LINE
  8
0
 10
-203.585
 11
-203.227
 20
37.595
 21
37.278
  0
LINE
  8
0
 10
-203.227
 11
-203.057
 20
37.278
 21
36.831
  0
LINE
  8
0
 10
-203.057
 11
-203.115
 20
36.831
 21
36.355
  0
LINE
  8
0
 10
-203.115
 11
-203.387
 20
36.355
 21
35.961
  0
LINE
  8
0
 10
-203.387
 11
-203.811
 20
35.961
 21
35.739
  0
LINE
  8
0
 10
-203.811
 11
-204.289
 20
35.739
 21
35.739
  0
LINE
  8
0
 10
-204.289
 11
-204.713
 20
35.739
 21
35.961
  0
LINE
  8
0
 10
-204.713
 11
-204.985
 20
35.961
 21
36.355
  0
LINE
  8
0
 10
-204.985
 11
-205.043
 20
36.355
 21
36.831
  0
LINE
  8
0
 10
-205.043
 11
-204.873
 20
398.411
 21
398.858
  0
LINE
  8
0
 10
-204.873
 11
-204.515
 20
398.858
 21
399.175
  0
LINE
  8
0
 10
-204.515
 11
-204.05
 20
399.175
 21
399.29
  0
LINE
  8
0
 10
-204.05
 11
-203.585
 20
399.29
 21
399.175
  0
LINE
  8
0
 10
-203.585
 11
-203.227
 20
399.175
 21
398.858
  0
LINE
  8
0
 10
-203.227
 11
-203.057
 20
398.858
 21
398.411
  0
LINE
  8
0
 10
-203.057
 11
-203.115
 20
398.411
 21
397.935
  0
LINE
  8
0
 10
-203.115
 11
-203.387
 20
397.935
 21
397.541
  0
LINE
  8
0
 10
-203.387
 11
-203.811
 20
397.541
 21
397.319
  0
LINE
  8
0
 10
-203.811
 11
-204.289
 20
397.319
 21
397.319
  0
LINE
  8
0
 10
-204.289
 11
-204.713
 20
397.319
 21
397.541
  0
LINE
  8
0
 10
-204.713
 11
-204.985
 20
397.541
 21
397.935
  0
LINE
  8
0
 10
-204.985
 11
-205.043
 20
397.935
 21
398.411
  0
LINE
  8
0
 10
-204.243
 11
-204.185
 20
369.059
 21
369.535
  0
LINE
  8
0
 10
-204.185
 11
-203.913
 20
369.535
 21
369.929
  0
LINE
  8
0
 10
-203.913
 11
-203.489
 20
369.929
 21
370.151
  0
LINE
  8
0
 10
-203.489
 11
-203.011
 20
370.151
 21
370.151
  0
LINE
  8
0
 10
-203.011
 11
-202.587
 20
370.151
 21
369.929
  0
LINE
  8
0
 10
-202.587
 11
-202.315
 20
369.929
 21
369.535
  0
LINE
  8
0
 10
-202.315
 11
-202.257
 20
369.535
 21
369.059
  0
LINE
  8
0
 10
-202.257
 11
-202.427
 20
369.059
 21
368.612
  0
LINE
  8
0
 10
-202.427
 11
-202.785
 20
368.612
 21
368.295
  0
LINE
  8
0
 10
-202.785
 11
-203.25
 20
368.295
 21
368.18
  0
LINE
  8
0
 10
-203.25
 11
-203.715
 20
368.18
 21
368.295
  0
LINE
  8
0
 10
-203.715
 11
-204.073
 20
368.295
 21
368.612
  0
LINE
  8
0
 10
-204.073
 11
-204.243
 20
368.612
 21
369.059
  0
LINE
  8
0
 10
-199.67
 11
-199.555
 20
8.2
 21
8.665
  0
LINE
  8
0
 10
-199.555
 11
-199.238
 20
8.665
 21
9.023
  0
LINE
  8
0
 10
-199.238
 11
-198.791
 20
9.023
 21
9.193
  0
LINE
  8
0
 10
-198.791
 11
-198.315
 20
9.193
 21
9.135
  0
LINE
  8
0
 10
-198.315
 11
-197.921
 20
9.135
 21
8.863
  0
LINE
  8
0
 10
-197.921
 11
-197.699
 20
8.863
 21
8.439
  0
LINE
  8
0
 10
-197.699
 11
-197.699
 20
8.439
 21
7.961
  0
LINE
  8
0
 10
-197.699
 11
-197.921
 20
7.961
 21
7.537
  0
LINE
  8
0
 10
-197.921
 11
-198.315
 20
7.537
 21
7.265
  0
LINE
  8
0
 10
-198.315
 11
-198.791
 20
7.265
 21
7.207
  0
LINE
  8
0
 10
-198.791
 11
-199.238
 20
7.207
 21
7.377
  0
LINE
  8
0
 10
-199.238
 11
-199.555
 20
7.377
 21
7.735
  0
LINE
  8
0
 10
-199.555
 11
-199.67
 20
7.735
 21
8.2
  0
LINE
  8
0
 10
-178.45
 11
-178.335
 20
8.2
 21
8.665
  0
LINE
  8
0
 10
-178.335
 11
-178.018
 20
8.665
 21
9.023
  0
LINE
  8
0
 10
-178.018
 11
-177.571
 20
9.023
 21
9.193
  0
LINE
  8
0
 10
-177.571
 11
-177.095
 20
9.193
 21
9.135
  0
LINE
  8
0
 10
-177.095
 11
-176.701
 20
9.135
 21
8.863
  0
LINE
  8
0
 10
-176.701
 11
-176.479
 20
8.863
 21
8.439
  0
LINE
  8
0
 10
-176.479
 11
-176.479
 20
8.439
 21
7.961
  0
LINE
  8
0
 10
-176.479
 11
-176.701
 20
7.961
 21
7.537
  0
LINE
  8
0
 10
-176.701
 11
-177.095
 20
7.537
 21
7.265
  0
LINE
  8
0
 10
-177.095
 11
-177.571
 20
7.265
 21
7.207
  0
LINE
  8
0
 10
-177.571
 11
-178.018
 20
7.207
 21
7.377
  0
LINE
  8
0
 10
-178.018
 11
-178.335
 20
7.377
 21
7.735
  0
LINE
  8
0
 10
-178.335
 11
-178.45
 20
7.735
 21
8.2
  0
LINE
  8
0
 10
-155.25
 11
-155.209
 20
207
 21
207.494
  0
LINE
  8
0
 10
-155.209
 11
-155.087
 20
207.494
 21
207.974
  0
LINE
  8
0
 10
-155.087
 11
-154.888
 20
207.974
 21
208.428
  0
LINE
  8
0
 10
-154.888
 11
-154.617
 20
208.428
 21
208.843
  0
LINE
  8
0
 10
-154.617
 11
-154.282
 20
208.843
 21
209.207
  0
LINE
  8
0
 10
-154.282
 11
-153.891
 20
209.207
 21
209.511
  0
LINE
  8
0
 10
-153.891
 11
-153.455
 20
209.511
 21
209.747
  0
LINE
  8
0
 10
-153.455
 11
-152.986
 20
209.747
 21
209.908
  0
LINE
  8
0
 10
-152.986
 11
-152.498
 20
209.908
 21
209.99
  0
LINE
  8
0
 10
-152.498
 11
-25.26
 20
209.99
 21
209.994
  0
LINE
  8
0
 10
-25.26
 11
-25.26
 20
209.994
 21
204.15
  0
LINE
  8
0
 10
-25.26
 11
11.76
 20
204.15
 21
204.15
  0
LINE
  8
0
 10
11.76
 11
11.76
 20
204.15
 21
209.996
  0
LINE
  8
0
 10
11.76
 11
138.75
 20
209.996
 21
210
  0
LINE
  8
0
 10
138.75
 11
139.244
 20
210
 21
209.959
  0
LINE
  8
0
 10
139.244
 11
139.724
 20
209.959
 21
209.837
  0
LINE
  8
0
 10
139.724
 11
140.178
 20
209.837
 21
209.638
  0
LINE
  8
0
 10
140.178
 11
140.593
 20
209.638
 21
209.367
  0
LINE
  8
0
 10
140.593
 11
140.957
 20
209.367
 21
209.032
  0
LINE
  8
0
 10
140.957
 11
141.261
 20
209.032
 21
208.641
  0
LINE
  8
0
 10
141.261
 11
141.497
 20
208.641
 21
208.205
  0
LINE
  8
0
 10
141.497
 11
141.658
 20
208.205
 21
207.736
  0
LINE
  8
0
 10
141.658
 11
141.74
 20
207.736
 21
207.248
  0
LINE
  8
0
 10
141.74
 11
141.75
 20
207.248
 21
3
  0
LINE
  8
0
 10
141.75
 11
141.709
 20
3
 21
2.506
  0
LINE
  8
0
 10
141.709
 11
141.587
 20
2.506
 21
2.026
  0
LINE
  8
0
 10
141.587
 11
141.388
 20
2.026
 21
1.572
  0
LINE
  8
0
 10
141.388
 11
141.117
 20
1.572
 21
1.157
  0
LINE
  8
0
 10
141.117
 11
140.782
 20
1.157
 21
0.793
  0
LINE
  8
0
 10
140.782
 11
140.391
 20
0.793
 21
0.489
  0
LINE
  8
0
 10
140.391
 11
139.955
 20
0.489
 21
0.253
  0
LINE
  8
0
 10
139.955
 11
139.486
 20
0.253
 21
0.092
  0
LINE
  8
0
 10
139.486
 11
138.998
 20
0.092
 21
0.01
  0
LINE
  8
0
 10
138.998
 11
-152.25
 20
0.01
 21
0
  0
LINE
  8
0
 10
-152.25
 11
-152.744
 20
0
 21
0.041
  0
LINE
  8
0
 10
-152.744
 11
-153.224
 20
0.041
 21
0.163
  0
LINE
  8
0
 10
-153.224
 11
-153.678
 20
0.163
 21
0.362
  0
LINE
  8
0
 10
-153.678
 11
-154.093
 20
0.362
 21
0.633
  0
LINE
  8
0
 10
-154.093
 11
-154.457
 20
0.633
 21
0.968
  0
LINE
  8
0
 10
-154.457
 11
-154.761
 20
0.968
 21
1.359
  0
LINE
  8
0
 10
-154.761
 11
-154.997
 20
1.359
 21
1.795
  0
LINE
  8
0
 10
-154.997
 11
-155.158
 20
1.795
 21
2.264
  0
LINE
  8
0
 10
-155.158
 11
-155.24
 20
2.264
 21
2.752
  0
LINE
  8
0
 10
-155.24
 11
-155.25
 20
2.752
 21
207
  0
LINE
  8
0
 10
-150.95
 11
-150.895
 20
20.5
 21
20.99
  0
LINE
  8
0
 10
-150.895
 11
-150.732
 20
20.99
 21
21.455
  0
LINE
  8
0
 10
-150.732
 11
-150.47
 20
21.455
 21
21.872
  0
LINE
  8
0
 10
-150.47
 11
-150.122
 20
21.872
 21
22.22
  0
LINE
  8
0
 10
-150.122
 11
-149.705
 20
22.22
 21
22.482
  0
LINE
  8
0
 10
-149.705
 11
-149.24
 20
22.482
 21
22.645
  0
LINE
  8
0
 10
-149.24
 11
-148.75
 20
22.645
 21
22.7
  0
LINE
  8
0
 10
-148.75
 11
-148.26
 20
22.7
 21
22.645
  0
LINE
  8
0
 10
-148.26
 11
-147.795
 20
22.645
 21
22.482
  0
LINE
  8
0
 10
-147.795
 11
-147.378
 20
22.482
 21
22.22
  0
LINE
  8
0
 10
-147.378
 11
-147.03
 20
22.22
 21
21.872
  0
LINE
  8
0
 10
-147.03
 11
-146.768
 20
21.872
 21
21.455
  0
LINE
  8
0
 10
-146.768
 11
-146.605
 20
21.455
 21
20.99
  0
LINE
  8
0
 10
-146.605
 11
-146.55
 20
20.99
 21
20.5
  0
LINE
  8
0
 10
-146.55
 11
-146.605
 20
20.5
 21
20.01
  0
LINE
  8
0
 10
-146.605
 11
-146.768
 20
20.01
 21
19.545
  0
LINE
  8
0
 10
-146.768
 11
-147.03
 20
19.545
 21
19.128
  0
LINE
  8
0
 10
-147.03
 11
-147.378
 20
19.128
 21
18.78
  0
LINE
  8
0
 10
-147.378
 11
-147.795
 20
18.78
 21
18.518
  0
LINE
  8
0
 10
-147.795
 11
-148.26
 20
18.518
 21
18.355
  0
LINE
  8
0
 10
-148.26
 11
-148.75
 20
18.355
 21
18.3
  0
LINE
  8
0
 10
-148.75
 11
-149.24
 20
18.3
 21
18.355
  0
LINE
  8
0
 10
-149.24
 11
-149.705
 20
18.355
 21
18.518
  0
LINE
  8
0
 10
-149.705
 11
-150.122
 20
18.518
 21
18.78
  0
LINE
  8
0
 10
-150.122
 11
-150.47
 20
18.78
 21
19.128
  0
LINE
  8
0
 10
-150.47
 11
-150.732
 20
19.128
 21
19.545
  0
LINE
  8
0
 10
-150.732
 11
-150.895
 20
19.545
 21
20.01
  0
LINE
  8
0
 10
-150.895
 11
-150.95
 20
20.01
 21
20.5
  0
LINE
  8
0
 10
-150.95
 11
-150.895
 20
165.5
 21
165.99
  0
LINE
  8
0
 10
-150.895
 11
-150.732
 20
165.99
 21
166.455
  0
LINE
  8
0
 10
-150.732
 11
-150.47
 20
166.455
 21
166.872
  0
LINE
  8
0
 10
-150.47
 11
-150.122
 20
166.872
 21
167.22
  0
LINE
  8
0
 10
-150.122
 11
-149.705
 20
167.22
 21
167.482
  0
LINE
  8
0
 10
-149.705
 11
-149.24
 20
167.482
 21
167.645
  0
LINE
  8
0
 10
-149.24
 11
-148.75
 20
167.645
 21
167.7
  0
LINE
  8
0
 10
-148.75
 11
-148.26
 20
167.7
 21
167.645
  0
LINE
  8
0
 10
-148.26
 11
-147.795
 20
167.645
 21
167.482
  0
LINE
  8
0
 10
-147.795
 11
-147.378
 20
167.482
 21
167.22
  0
LINE
  8
0
 10
-147.378
 11
-147.03
 20
167.22
 21
166.872
  0
LINE
  8
0
 10
-147.03
 11
-146.768
 20
166.872
 21
166.455
  0
LINE
  8
0
 10
-146.768
 11
-146.605
 20
166.455
 21
165.99
  0
LINE
  8
0
 10
-146.605
 11
-146.55
 20
165.99
 21
165.5
  0
LINE
  8
0
 10
-146.55
 11
-146.605
 20
165.5
 21
165.01
  0
LINE
  8
0
 10
-146.605
 11
-146.768
 20
165.01
 21
164.545
  0
LINE
  8
0
 10
-146.768
 11
-147.03
 20
164.545
 21
164.128
  0
LINE
  8
0
 10
-147.03
 11
-147.378
 20
164.128
 21
163.78
  0
LINE
  8
0
 10
-147.378
 11
-147.795
 20
163.78
 21
163.518
  0
LINE
  8
0
 10
-147.795
 11
-148.26
 20
163.518
 21
163.355
  0
LINE
  8
0
 10
-148.26
 11
-148.75
 20
163.355
 21
163.3
  0
LINE
  8
0
 10
-148.75
 11
-149.24
 20
163.3
 21
163.355
  0
LINE
  8
0
 10
-149.24
 11
-149.705
 20
163.355
 21
163.518
  0
LINE
  8
0
 10
-149.705
 11
-150.122
 20
163.518
 21
163.78
  0
LINE
  8
0
 10
-150.122
 11
-150.47
 20
163.78
 21
164.128
  0
LINE
  8
0
 10
-150.47
 11
-150.732
 20
164.128
 21
164.545
  0
LINE
  8
0
 10
-150.732
 11
-150.895
 20
164.545
 21
165.01
  0
LINE
  8
0
 10
-150.895
 11
-150.95
 20
165.01
 21
165.5
  0
LINE
  8
0
 10
-146.5
 11
-146.405
 20
10
 21
10.478
  0
LINE
  8
0
 10
-146.405
 11
-146.134
 20
10.478
 21
10.884
  0
LINE
  8
0
 10
-146.134
 11
-145.728
 20
10.884
 21
11.155
  0
LINE
  8
0
 10
-145.728
 11
-145.25
 20
11.155
 21
11.25
  0
LINE
  8
0
 10
-145.25
 11
-144.772
 20
11.25
 21
11.155
  0
LINE
  8
0
 10
-144.772
 11
-144.366
 20
11.155
 21
10.884
  0
LINE
  8
0
 10
-144.366
 11
-144.095
 20
10.884
 21
10.478
  0
LINE
  8
0
 10
-144.095
 11
-144
 20
10.478
 21
10
  0
LINE
  8
0
 10
-144
 11
-144.095
 20
10
 21
9.522
  0
LINE
  8
0
 10
-144.095
 11
-144.366
 20
9.522
 21
9.116
  0
LINE
  8
0
 10
-144.366
 11
-144.772
 20
9.116
 21
8.845
  0
LINE
  8
0
 10
-144.772
 11
-145.25
 20
8.845
 21
8.75
  0
LINE
  8
0
 10
-145.25
 11
-145.728
 20
8.75
 21
8.845
  0
LINE
  8
0
 10
-145.728
 11
-146.134
 20
8.845
 21
9.116
  0
LINE
  8
0
 10
-146.134
 11
-146.405
 20
9.116
 21
9.522
  0
LINE
  8
0
 10
-146.405
 11
-146.5
 20
9.522
 21
10
  0
LINE
  8
0
 10
-146.5
 11
-146.405
 20
200
 21
200.478
  0
LINE
  8
0
 10
-146.405
 11
-146.134
 20
200.478
 21
200.884
  0
LINE
  8
0
 10
-146.134
 11
-145.728
 20
200.884
 21
201.155
  0
LINE
  8
0
 10
-145.728
 11
-145.25
 20
201.155
 21
201.25
  0
LINE
  8
0
 10
-145.25
 11
-144.772
 20
201.25
 21
201.155
  0
LINE
  8
0
 10
-144.772
 11
-144.366
 20
201.155
 21
200.884
  0
LINE
  8
0
 10
-144.366
 11
-144.095
 20
200.884
 21
200.478
  0
LINE
  8
0
 10
-144.095
 11
-144
 20
200.478
 21
200
  0
LINE
  8
0
 10
-144
 11
-144.095
 20
200
 21
199.522
  0
LINE
  8
0
 10
-144.095
 11
-144.366
 20
199.522
 21
199.116
  0
LINE
  8
0
 10
-144.366
 11
-144.772
 20
199.116
 21
198.845
  0
LINE
  8
0
 10
-144.772
 11
-145.25
 20
198.845
 21
198.75
  0
LINE
  8
0
 10
-145.25
 11
-145.728
 20
198.75
 21
198.845
  0
LINE
  8
0
 10
-145.728
 11
-146.134
 20
198.845
 21
199.116
  0
LINE
  8
0
 10
-146.134
 11
-146.405
 20
199.116
 21
199.522
  0
LINE
  8
0
 10
-146.405
 11
-146.5
 20
199.522
 21
200
  0
LINE
  8
0
 10
-113.95
 11
-113.895
 20
44.5
 21
44.99
  0
LINE
  8
0
 10
-113.895
 11
-113.732
 20
44.99
 21
45.455
  0
LINE
  8
0
 10
-113.732
 11
-113.47
 20
45.455
 21
45.872
  0
LINE
  8
0
 10
-113.47
 11
-113.122
 20
45.872
 21
46.22
  0
LINE
  8
0
 10
-113.122
 11
-112.705
 20
46.22
 21
46.482
  0
LINE
  8
0
 10
-112.705
 11
-112.24
 20
46.482
 21
46.645
  0
LINE
  8
0
 10
-112.24
 11
-111.75
 20
46.645
 21
46.7
  0
LINE
  8
0
 10
-111.75
 11
-111.26
 20
46.7
 21
46.645
  0
LINE
  8
0
 10
-111.26
 11
-110.795
 20
46.645
 21
46.482
  0
LINE
  8
0
 10
-110.795
 11
-110.378
 20
46.482
 21
46.22
  0
LINE
  8
0
 10
-110.378
 11
-110.03
 20
46.22
 21
45.872
  0
LINE
  8
0
 10
-110.03
 11
-109.768
 20
45.872
 21
45.455
  0
LINE
  8
0
 10
-109.768
 11
-109.605
 20
45.455
 21
44.99
  0
LINE
  8
0
 10
-109.605
 11
-109.55
 20
44.99
 21
44.5
  0
LINE
  8
0
 10
-109.55
 11
-109.605
 20
44.5
 21
44.01
  0
LINE
  8
0
 10
-109.605
 11
-109.768
 20
44.01
 21
43.545
  0
LINE
  8
0
 10
-109.768
 11
-110.03
 20
43.545
 21
43.128
  0
LINE
  8
0
 10
-110.03
 11
-110.378
 20
43.128
 21
42.78
  0
LINE
  8
0
 10
-110.378
 11
-110.795
 20
42.78
 21
42.518
  0
LINE
  8
0
 10
-110.795
 11
-111.26
 20
42.518
 21
42.355
  0
LINE
  8
0
 10
-111.26
 11
-111.75
 20
42.355
 21
42.3
  0
LINE
  8
0
 10
-111.75
 11
-112.24
 20
42.3
 21
42.355
  0
LINE
  8
0
 10
-112.24
 11
-112.705
 20
42.355
 21
42.518
  0
LINE
  8
0
 10
-112.705
 11
-113.122
 20
42.518
 21
42.78
  0
LINE
  8
0
 10
-113.122
 11
-113.47
 20
42.78
 21
43.128
  0
LINE
  8
0
 10
-113.47
 11
-113.732
 20
43.128
 21
43.545
  0
LINE
  8
0
 10
-113.732
 11
-113.895
 20
43.545
 21
44.01
  0
LINE
  8
0
 10
-113.895
 11
-113.95
 20
44.01
 21
44.5
  0
LINE
  8
0
 10
-113.95
 11
-113.895
 20
189.5
 21
189.99
  0
LINE
  8
0
 10
-113.895
 11
-113.732
 20
189.99
 21
190.455
  0
LINE
  8
0
 10
-113.732
 11
-113.47
 20
190.455
 21
190.872
  0
LINE
  8
0
 10
-113.47
 11
-113.122
 20
190.872
 21
191.22
  0
LINE
  8
0
 10
-113.122
 11
-112.705
 20
191.22
 21
191.482
  0
LINE
  8
0
 10
-112.705
 11
-112.24
 20
191.482
 21
191.645
  0
LINE
  8
0
 10
-112.24
 11
-111.75
 20
191.645
 21
191.7
  0
LINE
  8
0
 10
-111.75
 11
-111.26
 20
191.7
 21
191.645
  0
LINE
  8
0
 10
-111.26
 11
-110.795
 20
191.645
 21
191.482
  0
LINE
  8
0
 10
-110.795
 11
-110.378
 20
191.482
 21
191.22
  0
LINE
  8
0
 10
-110.378
 11
-110.03
 20
191.22
 21
190.872
  0
LINE
  8
0
 10
-110.03
 11
-109.768
 20
190.872
 21
190.455
  0
LINE
  8
0
 10
-109.768
 11
-109.605
 20
190.455
 21
189.99
  0
LINE
  8
0
 10
-109.605
 11
-109.55
 20
189.99
 21
189.5
  0
LINE
  8
0
 10
-109.55
 11
-109.605
 20
189.5
 21
189.01
  0
LINE
  8
0
 10
-109.605
 11
-109.768
 20
189.01
 21
188.545
  0
LINE
  8
0
 10
-109.768
 11
-110.03
 20
188.545
 21
188.128
  0
LINE
  8
0
 10
-110.03
 11
-110.378
 20
188.128
 21
187.78
  0
LINE
  8
0
 10
-110.378
 11
-110.795
 20
187.78
 21
187.518
  0
LINE
  8
0
 10
-110.795
 11
-111.26
 20
187.518
 21
187.355
  0
LINE
  8
0
 10
-111.26
 11
-111.75
 20
187.355
 21
187.3
  0
LINE
  8
0
 10
-111.75
 11
-112.24
 20
187.3
 21
187.355
  0
LINE
  8
0
 10
-112.24
 11
-112.705
 20
187.355
 21
187.518
  0
LINE
  8
0
 10
-112.705
 11
-113.122
 20
187.518
 21
187.78
  0
LINE
  8
0
 10
-113.122
 11
-113.47
 20
187.78
 21
188.128
  0
LINE
  8
0
 10
-113.47
 11
-113.732
 20
188.128
 21
188.545
  0
LINE
  8
0
 10
-113.732
 11
-113.895
 20
188.545
 21
189.01
  0
LINE
  8
0
 10
-113.895
 11
-113.95
 20
189.01
 21
189.5
  0
LINE
  8
0
 10
-39.91
 11
-39.837
 20
54.825
 21
55.312
  0
LINE
  8
0
 10
-39.837
 11
-39.623
 20
55.312
 21
55.755
  0
LINE
  8
0
 10
-39.623
 11
-39.289
 20
55.755
 21
56.115
  0
LINE
  8
0
 10
-39.289
 11
-38.863
 20
56.115
 21
56.361
  0
LINE
  8
0
 10
-38.863
 11
-38.383
 20
56.361
 21
56.471
  0
LINE
  8
0
 10
-38.383
 11
-37.893
 20
56.471
 21
56.434
  0
LINE
  8
0
 10
-37.893
 11
-37.435
 20
56.434
 21
56.254
  0
LINE
  8
0
 10
-37.435
 11
-37.05
 20
56.254
 21
55.948
  0
LINE
  8
0
 10
-37.05
 11
-36.773
 20
55.948
 21
55.541
  0
LINE
  8
0
 10
-36.773
 11
-36.628
 20
55.541
 21
55.071
  0
LINE
  8
0
 10
-36.628
 11
-36.628
 20
55.071
 21
54.579
  0
LINE
  8
0
 10
-36.628
 11
-36.773
 20
54.579
 21
54.11
  0
LINE
  8
0
 10
-36.773
 11
-37.05
 20
54.11
 21
53.703
  0
LINE
  8
0
 10
-37.05
 11
-37.435
 20
53.703
 21
53.396
  0
LINE
  8
0
 10
-37.435
 11
-37.893
 20
53.396
 21
53.217
  0
LINE
  8
0
 10
-37.893
 11
-38.383
 20
53.217
 21
53.18
  0
LINE
  8
0
 10
-38.383
 11
-38.863
 20
53.18
 21
53.289
  0
LINE
  8
0
 10
-38.863
 11
-39.289
 20
53.289
 21
53.535
  0
LINE
  8
0
 10
-39.289
 11
-39.623
 20
53.535
 21
53.896
  0
LINE
  8
0
 10
-39.623
 11
-39.837
 20
53.896
 21
54.339
  0
LINE
  8
0
 10
-39.837
 11
-39.91
 20
54.339
 21
54.825
  0
LINE
  8
0
 10
-39.91
 11
-39.837
 20
69.475
 21
69.961
  0
LINE
  8
0
 10
-39.837
 11
-39.623
 20
69.961
 21
70.404
  0
LINE
  8
0
 10
-39.623
 11
-39.289
 20
70.404
 21
70.765
  0
LINE
  8
0
 10
-39.289
 11
-38.863
 20
70.765
 21
71.011
  0
LINE
  8
0
 10
-38.863
 11
-38.383
 20
71.011
 21
71.12
  0
LINE
  8
0
 10
-38.383
 11
-37.893
 20
71.12
 21
71.083
  0
LINE
  8
0
 10
-37.893
 11
-37.435
 20
71.083
 21
70.904
  0
LINE
  8
0
 10
-37.435
 11
-37.05
 20
70.904
 21
70.597
  0
LINE
  8
0
 10
-37.05
 11
-36.773
 20
70.597
 21
70.19
  0
LINE
  8
0
 10
-36.773
 11
-36.628
 20
70.19
 21
69.721
  0
LINE
  8
0
 10
-36.628
 11
-36.628
 20
69.721
 21
69.229
  0
LINE
  8
0
 10
-36.628
 11
-36.773
 20
69.229
 21
68.759
  0
LINE
  8
0
 10
-36.773
 11
-37.05
 20
68.759
 21
68.352
  0
LINE
  8
0
 10
-37.05
 11
-37.435
 20
68.352
 21
68.046
  0
LINE
  8
0
 10
-37.435
 11
-37.893
 20
68.046
 21
67.866
  0
LINE
  8
0
 10
-37.893
 11
-38.383
 20
67.866
 21
67.829
  0
LINE
  8
0
 10
-38.383
 11
-38.863
 20
67.829
 21
67.939
  0
LINE
  8
0
 10
-38.863
 11
-39.289
 20
67.939
 21
68.185
  0
LINE
  8
0
 10
-39.289
 11
-39.623
 20
68.185
 21
68.545
  0
LINE
  8
0
 10
-39.623
 11
-39.837
 20
68.545
 21
68.988
  0
LINE
  8
0
 10
-39.837
 11
-39.91
 20
68.988
 21
69.475
  0
LINE
  8
0
 10
-39.892
 11
-39.892
 20
136.429
 21
136.921
  0
LINE
  8
0
 10
-39.892
 11
-39.747
 20
136.921
 21
137.391
  0
LINE
  8
0
 10
-39.747
 11
-39.47
 20
137.391
 21
137.798
  0
LINE
  8
0
 10
-39.47
 11
-39.085
 20
137.798
 21
138.104
  0
LINE
  8
0
 10
-39.085
 11
-38.627
 20
138.104
 21
138.284
  0
LINE
  8
0
 10
-38.627
 11
-38.137
 20
138.284
 21
138.321
  0
LINE
  8
0
 10
-38.137
 11
-37.657
 20
138.321
 21
138.211
  0
LINE
  8
0
 10
-37.657
 11
-37.231
 20
138.211
 21
137.965
  0
LINE
  8
0
 10
-37.231
 11
-36.897
 20
137.965
 21
137.605
  0
LINE
  8
0
 10
-36.897
 11
-36.683
 20
137.605
 21
137.162
  0
LINE
  8
0
 10
-36.683
 11
-36.61
 20
137.162
 21
136.675
  0
LINE
  8
0
 10
-36.61
 11
-36.683
 20
136.675
 21
136.189
  0
LINE
  8
0
 10
-36.683
 11
-36.897
 20
136.189
 21
135.746
  0
LINE
  8
0
 10
-36.897
 11
-37.231
 20
135.746
 21
135.385
  0
LINE
  8
0
 10
-37.231
 11
-37.657
 20
135.385
 21
135.139
  0
LINE
  8
0
 10
-37.657
 11
-38.137
 20
135.139
 21
135.03
  0
LINE
  8
0
 10
-38.137
 11
-38.627
 20
135.03
 21
135.067
  0
LINE
  8
0
 10
-38.627
 11
-39.085
 20
135.067
 21
135.246
  0
LINE
  8
0
 10
-39.085
 11
-39.47
 20
135.246
 21
135.553
  0
LINE
  8
0
 10
-39.47
 11
-39.747
 20
135.553
 21
135.96
  0
LINE
  8
0
 10
-39.747
 11
-39.892
 20
135.96
 21
136.429
  0
LINE
  8
0
 10
-39.892
 11
-39.892
 20
151.079
 21
151.571
  0
LINE
  8
0
 10
-39.892
 11
-39.747
 20
151.571
 21
152.04
  0
LINE
  8
0
 10
-39.747
 11
-39.47
 20
152.04
 21
152.447
  0
LINE
  8
0
 10
-39.47
 11
-39.085
 20
152.447
 21
152.754
  0
LINE
  8
0
 10
-39.085
 11
-38.627
 20
152.754
 21
152.933
  0
LINE
  8
0
 10
-38.627
 11
-38.137
 20
152.933
 21
152.97
  0
LINE
  8
0
 10
-38.137
 11
-37.657
 20
152.97
 21
152.861
  0
LINE
  8
0
 10
-37.657
 11
-37.231
 20
152.861
 21
152.615
  0
LINE
  8
0
 10
-37.231
 11
-36.897
 20
152.615
 21
152.254
  0
LINE
  8
0
 10
-36.897
 11
-36.683
 20
152.254
 21
151.811
  0
LINE
  8
0
 10
-36.683
 11
-36.61
 20
151.811
 21
151.325
  0
LINE
  8
0
 10
-36.61
 11
-36.683
 20
151.325
 21
150.838
  0
LINE
  8
0
 10
-36.683
 11
-36.897
 20
150.838
 21
150.395
  0
LINE
  8
0
 10
-36.897
 11
-37.231
 20
150.395
 21
150.035
  0
LINE
  8
0
 10
-37.231
 11
-37.657
 20
150.035
 21
149.789
  0
LINE
  8
0
 10
-37.657
 11
-38.137
 20
149.789
 21
149.679
  0
LINE
  8
0
 10
-38.137
 11
-38.627
 20
149.679
 21
149.716
  0
LINE
  8
0
 10
-38.627
 11
-39.085
 20
149.716
 21
149.896
  0
LINE
  8
0
 10
-39.085
 11
-39.47
 20
149.896
 21
150.202
  0
LINE
  8
0
 10
-39.47
 11
-39.747
 20
150.202
 21
150.609
  0
LINE
  8
0
 10
-39.747
 11
-39.892
 20
150.609
 21
151.079
  0
LINE
  8
0
 10
-30.16
 11
-30.105
 20
198.3
 21
198.79
  0
LINE
  8
0
 10
-30.105
 11
-29.942
 20
198.79
 21
199.255
  0
LINE
  8
0
 10
-29.942
 11
-29.68
 20
199.255
 21
199.672
  0
LINE
  8
0
 10
-29.68
 11
-29.332
 20
199.672
 21
200.02
  0
LINE
  8
0
 10
-29.332
 11
-28.915
 20
200.02
 21
200.282
  0
LINE
  8
0
 10
-28.915
 11
-28.45
 20
200.282
 21
200.445
  0
LINE
  8
0
 10
-28.45
 11
-27.96
 20
200.445
 21
200.5
  0
LINE
  8
0
 10
-27.96
 11
-27.47
 20
200.5
 21
200.445
  0
LINE
  8
0
 10
-27.47
 11
-27.005
 20
200.445
 21
200.282
  0
LINE
  8
0
 10
-27.005
 11
-26.588
 20
200.282
 21
200.02
  0
LINE
  8
0
 10
-26.588
 11
-26.24
 20
200.02
 21
199.672
  0
LINE
  8
0
 10
-26.24
 11
-25.978
 20
199.672
 21
199.255
  0
LINE
  8
0
 10
-25.978
 11
-25.815
 20
199.255
 21
198.79
  0
LINE
  8
0
 10
-25.815
 11
-25.76
 20
198.79
 21
198.3
  0
LINE
  8
0
 10
-25.76
 11
-25.815
 20
198.3
 21
197.81
  0
LINE
  8
0
 10
-25.815
 11
-25.978
 20
197.81
 21
197.345
  0
LINE
  8
0
 10
-25.978
 11
-26.24
 20
197.345
 21
196.928
  0
LINE
  8
0
 10
-26.24
 11
-26.588
 20
196.928
 21
196.58
  0
LINE
  8
0
 10
-26.588
 11
-27.005
 20
196.58
 21
196.318
  0
LINE
  8
0
 10
-27.005
 11
-27.47
 20
196.318
 21
196.155
  0
LINE
  8
0
 10
-27.47
 11
-27.96
 20
196.155
 21
196.1
  0
LINE
  8
0
 10
-27.96
 11
-28.45
 20
196.1
 21
196.155
  0
LINE
  8
0
 10
-28.45
 11
-28.915
 20
196.155
 21
196.318
  0
LINE
  8
0
 10
-28.915
 11
-29.332
 20
196.318
 21
196.58
  0
LINE
  8
0
 10
-29.332
 11
-29.68
 20
196.58
 21
196.928
  0
LINE
  8
0
 10
-29.68
 11
-29.942
 20
196.928
 21
197.345
  0
LINE
  8
0
 10
-29.942
 11
-30.105
 20
197.345
 21
197.81
  0
LINE
  8
0
 10
-30.105
 11
-30.16
 20
197.81
 21
198.3
  0
LINE
  8
0
 10
12.26
 11
12.315
 20
198.3
 21
198.79
  0
LINE
  8
0
 10
12.315
 11
12.478
 20
198.79
 21
199.255
  0
LINE
  8
0
 10
12.478
 11
12.74
 20
199.255
 21
199.672
  0
LINE
  8
0
 10
12.74
 11
13.088
 20
199.672
 21
200.02
  0
LINE
  8
0
 10
13.088
 11
13.505
 20
200.02
 21
200.282
  0
LINE
  8
0
 10
13.505
 11
13.97
 20
200.282
 21
200.445
  0
LINE
  8
0
 10
13.97
 11
14.46
 20
200.445
 21
200.5
  0
LINE
  8
0
 10
14.46
 11
14.95
 20
200.5
 21
200.445
  0
LINE
  8
0
 10
14.95
 11
15.415
 20
200.445
 21
200.282
  0
LINE
  8
0
 10
15.415
 11
15.832
 20
200.282
 21
200.02
  0
LINE
  8
0
 10
15.832
 11
16.18
 20
200.02
 21
199.672
  0
LINE
  8
0
 10
16.18
 11
16.442
 20
199.672
 21
199.255
  0
LINE
  8
0
 10
16.442
 11
16.605
 20
199.255
 21
198.79
  0
LINE
  8
0
 10
16.605
 11
16.66
 20
198.79
 21
198.3
  0
LINE
  8
0
 10
16.66
 11
16.605
 20
198.3
 21
197.81
  0
LINE
  8
0
 10
16.605
 11
16.442
 20
197.81
 21
197.345
  0
LINE
  8
0
 10
16.442
 11
16.18
 20
197.345
 21
196.928
  0
LINE
  8
0
 10
16.18
 11
15.832
 20
196.928
 21
196.58
  0
LINE
  8
0
 10
15.832
 11
15.415
 20
196.58
 21
196.318
  0
LINE
  8
0
 10
15.415
 11
14.95
 20
196.318
 21
196.155
  0
LINE
  8
0
 10
14.95
 11
14.46
 20
196.155
 21
196.1
  0
LINE
  8
0
 10
14.46
 11
13.97
 20
196.1
 21
196.155
  0
LINE
  8
0
 10
13.97
 11
13.505
 20
196.155
 21
196.318
  0
LINE
  8
0
 10
13.505
 11
13.088
 20
196.318
 21
196.58
  0
LINE
  8
0
 10
13.088
 11
12.74
 20
196.58
 21
196.928
  0
LINE
  8
0
 10
12.74
 11
12.478
 20
196.928
 21
197.345
  0
LINE
  8
0
 10
12.478
 11
12.315
 20
197.345
 21
197.81
  0
LINE
  8
0
 10
12.315
 11
12.26
 20
197.81
 21
198.3
  0
LINE
  8
0
 10
96.05
 11
96.105
 20
93
 21
93.49
  0
LINE
  8
0
 10
96.105
 11
96.268
 20
93.49
 21
93.955
  0
LINE
  8
0
 10
96.268
 11
96.53
 20
93.955
 21
94.372
  0
LINE
  8
0
 10
96.53
 11
96.878
 20
94.372
 21
94.72
  0
LINE
  8
0
 10
96.878
 11
97.295
 20
94.72
 21
94.982
  0
LINE
  8
0
 10
97.295
 11
97.76
 20
94.982
 21
95.145
  0
LINE
  8
0
 10
97.76
 11
98.25
 20
95.145
 21
95.2
  0
LINE
  8
0
 10
98.25
 11
98.74
 20
95.2
 21
95.145
  0
LINE
  8
0
 10
98.74
 11
99.205
 20
95.145
 21
94.982
  0
LINE
  8
0
 10
99.205
 11
99.622
 20
94.982
 21
94.72
  0
LINE
  8
0
 10
99.622
 11
99.97
 20
94.72
 21
94.372
  0
LINE
  8
0
 10
99.97
 11
100.232
 20
94.372
 21
93.955
  0
LINE
  8
0
 10
100.232
 11
100.395
 20
93.955
 21
93.49
  0
LINE
  8
0
 10
100.395
 11
100.45
 20
93.49
 21
93
  0
LINE
  8
0
 10
100.45
 11
100.395
 20
93
 21
92.51
  0
LINE
  8
0
 10
100.395
 11
100.232
 20
92.51
 21
92.045
  0
LINE
  8
0
 10
100.232
 11
99.97
 20
92.045
 21
91.628
  0
LINE
  8
0
 10
99.97
 11
99.622
 20
91.628
 21
91.28
  0
LINE
  8
0
 10
99.622
 11
99.205
 20
91.28
 21
91.018
  0
LINE
  8
0
 10
99.205
 11
98.74
 20
91.018
 21
90.855
  0
LINE
  8
0
 10
98.74
 11
98.25
 20
90.855
 21
90.8
  0
LINE
  8
0
 10
98.25
 11
97.76
 20
90.8
 21
90.855
  0
LINE
  8
0
 10
97.76
 11
97.295
 20
90.855
 21
91.018
  0
LINE
  8
0
 10
97.295
 11
96.878
 20
91.018
 21
91.28
  0
LINE
  8
0
 10
96.878
 11
96.53
 20
91.28
 21
91.628
  0
LINE
  8
0
 10
96.53
 11
96.268
 20
91.628
 21
92.045
  0
LINE
  8
0
 10
96.268
 11
96.105
 20
92.045
 21
92.51
  0
LINE
  8
0
 10
96.105
 11
96.05
 20
92.51
 21
93
  0
LINE
  8
0
 10
130.5
 11
130.595
 20
10
 21
10.478
  0
LINE
  8
0
 10
130.595
 11
130.866
 20
10.478
 21
10.884
  0
LINE
  8
0
 10
130.866
 11
131.272
 20
10.884
 21
11.155
  0
LINE
  8
0
 10
131.272
 11
131.75
 20
11.155
 21
11.25
  0
LINE
  8
0
 10
131.75
 11
132.228
 20
11.25
 21
11.155
  0
LINE
  8
0
 10
132.228
 11
132.634
 20
11.155
 21
10.884
  0
LINE
  8
0
 10
132.634
 11
132.905
 20
10.884
 21
10.478
  0
LINE
  8
0
 10
132.905
 11
133
 20
10.478
 21
10
  0
LINE
  8
0
 10
133
 11
132.905
 20
10
 21
9.522
  0
LINE
  8
0
 10
132.905
 11
132.634
 20
9.522
 21
9.116
  0
LINE
  8
0
 10
132.634
 11
132.228
 20
9.116
 21
8.845
  0
LINE
  8
0
 10
132.228
 11
131.75
 20
8.845
 21
8.75
  0
LINE
  8
0
 10
131.75
 11
131.272
 20
8.75
 21
8.845
  0
LINE
  8
0
 10
131.272
 11
130.866
 20
8.845
 21
9.116
  0
LINE
  8
0
 10
130.866
 11
130.595
 20
9.116
 21
9.522
  0
LINE
  8
0
 10
130.595
 11
130.5
 20
9.522
 21
10
  0
LINE
  8
0
 10
130.5
 11
130.595
 20
200
 21
200.478
  0
LINE
  8
0
 10
130.595
 11
130.866
 20
200.478
 21
200.884
  0
LINE
  8
0
 10
130.866
 11
131.272
 20
200.884
 21
201.155
  0
LINE
  8
0
 10
131.272
 11
131.75
 20
201.155
 21
201.25
  0
LINE
  8
0
 10
131.75
 11
132.228
 20
201.25
 21
201.155
  0
LINE
  8
0
 10
132.228
 11
132.634
 20
201.155
 21
200.884
  0
LINE
  8
0
 10
132.634
 11
132.905
 20
200.884
 21
200.478
  0
LINE
  8
0
 10
132.905
 11
133
 20
200.478
 21
200
  0
LINE
  8
0
 10
133
 11
132.905
 20
200
 21
199.522
  0
LINE
  8
0
 10
132.905
 11
132.634
 20
199.522
 21
199.116
  0
LINE
  8
0
 10
132.634
 11
132.228
 20
199.116
 21
198.845
  0
LINE
  8
0
 10
132.228
 11
131.75
 20
198.845
 21
198.75
  0
LINE
  8
0
 10
131.75
 11
131.272
 20
198.75
 21
198.845
  0
LINE
  8
0
 10
131.272
 11
130.866
 20
198.845
 21
199.116
  0
LINE
  8
0
 10
130.866
 11
130.595
 20
199.116
 21
199.522
  0
LINE
  8
0
 10
130.595
 11
130.5
 20
199.522
 21
200
  0
LINE
  8
0
 10
133.05
 11
133.105
 20
117
 21
117.49
  0
LINE
  8
0
 10
133.105
 11
133.268
 20
117.49
 21
117.955
  0
LINE
  8
0
 10
133.268
 11
133.53
 20
117.955
 21
118.372
  0
LINE
  8
0
 10
133.53
 11
133.878
 20
118.372
 21
118.72
  0
LINE
  8
0
 10
133.878
 11
134.295
 20
118.72
 21
118.982
  0
LINE
  8
0
 10
134.295
 11
134.76
 20
118.982
 21
119.145
  0
LINE
  8
0
 10
134.76
 11
135.25
 20
119.145
 21
119.2
  0
LINE
  8
0
 10
135.25
 11
135.74
 20
119.2
 21
119.145
  0
LINE
  8
0
 10
135.74
 11
136.205
 20
119.145
 21
118.982
  0
LINE
  8
0
 10
136.205
 11
136.622
 20
118.982
 21
118.72
  0
LINE
  8
0
 10
136.622
 11
136.97
 20
118.72
 21
118.372
  0
LINE
  8
0
 10
136.97
 11
137.232
 20
118.372
 21
117.955
  0
LINE
  8
0
 10
137.232
 11
137.395
 20
117.955
 21
117.49
  0
LINE
  8
0
 10
137.395
 11
137.45
 20
117.49
 21
117
  0
LINE
  8
0
 10
137.45
 11
137.395
 20
117
 21
116.51
  0
LINE
  8
0
 10
137.395
 11
137.232
 20
116.51
 21
116.045
  0
LINE
  8
0
 10
137.232
 11
136.97
 20
116.045
 21
115.628
  0
LINE
  8
0
 10
136.97
 11
136.622
 20
115.628
 21
115.28
  0
LINE
  8
0
 10
136.622
 11
136.205
 20
115.28
 21
115.018
  0
LINE
  8
0
 10
136.205
 11
135.74
 20
115.018
 21
114.855
  0
LINE
  8
0
 10
135.74
 11
135.25
 20
114.855
 21
114.8
  0
LINE
  8
0
 10
135.25
 11
134.76
 20
114.8
 21
114.855
  0
LINE
  8
0
 10
134.76
 11
134.295
 20
114.855
 21
115.018
  0
LINE
  8
0
 10
134.295
 11
133.878
 20
115.018
 21
115.28
  0
LINE
  8
0
 10
133.878
 11
133.53
 20
115.28
 21
115.628
  0
LINE
  8
0
 10
133.53
 11
133.268
 20
115.628
 21
116.045
  0
LINE
  8
0
 10
133.268
 11
133.105
 20
116.045
 21
116.51
  0
LINE
  8
0
 10
133.105
 11
133.05
 20
116.51
 21
117
  0
LINE
  8
0
 10
166.757
 11
166.815
 20
369.059
 21
369.535
  0
LINE
  8
0
 10
166.815
 11
167.087
 20
369.535
 21
369.929
  0
LINE
  8
0
 10
167.087
 11
167.511
 20
369.929
 21
370.151
  0
LINE
  8
0
 10
167.511
 11
167.989
 20
370.151
 21
370.151
  0
LINE
  8
0
 10
167.989
 11
168.413
 20
370.151
 21
369.929
  0
LINE
  8
0
 10
168.413
 11
168.685
 20
369.929
 21
369.535
  0
LINE
  8
0
 10
168.685
 11
168.743
 20
369.535
 21
369.059
  0
LINE
  8
0
 10
168.743
 11
168.573
 20
369.059
 21
368.612
  0
LINE
  8
0
 10
168.573
 11
168.215
 20
368.612
 21
368.295
  0
LINE
  8
0
 10
168.215
 11
167.75
 20
368.295
 21
368.18
  0
LINE
  8
0
 10
167.75
 11
167.285
 20
368.18
 21
368.295
  0
LINE
  8
0
 10
167.285
 11
166.927
 20
368.295
 21
368.612
  0
LINE
  8
0
 10
166.927
 11
166.757
 20
368.612
 21
369.059
  0
LINE
  8
0
 10
167.557
 11
167.615
 20
36.589
 21
37.065
  0
LINE
  8
0
 10
167.615
 11
167.887
 20
37.065
 21
37.459
  0
LINE
  8
0
 10
167.887
 11
168.311
 20
37.459
 21
37.681
  0
LINE
  8
0
 10
168.311
 11
168.789
 20
37.681
 21
37.681
  0
LINE
  8
0
 10
168.789
 11
169.213
 20
37.681
 21
37.459
  0
LINE
  8
0
 10
169.213
 11
169.485
 20
37.459
 21
37.065
  0
LINE
  8
0
 10
169.485
 11
169.543
 20
37.065
 21
36.589
  0
LINE
  8
0
 10
169.543
 11
169.373
 20
36.589
 21
36.142
  0
LINE
  8
0
 10
169.373
 11
169.015
 20
36.142
 21
35.825
  0
LINE
  8
0
 10
169.015
 11
168.55
 20
35.825
 21
35.71
  0
LINE
  8
0
 10
168.55
 11
168.085
 20
35.71
 21
35.825
  0
LINE
  8
0
 10
168.085
 11
167.727
 20
35.825
 21
36.142
  0
LINE
  8
0
 10
167.727
 11
167.557
 20
36.142
 21
36.589
  0
LINE
  8
0
 10
167.557
 11
167.615
 20
398.169
 21
398.645
  0
LINE
  8
0
 10
167.615
 11
167.887
 20
398.645
 21
399.039
  0
LINE
  8
0
 10
167.887
 11
168.311
 20
399.039
 21
399.261
  0
LINE
  8
0
 10
168.311
 11
168.789
 20
399.261
 21
399.261
  0
LINE
  8
0
 10
168.789
 11
169.213
 20
399.261
 21
399.039
  0
LINE
  8
0
 10
169.213
 11
169.485
 20
399.039
 21
398.645
  0
LINE
  8
0
 10
169.485
 11
169.543
 20
398.645
 21
398.169
  0
LINE
  8
0
 10
169.543
 11
169.373
 20
398.169
 21
397.722
  0
LINE
  8
0
 10
169.373
 11
169.015
 20
397.722
 21
397.405
  0
LINE
  8
0
 10
169.015
 11
168.55
 20
397.405
 21
397.29
  0
LINE
  8
0
 10
168.55
 11
168.085
 20
397.29
 21
397.405
  0
LINE
  8
0
 10
168.085
 11
167.727
 20
397.405
 21
397.722
  0
LINE
  8
0
 10
167.727
 11
167.557
 20
397.722
 21
398.169
  0
LINE
  8
0
 10
167.757
 11
167.815
 20
426.379
 21
426.855
  0
LINE
  8
0
 10
167.815
 11
168.087
 20
426.855
 21
427.249
  0
LINE
  8
0
 10
168.087
 11
168.511
 20
427.249
 21
427.471
  0
LINE
  8
0
 10
168.511
 11
168.989
 20
427.471
 21
427.471
  0
LINE
  8
0
 10
168.989
 11
169.413
 20
427.471
 21
427.249
  0
LINE
  8
0
 10
169.413
 11
169.685
 20
427.249
 21
426.855
  0
LINE
  8
0
 10
169.685
 11
169.743
 20
426.855
 21
426.379
  0
LINE
  8
0
 10
169.743
 11
169.573
 20
426.379
 21
425.932
  0
LINE
  8
0
 10
169.573
 11
169.215
 20
425.932
 21
425.615
  0
LINE
  8
0
 10
169.215
 11
168.75
 20
425.615
 21
425.5
  0
LINE
  8
0
 10
168.75
 11
168.285
 20
425.5
 21
425.615
  0
LINE
  8
0
 10
168.285
 11
167.927
 20
425.615
 21
425.932
  0
LINE
  8
0
 10
167.927
 11
167.757
 20
425.932
 21
426.379
  0
LINE
  8
0
 10
186.779
 11
186.779
 20
61.261
 21
61.739
  0
LINE
  8
0
 10
186.779
 11
187.001
 20
61.739
 21
62.163
  0
LINE
  8
0
 10
187.001
 11
187.395
 20
62.163
 21
62.435
  0
LINE
  8
0
 10
187.395
 11
187.871
 20
62.435
 21
62.493
  0
LINE
  8
0
 10
187.871
 11
188.318
 20
62.493
 21
62.323
  0
LINE
  8
0
 10
188.318
 11
188.635
 20
62.323
 21
61.965
  0
LINE
  8
0
 10
188.635
 11
188.75
 20
61.965
 21
61.5
  0
LINE
  8
0
 10
188.75
 11
188.635
 20
61.5
 21
61.035
  0
LINE
  8
0
 10
188.635
 11
188.318
 20
61.035
 21
60.677
  0
LINE
  8
0
 10
188.318
 11
187.871
 20
60.677
 21
60.507
  0
LINE
  8
0
 10
187.871
 11
187.395
 20
60.507
 21
60.565
  0
LINE
  8
0
 10
187.395
 11
187.001
 20
60.565
 21
60.837
  0
LINE
  8
0
 10
187.001
 11
186.779
 20
60.837
 21
61.261
  0
LINE
  8
0
 10
197.45
 11
197.565
 20
8.2
 21
8.665
  0
LINE
  8
0
 10
197.565
 11
197.882
 20
8.665
 21
9.023
  0
LINE
  8
0
 10
197.882
 11
198.329
 20
9.023
 21
9.193
  0
LINE
  8
0
 10
198.329
 11
198.805
 20
9.193
 21
9.135
  0
LINE
  8
0
 10
198.805
 11
199.199
 20
9.135
 21
8.863
  0
LINE
  8
0
 10
199.199
 11
199.421
 20
8.863
 21
8.439
  0
LINE
  8
0
 10
199.421
 11
199.421
 20
8.439
 21
7.961
  0
LINE
  8
0
 10
199.421
 11
199.199
 20
7.961
 21
7.537
  0
LINE
  8
0
 10
199.199
 11
198.805
 20
7.537
 21
7.265
  0
LINE
  8
0
 10
198.805
 11
198.329
 20
7.265
 21
7.207
  0
LINE
  8
0
 10
198.329
 11
197.882
 20
7.207
 21
7.377
  0
LINE
  8
0
 10
197.882
 11
197.565
 20
7.377
 21
7.735
  0
LINE
  8
0
 10
197.565
 11
197.45
 20
7.735
 21
8.2
  0
LINE
  8
0
 10
200.25
 11
200.298
 20
20.9
 21
21.388
  0
LINE
  8
0
 10
200.298
 11
200.44
 20
21.388
 21
21.857
  0
LINE
  8
0
 10
200.44
 11
200.671
 20
21.857
 21
22.289
  0
LINE
  8
0
 10
200.671
 11
200.982
 20
22.289
 21
22.668
  0
LINE
  8
0
 10
200.982
 11
201.361
 20
22.668
 21
22.979
  0
LINE
  8
0
 10
201.361
 11
201.793
 20
22.979
 21
23.21
  0
LINE
  8
0
 10
201.793
 11
202.262
 20
23.21
 21
23.352
  0
LINE
  8
0
 10
202.262
 11
202.75
 20
23.352
 21
23.4
  0
LINE
  8
0
 10
202.75
 11
203.238
 20
23.4
 21
23.352
  0
LINE
  8
0
 10
203.238
 11
203.707
 20
23.352
 21
23.21
  0
LINE
  8
0
 10
203.707
 11
204.139
 20
23.21
 21
22.979
  0
LINE
  8
0
 10
204.139
 11
204.518
 20
22.979
 21
22.668
  0
LINE
  8
0
 10
204.518
 11
204.829
 20
22.668
 21
22.289
  0
LINE
  8
0
 10
204.829
 11
205.06
 20
22.289
 21
21.857
  0
LINE
  8
0
 10
205.06
 11
205.202
 20
21.857
 21
21.388
  0
LINE
  8
0
 10
205.202
 11
205.25
 20
21.388
 21
20.9
  0
LINE
  8
0
 10
205.25
 11
205.202
 20
20.9
 21
20.412
  0
LINE
  8
0
 10
205.202
 11
205.06
 20
20.412
 21
19.943
  0
LINE
  8
0
 10
205.06
 11
204.829
 20
19.943
 21
19.511
  0
LINE
  8
0
 10
204.829
 11
204.518
 20
19.511
 21
19.132
  0
LINE
  8
0
 10
204.518
 11
204.139
 20
19.132
 21
18.821
  0
LINE
  8
0
 10
204.139
 11
203.707
 20
18.821
 21
18.59
  0
LINE
  8
0
 10
203.707
 11
203.238
 20
18.59
 21
18.448
  0
LINE
  8
0
 10
203.238
 11
202.75
 20
18.448
 21
18.4
  0
LINE
  8
0
 10
202.75
 11
202.262
 20
18.4
 21
18.448
  0
LINE
  8
0
 10
202.262
 11
201.793
 20
18.448
 21
18.59
  0
LINE
  8
0
 10
201.793
 11
201.361
 20
18.59
 21
18.821
  0
LINE
  8
0
 10
201.361
 11
200.982
 20
18.821
 21
19.132
  0
LINE
  8
0
 10
200.982
 11
200.671
 20
19.132
 21
19.511
  0
LINE
  8
0
 10
200.671
 11
200.44
 20
19.511
 21
19.943
  0
LINE
  8
0
 10
200.44
 11
200.298
 20
19.943
 21
20.412
  0
LINE
  8
0
 10
200.298
 11
200.25
 20
20.412
 21
20.9
  0
LINE
  8
0
 10
202.757
 11
202.815
 20
426.379
 21
426.855
  0
LINE
  8
0
 10
202.815
 11
203.087
 20
426.855
 21
427.249
  0
LINE
  8
0
 10
203.087
 11
203.511
 20
427.249
 21
427.471
  0
LINE
  8
0
 10
203.511
 11
203.989
 20
427.471
 21
427.471
  0
LINE
  8
0
 10
203.989
 11
204.413
 20
427.471
 21
427.249
  0
LINE
  8
0
 10
204.413
 11
204.685
 20
427.249
 21
426.855
  0
LINE
  8
0
 10
204.685
 11
204.743
 20
426.855
 21
426.379
  0
LINE
  8
0
 10
204.743
 11
204.573
 20
426.379
 21
425.932
  0
LINE
  8
0
 10
204.573
 11
204.215
 20
425.932
 21
425.615
  0
LINE
  8
0
 10
204.215
 11
203.75
 20
425.615
 21
425.5
  0
LINE
  8
0
 10
203.75
 11
203.285
 20
425.5
 21
425.615
  0
LINE
  8
0
 10
203.285
 11
202.927
 20
425.615
 21
425.932
  0
LINE
  8
0
 10
202.927
 11
202.757
 20
425.932
 21
426.379
  0
LINE
  8
0
 10
218.67
 11
218.785
 20
8.2
 21
8.665
  0
LINE
  8
0
 10
218.785
 11
219.102
 20
8.665
 21
9.023
  0
LINE
  8
0
 10
219.102
 11
219.549
 20
9.023
 21
9.193
  0
LINE
  8
0
 10
219.549
 11
220.025
 20
9.193
 21
9.135
  0
LINE
  8
0
 10
220.025
 11
220.419
 20
9.135
 21
8.863
  0
LINE
  8
0
 10
220.419
 11
220.641
 20
8.863
 21
8.439
  0
LINE
  8
0
 10
220.641
 11
220.641
 20
8.439
 21
7.961
  0
LINE
  8
0
 10
220.641
 11
220.419
 20
7.961
 21
7.537
  0
LINE
  8
0
 10
220.419
 11
220.025
 20
7.537
 21
7.265
  0
LINE
  8
0
 10
220.025
 11
219.549
 20
7.265
 21
7.207
  0
LINE
  8
0
 10
219.549
 11
219.102
 20
7.207
 21
7.377
  0
LINE
  8
0
 10
219.102
 11
218.785
 20
7.377
 21
7.735
  0
LINE
  8
0
 10
218.785
 11
218.67
 20
7.735
 21
8.2
  0
LINE
  8
0
 10
218.779
 11
218.779
 20
61.261
 21
61.739
  0
LINE
  8
0
 10
218.779
 11
219.001
 20
61.739
 21
62.163
  0
LINE
  8
0
 10
219.001
 11
219.395
 20
62.163
 21
62.435
  0
LINE
  8
0
 10
219.395
 11
219.871
 20
62.435
 21
62.493
  0
LINE
  8
0
 10
219.871
 11
220.318
 20
62.493
 21
62.323
  0
LINE
  8
0
 10
220.318
 11
220.635
 20
62.323
 21
61.965
  0
LINE
  8
0
 10
220.635
 11
220.75
 20
61.965
 21
61.5
  0
LINE
  8
0
 10
220.75
 11
220.635
 20
61.5
 21
61.035
  0
LINE
  8
0
 10
220.635
 11
220.318
 20
61.035
 21
60.677
  0
LINE
  8
0
 10
220.318
 11
219.871
 20
60.677
 21
60.507
  0
LINE
  8
0
 10
219.871
 11
219.395
 20
60.507
 21
60.565
  0
LINE
  8
0
 10
219.395
 11
219.001
 20
60.565
 21
60.837
  0
LINE
  8
0
 10
219.001
 11
218.779
 20
60.837
 21
61.261
  0
LINE
  8
0
 10
229.079
 11
229.079
 20
422.761
 21
423.239
  0
LINE
  8
0
 10
229.079
 11
229.301
 20
423.239
 21
423.663
  0
LINE
  8
0
 10
229.301
 11
229.695
 20
423.663
 21
423.935
  0
LINE
  8
0
 10
229.695
 11
230.171
 20
423.935
 21
423.993
  0
LINE
  8
0
 10
230.171
 11
230.618
 20
423.993
 21
423.823
  0
LINE
  8
0
 10
230.618
 11
230.935
 20
423.823
 21
423.465
  0
LINE
  8
0
 10
230.935
 11
231.05
 20
423.465
 21
423
  0
LINE
  8
0
 10
231.05
 11
230.935
 20
423
 21
422.535
  0
LINE
  8
0
 10
230.935
 11
230.618
 20
422.535
 21
422.177
  0
LINE
  8
0
 10
230.618
 11
230.171
 20
422.177
 21
422.007
  0
LINE
  8
0
 10
230.171
 11
229.695
 20
422.007
 21
422.065
  0
LINE
  8
0
 10
229.695
 11
229.301
 20
422.065
 21
422.337
  0
LINE
  8
0
 10
229.301
 11
229.079
 20
422.337
 21
422.761
  0
LINE
  8
0
 10
248.83
 11
248.945
 20
8.2
 21
8.665
  0
LINE
  8
0
 10
248.945
 11
249.262
 20
8.665
 21
9.023
  0
LINE
  8
0
 10
249.262
 11
249.709
 20
9.023
 21
9.193
  0
LINE
  8
0
 10
249.709
 11
250.185
 20
9.193
 21
9.135
  0
LINE
  8
0
 10
250.185
 11
250.579
 20
9.135
 21
8.863
  0
LINE
  8
0
 10
250.579
 11
250.801
 20
8.863
 21
8.439
  0
LINE
  8
0
 10
250.801
 11
250.801
 20
8.439
 21
7.961
  0
LINE
  8
0
 10
250.801
 11
250.579
 20
7.961
 21
7.537
  0
LINE
  8
0
 10
250.579
 11
250.185
 20
7.537
 21
7.265
  0
LINE
  8
0
 10
250.185
 11
249.709
 20
7.265
 21
7.207
  0
LINE
  8
0
 10
249.709
 11
249.262
 20
7.207
 21
7.377
  0
LINE
  8
0
 10
249.262
 11
248.945
 20
7.377
 21
7.735
  0
LINE
  8
0
 10
248.945
 11
248.83
 20
7.735
 21
8.2
  0
LINE
  8
0
 10
263.479
 11
263.479
 20
422.761
 21
423.239
  0
LINE
  8
0
 10
263.479
 11
263.701
 20
423.239
 21
423.663
  0
LINE
  8
0
 10
263.701
 11
264.095
 20
423.663
 21
423.935
  0
LINE
  8
0
 10
264.095
 11
264.571
 20
423.935
 21
423.993
  0
LINE
  8
0
 10
264.571
 11
265.018
 20
423.993
 21
423.823
  0
LINE
  8
0
 10
265.018
 11
265.335
 20
423.823
 21
423.465
  0
LINE
  8
0
 10
265.335
 11
265.45
 20
423.465
 21
423
  0
LINE
  8
0
 10
265.45
 11
265.335
 20
423
 21
422.535
  0
LINE
  8
0
 10
265.335
 11
265.018
 20
422.535
 21
422.177
  0
LINE
  8
0
 10
265.018
 11
264.571
 20
422.177
 21
422.007
  0
LINE
  8
0
 10
264.571
 11
264.095
 20
422.007
 21
422.065
  0
LINE
  8
0
 10
264.095
 11
263.701
 20
422.065
 21
422.337
  0
LINE
  8
0
 10
263.701
 11
263.479
 20
422.337
 21
422.761
  0
LINE
  8
0
 10
270.05
 11
270.165
 20
8.2
 21
8.665
  0
LINE
  8
0
 10
270.165
 11
270.482
 20
8.665
 21
9.023
  0
LINE
  8
0
 10
270.482
 11
270.929
 20
9.023
 21
9.193
  0
LINE
  8
0
 10
270.929
 11
271.405
 20
9.193
 21
9.135
  0
LINE
  8
0
 10
271.405
 11
271.799
 20
9.135
 21
8.863
  0
LINE
  8
0
 10
271.799
 11
272.021
 20
8.863
 21
8.439
  0
LINE
  8
0
 10
272.021
 11
272.021
 20
8.439
 21
7.961
  0
LINE
  8
0
 10
272.021
 11
271.799
 20
7.961
 21
7.537
  0
LINE
  8
0
 10
271.799
 11
271.405
 20
7.537
 21
7.265
  0
LINE
  8
0
 10
271.405
 11
270.929
 20
7.265
 21
7.207
  0
LINE
  8
0
 10
270.929
 11
270.482
 20
7.207
 21
7.377
  0
LINE
  8
0
 10
270.482
 11
270.165
 20
7.377
 21
7.735
  0
LINE
  8
0
 10
270.165
 11
270.05
 20
7.735
 21
8.2
  0
ENDSEC
  0
SECTION
  2
OBJECTS
  0
DICTIONARY
  0
ENDSEC
  0
EOF
