  0
SECTION
  2
BLOCKS
  0
ENDSEC
  0
SECTION
  2
ENTITIES
  0
LINE
  8
0
 10
-280.75
 11
-280.75
 20
0
 21
410
  0
LINE
  8
0
 10
-280.75
 11
-280.655
 20
410
 21
412.179
  0
LINE
  8
0
 10
-280.655
 11
-280.37
 20
412.179
 21
414.341
  0
LINE
  8
0
 10
-280.37
 11
-279.898
 20
414.341
 21
416.47
  0
LINE
  8
0
 10
-279.898
 11
-279.242
 20
416.47
 21
418.551
  0
LINE
  8
0
 10
-279.242
 11
-278.408
 20
418.551
 21
420.565
  0
LINE
  8
0
 10
-278.408
 11
-277.401
 20
420.565
 21
422.5
  0
LINE
  8
0
 10
-277.401
 11
-276.229
 20
422.5
 21
424.339
  0
LINE
  8
0
 10
-276.229
 11
-274.901
 20
424.339
 21
426.07
  0
LINE
  8
0
 10
-274.901
 11
-273.428
 20
426.07
 21
427.678
  0
LINE
  8
0
 10
-273.428
 11
-271.82
 20
427.678
 21
429.151
  0
LINE
  8
0
 10
-271.82
 11
-270.089
 20
429.151
 21
430.479
  0
LINE
  8
0
 10
-270.089
 11
-268.25
 20
430.479
 21
431.651
  0
LINE
  8
0
 10
-268.25
 11
-266.315
 20
431.651
 21
432.658
  0
LINE
  8
0
 10
-266.315
 11
-264.301
 20
432.658
 21
433.492
  0
LINE
  8
0
 10
-264.301
 11
-262.22
 20
433.492
 21
434.148
  0
LINE
  8
0
 10
-262.22
 11
-260.091
 20
434.148
 21
434.62
  0
LINE
  8
0
 10
-260.091
 11
-257.929
 20
434.62
 21
434.905
  0
LINE
  8
0
 10
-257.929
 11
-255.75
 20
434.905
 21
435
  0
LINE
  8
0
 10
-255.75
 11
255.75
 20
435
 21
435
  0
LINE
  8
0
 10
255.75
 11
257.929
 20
435
 21
434.905
  0
LINE
  8
0
 10
257.929
 11
260.091
 20
434.905
 21
434.62
  0
LINE
  8
0
 10
260.091
 11
262.22
 20
434.62
 21
434.148
  0
LINE
  8
0
 10
262.22
 11
264.301
 20
434.148
 21
433.492
  0
LINE
  8
0
 10
264.301
 11
266.315
 20
433.492
 21
432.658
  0
LINE
  8
0
 10
266.315
 11
268.25
 20
432.658
 21
431.651
  0
LINE
  8
0
 10
268.25
 11
270.089
 20
431.651
 21
430.479
  0
LINE
  8
0
 10
270.089
 11
271.82
 20
430.479
 21
429.151
  0
LINE
  8
0
 10
271.82
 11
273.428
 20
429.151
 21
427.678
  0
LINE
  8
0
 10
273.428
 11
274.901
 20
427.678
 21
426.07
  0
LINE
  8
0
 10
274.901
 11
276.229
 20
426.07
 21
424.339
  0
LINE
  8
0
 10
276.229
 11
277.401
 20
424.339
 21
422.5
  0
LINE
  8
0
 10
277.401
 11
278.408
 20
422.5
 21
420.565
  0
LINE
  8
0
 10
278.408
 11
279.242
 20
420.565
 21
418.551
  0
LINE
  8
0
 10
279.242
 11
279.898
 20
418.551
 21
416.47
  0
LINE
  8
0
 10
279.898
 11
280.37
 20
416.47
 21
414.341
  0
LINE
  8
0
 10
280.37
 11
280.655
 20
414.341
 21
412.179
  0
LINE
  8
0
 10
280.655
 11
280.75
 20
412.179
 21
410
  0
LINE
  8
0
 10
280.75
 11
280.75
 20
410
 21
0
  0
LINE
  8
0
 10
280.75
 11
154.75
 20
0
 21
0
  0
LINE
  8
0
 10
154.75
 11
154.75
 20
0
 21
328.1
  0
LINE
  8
0
 10
154.75
 11
154.725
 20
328.1
 21
328.598
  0
LINE
  8
0
 10
154.725
 11
154.651
 20
328.598
 21
329.091
  0
LINE
  8
0
 10
154.651
 11
154.528
 20
329.091
 21
329.574
  0
LINE
  8
0
 10
154.528
 11
154.357
 20
329.574
 21
330.042
  0
LINE
  8
0
 10
154.357
 11
154.141
 20
330.042
 21
330.491
  0
LINE
  8
0
 10
154.141
 11
153.881
 20
330.491
 21
330.917
  0
LINE
  8
0
 10
153.881
 11
153.58
 20
330.917
 21
331.314
  0
LINE
  8
0
 10
153.58
 11
153.241
 20
331.314
 21
331.679
  0
LINE
  8
0
 10
153.241
 11
152.867
 20
331.679
 21
332.009
  0
LINE
  8
0
 10
152.867
 11
152.463
 20
332.009
 21
332.3
  0
LINE
  8
0
 10
152.463
 11
152.031
 20
332.3
 21
332.549
  0
LINE
  8
0
 10
152.031
 11
151.577
 20
332.549
 21
332.754
  0
LINE
  8
0
 10
151.577
 11
151.104
 20
332.754
 21
332.913
  0
LINE
  8
0
 10
151.104
 11
150.618
 20
332.913
 21
333.024
  0
LINE
  8
0
 10
150.618
 11
150.124
 20
333.024
 21
333.086
  0
LINE
  8
0
 10
150.124
 11
149.75
 20
333.086
 21
333.095
  0
LINE
  8
0
 10
149.75
 11
149.75
 20
333.095
 21
333.1
  0
LINE
  8
0
 10
149.75
 11
-163.25
 20
333.1
 21
333.1
  0
LINE
  8
0
 10
-163.25
 11
-163.25
 20
333.1
 21
333.095
  0
LINE
  8
0
 10
-163.25
 11
-163.375
 20
333.095
 21
333.098
  0
LINE
  8
0
 10
-163.375
 11
-163.872
 20
333.098
 21
333.061
  0
LINE
  8
0
 10
-163.872
 11
-164.363
 20
333.061
 21
332.975
  0
LINE
  8
0
 10
-164.363
 11
-164.842
 20
332.975
 21
332.84
  0
LINE
  8
0
 10
-164.842
 11
-165.306
 20
332.84
 21
332.658
  0
LINE
  8
0
 10
-165.306
 11
-165.75
 20
332.658
 21
332.43
  0
LINE
  8
0
 10
-165.75
 11
-166.169
 20
332.43
 21
332.16
  0
LINE
  8
0
 10
-166.169
 11
-166.558
 20
332.16
 21
331.849
  0
LINE
  8
0
 10
-166.558
 11
-166.915
 20
331.849
 21
331.501
  0
LINE
  8
0
 10
-166.915
 11
-167.236
 20
331.501
 21
331.119
  0
LINE
  8
0
 10
-167.236
 11
-167.516
 20
331.119
 21
330.707
  0
LINE
  8
0
 10
-167.516
 11
-167.755
 20
330.707
 21
330.269
  0
LINE
  8
0
 10
-167.755
 11
-167.948
 20
330.269
 21
329.81
  0
LINE
  8
0
 10
-167.948
 11
-168.095
 20
329.81
 21
329.334
  0
LINE
  8
0
 10
-168.095
 11
-168.194
 20
329.334
 21
328.845
  0
LINE
  8
0
 10
-168.194
 11
-168.244
 20
328.845
 21
328.349
  0
LINE
  8
0
 10
-168.244
 11
-168.244
 20
328.349
 21
328.1
  0
LINE
  8
0
 10
-168.244
 11
-168.25
 20
328.1
 21
328.1
  0
LINE
  8
0
 10
-168.25
 11
-168.25
 20
328.1
 21
0
  0
LINE
  8
0
 10
-168.25
 11
-280.75
 20
0
 21
0
  0
LINE
  8
0
 10
-274.221
 11
-274.221
 20
108.861
 21
109.339
  0
LINE
  8
0
 10
-274.221
 11
-273.999
 20
109.339
 21
109.763
  0
LINE
  8
0
 10
-273.999
 11
-273.605
 20
109.763
 21
110.035
  0
LINE
  8
0
 10
-273.605
 11
-273.129
 20
110.035
 21
110.093
  0
LINE
  8
0
 10
-273.129
 11
-272.682
 20
110.093
 21
109.923
  0
LINE
  8
0
 10
-272.682
 11
-272.365
 20
109.923
 21
109.565
  0
LINE
  8
0
 10
-272.365
 11
-272.25
 20
109.565
 21
109.1
  0
LINE
  8
0
 10
-272.25
 11
-272.365
 20
109.1
 21
108.635
  0
LINE
  8
0
 10
-272.365
 11
-272.682
 20
108.635
 21
108.277
  0
LINE
  8
0
 10
-272.682
 11
-273.129
 20
108.277
 21
108.107
  0
LINE
  8
0
 10
-273.129
 11
-273.605
 20
108.107
 21
108.165
  0
LINE
  8
0
 10
-273.605
 11
-273.999
 20
108.165
 21
108.437
  0
LINE
  8
0
 10
-273.999
 11
-274.221
 20
108.437
 21
108.861
  0
LINE
  8
0
 10
-274.221
 11
-274.221
 20
150.261
 21
150.739
  0
LINE
  8
0
 10
-274.221
 11
-273.999
 20
150.739
 21
151.163
  0
LINE
  8
0
 10
-273.999
 11
-273.605
 20
151.163
 21
151.435
  0
LINE
  8
0
 10
-273.605
 11
-273.129
 20
151.435
 21
151.493
  0
LINE
  8
0
 10
-273.129
 11
-272.682
 20
151.493
 21
151.323
  0
LINE
  8
0
 10
-272.682
 11
-272.365
 20
151.323
 21
150.965
  0
LINE
  8
0
 10
-272.365
 11
-272.25
 20
150.965
 21
150.5
  0
LINE
  8
0
 10
-272.25
 11
-272.365
 20
150.5
 21
150.035
  0
LINE
  8
0
 10
-272.365
 11
-272.682
 20
150.035
 21
149.677
  0
LINE
  8
0
 10
-272.682
 11
-273.129
 20
149.677
 21
149.507
  0
LINE
  8
0
 10
-273.129
 11
-273.605
 20
149.507
 21
149.565
  0
LINE
  8
0
 10
-273.605
 11
-273.999
 20
149.565
 21
149.837
  0
LINE
  8
0
 10
-273.999
 11
-274.221
 20
149.837
 21
150.261
  0
LINE
  8
0
 10
-272.05
 11
-271.935
 20
8.2
 21
8.665
  0
LINE
  8
0
 10
-271.935
 11
-271.618
 20
8.665
 21
9.023
  0
LINE
  8
0
 10
-271.618
 11
-271.171
 20
9.023
 21
9.193
  0
LINE
  8
0
 10
-271.171
 11
-270.695
 20
9.193
 21
9.135
  0
LINE
  8
0
 10
-270.695
 11
-270.301
 20
9.135
 21
8.863
  0
LINE
  8
0
 10
-270.301
 11
-270.079
 20
8.863
 21
8.439
  0
LINE
  8
0
 10
-270.079
 11
-270.079
 20
8.439
 21
7.961
  0
LINE
  8
0
 10
-270.079
 11
-270.301
 20
7.961
 21
7.537
  0
LINE
  8
0
 10
-270.301
 11
-270.695
 20
7.537
 21
7.265
  0
LINE
  8
0
 10
-270.695
 11
-271.171
 20
7.265
 21
7.207
  0
LINE
  8
0
 10
-271.171
 11
-271.618
 20
7.207
 21
7.377
  0
LINE
  8
0
 10
-271.618
 11
-271.935
 20
7.377
 21
7.735
  0
LINE
  8
0
 10
-271.935
 11
-272.05
 20
7.735
 21
8.2
  0
LINE
  8
0
 10
-265.221
 11
-265.221
 20
61.261
 21
61.739
  0
LINE
  8
0
 10
-265.221
 11
-264.999
 20
61.739
 21
62.163
  0
LINE
  8
0
 10
-264.999
 11
-264.605
 20
62.163
 21
62.435
  0
LINE
  8
0
 10
-264.605
 11
-264.129
 20
62.435
 21
62.493
  0
LINE
  8
0
 10
-264.129
 11
-263.682
 20
62.493
 21
62.323
  0
LINE
  8
0
 10
-263.682
 11
-263.365
 20
62.323
 21
61.965
  0
LINE
  8
0
 10
-263.365
 11
-263.25
 20
61.965
 21
61.5
  0
LINE
  8
0
 10
-263.25
 11
-263.365
 20
61.5
 21
61.035
  0
LINE
  8
0
 10
-263.365
 11
-263.682
 20
61.035
 21
60.677
  0
LINE
  8
0
 10
-263.682
 11
-264.129
 20
60.677
 21
60.507
  0
LINE
  8
0
 10
-264.129
 11
-264.605
 20
60.507
 21
60.565
  0
LINE
  8
0
 10
-264.605
 11
-264.999
 20
60.565
 21
60.837
  0
LINE
  8
0
 10
-264.999
 11
-265.221
 20
60.837
 21
61.261
  0
LINE
  8
0
 10
-250.83
 11
-250.715
 20
8.2
 21
8.665
  0
LINE
  8
0
 10
-250.715
 11
-250.398
 20
8.665
 21
9.023
  0
LINE
  8
0
 10
-250.398
 11
-249.951
 20
9.023
 21
9.193
  0
LINE
  8
0
 10
-249.951
 11
-249.475
 20
9.193
 21
9.135
  0
LINE
  8
0
 10
-249.475
 11
-249.081
 20
9.135
 21
8.863
  0
LINE
  8
0
 10
-249.081
 11
-248.859
 20
8.863
 21
8.439
  0
LINE
  8
0
 10
-248.859
 11
-248.859
 20
8.439
 21
7.961
  0
LINE
  8
0
 10
-248.859
 11
-249.081
 20
7.961
 21
7.537
  0
LINE
  8
0
 10
-249.081
 11
-249.475
 20
7.537
 21
7.265
  0
LINE
  8
0
 10
-249.475
 11
-249.951
 20
7.265
 21
7.207
  0
LINE
  8
0
 10
-249.951
 11
-250.398
 20
7.207
 21
7.377
  0
LINE
  8
0
 10
-250.398
 11
-250.715
 20
7.377
 21
7.735
  0
LINE
  8
0
 10
-250.715
 11
-250.83
 20
7.735
 21
8.2
  0
LINE
  8
0
 10
-249.25
 11
-249.192
 20
73.5
 21
73.979
  0
LINE
  8
0
 10
-249.192
 11
-249.021
 20
73.979
 21
74.429
  0
LINE
  8
0
 10
-249.021
 11
-248.747
 20
74.429
 21
74.826
  0
LINE
  8
0
 10
-248.747
 11
-248.386
 20
74.826
 21
75.146
  0
LINE
  8
0
 10
-248.386
 11
-247.959
 20
75.146
 21
75.37
  0
LINE
  8
0
 10
-247.959
 11
-247.491
 20
75.37
 21
75.485
  0
LINE
  8
0
 10
-247.491
 11
-247.009
 20
75.485
 21
75.485
  0
LINE
  8
0
 10
-247.009
 11
-246.541
 20
75.485
 21
75.37
  0
LINE
  8
0
 10
-246.541
 11
-246.114
 20
75.37
 21
75.146
  0
LINE
  8
0
 10
-246.114
 11
-245.753
 20
75.146
 21
74.826
  0
LINE
  8
0
 10
-245.753
 11
-245.479
 20
74.826
 21
74.429
  0
LINE
  8
0
 10
-245.479
 11
-245.308
 20
74.429
 21
73.979
  0
LINE
  8
0
 10
-245.308
 11
-245.25
 20
73.979
 21
73.5
  0
LINE
  8
0
 10
-245.25
 11
-245.308
 20
73.5
 21
73.021
  0
LINE
  8
0
 10
-245.308
 11
-245.479
 20
73.021
 21
72.571
  0
LINE
  8
0
 10
-245.479
 11
-245.753
 20
72.571
 21
72.174
  0
LINE
  8
0
 10
-245.753
 11
-246.114
 20
72.174
 21
71.854
  0
LINE
  8
0
 10
-246.114
 11
-246.541
 20
71.854
 21
71.63
  0
LINE
  8
0
 10
-246.541
 11
-247.009
 20
71.63
 21
71.515
  0
LINE
  8
0
 10
-247.009
 11
-247.491
 20
71.515
 21
71.515
  0
LINE
  8
0
 10
-247.491
 11
-247.959
 20
71.515
 21
71.63
  0
LINE
  8
0
 10
-247.959
 11
-248.386
 20
71.63
 21
71.854
  0
LINE
  8
0
 10
-248.386
 11
-248.747
 20
71.854
 21
72.174
  0
LINE
  8
0
 10
-248.747
 11
-249.021
 20
72.174
 21
72.571
  0
LINE
  8
0
 10
-249.021
 11
-249.192
 20
72.571
 21
73.021
  0
LINE
  8
0
 10
-249.192
 11
-249.25
 20
73.021
 21
73.5
  0
LINE
  8
0
 10
-243.25
 11
-243.192
 20
416
 21
416.479
  0
LINE
  8
0
 10
-243.192
 11
-243.021
 20
416.479
 21
416.929
  0
LINE
  8
0
 10
-243.021
 11
-242.747
 20
416.929
 21
417.326
  0
LINE
  8
0
 10
-242.747
 11
-242.386
 20
417.326
 21
417.646
  0
LINE
  8
0
 10
-242.386
 11
-241.959
 20
417.646
 21
417.87
  0
LINE
  8
0
 10
-241.959
 11
-241.491
 20
417.87
 21
417.985
  0
LINE
  8
0
 10
-241.491
 11
-241.009
 20
417.985
 21
417.985
  0
LINE
  8
0
 10
-241.009
 11
-240.541
 20
417.985
 21
417.87
  0
LINE
  8
0
 10
-240.541
 11
-240.114
 20
417.87
 21
417.646
  0
LINE
  8
0
 10
-240.114
 11
-239.753
 20
417.646
 21
417.326
  0
LINE
  8
0
 10
-239.753
 11
-239.479
 20
417.326
 21
416.929
  0
LINE
  8
0
 10
-239.479
 11
-239.308
 20
416.929
 21
416.479
  0
LINE
  8
0
 10
-239.308
 11
-239.25
 20
416.479
 21
416
  0
LINE
  8
0
 10
-239.25
 11
-239.308
 20
416
 21
415.521
  0
LINE
  8
0
 10
-239.308
 11
-239.479
 20
415.521
 21
415.071
  0
LINE
  8
0
 10
-239.479
 11
-239.753
 20
415.071
 21
414.674
  0
LINE
  8
0
 10
-239.753
 11
-240.114
 20
414.674
 21
414.354
  0
LINE
  8
0
 10
-240.114
 11
-240.541
 20
414.354
 21
414.13
  0
LINE
  8
0
 10
-240.541
 11
-241.009
 20
414.13
 21
414.015
  0
LINE
  8
0
 10
-241.009
 11
-241.491
 20
414.015
 21
414.015
  0
LINE
  8
0
 10
-241.491
 11
-241.959
 20
414.015
 21
414.13
  0
LINE
  8
0
 10
-241.959
 11
-242.386
 20
414.13
 21
414.354
  0
LINE
  8
0
 10
-242.386
 11
-242.747
 20
414.354
 21
414.674
  0
LINE
  8
0
 10
-242.747
 11
-243.021
 20
414.674
 21
415.071
  0
LINE
  8
0
 10
-243.021
 11
-243.192
 20
415.071
 21
415.521
  0
LINE
  8
0
 10
-243.192
 11
-243.25
 20
415.521
 21
416
  0
LINE
  8
0
 10
-242.243
 11
-242.185
 20
426.379
 21
426.855
  0
LINE
  8
0
 10
-242.185
 11
-241.913
 20
426.855
 21
427.249
  0
LINE
  8
0
 10
-241.913
 11
-241.489
 20
427.249
 21
427.471
  0
LINE
  8
0
 10
-241.489
 11
-241.011
 20
427.471
 21
427.471
  0
LINE
  8
0
 10
-241.011
 11
-240.587
 20
427.471
 21
427.249
  0
LINE
  8
0
 10
-240.587
 11
-240.315
 20
427.249
 21
426.855
  0
LINE
  8
0
 10
-240.315
 11
-240.257
 20
426.855
 21
426.379
  0
LINE
  8
0
 10
-240.257
 11
-240.427
 20
426.379
 21
425.932
  0
LINE
  8
0
 10
-240.427
 11
-240.785
 20
425.932
 21
425.615
  0
LINE
  8
0
 10
-240.785
 11
-241.25
 20
425.615
 21
425.5
  0
LINE
  8
0
 10
-241.25
 11
-241.715
 20
425.5
 21
425.615
  0
LINE
  8
0
 10
-241.715
 11
-242.073
 20
425.615
 21
425.932
  0
LINE
  8
0
 10
-242.073
 11
-242.243
 20
425.932
 21
426.379
  0
LINE
  8
0
 10
-240.13
 11
-240.082
 20
7.5
 21
7.988
  0
LINE
  8
0
 10
-240.082
 11
-239.94
 20
7.988
 21
8.457
  0
LINE
  8
0
 10
-239.94
 11
-239.709
 20
8.457
 21
8.889
  0
LINE
  8
0
 10
-239.709
 11
-239.398
 20
8.889
 21
9.268
  0
LINE
  8
0
 10
-239.398
 11
-239.019
 20
9.268
 21
9.579
  0
LINE
  8
0
 10
-239.019
 11
-238.587
 20
9.579
 21
9.81
  0
LINE
  8
0
 10
-238.587
 11
-238.118
 20
9.81
 21
9.952
  0
LINE
  8
0
 10
-238.118
 11
-237.63
 20
9.952
 21
10
  0
LINE
  8
0
 10
-237.63
 11
-237.142
 20
10
 21
9.952
  0
LINE
  8
0
 10
-237.142
 11
-236.673
 20
9.952
 21
9.81
  0
LINE
  8
0
 10
-236.673
 11
-236.241
 20
9.81
 21
9.579
  0
LINE
  8
0
 10
-236.241
 11
-235.862
 20
9.579
 21
9.268
  0
LINE
  8
0
 10
-235.862
 11
-235.551
 20
9.268
 21
8.889
  0
LINE
  8
0
 10
-235.551
 11
-235.32
 20
8.889
 21
8.457
  0
LINE
  8
0
 10
-235.32
 11
-235.178
 20
8.457
 21
7.988
  0
LINE
  8
0
 10
-235.178
 11
-235.13
 20
7.988
 21
7.5
  0
LINE
  8
0
 10
-235.13
 11
-235.178
 20
7.5
 21
7.012
  0
LINE
  8
0
 10
-235.178
 11
-235.32
 20
7.012
 21
6.543
  0
LINE
  8
0
 10
-235.32
 11
-235.551
 20
6.543
 21
6.111
  0
LINE
  8
0
 10
-235.551
 11
-235.862
 20
6.111
 21
5.732
  0
LINE
  8
0
 10
-235.862
 11
-236.241
 20
5.732
 21
5.421
  0
LINE
  8
0
 10
-236.241
 11
-236.673
 20
5.421
 21
5.19
  0
LINE
  8
0
 10
-236.673
 11
-237.142
 20
5.19
 21
5.048
  0
LINE
  8
0
 10
-237.142
 11
-237.63
 20
5.048
 21
5
  0
LINE
  8
0
 10
-237.63
 11
-238.118
 20
5
 21
5.048
  0
LINE
  8
0
 10
-238.118
 11
-238.587
 20
5.048
 21
5.19
  0
LINE
  8
0
 10
-238.587
 11
-239.019
 20
5.19
 21
5.421
  0
LINE
  8
0
 10
-239.019
 11
-239.398
 20
5.421
 21
5.732
  0
LINE
  8
0
 10
-239.398
 11
-239.709
 20
5.732
 21
6.111
  0
LINE
  8
0
 10
-239.709
 11
-239.94
 20
6.111
 21
6.543
  0
LINE
  8
0
 10
-239.94
 11
-240.082
 20
6.543
 21
7.012
  0
LINE
  8
0
 10
-240.082
 11
-240.13
 20
7.012
 21
7.5
  0
LINE
  8
0
 10
-233.221
 11
-233.221
 20
61.261
 21
61.739
  0
LINE
  8
0
 10
-233.221
 11
-232.999
 20
61.739
 21
62.163
  0
LINE
  8
0
 10
-232.999
 11
-232.605
 20
62.163
 21
62.435
  0
LINE
  8
0
 10
-232.605
 11
-232.129
 20
62.435
 21
62.493
  0
LINE
  8
0
 10
-232.129
 11
-231.682
 20
62.493
 21
62.323
  0
LINE
  8
0
 10
-231.682
 11
-231.365
 20
62.323
 21
61.965
  0
LINE
  8
0
 10
-231.365
 11
-231.25
 20
61.965
 21
61.5
  0
LINE
  8
0
 10
-231.25
 11
-231.365
 20
61.5
 21
61.035
  0
LINE
  8
0
 10
-231.365
 11
-231.682
 20
61.035
 21
60.677
  0
LINE
  8
0
 10
-231.682
 11
-232.129
 20
60.677
 21
60.507
  0
LINE
  8
0
 10
-232.129
 11
-232.605
 20
60.507
 21
60.565
  0
LINE
  8
0
 10
-232.605
 11
-232.999
 20
60.565
 21
60.837
  0
LINE
  8
0
 10
-232.999
 11
-233.221
 20
60.837
 21
61.261
  0
LINE
  8
0
 10
-207.243
 11
-207.185
 20
426.379
 21
426.855
  0
LINE
  8
0
 10
-207.185
 11
-206.913
 20
426.855
 21
427.249
  0
LINE
  8
0
 10
-206.913
 11
-206.489
 20
427.249
 21
427.471
  0
LINE
  8
0
 10
-206.489
 11
-206.011
 20
427.471
 21
427.471
  0
LINE
  8
0
 10
-206.011
 11
-205.587
 20
427.471
 21
427.249
  0
LINE
  8
0
 10
-205.587
 11
-205.315
 20
427.249
 21
426.855
  0
LINE
  8
0
 10
-205.315
 11
-205.257
 20
426.855
 21
426.379
  0
LINE
  8
0
 10
-205.257
 11
-205.427
 20
426.379
 21
425.932
  0
LINE
  8
0
 10
-205.427
 11
-205.785
 20
425.932
 21
425.615
  0
LINE
  8
0
 10
-205.785
 11
-206.25
 20
425.615
 21
425.5
  0
LINE
  8
0
 10
-206.25
 11
-206.715
 20
425.5
 21
425.615
  0
LINE
  8
0
 10
-206.715
 11
-207.073
 20
425.615
 21
425.932
  0
LINE
  8
0
 10
-207.073
 11
-207.243
 20
425.932
 21
426.379
  0
LINE
  8
0
 10
-205.043
 11
-204.873
 20
36.831
 21
37.278
  0
LINE
  8
0
 10
-204.873
 11
-204.515
 20
37.278
 21
37.595
  0
LINE
  8
0
 10
-204.515
 11
-204.05
 20
37.595
 21
37.71
  0
LINE
  8
0
 10
-204.05
 11
-203.585
 20
37.71
 21
37.595
  0
LINE
  8
0
 10
-203.585
 11
-203.227
 20
37.595
 21
37.278
  0
LINE
  8
0
 10
-203.227
 11
-203.057
 20
37.278
 21
36.831
  0
LINE
  8
0
 10
-203.057
 11
-203.115
 20
36.831
 21
36.355
  0
LINE
  8
0
 10
-203.115
 11
-203.387
 20
36.355
 21
35.961
  0
LINE
  8
0
 10
-203.387
 11
-203.811
 20
35.961
 21
35.739
  0
LINE
  8
0
 10
-203.811
 11
-204.289
 20
35.739
 21
35.739
  0
LINE
  8
0
 10
-204.289
 11
-204.713
 20
35.739
 21
35.961
  0
LINE
  8
0
 10
-204.713
 11
-204.985
 20
35.961
 21
36.355
  0
LINE
  8
0
 10
-204.985
 11
-205.043
 20
36.355
 21
36.831
  0
LINE
  8
0
 10
-205.043
 11
-204.873
 20
398.411
 21
398.858
  0
LINE
  8
0
 10
-204.873
 11
-204.515
 20
398.858
 21
399.175
  0
LINE
  8
0
 10
-204.515
 11
-204.05
 20
399.175
 21
399.29
  0
LINE
  8
0
 10
-204.05
 11
-203.585
 20
399.29
 21
399.175
  0
LINE
  8
0
 10
-203.585
 11
-203.227
 20
399.175
 21
398.858
  0
LINE
  8
0
 10
-203.227
 11
-203.057
 20
398.858
 21
398.411
  0
LINE
  8
0
 10
-203.057
 11
-203.115
 20
398.411
 21
397.935
  0
LINE
  8
0
 10
-203.115
 11
-203.387
 20
397.935
 21
397.541
  0
LINE
  8
0
 10
-203.387
 11
-203.811
 20
397.541
 21
397.319
  0
LINE
  8
0
 10
-203.811
 11
-204.289
 20
397.319
 21
397.319
  0
LINE
  8
0
 10
-204.289
 11
-204.713
 20
397.319
 21
397.541
  0
LINE
  8
0
 10
-204.713
 11
-204.985
 20
397.541
 21
397.935
  0
LINE
  8
0
 10
-204.985
 11
-205.043
 20
397.935
 21
398.411
  0
LINE
  8
0
 10
-204.243
 11
-204.185
 20
369.059
 21
369.535
  0
LINE
  8
0
 10
-204.185
 11
-203.913
 20
369.535
 21
369.929
  0
LINE
  8
0
 10
-203.913
 11
-203.489
 20
369.929
 21
370.151
  0
LINE
  8
0
 10
-203.489
 11
-203.011
 20
370.151
 21
370.151
  0
LINE
  8
0
 10
-203.011
 11
-202.587
 20
370.151
 21
369.929
  0
LINE
  8
0
 10
-202.587
 11
-202.315
 20
369.929
 21
369.535
  0
LINE
  8
0
 10
-202.315
 11
-202.257
 20
369.535
 21
369.059
  0
LINE
  8
0
 10
-202.257
 11
-202.427
 20
369.059
 21
368.612
  0
LINE
  8
0
 10
-202.427
 11
-202.785
 20
368.612
 21
368.295
  0
LINE
  8
0
 10
-202.785
 11
-203.25
 20
368.295
 21
368.18
  0
LINE
  8
0
 10
-203.25
 11
-203.715
 20
368.18
 21
368.295
  0
LINE
  8
0
 10
-203.715
 11
-204.073
 20
368.295
 21
368.612
  0
LINE
  8
0
 10
-204.073
 11
-204.243
 20
368.612
 21
369.059
  0
LINE
  8
0
 10
-199.67
 11
-199.555
 20
8.2
 21
8.665
  0
LINE
  8
0
 10
-199.555
 11
-199.238
 20
8.665
 21
9.023
  0
LINE
  8
0
 10
-199.238
 11
-198.791
 20
9.023
 21
9.193
  0
LINE
  8
0
 10
-198.791
 11
-198.315
 20
9.193
 21
9.135
  0
LINE
  8
0
 10
-198.315
 11
-197.921
 20
9.135
 21
8.863
  0
LINE
  8
0
 10
-197.921
 11
-197.699
 20
8.863
 21
8.439
  0
LINE
  8
0
 10
-197.699
 11
-197.699
 20
8.439
 21
7.961
  0
LINE
  8
0
 10
-197.699
 11
-197.921
 20
7.961
 21
7.537
  0
LINE
  8
0
 10
-197.921
 11
-198.315
 20
7.537
 21
7.265
  0
LINE
  8
0
 10
-198.315
 11
-198.791
 20
7.265
 21
7.207
  0
LINE
  8
0
 10
-198.791
 11
-199.238
 20
7.207
 21
7.377
  0
LINE
  8
0
 10
-199.238
 11
-199.555
 20
7.377
 21
7.735
  0
LINE
  8
0
 10
-199.555
 11
-199.67
 20
7.735
 21
8.2
  0
LINE
  8
0
 10
-178.45
 11
-178.335
 20
8.2
 21
8.665
  0
LINE
  8
0
 10
-178.335
 11
-178.018
 20
8.665
 21
9.023
  0
LINE
  8
0
 10
-178.018
 11
-177.571
 20
9.023
 21
9.193
  0
LINE
  8
0
 10
-177.571
 11
-177.095
 20
9.193
 21
9.135
  0
LINE
  8
0
 10
-177.095
 11
-176.701
 20
9.135
 21
8.863
  0
LINE
  8
0
 10
-176.701
 11
-176.479
 20
8.863
 21
8.439
  0
LINE
  8
0
 10
-176.479
 11
-176.479
 20
8.439
 21
7.961
  0
LINE
  8
0
 10
-176.479
 11
-176.701
 20
7.961
 21
7.537
  0
LINE
  8
0
 10
-176.701
 11
-177.095
 20
7.537
 21
7.265
  0
LINE
  8
0
 10
-177.095
 11
-177.571
 20
7.265
 21
7.207
  0
LINE
  8
0
 10
-177.571
 11
-178.018
 20
7.207
 21
7.377
  0
LINE
  8
0
 10
-178.018
 11
-178.335
 20
7.377
 21
7.735
  0
LINE
  8
0
 10
-178.335
 11
-178.45
 20
7.735
 21
8.2
  0
LINE
  8
0
 10
-168.234
 11
-168.234
 20
327.851
 21
328.349
  0
LINE
  8
0
 10
-168.234
 11
-168.184
 20
328.349
 21
328.844
  0
LINE
  8
0
 10
-168.184
 11
-168.086
 20
328.844
 21
329.331
  0
LINE
  8
0
 10
-168.086
 11
-167.939
 20
329.331
 21
329.807
  0
LINE
  8
0
 10
-167.939
 11
-167.746
 20
329.807
 21
330.265
  0
LINE
  8
0
 10
-167.746
 11
-167.508
 20
330.265
 21
330.702
  0
LINE
  8
0
 10
-167.508
 11
-167.228
 20
330.702
 21
331.113
  0
LINE
  8
0
 10
-167.228
 11
-166.908
 20
331.113
 21
331.494
  0
LINE
  8
0
 10
-166.908
 11
-166.552
 20
331.494
 21
331.841
  0
LINE
  8
0
 10
-166.552
 11
-166.163
 20
331.841
 21
332.152
  0
LINE
  8
0
 10
-166.163
 11
-165.745
 20
332.152
 21
332.421
  0
LINE
  8
0
 10
-165.745
 11
-165.302
 20
332.421
 21
332.648
  0
LINE
  8
0
 10
-165.302
 11
-164.839
 20
332.648
 21
332.83
  0
LINE
  8
0
 10
-164.839
 11
-164.36
 20
332.83
 21
332.965
  0
LINE
  8
0
 10
-164.36
 11
-163.87
 20
332.965
 21
333.051
  0
LINE
  8
0
 10
-163.87
 11
-163.374
 20
333.051
 21
333.088
  0
LINE
  8
0
 10
-163.374
 11
-162.877
 20
333.088
 21
333.076
  0
LINE
  8
0
 10
-162.877
 11
-162.383
 20
333.076
 21
333.014
  0
LINE
  8
0
 10
-162.383
 11
-161.899
 20
333.014
 21
332.903
  0
LINE
  8
0
 10
-161.899
 11
-161.427
 20
332.903
 21
332.745
  0
LINE
  8
0
 10
-161.427
 11
-160.974
 20
332.745
 21
332.54
  0
LINE
  8
0
 10
-160.974
 11
-160.543
 20
332.54
 21
332.292
  0
LINE
  8
0
 10
-160.543
 11
-160.139
 20
332.292
 21
332.001
  0
LINE
  8
0
 10
-160.139
 11
-159.766
 20
332.001
 21
331.672
  0
LINE
  8
0
 10
-159.766
 11
-159.427
 20
331.672
 21
331.308
  0
LINE
  8
0
 10
-159.427
 11
-159.127
 20
331.308
 21
330.911
  0
LINE
  8
0
 10
-159.127
 11
-158.868
 20
330.911
 21
330.486
  0
LINE
  8
0
 10
-158.868
 11
-158.652
 20
330.486
 21
330.038
  0
LINE
  8
0
 10
-158.652
 11
-158.482
 20
330.038
 21
329.571
  0
LINE
  8
0
 10
-158.482
 11
-158.359
 20
329.571
 21
329.089
  0
LINE
  8
0
 10
-158.359
 11
-158.285
 20
329.089
 21
328.597
  0
LINE
  8
0
 10
-158.285
 11
-158.26
 20
328.597
 21
328.1
  0
LINE
  8
0
 10
-158.26
 11
-158.285
 20
328.1
 21
327.603
  0
LINE
  8
0
 10
-158.285
 11
-158.359
 20
327.603
 21
327.111
  0
LINE
  8
0
 10
-158.359
 11
-158.482
 20
327.111
 21
326.629
  0
LINE
  8
0
 10
-158.482
 11
-158.652
 20
326.629
 21
326.162
  0
LINE
  8
0
 10
-158.652
 11
-158.868
 20
326.162
 21
325.714
  0
LINE
  8
0
 10
-158.868
 11
-159.127
 20
325.714
 21
325.289
  0
LINE
  8
0
 10
-159.127
 11
-159.427
 20
325.289
 21
324.892
  0
LINE
  8
0
 10
-159.427
 11
-159.766
 20
324.892
 21
324.528
  0
LINE
  8
0
 10
-159.766
 11
-160.139
 20
324.528
 21
324.199
  0
LINE
  8
0
 10
-160.139
 11
-160.543
 20
324.199
 21
323.908
  0
LINE
  8
0
 10
-160.543
 11
-160.974
 20
323.908
 21
323.66
  0
LINE
  8
0
 10
-160.974
 11
-161.427
 20
323.66
 21
323.455
  0
LINE
  8
0
 10
-161.427
 11
-161.899
 20
323.455
 21
323.297
  0
LINE
  8
0
 10
-161.899
 11
-162.383
 20
323.297
 21
323.186
  0
LINE
  8
0
 10
-162.383
 11
-162.877
 20
323.186
 21
323.124
  0
LINE
  8
0
 10
-162.877
 11
-163.374
 20
323.124
 21
323.112
  0
LINE
  8
0
 10
-163.374
 11
-163.87
 20
323.112
 21
323.149
  0
LINE
  8
0
 10
-163.87
 11
-164.36
 20
323.149
 21
323.235
  0
LINE
  8
0
 10
-164.36
 11
-164.839
 20
323.235
 21
323.37
  0
LINE
  8
0
 10
-164.839
 11
-165.302
 20
323.37
 21
323.552
  0
LINE
  8
0
 10
-165.302
 11
-165.745
 20
323.552
 21
323.779
  0
LINE
  8
0
 10
-165.745
 11
-166.163
 20
323.779
 21
324.048
  0
LINE
  8
0
 10
-166.163
 11
-166.552
 20
324.048
 21
324.359
  0
LINE
  8
0
 10
-166.552
 11
-166.908
 20
324.359
 21
324.706
  0
LINE
  8
0
 10
-166.908
 11
-167.228
 20
324.706
 21
325.087
  0
LINE
  8
0
 10
-167.228
 11
-167.508
 20
325.087
 21
325.498
  0
LINE
  8
0
 10
-167.508
 11
-167.746
 20
325.498
 21
325.935
  0
LINE
  8
0
 10
-167.746
 11
-167.939
 20
325.935
 21
326.393
  0
LINE
  8
0
 10
-167.939
 11
-168.086
 20
326.393
 21
326.869
  0
LINE
  8
0
 10
-168.086
 11
-168.184
 20
326.869
 21
327.356
  0
LINE
  8
0
 10
-168.184
 11
-168.234
 20
327.356
 21
327.851
  0
LINE
  8
0
 10
144.766
 11
144.766
 20
327.851
 21
328.349
  0
LINE
  8
0
 10
144.766
 11
144.816
 20
328.349
 21
328.844
  0
LINE
  8
0
 10
144.816
 11
144.914
 20
328.844
 21
329.331
  0
LINE
  8
0
 10
144.914
 11
145.061
 20
329.331
 21
329.807
  0
LINE
  8
0
 10
145.061
 11
145.254
 20
329.807
 21
330.265
  0
LINE
  8
0
 10
145.254
 11
145.492
 20
330.265
 21
330.702
  0
LINE
  8
0
 10
145.492
 11
145.772
 20
330.702
 21
331.113
  0
LINE
  8
0
 10
145.772
 11
146.092
 20
331.113
 21
331.494
  0
LINE
  8
0
 10
146.092
 11
146.448
 20
331.494
 21
331.841
  0
LINE
  8
0
 10
146.448
 11
146.837
 20
331.841
 21
332.152
  0
LINE
  8
0
 10
146.837
 11
147.255
 20
332.152
 21
332.421
  0
LINE
  8
0
 10
147.255
 11
147.698
 20
332.421
 21
332.648
  0
LINE
  8
0
 10
147.698
 11
148.161
 20
332.648
 21
332.83
  0
LINE
  8
0
 10
148.161
 11
148.64
 20
332.83
 21
332.965
  0
LINE
  8
0
 10
148.64
 11
149.13
 20
332.965
 21
333.051
  0
LINE
  8
0
 10
149.13
 11
149.626
 20
333.051
 21
333.088
  0
LINE
  8
0
 10
149.626
 11
150.123
 20
333.088
 21
333.076
  0
LINE
  8
0
 10
150.123
 11
150.617
 20
333.076
 21
333.014
  0
LINE
  8
0
 10
150.617
 11
151.101
 20
333.014
 21
332.903
  0
LINE
  8
0
 10
151.101
 11
151.573
 20
332.903
 21
332.745
  0
LINE
  8
0
 10
151.573
 11
152.026
 20
332.745
 21
332.54
  0
LINE
  8
0
 10
152.026
 11
152.457
 20
332.54
 21
332.292
  0
LINE
  8
0
 10
152.457
 11
152.861
 20
332.292
 21
332.001
  0
LINE
  8
0
 10
152.861
 11
153.234
 20
332.001
 21
331.672
  0
LINE
  8
0
 10
153.234
 11
153.573
 20
331.672
 21
331.308
  0
LINE
  8
0
 10
153.573
 11
153.873
 20
331.308
 21
330.911
  0
LINE
  8
0
 10
153.873
 11
154.132
 20
330.911
 21
330.486
  0
LINE
  8
0
 10
154.132
 11
154.348
 20
330.486
 21
330.038
  0
LINE
  8
0
 10
154.348
 11
154.518
 20
330.038
 21
329.571
  0
LINE
  8
0
 10
154.518
 11
154.641
 20
329.571
 21
329.089
  0
LINE
  8
0
 10
154.641
 11
154.715
 20
329.089
 21
328.597
  0
LINE
  8
0
 10
154.715
 11
154.74
 20
328.597
 21
328.1
  0
LINE
  8
0
 10
154.74
 11
154.715
 20
328.1
 21
327.603
  0
LINE
  8
0
 10
154.715
 11
154.641
 20
327.603
 21
327.111
  0
LINE
  8
0
 10
154.641
 11
154.518
 20
327.111
 21
326.629
  0
LINE
  8
0
 10
154.518
 11
154.348
 20
326.629
 21
326.162
  0
LINE
  8
0
 10
154.348
 11
154.132
 20
326.162
 21
325.714
  0
LINE
  8
0
 10
154.132
 11
153.873
 20
325.714
 21
325.289
  0
LINE
  8
0
 10
153.873
 11
153.573
 20
325.289
 21
324.892
  0
LINE
  8
0
 10
153.573
 11
153.234
 20
324.892
 21
324.528
  0
LINE
  8
0
 10
153.234
 11
152.861
 20
324.528
 21
324.199
  0
LINE
  8
0
 10
152.861
 11
152.457
 20
324.199
 21
323.908
  0
LINE
  8
0
 10
152.457
 11
152.026
 20
323.908
 21
323.66
  0
LINE
  8
0
 10
152.026
 11
151.573
 20
323.66
 21
323.455
  0
LINE
  8
0
 10
151.573
 11
151.101
 20
323.455
 21
323.297
  0
LINE
  8
0
 10
151.101
 11
150.617
 20
323.297
 21
323.186
  0
LINE
  8
0
 10
150.617
 11
150.123
 20
323.186
 21
323.124
  0
LINE
  8
0
 10
150.123
 11
149.626
 20
323.124
 21
323.112
  0
LINE
  8
0
 10
149.626
 11
149.13
 20
323.112
 21
323.149
  0
LINE
  8
0
 10
149.13
 11
148.64
 20
323.149
 21
323.235
  0
LINE
  8
0
 10
148.64
 11
148.161
 20
323.235
 21
323.37
  0
LINE
  8
0
 10
148.161
 11
147.698
 20
323.37
 21
323.552
  0
LINE
  8
0
 10
147.698
 11
147.255
 20
323.552
 21
323.779
  0
LINE
  8
0
 10
147.255
 11
146.837
 20
323.779
 21
324.048
  0
LINE
  8
0
 10
146.837
 11
146.448
 20
324.048
 21
324.359
  0
LINE
  8
0
 10
146.448
 11
146.092
 20
324.359
 21
324.706
  0
LINE
  8
0
 10
146.092
 11
145.772
 20
324.706
 21
325.087
  0
LINE
  8
0
 10
145.772
 11
145.492
 20
325.087
 21
325.498
  0
LINE
  8
0
 10
145.492
 11
145.254
 20
325.498
 21
325.935
  0
LINE
  8
0
 10
145.254
 11
145.061
 20
325.935
 21
326.393
  0
LINE
  8
0
 10
145.061
 11
144.914
 20
326.393
 21
326.869
  0
LINE
  8
0
 10
144.914
 11
144.816
 20
326.869
 21
327.356
  0
LINE
  8
0
 10
144.816
 11
144.766
 20
327.356
 21
327.851
  0
LINE
  8
0
 10
166.757
 11
166.815
 20
369.059
 21
369.535
  0
LINE
  8
0
 10
166.815
 11
167.087
 20
369.535
 21
369.929
  0
LINE
  8
0
 10
167.087
 11
167.511
 20
369.929
 21
370.151
  0
LINE
  8
0
 10
167.511
 11
167.989
 20
370.151
 21
370.151
  0
LINE
  8
0
 10
167.989
 11
168.413
 20
370.151
 21
369.929
  0
LINE
  8
0
 10
168.413
 11
168.685
 20
369.929
 21
369.535
  0
LINE
  8
0
 10
168.685
 11
168.743
 20
369.535
 21
369.059
  0
LINE
  8
0
 10
168.743
 11
168.573
 20
369.059
 21
368.612
  0
LINE
  8
0
 10
168.573
 11
168.215
 20
368.612
 21
368.295
  0
LINE
  8
0
 10
168.215
 11
167.75
 20
368.295
 21
368.18
  0
LINE
  8
0
 10
167.75
 11
167.285
 20
368.18
 21
368.295
  0
LINE
  8
0
 10
167.285
 11
166.927
 20
368.295
 21
368.612
  0
LINE
  8
0
 10
166.927
 11
166.757
 20
368.612
 21
369.059
  0
LINE
  8
0
 10
167.557
 11
167.615
 20
36.589
 21
37.065
  0
LINE
  8
0
 10
167.615
 11
167.887
 20
37.065
 21
37.459
  0
LINE
  8
0
 10
167.887
 11
168.311
 20
37.459
 21
37.681
  0
LINE
  8
0
 10
168.311
 11
168.789
 20
37.681
 21
37.681
  0
LINE
  8
0
 10
168.789
 11
169.213
 20
37.681
 21
37.459
  0
LINE
  8
0
 10
169.213
 11
169.485
 20
37.459
 21
37.065
  0
LINE
  8
0
 10
169.485
 11
169.543
 20
37.065
 21
36.589
  0
LINE
  8
0
 10
169.543
 11
169.373
 20
36.589
 21
36.142
  0
LINE
  8
0
 10
169.373
 11
169.015
 20
36.142
 21
35.825
  0
LINE
  8
0
 10
169.015
 11
168.55
 20
35.825
 21
35.71
  0
LINE
  8
0
 10
168.55
 11
168.085
 20
35.71
 21
35.825
  0
LINE
  8
0
 10
168.085
 11
167.727
 20
35.825
 21
36.142
  0
LINE
  8
0
 10
167.727
 11
167.557
 20
36.142
 21
36.589
  0
LINE
  8
0
 10
167.557
 11
167.615
 20
398.169
 21
398.645
  0
LINE
  8
0
 10
167.615
 11
167.887
 20
398.645
 21
399.039
  0
LINE
  8
0
 10
167.887
 11
168.311
 20
399.039
 21
399.261
  0
LINE
  8
0
 10
168.311
 11
168.789
 20
399.261
 21
399.261
  0
LINE
  8
0
 10
168.789
 11
169.213
 20
399.261
 21
399.039
  0
LINE
  8
0
 10
169.213
 11
169.485
 20
399.039
 21
398.645
  0
LINE
  8
0
 10
169.485
 11
169.543
 20
398.645
 21
398.169
  0
LINE
  8
0
 10
169.543
 11
169.373
 20
398.169
 21
397.722
  0
LINE
  8
0
 10
169.373
 11
169.015
 20
397.722
 21
397.405
  0
LINE
  8
0
 10
169.015
 11
168.55
 20
397.405
 21
397.29
  0
LINE
  8
0
 10
168.55
 11
168.085
 20
397.29
 21
397.405
  0
LINE
  8
0
 10
168.085
 11
167.727
 20
397.405
 21
397.722
  0
LINE
  8
0
 10
167.727
 11
167.557
 20
397.722
 21
398.169
  0
LINE
  8
0
 10
167.757
 11
167.815
 20
426.379
 21
426.855
  0
LINE
  8
0
 10
167.815
 11
168.087
 20
426.855
 21
427.249
  0
LINE
  8
0
 10
168.087
 11
168.511
 20
427.249
 21
427.471
  0
LINE
  8
0
 10
168.511
 11
168.989
 20
427.471
 21
427.471
  0
LINE
  8
0
 10
168.989
 11
169.413
 20
427.471
 21
427.249
  0
LINE
  8
0
 10
169.413
 11
169.685
 20
427.249
 21
426.855
  0
LINE
  8
0
 10
169.685
 11
169.743
 20
426.855
 21
426.379
  0
LINE
  8
0
 10
169.743
 11
169.573
 20
426.379
 21
425.932
  0
LINE
  8
0
 10
169.573
 11
169.215
 20
425.932
 21
425.615
  0
LINE
  8
0
 10
169.215
 11
168.75
 20
425.615
 21
425.5
  0
LINE
  8
0
 10
168.75
 11
168.285
 20
425.5
 21
425.615
  0
LINE
  8
0
 10
168.285
 11
167.927
 20
425.615
 21
425.932
  0
LINE
  8
0
 10
167.927
 11
167.757
 20
425.932
 21
426.379
  0
LINE
  8
0
 10
186.779
 11
186.779
 20
61.261
 21
61.739
  0
LINE
  8
0
 10
186.779
 11
187.001
 20
61.739
 21
62.163
  0
LINE
  8
0
 10
187.001
 11
187.395
 20
62.163
 21
62.435
  0
LINE
  8
0
 10
187.395
 11
187.871
 20
62.435
 21
62.493
  0
LINE
  8
0
 10
187.871
 11
188.318
 20
62.493
 21
62.323
  0
LINE
  8
0
 10
188.318
 11
188.635
 20
62.323
 21
61.965
  0
LINE
  8
0
 10
188.635
 11
188.75
 20
61.965
 21
61.5
  0
LINE
  8
0
 10
188.75
 11
188.635
 20
61.5
 21
61.035
  0
LINE
  8
0
 10
188.635
 11
188.318
 20
61.035
 21
60.677
  0
LINE
  8
0
 10
188.318
 11
187.871
 20
60.677
 21
60.507
  0
LINE
  8
0
 10
187.871
 11
187.395
 20
60.507
 21
60.565
  0
LINE
  8
0
 10
187.395
 11
187.001
 20
60.565
 21
60.837
  0
LINE
  8
0
 10
187.001
 11
186.779
 20
60.837
 21
61.261
  0
LINE
  8
0
 10
197.45
 11
197.565
 20
8.2
 21
8.665
  0
LINE
  8
0
 10
197.565
 11
197.882
 20
8.665
 21
9.023
  0
LINE
  8
0
 10
197.882
 11
198.329
 20
9.023
 21
9.193
  0
LINE
  8
0
 10
198.329
 11
198.805
 20
9.193
 21
9.135
  0
LINE
  8
0
 10
198.805
 11
199.199
 20
9.135
 21
8.863
  0
LINE
  8
0
 10
199.199
 11
199.421
 20
8.863
 21
8.439
  0
LINE
  8
0
 10
199.421
 11
199.421
 20
8.439
 21
7.961
  0
LINE
  8
0
 10
199.421
 11
199.199
 20
7.961
 21
7.537
  0
LINE
  8
0
 10
199.199
 11
198.805
 20
7.537
 21
7.265
  0
LINE
  8
0
 10
198.805
 11
198.329
 20
7.265
 21
7.207
  0
LINE
  8
0
 10
198.329
 11
197.882
 20
7.207
 21
7.377
  0
LINE
  8
0
 10
197.882
 11
197.565
 20
7.377
 21
7.735
  0
LINE
  8
0
 10
197.565
 11
197.45
 20
7.735
 21
8.2
  0
LINE
  8
0
 10
200.25
 11
200.298
 20
20.9
 21
21.388
  0
LINE
  8
0
 10
200.298
 11
200.44
 20
21.388
 21
21.857
  0
LINE
  8
0
 10
200.44
 11
200.671
 20
21.857
 21
22.289
  0
LINE
  8
0
 10
200.671
 11
200.982
 20
22.289
 21
22.668
  0
LINE
  8
0
 10
200.982
 11
201.361
 20
22.668
 21
22.979
  0
LINE
  8
0
 10
201.361
 11
201.793
 20
22.979
 21
23.21
  0
LINE
  8
0
 10
201.793
 11
202.262
 20
23.21
 21
23.352
  0
LINE
  8
0
 10
202.262
 11
202.75
 20
23.352
 21
23.4
  0
LINE
  8
0
 10
202.75
 11
203.238
 20
23.4
 21
23.352
  0
LINE
  8
0
 10
203.238
 11
203.707
 20
23.352
 21
23.21
  0
LINE
  8
0
 10
203.707
 11
204.139
 20
23.21
 21
22.979
  0
LINE
  8
0
 10
204.139
 11
204.518
 20
22.979
 21
22.668
  0
LINE
  8
0
 10
204.518
 11
204.829
 20
22.668
 21
22.289
  0
LINE
  8
0
 10
204.829
 11
205.06
 20
22.289
 21
21.857
  0
LINE
  8
0
 10
205.06
 11
205.202
 20
21.857
 21
21.388
  0
LINE
  8
0
 10
205.202
 11
205.25
 20
21.388
 21
20.9
  0
LINE
  8
0
 10
205.25
 11
205.202
 20
20.9
 21
20.412
  0
LINE
  8
0
 10
205.202
 11
205.06
 20
20.412
 21
19.943
  0
LINE
  8
0
 10
205.06
 11
204.829
 20
19.943
 21
19.511
  0
LINE
  8
0
 10
204.829
 11
204.518
 20
19.511
 21
19.132
  0
LINE
  8
0
 10
204.518
 11
204.139
 20
19.132
 21
18.821
  0
LINE
  8
0
 10
204.139
 11
203.707
 20
18.821
 21
18.59
  0
LINE
  8
0
 10
203.707
 11
203.238
 20
18.59
 21
18.448
  0
LINE
  8
0
 10
203.238
 11
202.75
 20
18.448
 21
18.4
  0
LINE
  8
0
 10
202.75
 11
202.262
 20
18.4
 21
18.448
  0
LINE
  8
0
 10
202.262
 11
201.793
 20
18.448
 21
18.59
  0
LINE
  8
0
 10
201.793
 11
201.361
 20
18.59
 21
18.821
  0
LINE
  8
0
 10
201.361
 11
200.982
 20
18.821
 21
19.132
  0
LINE
  8
0
 10
200.982
 11
200.671
 20
19.132
 21
19.511
  0
LINE
  8
0
 10
200.671
 11
200.44
 20
19.511
 21
19.943
  0
LINE
  8
0
 10
200.44
 11
200.298
 20
19.943
 21
20.412
  0
LINE
  8
0
 10
200.298
 11
200.25
 20
20.412
 21
20.9
  0
LINE
  8
0
 10
202.757
 11
202.815
 20
426.379
 21
426.855
  0
LINE
  8
0
 10
202.815
 11
203.087
 20
426.855
 21
427.249
  0
LINE
  8
0
 10
203.087
 11
203.511
 20
427.249
 21
427.471
  0
LINE
  8
0
 10
203.511
 11
203.989
 20
427.471
 21
427.471
  0
LINE
  8
0
 10
203.989
 11
204.413
 20
427.471
 21
427.249
  0
LINE
  8
0
 10
204.413
 11
204.685
 20
427.249
 21
426.855
  0
LINE
  8
0
 10
204.685
 11
204.743
 20
426.855
 21
426.379
  0
LINE
  8
0
 10
204.743
 11
204.573
 20
426.379
 21
425.932
  0
LINE
  8
0
 10
204.573
 11
204.215
 20
425.932
 21
425.615
  0
LINE
  8
0
 10
204.215
 11
203.75
 20
425.615
 21
425.5
  0
LINE
  8
0
 10
203.75
 11
203.285
 20
425.5
 21
425.615
  0
LINE
  8
0
 10
203.285
 11
202.927
 20
425.615
 21
425.932
  0
LINE
  8
0
 10
202.927
 11
202.757
 20
425.932
 21
426.379
  0
LINE
  8
0
 10
218.67
 11
218.785
 20
8.2
 21
8.665
  0
LINE
  8
0
 10
218.785
 11
219.102
 20
8.665
 21
9.023
  0
LINE
  8
0
 10
219.102
 11
219.549
 20
9.023
 21
9.193
  0
LINE
  8
0
 10
219.549
 11
220.025
 20
9.193
 21
9.135
  0
LINE
  8
0
 10
220.025
 11
220.419
 20
9.135
 21
8.863
  0
LINE
  8
0
 10
220.419
 11
220.641
 20
8.863
 21
8.439
  0
LINE
  8
0
 10
220.641
 11
220.641
 20
8.439
 21
7.961
  0
LINE
  8
0
 10
220.641
 11
220.419
 20
7.961
 21
7.537
  0
LINE
  8
0
 10
220.419
 11
220.025
 20
7.537
 21
7.265
  0
LINE
  8
0
 10
220.025
 11
219.549
 20
7.265
 21
7.207
  0
LINE
  8
0
 10
219.549
 11
219.102
 20
7.207
 21
7.377
  0
LINE
  8
0
 10
219.102
 11
218.785
 20
7.377
 21
7.735
  0
LINE
  8
0
 10
218.785
 11
218.67
 20
7.735
 21
8.2
  0
LINE
  8
0
 10
218.779
 11
218.779
 20
61.261
 21
61.739
  0
LINE
  8
0
 10
218.779
 11
219.001
 20
61.739
 21
62.163
  0
LINE
  8
0
 10
219.001
 11
219.395
 20
62.163
 21
62.435
  0
LINE
  8
0
 10
219.395
 11
219.871
 20
62.435
 21
62.493
  0
LINE
  8
0
 10
219.871
 11
220.318
 20
62.493
 21
62.323
  0
LINE
  8
0
 10
220.318
 11
220.635
 20
62.323
 21
61.965
  0
LINE
  8
0
 10
220.635
 11
220.75
 20
61.965
 21
61.5
  0
LINE
  8
0
 10
220.75
 11
220.635
 20
61.5
 21
61.035
  0
LINE
  8
0
 10
220.635
 11
220.318
 20
61.035
 21
60.677
  0
LINE
  8
0
 10
220.318
 11
219.871
 20
60.677
 21
60.507
  0
LINE
  8
0
 10
219.871
 11
219.395
 20
60.507
 21
60.565
  0
LINE
  8
0
 10
219.395
 11
219.001
 20
60.565
 21
60.837
  0
LINE
  8
0
 10
219.001
 11
218.779
 20
60.837
 21
61.261
  0
LINE
  8
0
 10
229.079
 11
229.079
 20
422.761
 21
423.239
  0
LINE
  8
0
 10
229.079
 11
229.301
 20
423.239
 21
423.663
  0
LINE
  8
0
 10
229.301
 11
229.695
 20
423.663
 21
423.935
  0
LINE
  8
0
 10
229.695
 11
230.171
 20
423.935
 21
423.993
  0
LINE
  8
0
 10
230.171
 11
230.618
 20
423.993
 21
423.823
  0
LINE
  8
0
 10
230.618
 11
230.935
 20
423.823
 21
423.465
  0
LINE
  8
0
 10
230.935
 11
231.05
 20
423.465
 21
423
  0
LINE
  8
0
 10
231.05
 11
230.935
 20
423
 21
422.535
  0
LINE
  8
0
 10
230.935
 11
230.618
 20
422.535
 21
422.177
  0
LINE
  8
0
 10
230.618
 11
230.171
 20
422.177
 21
422.007
  0
LINE
  8
0
 10
230.171
 11
229.695
 20
422.007
 21
422.065
  0
LINE
  8
0
 10
229.695
 11
229.301
 20
422.065
 21
422.337
  0
LINE
  8
0
 10
229.301
 11
229.079
 20
422.337
 21
422.761
  0
LINE
  8
0
 10
248.83
 11
248.945
 20
8.2
 21
8.665
  0
LINE
  8
0
 10
248.945
 11
249.262
 20
8.665
 21
9.023
  0
LINE
  8
0
 10
249.262
 11
249.709
 20
9.023
 21
9.193
  0
LINE
  8
0
 10
249.709
 11
250.185
 20
9.193
 21
9.135
  0
LINE
  8
0
 10
250.185
 11
250.579
 20
9.135
 21
8.863
  0
LINE
  8
0
 10
250.579
 11
250.801
 20
8.863
 21
8.439
  0
LINE
  8
0
 10
250.801
 11
250.801
 20
8.439
 21
7.961
  0
LINE
  8
0
 10
250.801
 11
250.579
 20
7.961
 21
7.537
  0
LINE
  8
0
 10
250.579
 11
250.185
 20
7.537
 21
7.265
  0
LINE
  8
0
 10
250.185
 11
249.709
 20
7.265
 21
7.207
  0
LINE
  8
0
 10
249.709
 11
249.262
 20
7.207
 21
7.377
  0
LINE
  8
0
 10
249.262
 11
248.945
 20
7.377
 21
7.735
  0
LINE
  8
0
 10
248.945
 11
248.83
 20
7.735
 21
8.2
  0
LINE
  8
0
 10
263.479
 11
263.479
 20
422.761
 21
423.239
  0
LINE
  8
0
 10
263.479
 11
263.701
 20
423.239
 21
423.663
  0
LINE
  8
0
 10
263.701
 11
264.095
 20
423.663
 21
423.935
  0
LINE
  8
0
 10
264.095
 11
264.571
 20
423.935
 21
423.993
  0
LINE
  8
0
 10
264.571
 11
265.018
 20
423.993
 21
423.823
  0
LINE
  8
0
 10
265.018
 11
265.335
 20
423.823
 21
423.465
  0
LINE
  8
0
 10
265.335
 11
265.45
 20
423.465
 21
423
  0
LINE
  8
0
 10
265.45
 11
265.335
 20
423
 21
422.535
  0
LINE
  8
0
 10
265.335
 11
265.018
 20
422.535
 21
422.177
  0
LINE
  8
0
 10
265.018
 11
264.571
 20
422.177
 21
422.007
  0
LINE
  8
0
 10
264.571
 11
264.095
 20
422.007
 21
422.065
  0
LINE
  8
0
 10
264.095
 11
263.701
 20
422.065
 21
422.337
  0
LINE
  8
0
 10
263.701
 11
263.479
 20
422.337
 21
422.761
  0
LINE
  8
0
 10
270.05
 11
270.165
 20
8.2
 21
8.665
  0
LINE
  8
0
 10
270.165
 11
270.482
 20
8.665
 21
9.023
  0
LINE
  8
0
 10
270.482
 11
270.929
 20
9.023
 21
9.193
  0
LINE
  8
0
 10
270.929
 11
271.405
 20
9.193
 21
9.135
  0
LINE
  8
0
 10
271.405
 11
271.799
 20
9.135
 21
8.863
  0
LINE
  8
0
 10
271.799
 11
272.021
 20
8.863
 21
8.439
  0
LINE
  8
0
 10
272.021
 11
272.021
 20
8.439
 21
7.961
  0
LINE
  8
0
 10
272.021
 11
271.799
 20
7.961
 21
7.537
  0
LINE
  8
0
 10
271.799
 11
271.405
 20
7.537
 21
7.265
  0
LINE
  8
0
 10
271.405
 11
270.929
 20
7.265
 21
7.207
  0
LINE
  8
0
 10
270.929
 11
270.482
 20
7.207
 21
7.377
  0
LINE
  8
0
 10
270.482
 11
270.165
 20
7.377
 21
7.735
  0
LINE
  8
0
 10
270.165
 11
270.05
 20
7.735
 21
8.2
  0
ENDSEC
  0
SECTION
  2
OBJECTS
  0
DICTIONARY
  0
ENDSEC
  0
EOF
