<?xml version="1.0"?>
<svg xmlns="http://www.w3.org/2000/svg" version="1.1" height="163mm" width="445mm" >
 <g style="fill-opacity:1.0; stroke:black; stroke-width:1;">
  <line x1="410.000000mm" y1="153.000000mm" x2="410.000000mm" y2="153.000000mm" />
  <line x1="410.000000mm" y1="153.000000mm" x2="0.000000mm" y2="153.000000mm" />
  <line x1="0.000000mm" y1="153.000000mm" x2="0.000000mm" y2="0.000000mm" />
  <line x1="0.000000mm" y1="0.000000mm" x2="435.000000mm" y2="0.000000mm" />
  <line x1="435.000000mm" y1="0.000000mm" x2="435.000000mm" y2="128.000000mm" />
  <line x1="435.000000mm" y1="128.000000mm" x2="434.905000mm" y2="130.179000mm" />
  <line x1="434.905000mm" y1="130.179000mm" x2="434.620000mm" y2="132.341000mm" />
  <line x1="434.620000mm" y1="132.341000mm" x2="434.148000mm" y2="134.470000mm" />
  <line x1="434.148000mm" y1="134.470000mm" x2="433.492000mm" y2="136.551000mm" />
  <line x1="433.492000mm" y1="136.551000mm" x2="432.658000mm" y2="138.565000mm" />
  <line x1="432.658000mm" y1="138.565000mm" x2="431.651000mm" y2="140.500000mm" />
  <line x1="431.651000mm" y1="140.500000mm" x2="430.479000mm" y2="142.339000mm" />
  <line x1="430.479000mm" y1="142.339000mm" x2="429.151000mm" y2="144.070000mm" />
  <line x1="429.151000mm" y1="144.070000mm" x2="427.678000mm" y2="145.678000mm" />
  <line x1="427.678000mm" y1="145.678000mm" x2="426.070000mm" y2="147.151000mm" />
  <line x1="426.070000mm" y1="147.151000mm" x2="424.339000mm" y2="148.479000mm" />
  <line x1="424.339000mm" y1="148.479000mm" x2="422.500000mm" y2="149.651000mm" />
  <line x1="422.500000mm" y1="149.651000mm" x2="420.565000mm" y2="150.658000mm" />
  <line x1="420.565000mm" y1="150.658000mm" x2="418.551000mm" y2="151.492000mm" />
  <line x1="418.551000mm" y1="151.492000mm" x2="416.470000mm" y2="152.148000mm" />
  <line x1="416.470000mm" y1="152.148000mm" x2="414.341000mm" y2="152.620000mm" />
  <line x1="414.341000mm" y1="152.620000mm" x2="412.179000mm" y2="152.905000mm" />
  <line x1="412.179000mm" y1="152.905000mm" x2="410.000000mm" y2="153.000000mm" />
  <circle cx="8.500151mm" cy="94.599567mm" r="3.499825mm" fill="none"/>
  <line x1="15.499802mm" y1="94.599567mm" x2="1.500500mm" y2="94.599567mm" />
  <line x1="8.500151mm" y1="87.599917mm" x2="8.500151mm" y2="101.599218mm" />
  <text x="11mm" y="91mm" font-size="24">
   7.0
  </text>
  <circle cx="7.500170mm" cy="18.899939mm" r="2.500268mm" fill="none"/>
  <line x1="12.500707mm" y1="18.899939mm" x2="2.499633mm" y2="18.899939mm" />
  <line x1="7.500170mm" y1="13.899402mm" x2="7.500170mm" y2="23.900476mm" />
  <text x="10mm" y="16mm" font-size="24">
   5.0
  </text>
  <circle cx="7.000009mm" cy="82.399777mm" r="1.999983mm" fill="none"/>
  <line x1="10.999974mm" y1="82.399777mm" x2="3.000044mm" y2="82.399777mm" />
  <line x1="7.000009mm" y1="78.399812mm" x2="7.000009mm" y2="86.399742mm" />
  <text x="8mm" y="80mm" font-size="24">
   4.0
  </text>
  <circle cx="7.000009mm" cy="28.399777mm" r="1.999983mm" fill="none"/>
  <line x1="10.999974mm" y1="28.399777mm" x2="3.000044mm" y2="28.399777mm" />
  <line x1="7.000009mm" y1="24.399812mm" x2="7.000009mm" y2="32.399742mm" />
  <text x="8mm" y="26mm" font-size="24">
   4.0
  </text>
  <circle cx="8.200066mm" cy="143.300138mm" r="1.000138mm" fill="none"/>
  <line x1="10.200342mm" y1="143.300138mm" x2="6.199790mm" y2="143.300138mm" />
  <line x1="8.200066mm" y1="141.299862mm" x2="8.200066mm" y2="145.300414mm" />
  <text x="9mm" y="142mm" font-size="24">
   2.0
  </text>
  <circle cx="8.200066mm" cy="122.080138mm" r="1.000138mm" fill="none"/>
  <line x1="10.200342mm" y1="122.080138mm" x2="6.199790mm" y2="122.080138mm" />
  <line x1="8.200066mm" y1="120.079862mm" x2="8.200066mm" y2="124.080414mm" />
  <text x="9mm" y="121mm" font-size="24">
   2.0
  </text>
  <circle cx="26.099659mm" cy="8.200016mm" r="1.000019mm" fill="none"/>
  <line x1="28.099698mm" y1="8.200016mm" x2="24.099621mm" y2="8.200016mm" />
  <line x1="26.099659mm" y1="6.199978mm" x2="26.099659mm" y2="10.200054mm" />
  <text x="27mm" y="7mm" font-size="24">
   2.0
  </text>
  <circle cx="32.899659mm" cy="146.000016mm" r="1.000019mm" fill="none"/>
  <line x1="34.899698mm" y1="146.000016mm" x2="30.899621mm" y2="146.000016mm" />
  <line x1="32.899659mm" y1="143.999978mm" x2="32.899659mm" y2="148.000054mm" />
  <text x="33mm" y="144mm" font-size="24">
   2.0
  </text>
  <circle cx="47.319659mm" cy="8.200016mm" r="1.000019mm" fill="none"/>
  <line x1="49.319698mm" y1="8.200016mm" x2="45.319621mm" y2="8.200016mm" />
  <line x1="47.319659mm" y1="6.199978mm" x2="47.319659mm" y2="10.200054mm" />
  <text x="48mm" y="7mm" font-size="24">
   2.0
  </text>
  <circle cx="149.899659mm" cy="146.000016mm" r="1.000019mm" fill="none"/>
  <line x1="151.899698mm" y1="146.000016mm" x2="147.899621mm" y2="146.000016mm" />
  <line x1="149.899659mm" y1="143.999978mm" x2="149.899659mm" y2="148.000054mm" />
  <text x="150mm" y="144mm" font-size="24">
   2.0
  </text>
  <circle cx="192.050194mm" cy="138.450223mm" r="0.849908mm" fill="none"/>
  <line x1="193.750009mm" y1="138.450223mm" x2="190.350378mm" y2="138.450223mm" />
  <line x1="192.050194mm" y1="136.750407mm" x2="192.050194mm" y2="140.150038mm" />
  <text x="192mm" y="137mm" font-size="24">
   1.7
  </text>
  <circle cx="192.050194mm" cy="106.950223mm" r="0.849908mm" fill="none"/>
  <line x1="193.750009mm" y1="106.950223mm" x2="190.350378mm" y2="106.950223mm" />
  <line x1="192.050194mm" y1="105.250407mm" x2="192.050194mm" y2="108.650038mm" />
  <text x="192mm" y="106mm" font-size="24">
   1.7
  </text>
  <circle cx="206.350194mm" cy="122.550223mm" r="0.849908mm" fill="none"/>
  <line x1="208.050009mm" y1="122.550223mm" x2="204.650378mm" y2="122.550223mm" />
  <line x1="206.350194mm" y1="120.850407mm" x2="206.350194mm" y2="124.250038mm" />
  <text x="207mm" y="121mm" font-size="24">
   1.7
  </text>
  <circle cx="206.350194mm" cy="91.050223mm" r="0.849908mm" fill="none"/>
  <line x1="208.050009mm" y1="91.050223mm" x2="204.650378mm" y2="91.050223mm" />
  <line x1="206.350194mm" y1="89.350407mm" x2="206.350194mm" y2="92.750038mm" />
  <text x="207mm" y="90mm" font-size="24">
   1.7
  </text>
  <circle cx="253.710087mm" cy="98.090061mm" r="1.250061mm" fill="none"/>
  <line x1="256.210208mm" y1="98.090061mm" x2="251.209966mm" y2="98.090061mm" />
  <line x1="253.710087mm" y1="95.589939mm" x2="253.710087mm" y2="100.590182mm" />
  <text x="254mm" y="96mm" font-size="24">
   2.5
  </text>
  <circle cx="253.710087mm" cy="54.910061mm" r="1.250061mm" fill="none"/>
  <line x1="256.210208mm" y1="54.910061mm" x2="251.209966mm" y2="54.910061mm" />
  <line x1="253.710087mm" y1="52.409939mm" x2="253.710087mm" y2="57.410182mm" />
  <text x="254mm" y="53mm" font-size="24">
   2.5
  </text>
  <circle cx="336.511361mm" cy="32.099847mm" r="1.000116mm" fill="none"/>
  <line x1="338.511593mm" y1="32.099847mm" x2="334.511129mm" y2="32.099847mm" />
  <line x1="336.511361mm" y1="30.099615mm" x2="336.511361mm" y2="34.100079mm" />
  <text x="337mm" y="31mm" font-size="24">
   2.0
  </text>
  <circle cx="347.690087mm" cy="98.090061mm" r="1.250061mm" fill="none"/>
  <line x1="350.190208mm" y1="98.090061mm" x2="345.189966mm" y2="98.090061mm" />
  <line x1="347.690087mm" y1="95.589939mm" x2="347.690087mm" y2="100.590182mm" />
  <text x="348mm" y="96mm" font-size="24">
   2.5
  </text>
  <circle cx="347.690087mm" cy="54.910061mm" r="1.250061mm" fill="none"/>
  <line x1="350.190208mm" y1="54.910061mm" x2="345.189966mm" y2="54.910061mm" />
  <line x1="347.690087mm" y1="52.409939mm" x2="347.690087mm" y2="57.410182mm" />
  <text x="348mm" y="53mm" font-size="24">
   2.5
  </text>
  <circle cx="363.079808mm" cy="8.000013mm" r="2.999761mm" fill="none"/>
  <line x1="369.079330mm" y1="8.000013mm" x2="357.080285mm" y2="8.000013mm" />
  <line x1="363.079808mm" y1="2.000490mm" x2="363.079808mm" y2="13.999535mm" />
  <text x="366mm" y="5mm" font-size="24">
   6.0
  </text>
  <circle cx="374.579818mm" cy="7.000055mm" r="2.000011mm" fill="none"/>
  <line x1="378.579840mm" y1="7.000055mm" x2="370.579795mm" y2="7.000055mm" />
  <line x1="374.579818mm" y1="3.000033mm" x2="374.579818mm" y2="11.000077mm" />
  <text x="376mm" y="5mm" font-size="24">
   4.0
  </text>
  <circle cx="387.679659mm" cy="8.200016mm" r="1.000019mm" fill="none"/>
  <line x1="389.679698mm" y1="8.200016mm" x2="385.679621mm" y2="8.200016mm" />
  <line x1="387.679659mm" y1="6.199978mm" x2="387.679659mm" y2="10.200054mm" />
  <text x="388mm" y="7mm" font-size="24">
   2.0
  </text>
  <circle cx="408.899659mm" cy="8.200016mm" r="1.000019mm" fill="none"/>
  <line x1="410.899698mm" y1="8.200016mm" x2="406.899621mm" y2="8.200016mm" />
  <line x1="408.899659mm" y1="6.199978mm" x2="408.899659mm" y2="10.200054mm" />
  <text x="409mm" y="7mm" font-size="24">
   2.0
  </text>
 </g>
</svg>
