<?xml version="1.0"?>
<svg xmlns="http://www.w3.org/2000/svg" version="1.1" height="440mm" width="569mm" >
 <g style="fill-opacity:1.0; stroke:black; stroke-width:1;">
  <circle cx="7.499659mm" cy="324.900016mm" r="1.000019mm" fill="none"/>
  <line x1="9.499698mm" y1="324.900016mm" x2="5.499621mm" y2="324.900016mm" />
  <line x1="7.499659mm" y1="322.899978mm" x2="7.499659mm" y2="326.900054mm" />
  <text x="8mm" y="323mm" font-size="24">
   2.0
  </text>
  <circle cx="7.499659mm" cy="283.500016mm" r="1.000019mm" fill="none"/>
  <line x1="9.499698mm" y1="283.500016mm" x2="5.499621mm" y2="283.500016mm" />
  <line x1="7.499659mm" y1="281.499978mm" x2="7.499659mm" y2="285.500054mm" />
  <text x="8mm" y="282mm" font-size="24">
   2.0
  </text>
  <circle cx="9.700371mm" cy="421.799769mm" r="1.000161mm" fill="none"/>
  <line x1="11.700692mm" y1="421.799769mm" x2="7.700050mm" y2="421.799769mm" />
  <line x1="9.700371mm" y1="419.799448mm" x2="9.700371mm" y2="423.800090mm" />
  <text x="10mm" y="420mm" font-size="24">
   2.0
  </text>
  <circle cx="16.499659mm" cy="368.500016mm" r="1.000019mm" fill="none"/>
  <line x1="18.499698mm" y1="368.500016mm" x2="14.499621mm" y2="368.500016mm" />
  <line x1="16.499659mm" y1="366.499978mm" x2="16.499659mm" y2="370.500054mm" />
  <text x="17mm" y="367mm" font-size="24">
   2.0
  </text>
  <circle cx="30.920371mm" cy="421.799769mm" r="1.000161mm" fill="none"/>
  <line x1="32.920692mm" y1="421.799769mm" x2="28.920050mm" y2="421.799769mm" />
  <line x1="30.920371mm" y1="419.799448mm" x2="30.920371mm" y2="423.800090mm" />
  <text x="31mm" y="420mm" font-size="24">
   2.0
  </text>
  <circle cx="33.499818mm" cy="356.500055mm" r="2.000011mm" fill="none"/>
  <line x1="37.499840mm" y1="356.500055mm" x2="29.499795mm" y2="356.500055mm" />
  <line x1="33.499818mm" y1="352.500033mm" x2="33.499818mm" y2="360.500077mm" />
  <text x="35mm" y="354mm" font-size="24">
   4.0
  </text>
  <circle cx="39.499818mm" cy="19.000055mm" r="2.000011mm" fill="none"/>
  <line x1="43.499840mm" y1="19.000055mm" x2="35.499795mm" y2="19.000055mm" />
  <line x1="39.499818mm" y1="15.000033mm" x2="39.499818mm" y2="23.000077mm" />
  <text x="41mm" y="17mm" font-size="24">
   4.0
  </text>
  <circle cx="39.500000mm" cy="8.499997mm" r="0.999978mm" fill="none"/>
  <line x1="41.499956mm" y1="8.499997mm" x2="37.500044mm" y2="8.499997mm" />
  <line x1="39.500000mm" y1="6.500041mm" x2="39.500000mm" y2="10.499953mm" />
  <text x="40mm" y="7mm" font-size="24">
   2.0
  </text>
  <circle cx="43.120170mm" cy="422.499939mm" r="2.500268mm" fill="none"/>
  <line x1="48.120707mm" y1="422.499939mm" x2="38.119633mm" y2="422.499939mm" />
  <line x1="43.120170mm" y1="417.499402mm" x2="43.120170mm" y2="427.500476mm" />
  <text x="45mm" y="419mm" font-size="24">
   5.0
  </text>
  <circle cx="48.499659mm" cy="368.500016mm" r="1.000019mm" fill="none"/>
  <line x1="50.499698mm" y1="368.500016mm" x2="46.499621mm" y2="368.500016mm" />
  <line x1="48.499659mm" y1="366.499978mm" x2="48.499659mm" y2="370.500054mm" />
  <text x="49mm" y="367mm" font-size="24">
   2.0
  </text>
  <circle cx="74.500000mm" cy="8.499997mm" r="0.999978mm" fill="none"/>
  <line x1="76.499956mm" y1="8.499997mm" x2="72.500044mm" y2="8.499997mm" />
  <line x1="74.500000mm" y1="6.500041mm" x2="74.500000mm" y2="10.499953mm" />
  <text x="75mm" y="7mm" font-size="24">
   2.0
  </text>
  <circle cx="76.200066mm" cy="393.290138mm" r="1.000138mm" fill="none"/>
  <line x1="78.200342mm" y1="393.290138mm" x2="74.199790mm" y2="393.290138mm" />
  <line x1="76.200066mm" y1="391.289862mm" x2="76.200066mm" y2="395.290414mm" />
  <text x="77mm" y="392mm" font-size="24">
   2.0
  </text>
  <circle cx="76.200066mm" cy="36.710138mm" r="1.000138mm" fill="none"/>
  <line x1="78.200342mm" y1="36.710138mm" x2="74.199790mm" y2="36.710138mm" />
  <line x1="76.200066mm" y1="34.709862mm" x2="76.200066mm" y2="38.710414mm" />
  <text x="77mm" y="35mm" font-size="24">
   2.0
  </text>
  <circle cx="77.000000mm" cy="65.819997mm" r="0.999978mm" fill="none"/>
  <line x1="78.999956mm" y1="65.819997mm" x2="75.000044mm" y2="65.819997mm" />
  <line x1="77.000000mm" y1="63.820041mm" x2="77.000000mm" y2="67.819953mm" />
  <text x="77mm" y="64mm" font-size="24">
   2.0
  </text>
  <circle cx="81.080371mm" cy="421.799769mm" r="1.000161mm" fill="none"/>
  <line x1="83.080692mm" y1="421.799769mm" x2="79.080050mm" y2="421.799769mm" />
  <line x1="81.080371mm" y1="419.799448mm" x2="81.080371mm" y2="423.800090mm" />
  <text x="82mm" y="420mm" font-size="24">
   2.0
  </text>
  <circle cx="102.300371mm" cy="421.799769mm" r="1.000161mm" fill="none"/>
  <line x1="104.300692mm" y1="421.799769mm" x2="100.300050mm" y2="421.799769mm" />
  <line x1="102.300371mm" y1="419.799448mm" x2="102.300371mm" y2="423.800090mm" />
  <text x="103mm" y="420mm" font-size="24">
   2.0
  </text>
  <line x1="124.510000mm" y1="305.148000mm" x2="124.510000mm" y2="305.148000mm" />
  <line x1="124.510000mm" y1="305.148000mm" x2="124.500000mm" y2="100.900000mm" />
  <line x1="124.500000mm" y1="100.900000mm" x2="124.541000mm" y2="100.406000mm" />
  <line x1="124.541000mm" y1="100.406000mm" x2="124.663000mm" y2="99.926000mm" />
  <line x1="124.663000mm" y1="99.926000mm" x2="124.862000mm" y2="99.472000mm" />
  <line x1="124.862000mm" y1="99.472000mm" x2="125.133000mm" y2="99.057000mm" />
  <line x1="125.133000mm" y1="99.057000mm" x2="125.468000mm" y2="98.693000mm" />
  <line x1="125.468000mm" y1="98.693000mm" x2="125.859000mm" y2="98.389000mm" />
  <line x1="125.859000mm" y1="98.389000mm" x2="126.295000mm" y2="98.153000mm" />
  <line x1="126.295000mm" y1="98.153000mm" x2="126.764000mm" y2="97.992000mm" />
  <line x1="126.764000mm" y1="97.992000mm" x2="127.252000mm" y2="97.910000mm" />
  <line x1="127.252000mm" y1="97.910000mm" x2="418.500000mm" y2="97.900000mm" />
  <line x1="418.500000mm" y1="97.900000mm" x2="418.994000mm" y2="97.941000mm" />
  <line x1="418.994000mm" y1="97.941000mm" x2="419.474000mm" y2="98.063000mm" />
  <line x1="419.474000mm" y1="98.063000mm" x2="419.928000mm" y2="98.262000mm" />
  <line x1="419.928000mm" y1="98.262000mm" x2="420.343000mm" y2="98.533000mm" />
  <line x1="420.343000mm" y1="98.533000mm" x2="420.707000mm" y2="98.868000mm" />
  <line x1="420.707000mm" y1="98.868000mm" x2="421.011000mm" y2="99.259000mm" />
  <line x1="421.011000mm" y1="99.259000mm" x2="421.247000mm" y2="99.695000mm" />
  <line x1="421.247000mm" y1="99.695000mm" x2="421.408000mm" y2="100.164000mm" />
  <line x1="421.408000mm" y1="100.164000mm" x2="421.490000mm" y2="100.652000mm" />
  <line x1="421.490000mm" y1="100.652000mm" x2="421.500000mm" y2="304.900000mm" />
  <line x1="421.500000mm" y1="304.900000mm" x2="421.459000mm" y2="305.394000mm" />
  <line x1="421.459000mm" y1="305.394000mm" x2="421.337000mm" y2="305.874000mm" />
  <line x1="421.337000mm" y1="305.874000mm" x2="421.138000mm" y2="306.328000mm" />
  <line x1="421.138000mm" y1="306.328000mm" x2="420.867000mm" y2="306.743000mm" />
  <line x1="420.867000mm" y1="306.743000mm" x2="420.532000mm" y2="307.107000mm" />
  <line x1="420.532000mm" y1="307.107000mm" x2="420.141000mm" y2="307.411000mm" />
  <line x1="420.141000mm" y1="307.411000mm" x2="419.705000mm" y2="307.647000mm" />
  <line x1="419.705000mm" y1="307.647000mm" x2="419.236000mm" y2="307.808000mm" />
  <line x1="419.236000mm" y1="307.808000mm" x2="418.748000mm" y2="307.890000mm" />
  <line x1="418.748000mm" y1="307.890000mm" x2="127.500000mm" y2="307.900000mm" />
  <line x1="127.500000mm" y1="307.900000mm" x2="127.006000mm" y2="307.859000mm" />
  <line x1="127.006000mm" y1="307.859000mm" x2="126.526000mm" y2="307.737000mm" />
  <line x1="126.526000mm" y1="307.737000mm" x2="126.072000mm" y2="307.538000mm" />
  <line x1="126.072000mm" y1="307.538000mm" x2="125.657000mm" y2="307.267000mm" />
  <line x1="125.657000mm" y1="307.267000mm" x2="125.293000mm" y2="306.932000mm" />
  <line x1="125.293000mm" y1="306.932000mm" x2="124.989000mm" y2="306.541000mm" />
  <line x1="124.989000mm" y1="306.541000mm" x2="124.753000mm" y2="306.105000mm" />
  <line x1="124.753000mm" y1="306.105000mm" x2="124.592000mm" y2="305.636000mm" />
  <line x1="124.592000mm" y1="305.636000mm" x2="124.510000mm" y2="305.148000mm" />
  <circle cx="130.999964mm" cy="289.399964mm" r="2.200229mm" fill="none"/>
  <line x1="135.400421mm" y1="289.399964mm" x2="126.599507mm" y2="289.399964mm" />
  <line x1="130.999964mm" y1="284.999507mm" x2="130.999964mm" y2="293.800421mm" />
  <text x="133mm" y="287mm" font-size="24">
   4.4
  </text>
  <circle cx="130.999964mm" cy="140.399964mm" r="2.200229mm" fill="none"/>
  <line x1="135.400421mm" y1="140.399964mm" x2="126.599507mm" y2="140.399964mm" />
  <line x1="130.999964mm" y1="135.999507mm" x2="130.999964mm" y2="144.800421mm" />
  <text x="133mm" y="138mm" font-size="24">
   4.4
  </text>
  <circle cx="167.999964mm" cy="265.399964mm" r="2.200229mm" fill="none"/>
  <line x1="172.400421mm" y1="265.399964mm" x2="163.599507mm" y2="265.399964mm" />
  <line x1="167.999964mm" y1="260.999507mm" x2="167.999964mm" y2="269.800421mm" />
  <text x="170mm" y="263mm" font-size="24">
   4.4
  </text>
  <circle cx="167.999964mm" cy="116.399964mm" r="2.200229mm" fill="none"/>
  <line x1="172.400421mm" y1="116.399964mm" x2="163.599507mm" y2="116.399964mm" />
  <line x1="167.999964mm" y1="111.999507mm" x2="167.999964mm" y2="120.800421mm" />
  <text x="170mm" y="114mm" font-size="24">
   4.4
  </text>
  <circle cx="244.029999mm" cy="254.574893mm" r="1.650220mm" fill="none"/>
  <line x1="247.330439mm" y1="254.574893mm" x2="240.729559mm" y2="254.574893mm" />
  <line x1="244.029999mm" y1="251.274453mm" x2="244.029999mm" y2="257.875333mm" />
  <text x="245mm" y="252mm" font-size="24">
   3.3
  </text>
  <circle cx="244.029999mm" cy="239.925893mm" r="1.650220mm" fill="none"/>
  <line x1="247.330439mm" y1="239.925893mm" x2="240.729559mm" y2="239.925893mm" />
  <line x1="244.029999mm" y1="236.625453mm" x2="244.029999mm" y2="243.226333mm" />
  <text x="245mm" y="238mm" font-size="24">
   3.3
  </text>
  <circle cx="244.029767mm" cy="164.724407mm" r="1.650015mm" fill="none"/>
  <line x1="247.329796mm" y1="164.724407mm" x2="240.729737mm" y2="164.724407mm" />
  <line x1="244.029767mm" y1="161.424377mm" x2="244.029767mm" y2="168.024436mm" />
  <text x="245mm" y="163mm" font-size="24">
   3.3
  </text>
  <circle cx="244.029767mm" cy="150.075407mm" r="1.650015mm" fill="none"/>
  <line x1="247.329796mm" y1="150.075407mm" x2="240.729737mm" y2="150.075407mm" />
  <line x1="244.029767mm" y1="146.775377mm" x2="244.029767mm" y2="153.375436mm" />
  <text x="245mm" y="148mm" font-size="24">
   3.3
  </text>
  <circle cx="254.329964mm" cy="108.899964mm" r="2.200229mm" fill="none"/>
  <line x1="258.730421mm" y1="108.899964mm" x2="249.929507mm" y2="108.899964mm" />
  <line x1="254.329964mm" y1="104.499507mm" x2="254.329964mm" y2="113.300421mm" />
  <text x="256mm" y="106mm" font-size="24">
   4.4
  </text>
  <circle cx="273.000087mm" cy="202.900061mm" r="1.250061mm" fill="none"/>
  <line x1="275.500208mm" y1="202.900061mm" x2="270.499966mm" y2="202.900061mm" />
  <line x1="273.000087mm" y1="200.399939mm" x2="273.000087mm" y2="205.400182mm" />
  <text x="274mm" y="201mm" font-size="24">
   2.5
  </text>
  <circle cx="291.669964mm" cy="108.899964mm" r="2.200229mm" fill="none"/>
  <line x1="296.070421mm" y1="108.899964mm" x2="287.269507mm" y2="108.899964mm" />
  <line x1="291.669964mm" y1="104.499507mm" x2="291.669964mm" y2="113.300421mm" />
  <text x="293mm" y="106mm" font-size="24">
   4.4
  </text>
  <circle cx="377.999964mm" cy="214.899964mm" r="2.200229mm" fill="none"/>
  <line x1="382.400421mm" y1="214.899964mm" x2="373.599507mm" y2="214.899964mm" />
  <line x1="377.999964mm" y1="210.499507mm" x2="377.999964mm" y2="219.300421mm" />
  <text x="380mm" y="212mm" font-size="24">
   4.4
  </text>
  <circle cx="414.999964mm" cy="190.899964mm" r="2.200229mm" fill="none"/>
  <line x1="419.400421mm" y1="190.899964mm" x2="410.599507mm" y2="190.899964mm" />
  <line x1="414.999964mm" y1="186.499507mm" x2="414.999964mm" y2="195.300421mm" />
  <text x="417mm" y="188mm" font-size="24">
   4.4
  </text>
  <circle cx="444.200371mm" cy="421.799769mm" r="1.000161mm" fill="none"/>
  <line x1="446.200692mm" y1="421.799769mm" x2="442.200050mm" y2="421.799769mm" />
  <line x1="444.200371mm" y1="419.799448mm" x2="444.200371mm" y2="423.800090mm" />
  <text x="445mm" y="420mm" font-size="24">
   2.0
  </text>
  <circle cx="446.500000mm" cy="8.499997mm" r="0.999978mm" fill="none"/>
  <line x1="448.499956mm" y1="8.499997mm" x2="444.500044mm" y2="8.499997mm" />
  <line x1="446.500000mm" y1="6.500041mm" x2="446.500000mm" y2="10.499953mm" />
  <text x="447mm" y="7mm" font-size="24">
   2.0
  </text>
  <circle cx="465.420371mm" cy="421.799769mm" r="1.000161mm" fill="none"/>
  <line x1="467.420692mm" y1="421.799769mm" x2="463.420050mm" y2="421.799769mm" />
  <line x1="465.420371mm" y1="419.799448mm" x2="465.420371mm" y2="423.800090mm" />
  <text x="466mm" y="420mm" font-size="24">
   2.0
  </text>
  <circle cx="465.499659mm" cy="368.500016mm" r="1.000019mm" fill="none"/>
  <line x1="467.499698mm" y1="368.500016mm" x2="463.499621mm" y2="368.500016mm" />
  <line x1="465.499659mm" y1="366.499978mm" x2="465.499659mm" y2="370.500054mm" />
  <text x="466mm" y="367mm" font-size="24">
   2.0
  </text>
  <circle cx="480.500170mm" cy="422.499939mm" r="2.500268mm" fill="none"/>
  <line x1="485.500707mm" y1="422.499939mm" x2="475.499633mm" y2="422.499939mm" />
  <line x1="480.500170mm" y1="417.499402mm" x2="480.500170mm" y2="427.500476mm" />
  <text x="483mm" y="419mm" font-size="24">
   5.0
  </text>
  <circle cx="481.500000mm" cy="8.499997mm" r="0.999978mm" fill="none"/>
  <line x1="483.499956mm" y1="8.499997mm" x2="479.500044mm" y2="8.499997mm" />
  <line x1="481.500000mm" y1="6.500041mm" x2="481.500000mm" y2="10.499953mm" />
  <text x="482mm" y="7mm" font-size="24">
   2.0
  </text>
  <circle cx="494.000000mm" cy="65.819997mm" r="0.999978mm" fill="none"/>
  <line x1="495.999956mm" y1="65.819997mm" x2="492.000044mm" y2="65.819997mm" />
  <line x1="494.000000mm" y1="63.820041mm" x2="494.000000mm" y2="67.819953mm" />
  <text x="494mm" y="64mm" font-size="24">
   2.0
  </text>
  <circle cx="494.800000mm" cy="393.289997mm" r="0.999978mm" fill="none"/>
  <line x1="496.799956mm" y1="393.289997mm" x2="492.800044mm" y2="393.289997mm" />
  <line x1="494.800000mm" y1="391.290041mm" x2="494.800000mm" y2="395.289953mm" />
  <text x="495mm" y="392mm" font-size="24">
   2.0
  </text>
  <circle cx="494.800000mm" cy="36.709997mm" r="0.999978mm" fill="none"/>
  <line x1="496.799956mm" y1="36.709997mm" x2="492.800044mm" y2="36.709997mm" />
  <line x1="494.800000mm" y1="34.710041mm" x2="494.800000mm" y2="38.709953mm" />
  <text x="495mm" y="35mm" font-size="24">
   2.0
  </text>
  <circle cx="497.499659mm" cy="368.500016mm" r="1.000019mm" fill="none"/>
  <line x1="499.499698mm" y1="368.500016mm" x2="495.499621mm" y2="368.500016mm" />
  <line x1="497.499659mm" y1="366.499978mm" x2="497.499659mm" y2="370.500054mm" />
  <text x="498mm" y="367mm" font-size="24">
   2.0
  </text>
  <circle cx="507.799659mm" cy="13.000016mm" r="1.000019mm" fill="none"/>
  <line x1="509.799698mm" y1="13.000016mm" x2="505.799621mm" y2="13.000016mm" />
  <line x1="507.799659mm" y1="10.999978mm" x2="507.799659mm" y2="15.000054mm" />
  <text x="508mm" y="11mm" font-size="24">
   2.0
  </text>
  <circle cx="527.580371mm" cy="421.799769mm" r="1.000161mm" fill="none"/>
  <line x1="529.580692mm" y1="421.799769mm" x2="525.580050mm" y2="421.799769mm" />
  <line x1="527.580371mm" y1="419.799448mm" x2="527.580371mm" y2="423.800090mm" />
  <text x="528mm" y="420mm" font-size="24">
   2.0
  </text>
  <circle cx="542.199659mm" cy="13.000016mm" r="1.000019mm" fill="none"/>
  <line x1="544.199698mm" y1="13.000016mm" x2="540.199621mm" y2="13.000016mm" />
  <line x1="542.199659mm" y1="10.999978mm" x2="542.199659mm" y2="15.000054mm" />
  <text x="543mm" y="11mm" font-size="24">
   2.0
  </text>
  <line x1="111.500000mm" y1="430.000000mm" x2="111.500000mm" y2="430.000000mm" />
  <line x1="111.500000mm" y1="430.000000mm" x2="0.000000mm" y2="430.000000mm" />
  <line x1="0.000000mm" y1="430.000000mm" x2="0.000000mm" y2="25.000000mm" />
  <line x1="0.000000mm" y1="25.000000mm" x2="0.095000mm" y2="22.821000mm" />
  <line x1="0.095000mm" y1="22.821000mm" x2="0.380000mm" y2="20.659000mm" />
  <line x1="0.380000mm" y1="20.659000mm" x2="0.852000mm" y2="18.530000mm" />
  <line x1="0.852000mm" y1="18.530000mm" x2="1.508000mm" y2="16.449000mm" />
  <line x1="1.508000mm" y1="16.449000mm" x2="2.342000mm" y2="14.435000mm" />
  <line x1="2.342000mm" y1="14.435000mm" x2="3.349000mm" y2="12.500000mm" />
  <line x1="3.349000mm" y1="12.500000mm" x2="4.521000mm" y2="10.661000mm" />
  <line x1="4.521000mm" y1="10.661000mm" x2="5.849000mm" y2="8.930000mm" />
  <line x1="5.849000mm" y1="8.930000mm" x2="7.322000mm" y2="7.322000mm" />
  <line x1="7.322000mm" y1="7.322000mm" x2="8.930000mm" y2="5.849000mm" />
  <line x1="8.930000mm" y1="5.849000mm" x2="10.661000mm" y2="4.521000mm" />
  <line x1="10.661000mm" y1="4.521000mm" x2="12.500000mm" y2="3.349000mm" />
  <line x1="12.500000mm" y1="3.349000mm" x2="14.435000mm" y2="2.342000mm" />
  <line x1="14.435000mm" y1="2.342000mm" x2="16.449000mm" y2="1.508000mm" />
  <line x1="16.449000mm" y1="1.508000mm" x2="18.530000mm" y2="0.852000mm" />
  <line x1="18.530000mm" y1="0.852000mm" x2="20.659000mm" y2="0.380000mm" />
  <line x1="20.659000mm" y1="0.380000mm" x2="22.821000mm" y2="0.095000mm" />
  <line x1="22.821000mm" y1="0.095000mm" x2="25.000000mm" y2="0.000000mm" />
  <line x1="25.000000mm" y1="0.000000mm" x2="533.500000mm" y2="0.000000mm" />
  <line x1="533.500000mm" y1="0.000000mm" x2="535.679000mm" y2="0.095000mm" />
  <line x1="535.679000mm" y1="0.095000mm" x2="537.841000mm" y2="0.380000mm" />
  <line x1="537.841000mm" y1="0.380000mm" x2="539.970000mm" y2="0.852000mm" />
  <line x1="539.970000mm" y1="0.852000mm" x2="542.051000mm" y2="1.508000mm" />
  <line x1="542.051000mm" y1="1.508000mm" x2="544.065000mm" y2="2.342000mm" />
  <line x1="544.065000mm" y1="2.342000mm" x2="546.000000mm" y2="3.349000mm" />
  <line x1="546.000000mm" y1="3.349000mm" x2="547.839000mm" y2="4.521000mm" />
  <line x1="547.839000mm" y1="4.521000mm" x2="549.570000mm" y2="5.849000mm" />
  <line x1="549.570000mm" y1="5.849000mm" x2="551.178000mm" y2="7.322000mm" />
  <line x1="551.178000mm" y1="7.322000mm" x2="552.651000mm" y2="8.930000mm" />
  <line x1="552.651000mm" y1="8.930000mm" x2="553.979000mm" y2="10.661000mm" />
  <line x1="553.979000mm" y1="10.661000mm" x2="555.151000mm" y2="12.500000mm" />
  <line x1="555.151000mm" y1="12.500000mm" x2="556.158000mm" y2="14.435000mm" />
  <line x1="556.158000mm" y1="14.435000mm" x2="556.992000mm" y2="16.449000mm" />
  <line x1="556.992000mm" y1="16.449000mm" x2="557.648000mm" y2="18.530000mm" />
  <line x1="557.648000mm" y1="18.530000mm" x2="558.120000mm" y2="20.659000mm" />
  <line x1="558.120000mm" y1="20.659000mm" x2="558.405000mm" y2="22.821000mm" />
  <line x1="558.405000mm" y1="22.821000mm" x2="558.500000mm" y2="25.000000mm" />
  <line x1="558.500000mm" y1="25.000000mm" x2="558.500000mm" y2="430.000000mm" />
  <line x1="558.500000mm" y1="430.000000mm" x2="434.500000mm" y2="430.000000mm" />
  <line x1="434.500000mm" y1="430.000000mm" x2="434.500000mm" y2="101.900000mm" />
  <line x1="434.500000mm" y1="101.900000mm" x2="434.475000mm" y2="101.402000mm" />
  <line x1="434.475000mm" y1="101.402000mm" x2="434.401000mm" y2="100.909000mm" />
  <line x1="434.401000mm" y1="100.909000mm" x2="434.278000mm" y2="100.426000mm" />
  <line x1="434.278000mm" y1="100.426000mm" x2="434.107000mm" y2="99.958000mm" />
  <line x1="434.107000mm" y1="99.958000mm" x2="433.891000mm" y2="99.509000mm" />
  <line x1="433.891000mm" y1="99.509000mm" x2="433.631000mm" y2="99.083000mm" />
  <line x1="433.631000mm" y1="99.083000mm" x2="433.330000mm" y2="98.686000mm" />
  <line x1="433.330000mm" y1="98.686000mm" x2="432.991000mm" y2="98.321000mm" />
  <line x1="432.991000mm" y1="98.321000mm" x2="432.617000mm" y2="97.991000mm" />
  <line x1="432.617000mm" y1="97.991000mm" x2="432.213000mm" y2="97.700000mm" />
  <line x1="432.213000mm" y1="97.700000mm" x2="431.781000mm" y2="97.451000mm" />
  <line x1="431.781000mm" y1="97.451000mm" x2="431.327000mm" y2="97.246000mm" />
  <line x1="431.327000mm" y1="97.246000mm" x2="430.854000mm" y2="97.087000mm" />
  <line x1="430.854000mm" y1="97.087000mm" x2="430.368000mm" y2="96.976000mm" />
  <line x1="430.368000mm" y1="96.976000mm" x2="429.874000mm" y2="96.914000mm" />
  <line x1="429.874000mm" y1="96.914000mm" x2="429.500000mm" y2="96.905000mm" />
  <line x1="429.500000mm" y1="96.905000mm" x2="429.500000mm" y2="96.900000mm" />
  <line x1="429.500000mm" y1="96.900000mm" x2="116.500000mm" y2="96.900000mm" />
  <line x1="116.500000mm" y1="96.900000mm" x2="116.500000mm" y2="96.905000mm" />
  <line x1="116.500000mm" y1="96.905000mm" x2="116.375000mm" y2="96.902000mm" />
  <line x1="116.375000mm" y1="96.902000mm" x2="115.878000mm" y2="96.939000mm" />
  <line x1="115.878000mm" y1="96.939000mm" x2="115.387000mm" y2="97.025000mm" />
  <line x1="115.387000mm" y1="97.025000mm" x2="114.908000mm" y2="97.160000mm" />
  <line x1="114.908000mm" y1="97.160000mm" x2="114.444000mm" y2="97.342000mm" />
  <line x1="114.444000mm" y1="97.342000mm" x2="114.000000mm" y2="97.570000mm" />
  <line x1="114.000000mm" y1="97.570000mm" x2="113.581000mm" y2="97.840000mm" />
  <line x1="113.581000mm" y1="97.840000mm" x2="113.192000mm" y2="98.151000mm" />
  <line x1="113.192000mm" y1="98.151000mm" x2="112.835000mm" y2="98.499000mm" />
  <line x1="112.835000mm" y1="98.499000mm" x2="112.514000mm" y2="98.881000mm" />
  <line x1="112.514000mm" y1="98.881000mm" x2="112.234000mm" y2="99.293000mm" />
  <line x1="112.234000mm" y1="99.293000mm" x2="111.995000mm" y2="99.731000mm" />
  <line x1="111.995000mm" y1="99.731000mm" x2="111.802000mm" y2="100.190000mm" />
  <line x1="111.802000mm" y1="100.190000mm" x2="111.655000mm" y2="100.666000mm" />
  <line x1="111.655000mm" y1="100.666000mm" x2="111.556000mm" y2="101.155000mm" />
  <line x1="111.556000mm" y1="101.155000mm" x2="111.506000mm" y2="101.651000mm" />
  <line x1="111.506000mm" y1="101.651000mm" x2="111.506000mm" y2="101.900000mm" />
  <line x1="111.506000mm" y1="101.900000mm" x2="111.500000mm" y2="101.900000mm" />
  <line x1="111.500000mm" y1="101.900000mm" x2="111.500000mm" y2="430.000000mm" />
  <circle cx="548.800371mm" cy="421.799769mm" r="1.000161mm" fill="none"/>
  <line x1="550.800692mm" y1="421.799769mm" x2="546.800050mm" y2="421.799769mm" />
  <line x1="548.800371mm" y1="419.799448mm" x2="548.800371mm" y2="423.800090mm" />
  <text x="549mm" y="420mm" font-size="24">
   2.0
  </text>
 </g>
</svg>
