<?xml version="1.0"?>
<svg xmlns="http://www.w3.org/2000/svg" version="1.1" height="320mm" width="445mm" >
 <g style="fill-opacity:1.0; stroke:black; stroke-width:1;">
  <line x1="410.000000mm" y1="310.000000mm" x2="410.000000mm" y2="310.000000mm" />
  <line x1="410.000000mm" y1="310.000000mm" x2="0.000000mm" y2="310.000000mm" />
  <line x1="0.000000mm" y1="310.000000mm" x2="0.000000mm" y2="157.000000mm" />
  <line x1="0.000000mm" y1="157.000000mm" x2="435.000000mm" y2="157.000000mm" />
  <line x1="435.000000mm" y1="157.000000mm" x2="435.000000mm" y2="285.000000mm" />
  <line x1="435.000000mm" y1="285.000000mm" x2="434.905000mm" y2="287.179000mm" />
  <line x1="434.905000mm" y1="287.179000mm" x2="434.620000mm" y2="289.341000mm" />
  <line x1="434.620000mm" y1="289.341000mm" x2="434.148000mm" y2="291.470000mm" />
  <line x1="434.148000mm" y1="291.470000mm" x2="433.492000mm" y2="293.551000mm" />
  <line x1="433.492000mm" y1="293.551000mm" x2="432.658000mm" y2="295.565000mm" />
  <line x1="432.658000mm" y1="295.565000mm" x2="431.651000mm" y2="297.500000mm" />
  <line x1="431.651000mm" y1="297.500000mm" x2="430.479000mm" y2="299.339000mm" />
  <line x1="430.479000mm" y1="299.339000mm" x2="429.151000mm" y2="301.070000mm" />
  <line x1="429.151000mm" y1="301.070000mm" x2="427.678000mm" y2="302.678000mm" />
  <line x1="427.678000mm" y1="302.678000mm" x2="426.070000mm" y2="304.151000mm" />
  <line x1="426.070000mm" y1="304.151000mm" x2="424.339000mm" y2="305.479000mm" />
  <line x1="424.339000mm" y1="305.479000mm" x2="422.500000mm" y2="306.651000mm" />
  <line x1="422.500000mm" y1="306.651000mm" x2="420.565000mm" y2="307.658000mm" />
  <line x1="420.565000mm" y1="307.658000mm" x2="418.551000mm" y2="308.492000mm" />
  <line x1="418.551000mm" y1="308.492000mm" x2="416.470000mm" y2="309.148000mm" />
  <line x1="416.470000mm" y1="309.148000mm" x2="414.341000mm" y2="309.620000mm" />
  <line x1="414.341000mm" y1="309.620000mm" x2="412.179000mm" y2="309.905000mm" />
  <line x1="412.179000mm" y1="309.905000mm" x2="410.000000mm" y2="310.000000mm" />
  <line x1="435.000000mm" y1="153.000000mm" x2="435.000000mm" y2="153.000000mm" />
  <line x1="435.000000mm" y1="153.000000mm" x2="0.000000mm" y2="153.000000mm" />
  <line x1="0.000000mm" y1="153.000000mm" x2="0.000000mm" y2="0.000000mm" />
  <line x1="0.000000mm" y1="0.000000mm" x2="410.000000mm" y2="0.000000mm" />
  <line x1="410.000000mm" y1="0.000000mm" x2="412.179000mm" y2="0.095000mm" />
  <line x1="412.179000mm" y1="0.095000mm" x2="414.341000mm" y2="0.380000mm" />
  <line x1="414.341000mm" y1="0.380000mm" x2="416.470000mm" y2="0.852000mm" />
  <line x1="416.470000mm" y1="0.852000mm" x2="418.551000mm" y2="1.508000mm" />
  <line x1="418.551000mm" y1="1.508000mm" x2="420.565000mm" y2="2.342000mm" />
  <line x1="420.565000mm" y1="2.342000mm" x2="422.500000mm" y2="3.349000mm" />
  <line x1="422.500000mm" y1="3.349000mm" x2="424.339000mm" y2="4.521000mm" />
  <line x1="424.339000mm" y1="4.521000mm" x2="426.070000mm" y2="5.849000mm" />
  <line x1="426.070000mm" y1="5.849000mm" x2="427.678000mm" y2="7.322000mm" />
  <line x1="427.678000mm" y1="7.322000mm" x2="429.151000mm" y2="8.930000mm" />
  <line x1="429.151000mm" y1="8.930000mm" x2="430.479000mm" y2="10.661000mm" />
  <line x1="430.479000mm" y1="10.661000mm" x2="431.651000mm" y2="12.500000mm" />
  <line x1="431.651000mm" y1="12.500000mm" x2="432.658000mm" y2="14.435000mm" />
  <line x1="432.658000mm" y1="14.435000mm" x2="433.492000mm" y2="16.449000mm" />
  <line x1="433.492000mm" y1="16.449000mm" x2="434.148000mm" y2="18.530000mm" />
  <line x1="434.148000mm" y1="18.530000mm" x2="434.620000mm" y2="20.659000mm" />
  <line x1="434.620000mm" y1="20.659000mm" x2="434.905000mm" y2="22.821000mm" />
  <line x1="434.905000mm" y1="22.821000mm" x2="435.000000mm" y2="25.000000mm" />
  <line x1="435.000000mm" y1="25.000000mm" x2="435.000000mm" y2="153.000000mm" />
  <circle cx="8.500151mm" cy="251.599567mm" r="3.499825mm" fill="none"/>
  <line x1="15.499802mm" y1="251.599567mm" x2="1.500500mm" y2="251.599567mm" />
  <line x1="8.500151mm" y1="244.599917mm" x2="8.500151mm" y2="258.599218mm" />
  <text x="11mm" y="248mm" font-size="24">
   7.0
  </text>
  <circle cx="7.500170mm" cy="175.899939mm" r="2.500268mm" fill="none"/>
  <line x1="12.500707mm" y1="175.899939mm" x2="2.499633mm" y2="175.899939mm" />
  <line x1="7.500170mm" y1="170.899402mm" x2="7.500170mm" y2="180.900476mm" />
  <text x="10mm" y="173mm" font-size="24">
   5.0
  </text>
  <circle cx="7.000009mm" cy="239.399777mm" r="1.999983mm" fill="none"/>
  <line x1="10.999974mm" y1="239.399777mm" x2="3.000044mm" y2="239.399777mm" />
  <line x1="7.000009mm" y1="235.399812mm" x2="7.000009mm" y2="243.399742mm" />
  <text x="8mm" y="237mm" font-size="24">
   4.0
  </text>
  <circle cx="7.000009mm" cy="185.399777mm" r="1.999983mm" fill="none"/>
  <line x1="10.999974mm" y1="185.399777mm" x2="3.000044mm" y2="185.399777mm" />
  <line x1="7.000009mm" y1="181.399812mm" x2="7.000009mm" y2="189.399742mm" />
  <text x="8mm" y="183mm" font-size="24">
   4.0
  </text>
  <circle cx="8.200066mm" cy="300.300138mm" r="1.000138mm" fill="none"/>
  <line x1="10.200342mm" y1="300.300138mm" x2="6.199790mm" y2="300.300138mm" />
  <line x1="8.200066mm" y1="298.299862mm" x2="8.200066mm" y2="302.300414mm" />
  <text x="9mm" y="299mm" font-size="24">
   2.0
  </text>
  <circle cx="8.200066mm" cy="279.080138mm" r="1.000138mm" fill="none"/>
  <line x1="10.200342mm" y1="279.080138mm" x2="6.199790mm" y2="279.080138mm" />
  <line x1="8.200066mm" y1="277.079862mm" x2="8.200066mm" y2="281.080414mm" />
  <text x="9mm" y="278mm" font-size="24">
   2.0
  </text>
  <circle cx="8.200066mm" cy="30.920138mm" r="1.000138mm" fill="none"/>
  <line x1="10.200342mm" y1="30.920138mm" x2="6.199790mm" y2="30.920138mm" />
  <line x1="8.200066mm" y1="28.919862mm" x2="8.200066mm" y2="32.920414mm" />
  <text x="9mm" y="29mm" font-size="24">
   2.0
  </text>
  <circle cx="8.200066mm" cy="9.700138mm" r="1.000138mm" fill="none"/>
  <line x1="10.200342mm" y1="9.700138mm" x2="6.199790mm" y2="9.700138mm" />
  <line x1="8.200066mm" y1="7.699862mm" x2="8.200066mm" y2="11.700414mm" />
  <text x="9mm" y="8mm" font-size="24">
   2.0
  </text>
  <circle cx="26.100371mm" cy="144.799769mm" r="1.000161mm" fill="none"/>
  <line x1="28.100692mm" y1="144.799769mm" x2="24.100050mm" y2="144.799769mm" />
  <line x1="26.100371mm" y1="142.799448mm" x2="26.100371mm" y2="146.800090mm" />
  <text x="27mm" y="143mm" font-size="24">
   2.0
  </text>
  <circle cx="26.099659mm" cy="165.200016mm" r="1.000019mm" fill="none"/>
  <line x1="28.099698mm" y1="165.200016mm" x2="24.099621mm" y2="165.200016mm" />
  <line x1="26.099659mm" y1="163.199978mm" x2="26.099659mm" y2="167.200054mm" />
  <text x="27mm" y="164mm" font-size="24">
   2.0
  </text>
  <circle cx="32.899659mm" cy="303.000016mm" r="1.000019mm" fill="none"/>
  <line x1="34.899698mm" y1="303.000016mm" x2="30.899621mm" y2="303.000016mm" />
  <line x1="32.899659mm" y1="300.999978mm" x2="32.899659mm" y2="305.000054mm" />
  <text x="33mm" y="301mm" font-size="24">
   2.0
  </text>
  <circle cx="47.320371mm" cy="144.799769mm" r="1.000161mm" fill="none"/>
  <line x1="49.320692mm" y1="144.799769mm" x2="45.320050mm" y2="144.799769mm" />
  <line x1="47.320371mm" y1="142.799448mm" x2="47.320371mm" y2="146.800090mm" />
  <text x="48mm" y="143mm" font-size="24">
   2.0
  </text>
  <circle cx="47.319659mm" cy="165.200016mm" r="1.000019mm" fill="none"/>
  <line x1="49.319698mm" y1="165.200016mm" x2="45.319621mm" y2="165.200016mm" />
  <line x1="47.319659mm" y1="163.199978mm" x2="47.319659mm" y2="167.200054mm" />
  <text x="48mm" y="164mm" font-size="24">
   2.0
  </text>
  <circle cx="51.749964mm" cy="130.349964mm" r="2.200229mm" fill="none"/>
  <line x1="56.150421mm" y1="130.349964mm" x2="47.349507mm" y2="130.349964mm" />
  <line x1="51.749964mm" y1="125.949507mm" x2="51.749964mm" y2="134.750421mm" />
  <text x="53mm" y="128mm" font-size="24">
   4.4
  </text>
  <circle cx="51.749964mm" cy="58.849964mm" r="2.200229mm" fill="none"/>
  <line x1="56.150421mm" y1="58.849964mm" x2="47.349507mm" y2="58.849964mm" />
  <line x1="51.749964mm" y1="54.449507mm" x2="51.749964mm" y2="63.250421mm" />
  <text x="53mm" y="56mm" font-size="24">
   4.4
  </text>
  <circle cx="87.500225mm" cy="94.599651mm" r="37.499925mm" fill="none"/>
  <line x1="162.500075mm" y1="94.599651mm" x2="12.500375mm" y2="94.599651mm" />
  <line x1="87.500225mm" y1="19.599800mm" x2="87.500225mm" y2="169.599501mm" />
  <text x="125mm" y="57mm" font-size="24">
   75.0
  </text>
  <circle cx="123.249964mm" cy="130.349964mm" r="2.200229mm" fill="none"/>
  <line x1="127.650421mm" y1="130.349964mm" x2="118.849507mm" y2="130.349964mm" />
  <line x1="123.249964mm" y1="125.949507mm" x2="123.249964mm" y2="134.750421mm" />
  <text x="125mm" y="128mm" font-size="24">
   4.4
  </text>
  <circle cx="123.249964mm" cy="58.849964mm" r="2.200229mm" fill="none"/>
  <line x1="127.650421mm" y1="58.849964mm" x2="118.849507mm" y2="58.849964mm" />
  <line x1="123.249964mm" y1="54.449507mm" x2="123.249964mm" y2="63.250421mm" />
  <text x="125mm" y="56mm" font-size="24">
   4.4
  </text>
  <circle cx="149.899659mm" cy="303.000016mm" r="1.000019mm" fill="none"/>
  <line x1="151.899698mm" y1="303.000016mm" x2="147.899621mm" y2="303.000016mm" />
  <line x1="149.899659mm" y1="300.999978mm" x2="149.899659mm" y2="305.000054mm" />
  <text x="150mm" y="301mm" font-size="24">
   2.0
  </text>
  <circle cx="192.050194mm" cy="295.450223mm" r="0.849908mm" fill="none"/>
  <line x1="193.750009mm" y1="295.450223mm" x2="190.350378mm" y2="295.450223mm" />
  <line x1="192.050194mm" y1="293.750407mm" x2="192.050194mm" y2="297.150038mm" />
  <text x="192mm" y="294mm" font-size="24">
   1.7
  </text>
  <circle cx="192.050194mm" cy="263.950223mm" r="0.849908mm" fill="none"/>
  <line x1="193.750009mm" y1="263.950223mm" x2="190.350378mm" y2="263.950223mm" />
  <line x1="192.050194mm" y1="262.250407mm" x2="192.050194mm" y2="265.650038mm" />
  <text x="192mm" y="263mm" font-size="24">
   1.7
  </text>
  <circle cx="206.350194mm" cy="279.550223mm" r="0.849908mm" fill="none"/>
  <line x1="208.050009mm" y1="279.550223mm" x2="204.650378mm" y2="279.550223mm" />
  <line x1="206.350194mm" y1="277.850407mm" x2="206.350194mm" y2="281.250038mm" />
  <text x="207mm" y="278mm" font-size="24">
   1.7
  </text>
  <circle cx="206.350194mm" cy="248.050223mm" r="0.849908mm" fill="none"/>
  <line x1="208.050009mm" y1="248.050223mm" x2="204.650378mm" y2="248.050223mm" />
  <line x1="206.350194mm" y1="246.350407mm" x2="206.350194mm" y2="249.750038mm" />
  <text x="207mm" y="247mm" font-size="24">
   1.7
  </text>
  <circle cx="253.710087mm" cy="255.090061mm" r="1.250061mm" fill="none"/>
  <line x1="256.210208mm" y1="255.090061mm" x2="251.209966mm" y2="255.090061mm" />
  <line x1="253.710087mm" y1="252.589939mm" x2="253.710087mm" y2="257.590182mm" />
  <text x="254mm" y="253mm" font-size="24">
   2.5
  </text>
  <circle cx="253.710087mm" cy="211.910061mm" r="1.250061mm" fill="none"/>
  <line x1="256.210208mm" y1="211.910061mm" x2="251.209966mm" y2="211.910061mm" />
  <line x1="253.710087mm" y1="209.409939mm" x2="253.710087mm" y2="214.410182mm" />
  <text x="254mm" y="210mm" font-size="24">
   2.5
  </text>
  <circle cx="336.511361mm" cy="189.099847mm" r="1.000116mm" fill="none"/>
  <line x1="338.511593mm" y1="189.099847mm" x2="334.511129mm" y2="189.099847mm" />
  <line x1="336.511361mm" y1="187.099615mm" x2="336.511361mm" y2="191.100079mm" />
  <text x="337mm" y="188mm" font-size="24">
   2.0
  </text>
  <circle cx="336.511361mm" cy="64.099847mm" r="1.000116mm" fill="none"/>
  <line x1="338.511593mm" y1="64.099847mm" x2="334.511129mm" y2="64.099847mm" />
  <line x1="336.511361mm" y1="62.099615mm" x2="336.511361mm" y2="66.100079mm" />
  <text x="337mm" y="63mm" font-size="24">
   2.0
  </text>
  <circle cx="347.690087mm" cy="255.090061mm" r="1.250061mm" fill="none"/>
  <line x1="350.190208mm" y1="255.090061mm" x2="345.189966mm" y2="255.090061mm" />
  <line x1="347.690087mm" y1="252.589939mm" x2="347.690087mm" y2="257.590182mm" />
  <text x="348mm" y="253mm" font-size="24">
   2.5
  </text>
  <circle cx="347.690087mm" cy="211.910061mm" r="1.250061mm" fill="none"/>
  <line x1="350.190208mm" y1="211.910061mm" x2="345.189966mm" y2="211.910061mm" />
  <line x1="347.690087mm" y1="209.409939mm" x2="347.690087mm" y2="214.410182mm" />
  <text x="348mm" y="210mm" font-size="24">
   2.5
  </text>
  <circle cx="363.079808mm" cy="165.000013mm" r="2.999761mm" fill="none"/>
  <line x1="369.079330mm" y1="165.000013mm" x2="357.080285mm" y2="165.000013mm" />
  <line x1="363.079808mm" y1="159.000490mm" x2="363.079808mm" y2="170.999535mm" />
  <text x="366mm" y="162mm" font-size="24">
   6.0
  </text>
  <circle cx="363.079808mm" cy="145.000013mm" r="2.999761mm" fill="none"/>
  <line x1="369.079330mm" y1="145.000013mm" x2="357.080285mm" y2="145.000013mm" />
  <line x1="363.079808mm" y1="139.000490mm" x2="363.079808mm" y2="150.999535mm" />
  <text x="366mm" y="142mm" font-size="24">
   6.0
  </text>
  <circle cx="374.579818mm" cy="164.000055mm" r="2.000011mm" fill="none"/>
  <line x1="378.579840mm" y1="164.000055mm" x2="370.579795mm" y2="164.000055mm" />
  <line x1="374.579818mm" y1="160.000033mm" x2="374.579818mm" y2="168.000077mm" />
  <text x="376mm" y="162mm" font-size="24">
   4.0
  </text>
  <circle cx="374.579818mm" cy="146.000055mm" r="2.000011mm" fill="none"/>
  <line x1="378.579840mm" y1="146.000055mm" x2="370.579795mm" y2="146.000055mm" />
  <line x1="374.579818mm" y1="142.000033mm" x2="374.579818mm" y2="150.000077mm" />
  <text x="376mm" y="144mm" font-size="24">
   4.0
  </text>
  <circle cx="387.680371mm" cy="144.799769mm" r="1.000161mm" fill="none"/>
  <line x1="389.680692mm" y1="144.799769mm" x2="385.680050mm" y2="144.799769mm" />
  <line x1="387.680371mm" y1="142.799448mm" x2="387.680371mm" y2="146.800090mm" />
  <text x="388mm" y="143mm" font-size="24">
   2.0
  </text>
  <circle cx="387.679659mm" cy="165.200016mm" r="1.000019mm" fill="none"/>
  <line x1="389.679698mm" y1="165.200016mm" x2="385.679621mm" y2="165.200016mm" />
  <line x1="387.679659mm" y1="163.199978mm" x2="387.679659mm" y2="167.200054mm" />
  <text x="388mm" y="164mm" font-size="24">
   2.0
  </text>
  <circle cx="408.900371mm" cy="144.799769mm" r="1.000161mm" fill="none"/>
  <line x1="410.900692mm" y1="144.799769mm" x2="406.900050mm" y2="144.799769mm" />
  <line x1="408.900371mm" y1="142.799448mm" x2="408.900371mm" y2="146.800090mm" />
  <text x="409mm" y="143mm" font-size="24">
   2.0
  </text>
  <circle cx="408.899659mm" cy="165.200016mm" r="1.000019mm" fill="none"/>
  <line x1="410.899698mm" y1="165.200016mm" x2="406.899621mm" y2="165.200016mm" />
  <line x1="408.899659mm" y1="163.199978mm" x2="408.899659mm" y2="167.200054mm" />
  <text x="409mm" y="164mm" font-size="24">
   2.0
  </text>
 </g>
</svg>
