<?xml version="1.0"?>
<svg xmlns="http://www.w3.org/2000/svg" version="1.1" height="432mm" width="569mm" >
 <g style="fill-opacity:1.0; stroke:black; stroke-width:1;">
  <line x1="0.190000mm" y1="376.358000mm" x2="0.190000mm" y2="376.358000mm" />
  <line x1="0.190000mm" y1="376.358000mm" x2="0.000000mm" y2="372.000000mm" />
  <line x1="0.000000mm" y1="372.000000mm" x2="0.000000mm" y2="50.000000mm" />
  <line x1="0.000000mm" y1="50.000000mm" x2="0.190000mm" y2="45.642000mm" />
  <line x1="0.190000mm" y1="45.642000mm" x2="0.760000mm" y2="41.318000mm" />
  <line x1="0.760000mm" y1="41.318000mm" x2="1.704000mm" y2="37.059000mm" />
  <line x1="1.704000mm" y1="37.059000mm" x2="3.015000mm" y2="32.899000mm" />
  <line x1="3.015000mm" y1="32.899000mm" x2="4.685000mm" y2="28.869000mm" />
  <line x1="4.685000mm" y1="28.869000mm" x2="6.699000mm" y2="25.000000mm" />
  <line x1="6.699000mm" y1="25.000000mm" x2="9.042000mm" y2="21.321000mm" />
  <line x1="9.042000mm" y1="21.321000mm" x2="11.698000mm" y2="17.861000mm" />
  <line x1="11.698000mm" y1="17.861000mm" x2="14.645000mm" y2="14.645000mm" />
  <line x1="14.645000mm" y1="14.645000mm" x2="17.861000mm" y2="11.698000mm" />
  <line x1="17.861000mm" y1="11.698000mm" x2="21.321000mm" y2="9.042000mm" />
  <line x1="21.321000mm" y1="9.042000mm" x2="25.000000mm" y2="6.699000mm" />
  <line x1="25.000000mm" y1="6.699000mm" x2="28.869000mm" y2="4.685000mm" />
  <line x1="28.869000mm" y1="4.685000mm" x2="32.899000mm" y2="3.015000mm" />
  <line x1="32.899000mm" y1="3.015000mm" x2="37.059000mm" y2="1.704000mm" />
  <line x1="37.059000mm" y1="1.704000mm" x2="41.318000mm" y2="0.760000mm" />
  <line x1="41.318000mm" y1="0.760000mm" x2="45.642000mm" y2="0.190000mm" />
  <line x1="45.642000mm" y1="0.190000mm" x2="50.000000mm" y2="0.000000mm" />
  <line x1="50.000000mm" y1="0.000000mm" x2="508.500000mm" y2="0.000000mm" />
  <line x1="508.500000mm" y1="0.000000mm" x2="512.858000mm" y2="0.190000mm" />
  <line x1="512.858000mm" y1="0.190000mm" x2="517.182000mm" y2="0.760000mm" />
  <line x1="517.182000mm" y1="0.760000mm" x2="521.441000mm" y2="1.704000mm" />
  <line x1="521.441000mm" y1="1.704000mm" x2="525.601000mm" y2="3.015000mm" />
  <line x1="525.601000mm" y1="3.015000mm" x2="529.631000mm" y2="4.685000mm" />
  <line x1="529.631000mm" y1="4.685000mm" x2="533.500000mm" y2="6.699000mm" />
  <line x1="533.500000mm" y1="6.699000mm" x2="537.179000mm" y2="9.042000mm" />
  <line x1="537.179000mm" y1="9.042000mm" x2="540.639000mm" y2="11.698000mm" />
  <line x1="540.639000mm" y1="11.698000mm" x2="543.855000mm" y2="14.645000mm" />
  <line x1="543.855000mm" y1="14.645000mm" x2="546.802000mm" y2="17.861000mm" />
  <line x1="546.802000mm" y1="17.861000mm" x2="549.458000mm" y2="21.321000mm" />
  <line x1="549.458000mm" y1="21.321000mm" x2="551.801000mm" y2="25.000000mm" />
  <line x1="551.801000mm" y1="25.000000mm" x2="553.815000mm" y2="28.869000mm" />
  <line x1="553.815000mm" y1="28.869000mm" x2="555.485000mm" y2="32.899000mm" />
  <line x1="555.485000mm" y1="32.899000mm" x2="556.796000mm" y2="37.059000mm" />
  <line x1="556.796000mm" y1="37.059000mm" x2="557.740000mm" y2="41.318000mm" />
  <line x1="557.740000mm" y1="41.318000mm" x2="558.310000mm" y2="45.642000mm" />
  <line x1="558.310000mm" y1="45.642000mm" x2="558.500000mm" y2="50.000000mm" />
  <line x1="558.500000mm" y1="50.000000mm" x2="558.500000mm" y2="372.000000mm" />
  <line x1="558.500000mm" y1="372.000000mm" x2="558.310000mm" y2="376.358000mm" />
  <line x1="558.310000mm" y1="376.358000mm" x2="557.740000mm" y2="380.682000mm" />
  <line x1="557.740000mm" y1="380.682000mm" x2="556.796000mm" y2="384.941000mm" />
  <line x1="556.796000mm" y1="384.941000mm" x2="555.485000mm" y2="389.101000mm" />
  <line x1="555.485000mm" y1="389.101000mm" x2="553.815000mm" y2="393.131000mm" />
  <line x1="553.815000mm" y1="393.131000mm" x2="551.801000mm" y2="397.000000mm" />
  <line x1="551.801000mm" y1="397.000000mm" x2="549.458000mm" y2="400.679000mm" />
  <line x1="549.458000mm" y1="400.679000mm" x2="546.802000mm" y2="404.139000mm" />
  <line x1="546.802000mm" y1="404.139000mm" x2="543.855000mm" y2="407.355000mm" />
  <line x1="543.855000mm" y1="407.355000mm" x2="540.639000mm" y2="410.302000mm" />
  <line x1="540.639000mm" y1="410.302000mm" x2="537.179000mm" y2="412.958000mm" />
  <line x1="537.179000mm" y1="412.958000mm" x2="533.500000mm" y2="415.301000mm" />
  <line x1="533.500000mm" y1="415.301000mm" x2="529.631000mm" y2="417.315000mm" />
  <line x1="529.631000mm" y1="417.315000mm" x2="525.601000mm" y2="418.985000mm" />
  <line x1="525.601000mm" y1="418.985000mm" x2="521.441000mm" y2="420.296000mm" />
  <line x1="521.441000mm" y1="420.296000mm" x2="517.182000mm" y2="421.240000mm" />
  <line x1="517.182000mm" y1="421.240000mm" x2="512.858000mm" y2="421.810000mm" />
  <line x1="512.858000mm" y1="421.810000mm" x2="508.500000mm" y2="422.000000mm" />
  <line x1="508.500000mm" y1="422.000000mm" x2="50.000000mm" y2="422.000000mm" />
  <line x1="50.000000mm" y1="422.000000mm" x2="45.642000mm" y2="421.810000mm" />
  <line x1="45.642000mm" y1="421.810000mm" x2="41.318000mm" y2="421.240000mm" />
  <line x1="41.318000mm" y1="421.240000mm" x2="37.059000mm" y2="420.296000mm" />
  <line x1="37.059000mm" y1="420.296000mm" x2="32.899000mm" y2="418.985000mm" />
  <line x1="32.899000mm" y1="418.985000mm" x2="28.869000mm" y2="417.315000mm" />
  <line x1="28.869000mm" y1="417.315000mm" x2="25.000000mm" y2="415.301000mm" />
  <line x1="25.000000mm" y1="415.301000mm" x2="21.321000mm" y2="412.958000mm" />
  <line x1="21.321000mm" y1="412.958000mm" x2="17.861000mm" y2="410.302000mm" />
  <line x1="17.861000mm" y1="410.302000mm" x2="14.645000mm" y2="407.355000mm" />
  <line x1="14.645000mm" y1="407.355000mm" x2="11.698000mm" y2="404.139000mm" />
  <line x1="11.698000mm" y1="404.139000mm" x2="9.042000mm" y2="400.679000mm" />
  <line x1="9.042000mm" y1="400.679000mm" x2="6.699000mm" y2="397.000000mm" />
  <line x1="6.699000mm" y1="397.000000mm" x2="4.685000mm" y2="393.131000mm" />
  <line x1="4.685000mm" y1="393.131000mm" x2="3.015000mm" y2="389.101000mm" />
  <line x1="3.015000mm" y1="389.101000mm" x2="1.704000mm" y2="384.941000mm" />
  <line x1="1.704000mm" y1="384.941000mm" x2="0.760000mm" y2="380.682000mm" />
  <line x1="0.760000mm" y1="380.682000mm" x2="0.190000mm" y2="376.358000mm" />
  <circle cx="20.309659mm" cy="146.800016mm" r="1.000019mm" fill="none"/>
  <line x1="22.309698mm" y1="146.800016mm" x2="18.309621mm" y2="146.800016mm" />
  <line x1="20.309659mm" y1="144.799978mm" x2="20.309659mm" y2="148.800054mm" />
  <text x="21mm" y="145mm" font-size="24">
   2.0
  </text>
  <circle cx="32.499971mm" cy="210.999864mm" r="4.000103mm" fill="none"/>
  <line x1="40.500177mm" y1="210.999864mm" x2="24.499766mm" y2="210.999864mm" />
  <line x1="32.499971mm" y1="202.999659mm" x2="32.499971mm" y2="219.000070mm" />
  <text x="36mm" y="206mm" font-size="24">
   8.0
  </text>
  <circle cx="76.200000mm" cy="20.309997mm" r="0.999978mm" fill="none"/>
  <line x1="78.199956mm" y1="20.309997mm" x2="74.200044mm" y2="20.309997mm" />
  <line x1="76.200000mm" y1="18.310041mm" x2="76.200000mm" y2="22.309953mm" />
  <text x="77mm" y="19mm" font-size="24">
   2.0
  </text>
  <circle cx="91.689659mm" cy="146.800016mm" r="1.000019mm" fill="none"/>
  <line x1="93.689698mm" y1="146.800016mm" x2="89.689621mm" y2="146.800016mm" />
  <line x1="91.689659mm" y1="144.799978mm" x2="91.689659mm" y2="148.800054mm" />
  <text x="92mm" y="145mm" font-size="24">
   2.0
  </text>
  <circle cx="135.500066mm" cy="413.500138mm" r="1.000138mm" fill="none"/>
  <line x1="137.500342mm" y1="413.500138mm" x2="133.499790mm" y2="413.500138mm" />
  <line x1="135.500066mm" y1="411.499862mm" x2="135.500066mm" y2="415.500414mm" />
  <text x="136mm" y="412mm" font-size="24">
   2.0
  </text>
  <circle cx="135.500066mm" cy="8.500138mm" r="1.000138mm" fill="none"/>
  <line x1="137.500342mm" y1="8.500138mm" x2="133.499790mm" y2="8.500138mm" />
  <line x1="135.500066mm" y1="6.499862mm" x2="135.500066mm" y2="10.500414mm" />
  <text x="136mm" y="7mm" font-size="24">
   2.0
  </text>
  <circle cx="170.500066mm" cy="413.500138mm" r="1.000138mm" fill="none"/>
  <line x1="172.500342mm" y1="413.500138mm" x2="168.499790mm" y2="413.500138mm" />
  <line x1="170.500066mm" y1="411.499862mm" x2="170.500066mm" y2="415.500414mm" />
  <text x="171mm" y="412mm" font-size="24">
   2.0
  </text>
  <circle cx="170.500066mm" cy="8.500138mm" r="1.000138mm" fill="none"/>
  <line x1="172.500342mm" y1="8.500138mm" x2="168.499790mm" y2="8.500138mm" />
  <line x1="170.500066mm" y1="6.499862mm" x2="170.500066mm" y2="10.500414mm" />
  <text x="171mm" y="7mm" font-size="24">
   2.0
  </text>
  <circle cx="244.029659mm" cy="17.500016mm" r="1.000019mm" fill="none"/>
  <line x1="246.029698mm" y1="17.500016mm" x2="242.029621mm" y2="17.500016mm" />
  <line x1="244.029659mm" y1="15.499978mm" x2="244.029659mm" y2="19.500054mm" />
  <text x="245mm" y="16mm" font-size="24">
   2.0
  </text>
  <circle cx="254.529659mm" cy="117.000016mm" r="1.000019mm" fill="none"/>
  <line x1="256.529698mm" y1="117.000016mm" x2="252.529621mm" y2="117.000016mm" />
  <line x1="254.529659mm" y1="114.999978mm" x2="254.529659mm" y2="119.000054mm" />
  <text x="255mm" y="115mm" font-size="24">
   2.0
  </text>
  <circle cx="262.530000mm" cy="414.499997mm" r="0.999978mm" fill="none"/>
  <line x1="264.529956mm" y1="414.499997mm" x2="260.530044mm" y2="414.499997mm" />
  <line x1="262.530000mm" y1="412.500041mm" x2="262.530000mm" y2="416.499953mm" />
  <text x="263mm" y="413mm" font-size="24">
   2.0
  </text>
  <circle cx="262.530000mm" cy="351.499997mm" r="0.999978mm" fill="none"/>
  <line x1="264.529956mm" y1="351.499997mm" x2="260.530044mm" y2="351.499997mm" />
  <line x1="262.530000mm" y1="349.500041mm" x2="262.530000mm" y2="353.499953mm" />
  <text x="263mm" y="350mm" font-size="24">
   2.0
  </text>
  <circle cx="291.469659mm" cy="117.000016mm" r="1.000019mm" fill="none"/>
  <line x1="293.469698mm" y1="117.000016mm" x2="289.469621mm" y2="117.000016mm" />
  <line x1="291.469659mm" y1="114.999978mm" x2="291.469659mm" y2="119.000054mm" />
  <text x="292mm" y="115mm" font-size="24">
   2.0
  </text>
  <circle cx="292.530000mm" cy="414.499997mm" r="0.999978mm" fill="none"/>
  <line x1="294.529956mm" y1="414.499997mm" x2="290.530044mm" y2="414.499997mm" />
  <line x1="292.530000mm" y1="412.500041mm" x2="292.530000mm" y2="416.499953mm" />
  <text x="293mm" y="413mm" font-size="24">
   2.0
  </text>
  <circle cx="292.530000mm" cy="351.499997mm" r="0.999978mm" fill="none"/>
  <line x1="294.529956mm" y1="351.499997mm" x2="290.530044mm" y2="351.499997mm" />
  <line x1="292.530000mm" y1="349.500041mm" x2="292.530000mm" y2="353.499953mm" />
  <text x="293mm" y="350mm" font-size="24">
   2.0
  </text>
  <circle cx="299.250000mm" cy="52.219997mm" r="0.999978mm" fill="none"/>
  <line x1="301.249956mm" y1="52.219997mm" x2="297.250044mm" y2="52.219997mm" />
  <line x1="299.250000mm" y1="50.220041mm" x2="299.250000mm" y2="54.219953mm" />
  <text x="300mm" y="51mm" font-size="24">
   2.0
  </text>
  <circle cx="375.500000mm" cy="348.999997mm" r="0.999978mm" fill="none"/>
  <line x1="377.499956mm" y1="348.999997mm" x2="373.500044mm" y2="348.999997mm" />
  <line x1="375.500000mm" y1="347.000041mm" x2="375.500000mm" y2="350.999953mm" />
  <text x="376mm" y="348mm" font-size="24">
   2.0
  </text>
  <circle cx="375.500000mm" cy="82.999997mm" r="0.999978mm" fill="none"/>
  <line x1="377.499956mm" y1="82.999997mm" x2="373.500044mm" y2="82.999997mm" />
  <line x1="375.500000mm" y1="81.000041mm" x2="375.500000mm" y2="84.999953mm" />
  <text x="376mm" y="82mm" font-size="24">
   2.0
  </text>
  <circle cx="410.500000mm" cy="348.999997mm" r="0.999978mm" fill="none"/>
  <line x1="412.499956mm" y1="348.999997mm" x2="408.500044mm" y2="348.999997mm" />
  <line x1="410.500000mm" y1="347.000041mm" x2="410.500000mm" y2="350.999953mm" />
  <text x="411mm" y="348mm" font-size="24">
   2.0
  </text>
  <circle cx="410.500000mm" cy="82.999997mm" r="0.999978mm" fill="none"/>
  <line x1="412.499956mm" y1="82.999997mm" x2="408.500044mm" y2="82.999997mm" />
  <line x1="410.500000mm" y1="81.000041mm" x2="410.500000mm" y2="84.999953mm" />
  <text x="411mm" y="82mm" font-size="24">
   2.0
  </text>
  <circle cx="425.699659mm" cy="330.500016mm" r="1.000019mm" fill="none"/>
  <line x1="427.699698mm" y1="330.500016mm" x2="423.699621mm" y2="330.500016mm" />
  <line x1="425.699659mm" y1="328.499978mm" x2="425.699659mm" y2="332.500054mm" />
  <text x="426mm" y="329mm" font-size="24">
   2.0
  </text>
  <circle cx="425.699659mm" cy="147.000016mm" r="1.000019mm" fill="none"/>
  <line x1="427.699698mm" y1="147.000016mm" x2="423.699621mm" y2="147.000016mm" />
  <line x1="425.699659mm" y1="144.999978mm" x2="425.699659mm" y2="149.000054mm" />
  <text x="426mm" y="145mm" font-size="24">
   2.0
  </text>
  <circle cx="454.809659mm" cy="146.800016mm" r="1.000019mm" fill="none"/>
  <line x1="456.809698mm" y1="146.800016mm" x2="452.809621mm" y2="146.800016mm" />
  <line x1="454.809659mm" y1="144.799978mm" x2="454.809659mm" y2="148.800054mm" />
  <text x="455mm" y="145mm" font-size="24">
   2.0
  </text>
  <circle cx="481.499971mm" cy="210.999864mm" r="4.000103mm" fill="none"/>
  <line x1="489.500177mm" y1="210.999864mm" x2="473.499766mm" y2="210.999864mm" />
  <line x1="481.499971mm" y1="202.999659mm" x2="481.499971mm" y2="219.000070mm" />
  <text x="485mm" y="206mm" font-size="24">
   8.0
  </text>
  <circle cx="494.800066mm" cy="20.310138mm" r="1.000138mm" fill="none"/>
  <line x1="496.800342mm" y1="20.310138mm" x2="492.799790mm" y2="20.310138mm" />
  <line x1="494.800066mm" y1="18.309862mm" x2="494.800066mm" y2="22.310414mm" />
  <text x="495mm" y="19mm" font-size="24">
   2.0
  </text>
  <circle cx="538.189659mm" cy="146.800016mm" r="1.000019mm" fill="none"/>
  <line x1="540.189698mm" y1="146.800016mm" x2="536.189621mm" y2="146.800016mm" />
  <line x1="538.189659mm" y1="144.799978mm" x2="538.189659mm" y2="148.800054mm" />
  <text x="539mm" y="145mm" font-size="24">
   2.0
  </text>
 </g>
</svg>
