  0
SECTION
  2
BLOCKS
  0
ENDSEC
  0
SECTION
  2
ENTITIES
  0
LINE
  8
0
 10
0
 11
0
 20
0
 21
153
  0
LINE
  8
0
 10
0
 11
410
 20
153
 21
153
  0
LINE
  8
0
 10
410
 11
412.179
 20
153
 21
152.905
  0
LINE
  8
0
 10
412.179
 11
414.341
 20
152.905
 21
152.62
  0
LINE
  8
0
 10
414.341
 11
416.47
 20
152.62
 21
152.148
  0
LINE
  8
0
 10
416.47
 11
418.551
 20
152.148
 21
151.492
  0
LINE
  8
0
 10
418.551
 11
420.565
 20
151.492
 21
150.658
  0
LINE
  8
0
 10
420.565
 11
422.5
 20
150.658
 21
149.651
  0
LINE
  8
0
 10
422.5
 11
424.339
 20
149.651
 21
148.479
  0
LINE
  8
0
 10
424.339
 11
426.07
 20
148.479
 21
147.151
  0
LINE
  8
0
 10
426.07
 11
427.678
 20
147.151
 21
145.678
  0
LINE
  8
0
 10
427.678
 11
429.151
 20
145.678
 21
144.07
  0
LINE
  8
0
 10
429.151
 11
430.479
 20
144.07
 21
142.339
  0
LINE
  8
0
 10
430.479
 11
431.651
 20
142.339
 21
140.5
  0
LINE
  8
0
 10
431.651
 11
432.658
 20
140.5
 21
138.565
  0
LINE
  8
0
 10
432.658
 11
433.492
 20
138.565
 21
136.551
  0
LINE
  8
0
 10
433.492
 11
434.148
 20
136.551
 21
134.47
  0
LINE
  8
0
 10
434.148
 11
434.62
 20
134.47
 21
132.341
  0
LINE
  8
0
 10
434.62
 11
434.905
 20
132.341
 21
130.179
  0
LINE
  8
0
 10
434.905
 11
435
 20
130.179
 21
128
  0
LINE
  8
0
 10
435
 11
435
 20
128
 21
0
  0
LINE
  8
0
 10
435
 11
0
 20
0
 21
0
  0
LINE
  8
0
 10
7.207
 11
7.377
 20
122.201
 21
122.648
  0
LINE
  8
0
 10
7.377
 11
7.735
 20
122.648
 21
122.965
  0
LINE
  8
0
 10
7.735
 11
8.2
 20
122.965
 21
123.08
  0
LINE
  8
0
 10
8.2
 11
8.665
 20
123.08
 21
122.965
  0
LINE
  8
0
 10
8.665
 11
9.023
 20
122.965
 21
122.648
  0
LINE
  8
0
 10
9.023
 11
9.193
 20
122.648
 21
122.201
  0
LINE
  8
0
 10
9.193
 11
9.135
 20
122.201
 21
121.725
  0
LINE
  8
0
 10
9.135
 11
8.863
 20
121.725
 21
121.331
  0
LINE
  8
0
 10
8.863
 11
8.439
 20
121.331
 21
121.109
  0
LINE
  8
0
 10
8.439
 11
7.961
 20
121.109
 21
121.109
  0
LINE
  8
0
 10
7.961
 11
7.537
 20
121.109
 21
121.331
  0
LINE
  8
0
 10
7.537
 11
7.265
 20
121.331
 21
121.725
  0
LINE
  8
0
 10
7.265
 11
7.207
 20
121.725
 21
122.201
  0
LINE
  8
0
 10
7.207
 11
7.377
 20
143.421
 21
143.868
  0
LINE
  8
0
 10
7.377
 11
7.735
 20
143.868
 21
144.185
  0
LINE
  8
0
 10
7.735
 11
8.2
 20
144.185
 21
144.3
  0
LINE
  8
0
 10
8.2
 11
8.665
 20
144.3
 21
144.185
  0
LINE
  8
0
 10
8.665
 11
9.023
 20
144.185
 21
143.868
  0
LINE
  8
0
 10
9.023
 11
9.193
 20
143.868
 21
143.421
  0
LINE
  8
0
 10
9.193
 11
9.135
 20
143.421
 21
142.945
  0
LINE
  8
0
 10
9.135
 11
8.863
 20
142.945
 21
142.551
  0
LINE
  8
0
 10
8.863
 11
8.439
 20
142.551
 21
142.329
  0
LINE
  8
0
 10
8.439
 11
7.961
 20
142.329
 21
142.329
  0
LINE
  8
0
 10
7.961
 11
7.537
 20
142.329
 21
142.551
  0
LINE
  8
0
 10
7.537
 11
7.265
 20
142.551
 21
142.945
  0
LINE
  8
0
 10
7.265
 11
7.207
 20
142.945
 21
143.421
  0
LINE
  8
0
 10
25.1
 11
25.215
 20
8.2
 21
8.665
  0
LINE
  8
0
 10
25.215
 11
25.532
 20
8.665
 21
9.023
  0
LINE
  8
0
 10
25.532
 11
25.979
 20
9.023
 21
9.193
  0
LINE
  8
0
 10
25.979
 11
26.455
 20
9.193
 21
9.135
  0
LINE
  8
0
 10
26.455
 11
26.849
 20
9.135
 21
8.863
  0
LINE
  8
0
 10
26.849
 11
27.071
 20
8.863
 21
8.439
  0
LINE
  8
0
 10
27.071
 11
27.071
 20
8.439
 21
7.961
  0
LINE
  8
0
 10
27.071
 11
26.849
 20
7.961
 21
7.537
  0
LINE
  8
0
 10
26.849
 11
26.455
 20
7.537
 21
7.265
  0
LINE
  8
0
 10
26.455
 11
25.979
 20
7.265
 21
7.207
  0
LINE
  8
0
 10
25.979
 11
25.532
 20
7.207
 21
7.377
  0
LINE
  8
0
 10
25.532
 11
25.215
 20
7.377
 21
7.735
  0
LINE
  8
0
 10
25.215
 11
25.1
 20
7.735
 21
8.2
  0
LINE
  8
0
 10
46.32
 11
46.435
 20
8.2
 21
8.665
  0
LINE
  8
0
 10
46.435
 11
46.752
 20
8.665
 21
9.023
  0
LINE
  8
0
 10
46.752
 11
47.199
 20
9.023
 21
9.193
  0
LINE
  8
0
 10
47.199
 11
47.675
 20
9.193
 21
9.135
  0
LINE
  8
0
 10
47.675
 11
48.069
 20
9.135
 21
8.863
  0
LINE
  8
0
 10
48.069
 11
48.291
 20
8.863
 21
8.439
  0
LINE
  8
0
 10
48.291
 11
48.291
 20
8.439
 21
7.961
  0
LINE
  8
0
 10
48.291
 11
48.069
 20
7.961
 21
7.537
  0
LINE
  8
0
 10
48.069
 11
47.675
 20
7.537
 21
7.265
  0
LINE
  8
0
 10
47.675
 11
47.199
 20
7.265
 21
7.207
  0
LINE
  8
0
 10
47.199
 11
46.752
 20
7.207
 21
7.377
  0
LINE
  8
0
 10
46.752
 11
46.435
 20
7.377
 21
7.735
  0
LINE
  8
0
 10
46.435
 11
46.32
 20
7.735
 21
8.2
  0
LINE
  8
0
 10
49.55
 11
49.605
 20
22.65
 21
23.14
  0
LINE
  8
0
 10
49.605
 11
49.768
 20
23.14
 21
23.605
  0
LINE
  8
0
 10
49.768
 11
50.03
 20
23.605
 21
24.022
  0
LINE
  8
0
 10
50.03
 11
50.378
 20
24.022
 21
24.37
  0
LINE
  8
0
 10
50.378
 11
50.795
 20
24.37
 21
24.632
  0
LINE
  8
0
 10
50.795
 11
51.26
 20
24.632
 21
24.795
  0
LINE
  8
0
 10
51.26
 11
51.75
 20
24.795
 21
24.85
  0
LINE
  8
0
 10
51.75
 11
52.24
 20
24.85
 21
24.795
  0
LINE
  8
0
 10
52.24
 11
52.705
 20
24.795
 21
24.632
  0
LINE
  8
0
 10
52.705
 11
53.122
 20
24.632
 21
24.37
  0
LINE
  8
0
 10
53.122
 11
53.47
 20
24.37
 21
24.022
  0
LINE
  8
0
 10
53.47
 11
53.732
 20
24.022
 21
23.605
  0
LINE
  8
0
 10
53.732
 11
53.895
 20
23.605
 21
23.14
  0
LINE
  8
0
 10
53.895
 11
53.95
 20
23.14
 21
22.65
  0
LINE
  8
0
 10
53.95
 11
53.895
 20
22.65
 21
22.16
  0
LINE
  8
0
 10
53.895
 11
53.732
 20
22.16
 21
21.695
  0
LINE
  8
0
 10
53.732
 11
53.47
 20
21.695
 21
21.278
  0
LINE
  8
0
 10
53.47
 11
53.122
 20
21.278
 21
20.93
  0
LINE
  8
0
 10
53.122
 11
52.705
 20
20.93
 21
20.668
  0
LINE
  8
0
 10
52.705
 11
52.24
 20
20.668
 21
20.505
  0
LINE
  8
0
 10
52.24
 11
51.75
 20
20.505
 21
20.45
  0
LINE
  8
0
 10
51.75
 11
51.26
 20
20.45
 21
20.505
  0
LINE
  8
0
 10
51.26
 11
50.795
 20
20.505
 21
20.668
  0
LINE
  8
0
 10
50.795
 11
50.378
 20
20.668
 21
20.93
  0
LINE
  8
0
 10
50.378
 11
50.03
 20
20.93
 21
21.278
  0
LINE
  8
0
 10
50.03
 11
49.768
 20
21.278
 21
21.695
  0
LINE
  8
0
 10
49.768
 11
49.605
 20
21.695
 21
22.16
  0
LINE
  8
0
 10
49.605
 11
49.55
 20
22.16
 21
22.65
  0
LINE
  8
0
 10
49.55
 11
49.605
 20
94.15
 21
94.64
  0
LINE
  8
0
 10
49.605
 11
49.768
 20
94.64
 21
95.105
  0
LINE
  8
0
 10
49.768
 11
50.03
 20
95.105
 21
95.522
  0
LINE
  8
0
 10
50.03
 11
50.378
 20
95.522
 21
95.87
  0
LINE
  8
0
 10
50.378
 11
50.795
 20
95.87
 21
96.132
  0
LINE
  8
0
 10
50.795
 11
51.26
 20
96.132
 21
96.295
  0
LINE
  8
0
 10
51.26
 11
51.75
 20
96.295
 21
96.35
  0
LINE
  8
0
 10
51.75
 11
52.24
 20
96.35
 21
96.295
  0
LINE
  8
0
 10
52.24
 11
52.705
 20
96.295
 21
96.132
  0
LINE
  8
0
 10
52.705
 11
53.122
 20
96.132
 21
95.87
  0
LINE
  8
0
 10
53.122
 11
53.47
 20
95.87
 21
95.522
  0
LINE
  8
0
 10
53.47
 11
53.732
 20
95.522
 21
95.105
  0
LINE
  8
0
 10
53.732
 11
53.895
 20
95.105
 21
94.64
  0
LINE
  8
0
 10
53.895
 11
53.95
 20
94.64
 21
94.15
  0
LINE
  8
0
 10
53.95
 11
53.895
 20
94.15
 21
93.66
  0
LINE
  8
0
 10
53.895
 11
53.732
 20
93.66
 21
93.195
  0
LINE
  8
0
 10
53.732
 11
53.47
 20
93.195
 21
92.778
  0
LINE
  8
0
 10
53.47
 11
53.122
 20
92.778
 21
92.43
  0
LINE
  8
0
 10
53.122
 11
52.705
 20
92.43
 21
92.168
  0
LINE
  8
0
 10
52.705
 11
52.24
 20
92.168
 21
92.005
  0
LINE
  8
0
 10
52.24
 11
51.75
 20
92.005
 21
91.95
  0
LINE
  8
0
 10
51.75
 11
51.26
 20
91.95
 21
92.005
  0
LINE
  8
0
 10
51.26
 11
50.795
 20
92.005
 21
92.168
  0
LINE
  8
0
 10
50.795
 11
50.378
 20
92.168
 21
92.43
  0
LINE
  8
0
 10
50.378
 11
50.03
 20
92.43
 21
92.778
  0
LINE
  8
0
 10
50.03
 11
49.768
 20
92.778
 21
93.195
  0
LINE
  8
0
 10
49.768
 11
49.605
 20
93.195
 21
93.66
  0
LINE
  8
0
 10
49.605
 11
49.55
 20
93.66
 21
94.15
  0
LINE
  8
0
 10
50
 11
50.143
 20
58.4
 21
61.668
  0
LINE
  8
0
 10
50.143
 11
50.57
 20
61.668
 21
64.912
  0
LINE
  8
0
 10
50.57
 11
51.278
 20
64.912
 21
68.106
  0
LINE
  8
0
 10
51.278
 11
52.262
 20
68.106
 21
71.226
  0
LINE
  8
0
 10
52.262
 11
53.513
 20
71.226
 21
74.248
  0
LINE
  8
0
 10
53.513
 11
55.024
 20
74.248
 21
77.15
  0
LINE
  8
0
 10
55.024
 11
56.782
 20
77.15
 21
79.909
  0
LINE
  8
0
 10
56.782
 11
58.773
 20
79.909
 21
82.505
  0
LINE
  8
0
 10
58.773
 11
60.983
 20
82.505
 21
84.917
  0
LINE
  8
0
 10
60.983
 11
63.395
 20
84.917
 21
87.127
  0
LINE
  8
0
 10
63.395
 11
65.991
 20
87.127
 21
89.118
  0
LINE
  8
0
 10
65.991
 11
68.75
 20
89.118
 21
90.876
  0
LINE
  8
0
 10
68.75
 11
71.652
 20
90.876
 21
92.387
  0
LINE
  8
0
 10
71.652
 11
74.674
 20
92.387
 21
93.638
  0
LINE
  8
0
 10
74.674
 11
77.794
 20
93.638
 21
94.622
  0
LINE
  8
0
 10
77.794
 11
80.988
 20
94.622
 21
95.33
  0
LINE
  8
0
 10
80.988
 11
84.232
 20
95.33
 21
95.757
  0
LINE
  8
0
 10
84.232
 11
87.5
 20
95.757
 21
95.9
  0
LINE
  8
0
 10
87.5
 11
90.768
 20
95.9
 21
95.757
  0
LINE
  8
0
 10
90.768
 11
94.012
 20
95.757
 21
95.33
  0
LINE
  8
0
 10
94.012
 11
97.206
 20
95.33
 21
94.622
  0
LINE
  8
0
 10
97.206
 11
100.326
 20
94.622
 21
93.638
  0
LINE
  8
0
 10
100.326
 11
103.348
 20
93.638
 21
92.387
  0
LINE
  8
0
 10
103.348
 11
106.25
 20
92.387
 21
90.876
  0
LINE
  8
0
 10
106.25
 11
109.009
 20
90.876
 21
89.118
  0
LINE
  8
0
 10
109.009
 11
111.605
 20
89.118
 21
87.127
  0
LINE
  8
0
 10
111.605
 11
114.017
 20
87.127
 21
84.917
  0
LINE
  8
0
 10
114.017
 11
116.227
 20
84.917
 21
82.505
  0
LINE
  8
0
 10
116.227
 11
118.218
 20
82.505
 21
79.909
  0
LINE
  8
0
 10
118.218
 11
119.976
 20
79.909
 21
77.15
  0
LINE
  8
0
 10
119.976
 11
121.487
 20
77.15
 21
74.248
  0
LINE
  8
0
 10
121.487
 11
122.738
 20
74.248
 21
71.226
  0
LINE
  8
0
 10
122.738
 11
123.722
 20
71.226
 21
68.106
  0
LINE
  8
0
 10
123.722
 11
124.43
 20
68.106
 21
64.912
  0
LINE
  8
0
 10
124.43
 11
124.857
 20
64.912
 21
61.668
  0
LINE
  8
0
 10
124.857
 11
125
 20
61.668
 21
58.4
  0
LINE
  8
0
 10
125
 11
124.857
 20
58.4
 21
55.132
  0
LINE
  8
0
 10
124.857
 11
124.43
 20
55.132
 21
51.888
  0
LINE
  8
0
 10
124.43
 11
123.722
 20
51.888
 21
48.694
  0
LINE
  8
0
 10
123.722
 11
122.738
 20
48.694
 21
45.574
  0
LINE
  8
0
 10
122.738
 11
121.487
 20
45.574
 21
42.552
  0
LINE
  8
0
 10
121.487
 11
119.976
 20
42.552
 21
39.65
  0
LINE
  8
0
 10
119.976
 11
118.218
 20
39.65
 21
36.891
  0
LINE
  8
0
 10
118.218
 11
116.227
 20
36.891
 21
34.295
  0
LINE
  8
0
 10
116.227
 11
114.017
 20
34.295
 21
31.883
  0
LINE
  8
0
 10
114.017
 11
111.605
 20
31.883
 21
29.673
  0
LINE
  8
0
 10
111.605
 11
109.009
 20
29.673
 21
27.682
  0
LINE
  8
0
 10
109.009
 11
106.25
 20
27.682
 21
25.924
  0
LINE
  8
0
 10
106.25
 11
103.348
 20
25.924
 21
24.413
  0
LINE
  8
0
 10
103.348
 11
100.326
 20
24.413
 21
23.162
  0
LINE
  8
0
 10
100.326
 11
97.206
 20
23.162
 21
22.178
  0
LINE
  8
0
 10
97.206
 11
94.012
 20
22.178
 21
21.47
  0
LINE
  8
0
 10
94.012
 11
90.768
 20
21.47
 21
21.043
  0
LINE
  8
0
 10
90.768
 11
87.5
 20
21.043
 21
20.9
  0
LINE
  8
0
 10
87.5
 11
84.232
 20
20.9
 21
21.043
  0
LINE
  8
0
 10
84.232
 11
80.988
 20
21.043
 21
21.47
  0
LINE
  8
0
 10
80.988
 11
77.794
 20
21.47
 21
22.178
  0
LINE
  8
0
 10
77.794
 11
74.674
 20
22.178
 21
23.162
  0
LINE
  8
0
 10
74.674
 11
71.652
 20
23.162
 21
24.413
  0
LINE
  8
0
 10
71.652
 11
68.75
 20
24.413
 21
25.924
  0
LINE
  8
0
 10
68.75
 11
65.991
 20
25.924
 21
27.682
  0
LINE
  8
0
 10
65.991
 11
63.395
 20
27.682
 21
29.673
  0
LINE
  8
0
 10
63.395
 11
60.983
 20
29.673
 21
31.883
  0
LINE
  8
0
 10
60.983
 11
58.773
 20
31.883
 21
34.295
  0
LINE
  8
0
 10
58.773
 11
56.782
 20
34.295
 21
36.891
  0
LINE
  8
0
 10
56.782
 11
55.024
 20
36.891
 21
39.65
  0
LINE
  8
0
 10
55.024
 11
53.513
 20
39.65
 21
42.552
  0
LINE
  8
0
 10
53.513
 11
52.262
 20
42.552
 21
45.574
  0
LINE
  8
0
 10
52.262
 11
51.278
 20
45.574
 21
48.694
  0
LINE
  8
0
 10
51.278
 11
50.57
 20
48.694
 21
51.888
  0
LINE
  8
0
 10
50.57
 11
50.143
 20
51.888
 21
55.132
  0
LINE
  8
0
 10
50.143
 11
50
 20
55.132
 21
58.4
  0
LINE
  8
0
 10
121.05
 11
121.105
 20
22.65
 21
23.14
  0
LINE
  8
0
 10
121.105
 11
121.268
 20
23.14
 21
23.605
  0
LINE
  8
0
 10
121.268
 11
121.53
 20
23.605
 21
24.022
  0
LINE
  8
0
 10
121.53
 11
121.878
 20
24.022
 21
24.37
  0
LINE
  8
0
 10
121.878
 11
122.295
 20
24.37
 21
24.632
  0
LINE
  8
0
 10
122.295
 11
122.76
 20
24.632
 21
24.795
  0
LINE
  8
0
 10
122.76
 11
123.25
 20
24.795
 21
24.85
  0
LINE
  8
0
 10
123.25
 11
123.74
 20
24.85
 21
24.795
  0
LINE
  8
0
 10
123.74
 11
124.205
 20
24.795
 21
24.632
  0
LINE
  8
0
 10
124.205
 11
124.622
 20
24.632
 21
24.37
  0
LINE
  8
0
 10
124.622
 11
124.97
 20
24.37
 21
24.022
  0
LINE
  8
0
 10
124.97
 11
125.232
 20
24.022
 21
23.605
  0
LINE
  8
0
 10
125.232
 11
125.395
 20
23.605
 21
23.14
  0
LINE
  8
0
 10
125.395
 11
125.45
 20
23.14
 21
22.65
  0
LINE
  8
0
 10
125.45
 11
125.395
 20
22.65
 21
22.16
  0
LINE
  8
0
 10
125.395
 11
125.232
 20
22.16
 21
21.695
  0
LINE
  8
0
 10
125.232
 11
124.97
 20
21.695
 21
21.278
  0
LINE
  8
0
 10
124.97
 11
124.622
 20
21.278
 21
20.93
  0
LINE
  8
0
 10
124.622
 11
124.205
 20
20.93
 21
20.668
  0
LINE
  8
0
 10
124.205
 11
123.74
 20
20.668
 21
20.505
  0
LINE
  8
0
 10
123.74
 11
123.25
 20
20.505
 21
20.45
  0
LINE
  8
0
 10
123.25
 11
122.76
 20
20.45
 21
20.505
  0
LINE
  8
0
 10
122.76
 11
122.295
 20
20.505
 21
20.668
  0
LINE
  8
0
 10
122.295
 11
121.878
 20
20.668
 21
20.93
  0
LINE
  8
0
 10
121.878
 11
121.53
 20
20.93
 21
21.278
  0
LINE
  8
0
 10
121.53
 11
121.268
 20
21.278
 21
21.695
  0
LINE
  8
0
 10
121.268
 11
121.105
 20
21.695
 21
22.16
  0
LINE
  8
0
 10
121.105
 11
121.05
 20
22.16
 21
22.65
  0
LINE
  8
0
 10
121.05
 11
121.105
 20
94.15
 21
94.64
  0
LINE
  8
0
 10
121.105
 11
121.268
 20
94.64
 21
95.105
  0
LINE
  8
0
 10
121.268
 11
121.53
 20
95.105
 21
95.522
  0
LINE
  8
0
 10
121.53
 11
121.878
 20
95.522
 21
95.87
  0
LINE
  8
0
 10
121.878
 11
122.295
 20
95.87
 21
96.132
  0
LINE
  8
0
 10
122.295
 11
122.76
 20
96.132
 21
96.295
  0
LINE
  8
0
 10
122.76
 11
123.25
 20
96.295
 21
96.35
  0
LINE
  8
0
 10
123.25
 11
123.74
 20
96.35
 21
96.295
  0
LINE
  8
0
 10
123.74
 11
124.205
 20
96.295
 21
96.132
  0
LINE
  8
0
 10
124.205
 11
124.622
 20
96.132
 21
95.87
  0
LINE
  8
0
 10
124.622
 11
124.97
 20
95.87
 21
95.522
  0
LINE
  8
0
 10
124.97
 11
125.232
 20
95.522
 21
95.105
  0
LINE
  8
0
 10
125.232
 11
125.395
 20
95.105
 21
94.64
  0
LINE
  8
0
 10
125.395
 11
125.45
 20
94.64
 21
94.15
  0
LINE
  8
0
 10
125.45
 11
125.395
 20
94.15
 21
93.66
  0
LINE
  8
0
 10
125.395
 11
125.232
 20
93.66
 21
93.195
  0
LINE
  8
0
 10
125.232
 11
124.97
 20
93.195
 21
92.778
  0
LINE
  8
0
 10
124.97
 11
124.622
 20
92.778
 21
92.43
  0
LINE
  8
0
 10
124.622
 11
124.205
 20
92.43
 21
92.168
  0
LINE
  8
0
 10
124.205
 11
123.74
 20
92.168
 21
92.005
  0
LINE
  8
0
 10
123.74
 11
123.25
 20
92.005
 21
91.95
  0
LINE
  8
0
 10
123.25
 11
122.76
 20
91.95
 21
92.005
  0
LINE
  8
0
 10
122.76
 11
122.295
 20
92.005
 21
92.168
  0
LINE
  8
0
 10
122.295
 11
121.878
 20
92.168
 21
92.43
  0
LINE
  8
0
 10
121.878
 11
121.53
 20
92.43
 21
92.778
  0
LINE
  8
0
 10
121.53
 11
121.268
 20
92.778
 21
93.195
  0
LINE
  8
0
 10
121.268
 11
121.105
 20
93.195
 21
93.66
  0
LINE
  8
0
 10
121.105
 11
121.05
 20
93.66
 21
94.15
  0
LINE
  8
0
 10
335.512
 11
335.626
 20
88.9
 21
89.365
  0
LINE
  8
0
 10
335.626
 11
335.944
 20
89.365
 21
89.723
  0
LINE
  8
0
 10
335.944
 11
336.391
 20
89.723
 21
89.893
  0
LINE
  8
0
 10
336.391
 11
336.866
 20
89.893
 21
89.835
  0
LINE
  8
0
 10
336.866
 11
337.26
 20
89.835
 21
89.563
  0
LINE
  8
0
 10
337.26
 11
337.483
 20
89.563
 21
89.139
  0
LINE
  8
0
 10
337.483
 11
337.483
 20
89.139
 21
88.661
  0
LINE
  8
0
 10
337.483
 11
337.26
 20
88.661
 21
88.237
  0
LINE
  8
0
 10
337.26
 11
336.866
 20
88.237
 21
87.965
  0
LINE
  8
0
 10
336.866
 11
336.391
 20
87.965
 21
87.907
  0
LINE
  8
0
 10
336.391
 11
335.944
 20
87.907
 21
88.077
  0
LINE
  8
0
 10
335.944
 11
335.626
 20
88.077
 21
88.435
  0
LINE
  8
0
 10
335.626
 11
335.512
 20
88.435
 21
88.9
  0
LINE
  8
0
 10
360.08
 11
360.121
 20
8
 21
8.494
  0
LINE
  8
0
 10
360.121
 11
360.243
 20
8.494
 21
8.974
  0
LINE
  8
0
 10
360.243
 11
360.442
 20
8.974
 21
9.428
  0
LINE
  8
0
 10
360.442
 11
360.713
 20
9.428
 21
9.843
  0
LINE
  8
0
 10
360.713
 11
361.048
 20
9.843
 21
10.207
  0
LINE
  8
0
 10
361.048
 11
361.439
 20
10.207
 21
10.511
  0
LINE
  8
0
 10
361.439
 11
361.875
 20
10.511
 21
10.747
  0
LINE
  8
0
 10
361.875
 11
362.344
 20
10.747
 21
10.908
  0
LINE
  8
0
 10
362.344
 11
362.832
 20
10.908
 21
10.99
  0
LINE
  8
0
 10
362.832
 11
363.328
 20
10.99
 21
10.99
  0
LINE
  8
0
 10
363.328
 11
363.816
 20
10.99
 21
10.908
  0
LINE
  8
0
 10
363.816
 11
364.285
 20
10.908
 21
10.747
  0
LINE
  8
0
 10
364.285
 11
364.721
 20
10.747
 21
10.511
  0
LINE
  8
0
 10
364.721
 11
365.112
 20
10.511
 21
10.207
  0
LINE
  8
0
 10
365.112
 11
365.447
 20
10.207
 21
9.843
  0
LINE
  8
0
 10
365.447
 11
365.718
 20
9.843
 21
9.428
  0
LINE
  8
0
 10
365.718
 11
365.917
 20
9.428
 21
8.974
  0
LINE
  8
0
 10
365.917
 11
366.039
 20
8.974
 21
8.494
  0
LINE
  8
0
 10
366.039
 11
366.08
 20
8.494
 21
8
  0
LINE
  8
0
 10
366.08
 11
366.039
 20
8
 21
7.506
  0
LINE
  8
0
 10
366.039
 11
365.917
 20
7.506
 21
7.026
  0
LINE
  8
0
 10
365.917
 11
365.718
 20
7.026
 21
6.572
  0
LINE
  8
0
 10
365.718
 11
365.447
 20
6.572
 21
6.157
  0
LINE
  8
0
 10
365.447
 11
365.112
 20
6.157
 21
5.793
  0
LINE
  8
0
 10
365.112
 11
364.721
 20
5.793
 21
5.489
  0
LINE
  8
0
 10
364.721
 11
364.285
 20
5.489
 21
5.253
  0
LINE
  8
0
 10
364.285
 11
363.816
 20
5.253
 21
5.092
  0
LINE
  8
0
 10
363.816
 11
363.328
 20
5.092
 21
5.01
  0
LINE
  8
0
 10
363.328
 11
362.832
 20
5.01
 21
5.01
  0
LINE
  8
0
 10
362.832
 11
362.344
 20
5.01
 21
5.092
  0
LINE
  8
0
 10
362.344
 11
361.875
 20
5.092
 21
5.253
  0
LINE
  8
0
 10
361.875
 11
361.439
 20
5.253
 21
5.489
  0
LINE
  8
0
 10
361.439
 11
361.048
 20
5.489
 21
5.793
  0
LINE
  8
0
 10
361.048
 11
360.713
 20
5.793
 21
6.157
  0
LINE
  8
0
 10
360.713
 11
360.442
 20
6.157
 21
6.572
  0
LINE
  8
0
 10
360.442
 11
360.243
 20
6.572
 21
7.026
  0
LINE
  8
0
 10
360.243
 11
360.121
 20
7.026
 21
7.506
  0
LINE
  8
0
 10
360.121
 11
360.08
 20
7.506
 21
8
  0
LINE
  8
0
 10
372.58
 11
372.638
 20
7
 21
7.479
  0
LINE
  8
0
 10
372.638
 11
372.809
 20
7.479
 21
7.929
  0
LINE
  8
0
 10
372.809
 11
373.083
 20
7.929
 21
8.326
  0
LINE
  8
0
 10
373.083
 11
373.444
 20
8.326
 21
8.646
  0
LINE
  8
0
 10
373.444
 11
373.871
 20
8.646
 21
8.87
  0
LINE
  8
0
 10
373.871
 11
374.339
 20
8.87
 21
8.985
  0
LINE
  8
0
 10
374.339
 11
374.821
 20
8.985
 21
8.985
  0
LINE
  8
0
 10
374.821
 11
375.289
 20
8.985
 21
8.87
  0
LINE
  8
0
 10
375.289
 11
375.716
 20
8.87
 21
8.646
  0
LINE
  8
0
 10
375.716
 11
376.077
 20
8.646
 21
8.326
  0
LINE
  8
0
 10
376.077
 11
376.351
 20
8.326
 21
7.929
  0
LINE
  8
0
 10
376.351
 11
376.522
 20
7.929
 21
7.479
  0
LINE
  8
0
 10
376.522
 11
376.58
 20
7.479
 21
7
  0
LINE
  8
0
 10
376.58
 11
376.522
 20
7
 21
6.521
  0
LINE
  8
0
 10
376.522
 11
376.351
 20
6.521
 21
6.071
  0
LINE
  8
0
 10
376.351
 11
376.077
 20
6.071
 21
5.674
  0
LINE
  8
0
 10
376.077
 11
375.716
 20
5.674
 21
5.354
  0
LINE
  8
0
 10
375.716
 11
375.289
 20
5.354
 21
5.13
  0
LINE
  8
0
 10
375.289
 11
374.821
 20
5.13
 21
5.015
  0
LINE
  8
0
 10
374.821
 11
374.339
 20
5.015
 21
5.015
  0
LINE
  8
0
 10
374.339
 11
373.871
 20
5.015
 21
5.13
  0
LINE
  8
0
 10
373.871
 11
373.444
 20
5.13
 21
5.354
  0
LINE
  8
0
 10
373.444
 11
373.083
 20
5.354
 21
5.674
  0
LINE
  8
0
 10
373.083
 11
372.809
 20
5.674
 21
6.071
  0
LINE
  8
0
 10
372.809
 11
372.638
 20
6.071
 21
6.521
  0
LINE
  8
0
 10
372.638
 11
372.58
 20
6.521
 21
7
  0
LINE
  8
0
 10
386.68
 11
386.795
 20
8.2
 21
8.665
  0
LINE
  8
0
 10
386.795
 11
387.112
 20
8.665
 21
9.023
  0
LINE
  8
0
 10
387.112
 11
387.559
 20
9.023
 21
9.193
  0
LINE
  8
0
 10
387.559
 11
388.035
 20
9.193
 21
9.135
  0
LINE
  8
0
 10
388.035
 11
388.429
 20
9.135
 21
8.863
  0
LINE
  8
0
 10
388.429
 11
388.651
 20
8.863
 21
8.439
  0
LINE
  8
0
 10
388.651
 11
388.651
 20
8.439
 21
7.961
  0
LINE
  8
0
 10
388.651
 11
388.429
 20
7.961
 21
7.537
  0
LINE
  8
0
 10
388.429
 11
388.035
 20
7.537
 21
7.265
  0
LINE
  8
0
 10
388.035
 11
387.559
 20
7.265
 21
7.207
  0
LINE
  8
0
 10
387.559
 11
387.112
 20
7.207
 21
7.377
  0
LINE
  8
0
 10
387.112
 11
386.795
 20
7.377
 21
7.735
  0
LINE
  8
0
 10
386.795
 11
386.68
 20
7.735
 21
8.2
  0
LINE
  8
0
 10
407.9
 11
408.015
 20
8.2
 21
8.665
  0
LINE
  8
0
 10
408.015
 11
408.332
 20
8.665
 21
9.023
  0
LINE
  8
0
 10
408.332
 11
408.779
 20
9.023
 21
9.193
  0
LINE
  8
0
 10
408.779
 11
409.255
 20
9.193
 21
9.135
  0
LINE
  8
0
 10
409.255
 11
409.649
 20
9.135
 21
8.863
  0
LINE
  8
0
 10
409.649
 11
409.871
 20
8.863
 21
8.439
  0
LINE
  8
0
 10
409.871
 11
409.871
 20
8.439
 21
7.961
  0
LINE
  8
0
 10
409.871
 11
409.649
 20
7.961
 21
7.537
  0
LINE
  8
0
 10
409.649
 11
409.255
 20
7.537
 21
7.265
  0
LINE
  8
0
 10
409.255
 11
408.779
 20
7.265
 21
7.207
  0
LINE
  8
0
 10
408.779
 11
408.332
 20
7.207
 21
7.377
  0
LINE
  8
0
 10
408.332
 11
408.015
 20
7.377
 21
7.735
  0
LINE
  8
0
 10
408.015
 11
407.9
 20
7.735
 21
8.2
  0
ENDSEC
  0
SECTION
  2
OBJECTS
  0
DICTIONARY
  0
ENDSEC
  0
EOF
