<?xml version="1.0"?>
<svg xmlns="http://www.w3.org/2000/svg" version="1.1" height="429mm" width="572mm" >
 <g style="fill-opacity:1.0; stroke:black; stroke-width:1;">
  <circle cx="20.309659mm" cy="144.800016mm" r="1.000019mm" fill="none"/>
  <line x1="22.309698mm" y1="144.800016mm" x2="18.309621mm" y2="144.800016mm" />
  <line x1="20.309659mm" y1="142.799978mm" x2="20.309659mm" y2="146.800054mm" />
  <text x="21mm" y="143mm" font-size="24">
   2.0
  </text>
  <circle cx="32.499971mm" cy="209.499864mm" r="4.000103mm" fill="none"/>
  <line x1="40.500177mm" y1="209.499864mm" x2="24.499766mm" y2="209.499864mm" />
  <line x1="32.499971mm" y1="201.499659mm" x2="32.499971mm" y2="217.500070mm" />
  <text x="36mm" y="205mm" font-size="24">
   8.0
  </text>
  <circle cx="76.700000mm" cy="20.309997mm" r="0.999978mm" fill="none"/>
  <line x1="78.699956mm" y1="20.309997mm" x2="74.700044mm" y2="20.309997mm" />
  <line x1="76.700000mm" y1="18.310041mm" x2="76.700000mm" y2="22.309953mm" />
  <text x="77mm" y="19mm" font-size="24">
   2.0
  </text>
  <circle cx="92.689659mm" cy="144.800016mm" r="1.000019mm" fill="none"/>
  <line x1="94.689698mm" y1="144.800016mm" x2="90.689621mm" y2="144.800016mm" />
  <line x1="92.689659mm" y1="142.799978mm" x2="92.689659mm" y2="146.800054mm" />
  <text x="93mm" y="143mm" font-size="24">
   2.0
  </text>
  <circle cx="136.500066mm" cy="410.500138mm" r="1.000138mm" fill="none"/>
  <line x1="138.500342mm" y1="410.500138mm" x2="134.499790mm" y2="410.500138mm" />
  <line x1="136.500066mm" y1="408.499862mm" x2="136.500066mm" y2="412.500414mm" />
  <text x="137mm" y="409mm" font-size="24">
   2.0
  </text>
  <circle cx="136.500066mm" cy="8.500138mm" r="1.000138mm" fill="none"/>
  <line x1="138.500342mm" y1="8.500138mm" x2="134.499790mm" y2="8.500138mm" />
  <line x1="136.500066mm" y1="6.499862mm" x2="136.500066mm" y2="10.500414mm" />
  <text x="137mm" y="7mm" font-size="24">
   2.0
  </text>
  <circle cx="171.500066mm" cy="410.500138mm" r="1.000138mm" fill="none"/>
  <line x1="173.500342mm" y1="410.500138mm" x2="169.499790mm" y2="410.500138mm" />
  <line x1="171.500066mm" y1="408.499862mm" x2="171.500066mm" y2="412.500414mm" />
  <text x="172mm" y="409mm" font-size="24">
   2.0
  </text>
  <circle cx="171.500066mm" cy="8.500138mm" r="1.000138mm" fill="none"/>
  <line x1="173.500342mm" y1="8.500138mm" x2="169.499790mm" y2="8.500138mm" />
  <line x1="171.500066mm" y1="6.499862mm" x2="171.500066mm" y2="10.500414mm" />
  <text x="172mm" y="7mm" font-size="24">
   2.0
  </text>
  <circle cx="242.489659mm" cy="22.500016mm" r="1.000019mm" fill="none"/>
  <line x1="244.489698mm" y1="22.500016mm" x2="240.489621mm" y2="22.500016mm" />
  <line x1="242.489659mm" y1="20.499978mm" x2="242.489659mm" y2="24.500054mm" />
  <text x="243mm" y="21mm" font-size="24">
   2.0
  </text>
  <circle cx="252.989659mm" cy="116.200016mm" r="1.000019mm" fill="none"/>
  <line x1="254.989698mm" y1="116.200016mm" x2="250.989621mm" y2="116.200016mm" />
  <line x1="252.989659mm" y1="114.199978mm" x2="252.989659mm" y2="118.200054mm" />
  <text x="253mm" y="115mm" font-size="24">
   2.0
  </text>
  <circle cx="260.990000mm" cy="411.499997mm" r="0.999978mm" fill="none"/>
  <line x1="262.989956mm" y1="411.499997mm" x2="258.990044mm" y2="411.499997mm" />
  <line x1="260.990000mm" y1="409.500041mm" x2="260.990000mm" y2="413.499953mm" />
  <text x="261mm" y="410mm" font-size="24">
   2.0
  </text>
  <circle cx="260.990000mm" cy="348.499997mm" r="0.999978mm" fill="none"/>
  <line x1="262.989956mm" y1="348.499997mm" x2="258.990044mm" y2="348.499997mm" />
  <line x1="260.990000mm" y1="346.500041mm" x2="260.990000mm" y2="350.499953mm" />
  <text x="261mm" y="347mm" font-size="24">
   2.0
  </text>
  <circle cx="290.990000mm" cy="411.499997mm" r="0.999978mm" fill="none"/>
  <line x1="292.989956mm" y1="411.499997mm" x2="288.990044mm" y2="411.499997mm" />
  <line x1="290.990000mm" y1="409.500041mm" x2="290.990000mm" y2="413.499953mm" />
  <text x="291mm" y="410mm" font-size="24">
   2.0
  </text>
  <circle cx="290.990000mm" cy="348.499997mm" r="0.999978mm" fill="none"/>
  <line x1="292.989956mm" y1="348.499997mm" x2="288.990044mm" y2="348.499997mm" />
  <line x1="290.990000mm" y1="346.500041mm" x2="290.990000mm" y2="350.499953mm" />
  <text x="291mm" y="347mm" font-size="24">
   2.0
  </text>
  <circle cx="295.009659mm" cy="116.200016mm" r="1.000019mm" fill="none"/>
  <line x1="297.009698mm" y1="116.200016mm" x2="293.009621mm" y2="116.200016mm" />
  <line x1="295.009659mm" y1="114.199978mm" x2="295.009659mm" y2="118.200054mm" />
  <text x="296mm" y="115mm" font-size="24">
   2.0
  </text>
  <circle cx="300.750000mm" cy="65.199997mm" r="0.999978mm" fill="none"/>
  <line x1="302.749956mm" y1="65.199997mm" x2="298.750044mm" y2="65.199997mm" />
  <line x1="300.750000mm" y1="63.200041mm" x2="300.750000mm" y2="67.199953mm" />
  <text x="301mm" y="64mm" font-size="24">
   2.0
  </text>
  <circle cx="376.500000mm" cy="347.999997mm" r="0.999978mm" fill="none"/>
  <line x1="378.499956mm" y1="347.999997mm" x2="374.500044mm" y2="347.999997mm" />
  <line x1="376.500000mm" y1="346.000041mm" x2="376.500000mm" y2="349.999953mm" />
  <text x="377mm" y="347mm" font-size="24">
   2.0
  </text>
  <circle cx="376.500000mm" cy="80.999997mm" r="0.999978mm" fill="none"/>
  <line x1="378.499956mm" y1="80.999997mm" x2="374.500044mm" y2="80.999997mm" />
  <line x1="376.500000mm" y1="79.000041mm" x2="376.500000mm" y2="82.999953mm" />
  <text x="377mm" y="80mm" font-size="24">
   2.0
  </text>
  <circle cx="411.500000mm" cy="347.999997mm" r="0.999978mm" fill="none"/>
  <line x1="413.499956mm" y1="347.999997mm" x2="409.500044mm" y2="347.999997mm" />
  <line x1="411.500000mm" y1="346.000041mm" x2="411.500000mm" y2="349.999953mm" />
  <text x="412mm" y="347mm" font-size="24">
   2.0
  </text>
  <circle cx="411.500000mm" cy="80.999997mm" r="0.999978mm" fill="none"/>
  <line x1="413.499956mm" y1="80.999997mm" x2="409.500044mm" y2="80.999997mm" />
  <line x1="411.500000mm" y1="79.000041mm" x2="411.500000mm" y2="82.999953mm" />
  <text x="412mm" y="80mm" font-size="24">
   2.0
  </text>
  <line x1="0.190000mm" y1="373.358000mm" x2="0.190000mm" y2="373.358000mm" />
  <line x1="0.190000mm" y1="373.358000mm" x2="0.000000mm" y2="369.000000mm" />
  <line x1="0.000000mm" y1="369.000000mm" x2="0.000000mm" y2="50.000000mm" />
  <line x1="0.000000mm" y1="50.000000mm" x2="0.190000mm" y2="45.642000mm" />
  <line x1="0.190000mm" y1="45.642000mm" x2="0.760000mm" y2="41.318000mm" />
  <line x1="0.760000mm" y1="41.318000mm" x2="1.704000mm" y2="37.059000mm" />
  <line x1="1.704000mm" y1="37.059000mm" x2="3.015000mm" y2="32.899000mm" />
  <line x1="3.015000mm" y1="32.899000mm" x2="4.685000mm" y2="28.869000mm" />
  <line x1="4.685000mm" y1="28.869000mm" x2="6.699000mm" y2="25.000000mm" />
  <line x1="6.699000mm" y1="25.000000mm" x2="9.042000mm" y2="21.321000mm" />
  <line x1="9.042000mm" y1="21.321000mm" x2="11.698000mm" y2="17.861000mm" />
  <line x1="11.698000mm" y1="17.861000mm" x2="14.645000mm" y2="14.645000mm" />
  <line x1="14.645000mm" y1="14.645000mm" x2="17.861000mm" y2="11.698000mm" />
  <line x1="17.861000mm" y1="11.698000mm" x2="21.321000mm" y2="9.042000mm" />
  <line x1="21.321000mm" y1="9.042000mm" x2="25.000000mm" y2="6.699000mm" />
  <line x1="25.000000mm" y1="6.699000mm" x2="28.869000mm" y2="4.685000mm" />
  <line x1="28.869000mm" y1="4.685000mm" x2="32.899000mm" y2="3.015000mm" />
  <line x1="32.899000mm" y1="3.015000mm" x2="37.059000mm" y2="1.704000mm" />
  <line x1="37.059000mm" y1="1.704000mm" x2="41.318000mm" y2="0.760000mm" />
  <line x1="41.318000mm" y1="0.760000mm" x2="45.642000mm" y2="0.190000mm" />
  <line x1="45.642000mm" y1="0.190000mm" x2="50.000000mm" y2="0.000000mm" />
  <line x1="50.000000mm" y1="0.000000mm" x2="511.500000mm" y2="0.000000mm" />
  <line x1="511.500000mm" y1="0.000000mm" x2="515.858000mm" y2="0.190000mm" />
  <line x1="515.858000mm" y1="0.190000mm" x2="520.182000mm" y2="0.760000mm" />
  <line x1="520.182000mm" y1="0.760000mm" x2="524.441000mm" y2="1.704000mm" />
  <line x1="524.441000mm" y1="1.704000mm" x2="528.601000mm" y2="3.015000mm" />
  <line x1="528.601000mm" y1="3.015000mm" x2="532.631000mm" y2="4.685000mm" />
  <line x1="532.631000mm" y1="4.685000mm" x2="536.500000mm" y2="6.699000mm" />
  <line x1="536.500000mm" y1="6.699000mm" x2="540.179000mm" y2="9.042000mm" />
  <line x1="540.179000mm" y1="9.042000mm" x2="543.639000mm" y2="11.698000mm" />
  <line x1="543.639000mm" y1="11.698000mm" x2="546.855000mm" y2="14.645000mm" />
  <line x1="546.855000mm" y1="14.645000mm" x2="549.802000mm" y2="17.861000mm" />
  <line x1="549.802000mm" y1="17.861000mm" x2="552.458000mm" y2="21.321000mm" />
  <line x1="552.458000mm" y1="21.321000mm" x2="554.801000mm" y2="25.000000mm" />
  <line x1="554.801000mm" y1="25.000000mm" x2="556.815000mm" y2="28.869000mm" />
  <line x1="556.815000mm" y1="28.869000mm" x2="558.485000mm" y2="32.899000mm" />
  <line x1="558.485000mm" y1="32.899000mm" x2="559.796000mm" y2="37.059000mm" />
  <line x1="559.796000mm" y1="37.059000mm" x2="560.740000mm" y2="41.318000mm" />
  <line x1="560.740000mm" y1="41.318000mm" x2="561.310000mm" y2="45.642000mm" />
  <line x1="561.310000mm" y1="45.642000mm" x2="561.500000mm" y2="50.000000mm" />
  <line x1="561.500000mm" y1="50.000000mm" x2="561.500000mm" y2="369.000000mm" />
  <line x1="561.500000mm" y1="369.000000mm" x2="561.310000mm" y2="373.358000mm" />
  <line x1="561.310000mm" y1="373.358000mm" x2="560.740000mm" y2="377.682000mm" />
  <line x1="560.740000mm" y1="377.682000mm" x2="559.796000mm" y2="381.941000mm" />
  <line x1="559.796000mm" y1="381.941000mm" x2="558.485000mm" y2="386.101000mm" />
  <line x1="558.485000mm" y1="386.101000mm" x2="556.815000mm" y2="390.131000mm" />
  <line x1="556.815000mm" y1="390.131000mm" x2="554.801000mm" y2="394.000000mm" />
  <line x1="554.801000mm" y1="394.000000mm" x2="552.458000mm" y2="397.679000mm" />
  <line x1="552.458000mm" y1="397.679000mm" x2="549.802000mm" y2="401.139000mm" />
  <line x1="549.802000mm" y1="401.139000mm" x2="546.855000mm" y2="404.355000mm" />
  <line x1="546.855000mm" y1="404.355000mm" x2="543.639000mm" y2="407.302000mm" />
  <line x1="543.639000mm" y1="407.302000mm" x2="540.179000mm" y2="409.958000mm" />
  <line x1="540.179000mm" y1="409.958000mm" x2="536.500000mm" y2="412.301000mm" />
  <line x1="536.500000mm" y1="412.301000mm" x2="532.631000mm" y2="414.315000mm" />
  <line x1="532.631000mm" y1="414.315000mm" x2="528.601000mm" y2="415.985000mm" />
  <line x1="528.601000mm" y1="415.985000mm" x2="524.441000mm" y2="417.296000mm" />
  <line x1="524.441000mm" y1="417.296000mm" x2="520.182000mm" y2="418.240000mm" />
  <line x1="520.182000mm" y1="418.240000mm" x2="515.858000mm" y2="418.810000mm" />
  <line x1="515.858000mm" y1="418.810000mm" x2="511.500000mm" y2="419.000000mm" />
  <line x1="511.500000mm" y1="419.000000mm" x2="50.000000mm" y2="419.000000mm" />
  <line x1="50.000000mm" y1="419.000000mm" x2="45.642000mm" y2="418.810000mm" />
  <line x1="45.642000mm" y1="418.810000mm" x2="41.318000mm" y2="418.240000mm" />
  <line x1="41.318000mm" y1="418.240000mm" x2="37.059000mm" y2="417.296000mm" />
  <line x1="37.059000mm" y1="417.296000mm" x2="32.899000mm" y2="415.985000mm" />
  <line x1="32.899000mm" y1="415.985000mm" x2="28.869000mm" y2="414.315000mm" />
  <line x1="28.869000mm" y1="414.315000mm" x2="25.000000mm" y2="412.301000mm" />
  <line x1="25.000000mm" y1="412.301000mm" x2="21.321000mm" y2="409.958000mm" />
  <line x1="21.321000mm" y1="409.958000mm" x2="17.861000mm" y2="407.302000mm" />
  <line x1="17.861000mm" y1="407.302000mm" x2="14.645000mm" y2="404.355000mm" />
  <line x1="14.645000mm" y1="404.355000mm" x2="11.698000mm" y2="401.139000mm" />
  <line x1="11.698000mm" y1="401.139000mm" x2="9.042000mm" y2="397.679000mm" />
  <line x1="9.042000mm" y1="397.679000mm" x2="6.699000mm" y2="394.000000mm" />
  <line x1="6.699000mm" y1="394.000000mm" x2="4.685000mm" y2="390.131000mm" />
  <line x1="4.685000mm" y1="390.131000mm" x2="3.015000mm" y2="386.101000mm" />
  <line x1="3.015000mm" y1="386.101000mm" x2="1.704000mm" y2="381.941000mm" />
  <line x1="1.704000mm" y1="381.941000mm" x2="0.760000mm" y2="377.682000mm" />
  <line x1="0.760000mm" y1="377.682000mm" x2="0.190000mm" y2="373.358000mm" />
  <circle cx="426.699659mm" cy="329.500016mm" r="1.000019mm" fill="none"/>
  <line x1="428.699698mm" y1="329.500016mm" x2="424.699621mm" y2="329.500016mm" />
  <line x1="426.699659mm" y1="327.499978mm" x2="426.699659mm" y2="331.500054mm" />
  <text x="427mm" y="328mm" font-size="24">
   2.0
  </text>
  <circle cx="426.699659mm" cy="141.600016mm" r="1.000019mm" fill="none"/>
  <line x1="428.699698mm" y1="141.600016mm" x2="424.699621mm" y2="141.600016mm" />
  <line x1="426.699659mm" y1="139.599978mm" x2="426.699659mm" y2="143.600054mm" />
  <text x="427mm" y="140mm" font-size="24">
   2.0
  </text>
  <circle cx="449.300066mm" cy="20.310138mm" r="1.000138mm" fill="none"/>
  <line x1="451.300342mm" y1="20.310138mm" x2="447.299790mm" y2="20.310138mm" />
  <line x1="449.300066mm" y1="18.309862mm" x2="449.300066mm" y2="22.310414mm" />
  <text x="450mm" y="19mm" font-size="24">
   2.0
  </text>
  <circle cx="484.499971mm" cy="209.499864mm" r="4.000103mm" fill="none"/>
  <line x1="492.500177mm" y1="209.499864mm" x2="476.499766mm" y2="209.499864mm" />
  <line x1="484.499971mm" y1="201.499659mm" x2="484.499971mm" y2="217.500070mm" />
  <text x="488mm" y="205mm" font-size="24">
   8.0
  </text>
  <circle cx="489.809659mm" cy="144.800016mm" r="1.000019mm" fill="none"/>
  <line x1="491.809698mm" y1="144.800016mm" x2="487.809621mm" y2="144.800016mm" />
  <line x1="489.809659mm" y1="142.799978mm" x2="489.809659mm" y2="146.800054mm" />
  <text x="490mm" y="143mm" font-size="24">
   2.0
  </text>
  <circle cx="541.189659mm" cy="144.800016mm" r="1.000019mm" fill="none"/>
  <line x1="543.189698mm" y1="144.800016mm" x2="539.189621mm" y2="144.800016mm" />
  <line x1="541.189659mm" y1="142.799978mm" x2="541.189659mm" y2="146.800054mm" />
  <text x="542mm" y="143mm" font-size="24">
   2.0
  </text>
  <circle cx="551.000000mm" cy="125.599997mm" r="0.999978mm" fill="none"/>
  <line x1="552.999956mm" y1="125.599997mm" x2="549.000044mm" y2="125.599997mm" />
  <line x1="551.000000mm" y1="123.600041mm" x2="551.000000mm" y2="127.599953mm" />
  <text x="551mm" y="124mm" font-size="24">
   2.0
  </text>
 </g>
</svg>
