  0
SECTION
  2
BLOCKS
  0
ENDSEC
  0
SECTION
  2
ENTITIES
  0
LINE
  8
0
 10
0
 11
0
 20
0
 21
155
  0
LINE
  8
0
 10
0
 11
405
 20
155
 21
155
  0
LINE
  8
0
 10
405
 11
407.179
 20
155
 21
154.905
  0
LINE
  8
0
 10
407.179
 11
409.341
 20
154.905
 21
154.62
  0
LINE
  8
0
 10
409.341
 11
411.47
 20
154.62
 21
154.148
  0
LINE
  8
0
 10
411.47
 11
413.551
 20
154.148
 21
153.492
  0
LINE
  8
0
 10
413.551
 11
415.565
 20
153.492
 21
152.658
  0
LINE
  8
0
 10
415.565
 11
417.5
 20
152.658
 21
151.651
  0
LINE
  8
0
 10
417.5
 11
419.339
 20
151.651
 21
150.479
  0
LINE
  8
0
 10
419.339
 11
421.07
 20
150.479
 21
149.151
  0
LINE
  8
0
 10
421.07
 11
422.678
 20
149.151
 21
147.678
  0
LINE
  8
0
 10
422.678
 11
424.151
 20
147.678
 21
146.07
  0
LINE
  8
0
 10
424.151
 11
425.479
 20
146.07
 21
144.339
  0
LINE
  8
0
 10
425.479
 11
426.651
 20
144.339
 21
142.5
  0
LINE
  8
0
 10
426.651
 11
427.658
 20
142.5
 21
140.565
  0
LINE
  8
0
 10
427.658
 11
428.492
 20
140.565
 21
138.551
  0
LINE
  8
0
 10
428.492
 11
429.148
 20
138.551
 21
136.47
  0
LINE
  8
0
 10
429.148
 11
429.62
 20
136.47
 21
134.341
  0
LINE
  8
0
 10
429.62
 11
429.905
 20
134.341
 21
132.179
  0
LINE
  8
0
 10
429.905
 11
430
 20
132.179
 21
130
  0
LINE
  8
0
 10
430
 11
430
 20
130
 21
0
  0
LINE
  8
0
 10
430
 11
0
 20
0
 21
0
  0
LINE
  8
0
 10
5
 11
5.048
 20
18.9
 21
19.388
  0
LINE
  8
0
 10
5.048
 11
5.19
 20
19.388
 21
19.857
  0
LINE
  8
0
 10
5.19
 11
5.421
 20
19.857
 21
20.289
  0
LINE
  8
0
 10
5.421
 11
5.732
 20
20.289
 21
20.668
  0
LINE
  8
0
 10
5.732
 11
6.111
 20
20.668
 21
20.979
  0
LINE
  8
0
 10
6.111
 11
6.543
 20
20.979
 21
21.21
  0
LINE
  8
0
 10
6.543
 11
7.012
 20
21.21
 21
21.352
  0
LINE
  8
0
 10
7.012
 11
7.5
 20
21.352
 21
21.4
  0
LINE
  8
0
 10
7.5
 11
7.988
 20
21.4
 21
21.352
  0
LINE
  8
0
 10
7.988
 11
8.457
 20
21.352
 21
21.21
  0
LINE
  8
0
 10
8.457
 11
8.889
 20
21.21
 21
20.979
  0
LINE
  8
0
 10
8.889
 11
9.268
 20
20.979
 21
20.668
  0
LINE
  8
0
 10
9.268
 11
9.579
 20
20.668
 21
20.289
  0
LINE
  8
0
 10
9.579
 11
9.81
 20
20.289
 21
19.857
  0
LINE
  8
0
 10
9.81
 11
9.952
 20
19.857
 21
19.388
  0
LINE
  8
0
 10
9.952
 11
10
 20
19.388
 21
18.9
  0
LINE
  8
0
 10
10
 11
9.952
 20
18.9
 21
18.412
  0
LINE
  8
0
 10
9.952
 11
9.81
 20
18.412
 21
17.943
  0
LINE
  8
0
 10
9.81
 11
9.579
 20
17.943
 21
17.511
  0
LINE
  8
0
 10
9.579
 11
9.268
 20
17.511
 21
17.132
  0
LINE
  8
0
 10
9.268
 11
8.889
 20
17.132
 21
16.821
  0
LINE
  8
0
 10
8.889
 11
8.457
 20
16.821
 21
16.59
  0
LINE
  8
0
 10
8.457
 11
7.988
 20
16.59
 21
16.448
  0
LINE
  8
0
 10
7.988
 11
7.5
 20
16.448
 21
16.4
  0
LINE
  8
0
 10
7.5
 11
7.012
 20
16.4
 21
16.448
  0
LINE
  8
0
 10
7.012
 11
6.543
 20
16.448
 21
16.59
  0
LINE
  8
0
 10
6.543
 11
6.111
 20
16.59
 21
16.821
  0
LINE
  8
0
 10
6.111
 11
5.732
 20
16.821
 21
17.132
  0
LINE
  8
0
 10
5.732
 11
5.421
 20
17.132
 21
17.511
  0
LINE
  8
0
 10
5.421
 11
5.19
 20
17.511
 21
17.943
  0
LINE
  8
0
 10
5.19
 11
5.048
 20
17.943
 21
18.412
  0
LINE
  8
0
 10
5.048
 11
5
 20
18.412
 21
18.9
  0
LINE
  8
0
 10
5
 11
5.048
 20
28.9
 21
29.388
  0
LINE
  8
0
 10
5.048
 11
5.19
 20
29.388
 21
29.857
  0
LINE
  8
0
 10
5.19
 11
5.421
 20
29.857
 21
30.289
  0
LINE
  8
0
 10
5.421
 11
5.732
 20
30.289
 21
30.668
  0
LINE
  8
0
 10
5.732
 11
6.111
 20
30.668
 21
30.979
  0
LINE
  8
0
 10
6.111
 11
6.543
 20
30.979
 21
31.21
  0
LINE
  8
0
 10
6.543
 11
7.012
 20
31.21
 21
31.352
  0
LINE
  8
0
 10
7.012
 11
7.5
 20
31.352
 21
31.4
  0
LINE
  8
0
 10
7.5
 11
7.988
 20
31.4
 21
31.352
  0
LINE
  8
0
 10
7.988
 11
8.457
 20
31.352
 21
31.21
  0
LINE
  8
0
 10
8.457
 11
8.889
 20
31.21
 21
30.979
  0
LINE
  8
0
 10
8.889
 11
9.268
 20
30.979
 21
30.668
  0
LINE
  8
0
 10
9.268
 11
9.579
 20
30.668
 21
30.289
  0
LINE
  8
0
 10
9.579
 11
9.81
 20
30.289
 21
29.857
  0
LINE
  8
0
 10
9.81
 11
9.952
 20
29.857
 21
29.388
  0
LINE
  8
0
 10
9.952
 11
10
 20
29.388
 21
28.9
  0
LINE
  8
0
 10
10
 11
9.952
 20
28.9
 21
28.412
  0
LINE
  8
0
 10
9.952
 11
9.81
 20
28.412
 21
27.943
  0
LINE
  8
0
 10
9.81
 11
9.579
 20
27.943
 21
27.511
  0
LINE
  8
0
 10
9.579
 11
9.268
 20
27.511
 21
27.132
  0
LINE
  8
0
 10
9.268
 11
8.889
 20
27.132
 21
26.821
  0
LINE
  8
0
 10
8.889
 11
8.457
 20
26.821
 21
26.59
  0
LINE
  8
0
 10
8.457
 11
7.988
 20
26.59
 21
26.448
  0
LINE
  8
0
 10
7.988
 11
7.5
 20
26.448
 21
26.4
  0
LINE
  8
0
 10
7.5
 11
7.012
 20
26.4
 21
26.448
  0
LINE
  8
0
 10
7.012
 11
6.543
 20
26.448
 21
26.59
  0
LINE
  8
0
 10
6.543
 11
6.111
 20
26.59
 21
26.821
  0
LINE
  8
0
 10
6.111
 11
5.732
 20
26.821
 21
27.132
  0
LINE
  8
0
 10
5.732
 11
5.421
 20
27.132
 21
27.511
  0
LINE
  8
0
 10
5.421
 11
5.19
 20
27.511
 21
27.943
  0
LINE
  8
0
 10
5.19
 11
5.048
 20
27.943
 21
28.412
  0
LINE
  8
0
 10
5.048
 11
5
 20
28.412
 21
28.9
  0
LINE
  8
0
 10
5
 11
5.058
 20
38.4
 21
38.879
  0
LINE
  8
0
 10
5.058
 11
5.229
 20
38.879
 21
39.329
  0
LINE
  8
0
 10
5.229
 11
5.503
 20
39.329
 21
39.726
  0
LINE
  8
0
 10
5.503
 11
5.864
 20
39.726
 21
40.046
  0
LINE
  8
0
 10
5.864
 11
6.291
 20
40.046
 21
40.27
  0
LINE
  8
0
 10
6.291
 11
6.759
 20
40.27
 21
40.385
  0
LINE
  8
0
 10
6.759
 11
7.241
 20
40.385
 21
40.385
  0
LINE
  8
0
 10
7.241
 11
7.709
 20
40.385
 21
40.27
  0
LINE
  8
0
 10
7.709
 11
8.136
 20
40.27
 21
40.046
  0
LINE
  8
0
 10
8.136
 11
8.497
 20
40.046
 21
39.726
  0
LINE
  8
0
 10
8.497
 11
8.771
 20
39.726
 21
39.329
  0
LINE
  8
0
 10
8.771
 11
8.942
 20
39.329
 21
38.879
  0
LINE
  8
0
 10
8.942
 11
9
 20
38.879
 21
38.4
  0
LINE
  8
0
 10
9
 11
8.942
 20
38.4
 21
37.921
  0
LINE
  8
0
 10
8.942
 11
8.771
 20
37.921
 21
37.471
  0
LINE
  8
0
 10
8.771
 11
8.497
 20
37.471
 21
37.074
  0
LINE
  8
0
 10
8.497
 11
8.136
 20
37.074
 21
36.754
  0
LINE
  8
0
 10
8.136
 11
7.709
 20
36.754
 21
36.53
  0
LINE
  8
0
 10
7.709
 11
7.241
 20
36.53
 21
36.415
  0
LINE
  8
0
 10
7.241
 11
6.759
 20
36.415
 21
36.415
  0
LINE
  8
0
 10
6.759
 11
6.291
 20
36.415
 21
36.53
  0
LINE
  8
0
 10
6.291
 11
5.864
 20
36.53
 21
36.754
  0
LINE
  8
0
 10
5.864
 11
5.503
 20
36.754
 21
37.074
  0
LINE
  8
0
 10
5.503
 11
5.229
 20
37.074
 21
37.471
  0
LINE
  8
0
 10
5.229
 11
5.058
 20
37.471
 21
37.921
  0
LINE
  8
0
 10
5.058
 11
5
 20
37.921
 21
38.4
  0
LINE
  8
0
 10
5
 11
5.058
 20
100.38
 21
100.859
  0
LINE
  8
0
 10
5.058
 11
5.229
 20
100.859
 21
101.309
  0
LINE
  8
0
 10
5.229
 11
5.503
 20
101.309
 21
101.706
  0
LINE
  8
0
 10
5.503
 11
5.864
 20
101.706
 21
102.026
  0
LINE
  8
0
 10
5.864
 11
6.291
 20
102.026
 21
102.25
  0
LINE
  8
0
 10
6.291
 11
6.759
 20
102.25
 21
102.365
  0
LINE
  8
0
 10
6.759
 11
7.241
 20
102.365
 21
102.365
  0
LINE
  8
0
 10
7.241
 11
7.709
 20
102.365
 21
102.25
  0
LINE
  8
0
 10
7.709
 11
8.136
 20
102.25
 21
102.026
  0
LINE
  8
0
 10
8.136
 11
8.497
 20
102.026
 21
101.706
  0
LINE
  8
0
 10
8.497
 11
8.771
 20
101.706
 21
101.309
  0
LINE
  8
0
 10
8.771
 11
8.942
 20
101.309
 21
100.859
  0
LINE
  8
0
 10
8.942
 11
9
 20
100.859
 21
100.38
  0
LINE
  8
0
 10
9
 11
8.942
 20
100.38
 21
99.901
  0
LINE
  8
0
 10
8.942
 11
8.771
 20
99.901
 21
99.451
  0
LINE
  8
0
 10
8.771
 11
8.497
 20
99.451
 21
99.054
  0
LINE
  8
0
 10
8.497
 11
8.136
 20
99.054
 21
98.734
  0
LINE
  8
0
 10
8.136
 11
7.709
 20
98.734
 21
98.51
  0
LINE
  8
0
 10
7.709
 11
7.241
 20
98.51
 21
98.395
  0
LINE
  8
0
 10
7.241
 11
6.759
 20
98.395
 21
98.395
  0
LINE
  8
0
 10
6.759
 11
6.291
 20
98.395
 21
98.51
  0
LINE
  8
0
 10
6.291
 11
5.864
 20
98.51
 21
98.734
  0
LINE
  8
0
 10
5.864
 11
5.503
 20
98.734
 21
99.054
  0
LINE
  8
0
 10
5.503
 11
5.229
 20
99.054
 21
99.451
  0
LINE
  8
0
 10
5.229
 11
5.058
 20
99.451
 21
99.901
  0
LINE
  8
0
 10
5.058
 11
5
 20
99.901
 21
100.38
  0
LINE
  8
0
 10
5
 11
5.036
 20
110.88
 21
111.378
  0
LINE
  8
0
 10
5.036
 11
5.142
 20
111.378
 21
111.866
  0
LINE
  8
0
 10
5.142
 11
5.316
 20
111.866
 21
112.334
  0
LINE
  8
0
 10
5.316
 11
5.556
 20
112.334
 21
112.772
  0
LINE
  8
0
 10
5.556
 11
5.855
 20
112.772
 21
113.172
  0
LINE
  8
0
 10
5.855
 11
6.208
 20
113.172
 21
113.525
  0
LINE
  8
0
 10
6.208
 11
6.608
 20
113.525
 21
113.824
  0
LINE
  8
0
 10
6.608
 11
7.046
 20
113.824
 21
114.064
  0
LINE
  8
0
 10
7.046
 11
7.514
 20
114.064
 21
114.238
  0
LINE
  8
0
 10
7.514
 11
8.002
 20
114.238
 21
114.344
  0
LINE
  8
0
 10
8.002
 11
8.5
 20
114.344
 21
114.38
  0
LINE
  8
0
 10
8.5
 11
8.998
 20
114.38
 21
114.344
  0
LINE
  8
0
 10
8.998
 11
9.486
 20
114.344
 21
114.238
  0
LINE
  8
0
 10
9.486
 11
9.954
 20
114.238
 21
114.064
  0
LINE
  8
0
 10
9.954
 11
10.392
 20
114.064
 21
113.824
  0
LINE
  8
0
 10
10.392
 11
10.792
 20
113.824
 21
113.525
  0
LINE
  8
0
 10
10.792
 11
11.145
 20
113.525
 21
113.172
  0
LINE
  8
0
 10
11.145
 11
11.444
 20
113.172
 21
112.772
  0
LINE
  8
0
 10
11.444
 11
11.684
 20
112.772
 21
112.334
  0
LINE
  8
0
 10
11.684
 11
11.858
 20
112.334
 21
111.866
  0
LINE
  8
0
 10
11.858
 11
11.964
 20
111.866
 21
111.378
  0
LINE
  8
0
 10
11.964
 11
12
 20
111.378
 21
110.88
  0
LINE
  8
0
 10
12
 11
11.964
 20
110.88
 21
110.382
  0
LINE
  8
0
 10
11.964
 11
11.858
 20
110.382
 21
109.894
  0
LINE
  8
0
 10
11.858
 11
11.684
 20
109.894
 21
109.426
  0
LINE
  8
0
 10
11.684
 11
11.444
 20
109.426
 21
108.988
  0
LINE
  8
0
 10
11.444
 11
11.145
 20
108.988
 21
108.588
  0
LINE
  8
0
 10
11.145
 11
10.792
 20
108.588
 21
108.235
  0
LINE
  8
0
 10
10.792
 11
10.392
 20
108.235
 21
107.936
  0
LINE
  8
0
 10
10.392
 11
9.954
 20
107.936
 21
107.696
  0
LINE
  8
0
 10
9.954
 11
9.486
 20
107.696
 21
107.522
  0
LINE
  8
0
 10
9.486
 11
8.998
 20
107.522
 21
107.416
  0
LINE
  8
0
 10
8.998
 11
8.5
 20
107.416
 21
107.38
  0
LINE
  8
0
 10
8.5
 11
8.002
 20
107.38
 21
107.416
  0
LINE
  8
0
 10
8.002
 11
7.514
 20
107.416
 21
107.522
  0
LINE
  8
0
 10
7.514
 11
7.046
 20
107.522
 21
107.696
  0
LINE
  8
0
 10
7.046
 11
6.608
 20
107.696
 21
107.936
  0
LINE
  8
0
 10
6.608
 11
6.208
 20
107.936
 21
108.235
  0
LINE
  8
0
 10
6.208
 11
5.855
 20
108.235
 21
108.588
  0
LINE
  8
0
 10
5.855
 11
5.556
 20
108.588
 21
108.988
  0
LINE
  8
0
 10
5.556
 11
5.316
 20
108.988
 21
109.426
  0
LINE
  8
0
 10
5.316
 11
5.142
 20
109.426
 21
109.894
  0
LINE
  8
0
 10
5.142
 11
5.036
 20
109.894
 21
110.382
  0
LINE
  8
0
 10
5.036
 11
5
 20
110.382
 21
110.88
  0
LINE
  8
0
 10
7.207
 11
7.265
 20
123.959
 21
124.435
  0
LINE
  8
0
 10
7.265
 11
7.537
 20
124.435
 21
124.829
  0
LINE
  8
0
 10
7.537
 11
7.961
 20
124.829
 21
125.051
  0
LINE
  8
0
 10
7.961
 11
8.439
 20
125.051
 21
125.051
  0
LINE
  8
0
 10
8.439
 11
8.863
 20
125.051
 21
124.829
  0
LINE
  8
0
 10
8.863
 11
9.135
 20
124.829
 21
124.435
  0
LINE
  8
0
 10
9.135
 11
9.193
 20
124.435
 21
123.959
  0
LINE
  8
0
 10
9.193
 11
9.023
 20
123.959
 21
123.512
  0
LINE
  8
0
 10
9.023
 11
8.665
 20
123.512
 21
123.195
  0
LINE
  8
0
 10
8.665
 11
8.2
 20
123.195
 21
123.08
  0
LINE
  8
0
 10
8.2
 11
7.735
 20
123.08
 21
123.195
  0
LINE
  8
0
 10
7.735
 11
7.377
 20
123.195
 21
123.512
  0
LINE
  8
0
 10
7.377
 11
7.207
 20
123.512
 21
123.959
  0
LINE
  8
0
 10
7.207
 11
7.265
 20
145.179
 21
145.655
  0
LINE
  8
0
 10
7.265
 11
7.537
 20
145.655
 21
146.049
  0
LINE
  8
0
 10
7.537
 11
7.961
 20
146.049
 21
146.271
  0
LINE
  8
0
 10
7.961
 11
8.439
 20
146.271
 21
146.271
  0
LINE
  8
0
 10
8.439
 11
8.863
 20
146.271
 21
146.049
  0
LINE
  8
0
 10
8.863
 11
9.135
 20
146.049
 21
145.655
  0
LINE
  8
0
 10
9.135
 11
9.193
 20
145.655
 21
145.179
  0
LINE
  8
0
 10
9.193
 11
9.023
 20
145.179
 21
144.732
  0
LINE
  8
0
 10
9.023
 11
8.665
 20
144.732
 21
144.415
  0
LINE
  8
0
 10
8.665
 11
8.2
 20
144.415
 21
144.3
  0
LINE
  8
0
 10
8.2
 11
7.735
 20
144.3
 21
144.415
  0
LINE
  8
0
 10
7.735
 11
7.377
 20
144.415
 21
144.732
  0
LINE
  8
0
 10
7.377
 11
7.207
 20
144.732
 21
145.179
  0
LINE
  8
0
 10
12.56
 11
12.655
 20
58.01
 21
58.488
  0
LINE
  8
0
 10
12.655
 11
12.926
 20
58.488
 21
58.894
  0
LINE
  8
0
 10
12.926
 11
13.332
 20
58.894
 21
59.165
  0
LINE
  8
0
 10
13.332
 11
13.81
 20
59.165
 21
59.26
  0
LINE
  8
0
 10
13.81
 11
14.288
 20
59.26
 21
59.165
  0
LINE
  8
0
 10
14.288
 11
14.694
 20
59.165
 21
58.894
  0
LINE
  8
0
 10
14.694
 11
14.965
 20
58.894
 21
58.488
  0
LINE
  8
0
 10
14.965
 11
15.06
 20
58.488
 21
58.01
  0
LINE
  8
0
 10
15.06
 11
14.965
 20
58.01
 21
57.532
  0
LINE
  8
0
 10
14.965
 11
14.694
 20
57.532
 21
57.126
  0
LINE
  8
0
 10
14.694
 11
14.288
 20
57.126
 21
56.855
  0
LINE
  8
0
 10
14.288
 11
13.81
 20
56.855
 21
56.76
  0
LINE
  8
0
 10
13.81
 11
13.332
 20
56.76
 21
56.855
  0
LINE
  8
0
 10
13.332
 11
12.926
 20
56.855
 21
57.126
  0
LINE
  8
0
 10
12.926
 11
12.655
 20
57.126
 21
57.532
  0
LINE
  8
0
 10
12.655
 11
12.56
 20
57.532
 21
58.01
  0
LINE
  8
0
 10
12.56
 11
12.655
 20
101.19
 21
101.668
  0
LINE
  8
0
 10
12.655
 11
12.926
 20
101.668
 21
102.074
  0
LINE
  8
0
 10
12.926
 11
13.332
 20
102.074
 21
102.345
  0
LINE
  8
0
 10
13.332
 11
13.81
 20
102.345
 21
102.44
  0
LINE
  8
0
 10
13.81
 11
14.288
 20
102.44
 21
102.345
  0
LINE
  8
0
 10
14.288
 11
14.694
 20
102.345
 21
102.074
  0
LINE
  8
0
 10
14.694
 11
14.965
 20
102.074
 21
101.668
  0
LINE
  8
0
 10
14.965
 11
15.06
 20
101.668
 21
101.19
  0
LINE
  8
0
 10
15.06
 11
14.965
 20
101.19
 21
100.712
  0
LINE
  8
0
 10
14.965
 11
14.694
 20
100.712
 21
100.306
  0
LINE
  8
0
 10
14.694
 11
14.288
 20
100.306
 21
100.035
  0
LINE
  8
0
 10
14.288
 11
13.81
 20
100.035
 21
99.94
  0
LINE
  8
0
 10
13.81
 11
13.332
 20
99.94
 21
100.035
  0
LINE
  8
0
 10
13.332
 11
12.926
 20
100.035
 21
100.306
  0
LINE
  8
0
 10
12.926
 11
12.655
 20
100.306
 21
100.712
  0
LINE
  8
0
 10
12.655
 11
12.56
 20
100.712
 21
101.19
  0
LINE
  8
0
 10
25.129
 11
25.129
 20
7.961
 21
8.439
  0
LINE
  8
0
 10
25.129
 11
25.351
 20
8.439
 21
8.863
  0
LINE
  8
0
 10
25.351
 11
25.745
 20
8.863
 21
9.135
  0
LINE
  8
0
 10
25.745
 11
26.221
 20
9.135
 21
9.193
  0
LINE
  8
0
 10
26.221
 11
26.668
 20
9.193
 21
9.023
  0
LINE
  8
0
 10
26.668
 11
26.985
 20
9.023
 21
8.665
  0
LINE
  8
0
 10
26.985
 11
27.1
 20
8.665
 21
8.2
  0
LINE
  8
0
 10
27.1
 11
26.985
 20
8.2
 21
7.735
  0
LINE
  8
0
 10
26.985
 11
26.668
 20
7.735
 21
7.377
  0
LINE
  8
0
 10
26.668
 11
26.221
 20
7.377
 21
7.207
  0
LINE
  8
0
 10
26.221
 11
25.745
 20
7.207
 21
7.265
  0
LINE
  8
0
 10
25.745
 11
25.351
 20
7.265
 21
7.537
  0
LINE
  8
0
 10
25.351
 11
25.129
 20
7.537
 21
7.961
  0
LINE
  8
0
 10
46.349
 11
46.349
 20
7.961
 21
8.439
  0
LINE
  8
0
 10
46.349
 11
46.571
 20
8.439
 21
8.863
  0
LINE
  8
0
 10
46.571
 11
46.965
 20
8.863
 21
9.135
  0
LINE
  8
0
 10
46.965
 11
47.441
 20
9.135
 21
9.193
  0
LINE
  8
0
 10
47.441
 11
47.888
 20
9.193
 21
9.023
  0
LINE
  8
0
 10
47.888
 11
48.205
 20
9.023
 21
8.665
  0
LINE
  8
0
 10
48.205
 11
48.32
 20
8.665
 21
8.2
  0
LINE
  8
0
 10
48.32
 11
48.205
 20
8.2
 21
7.735
  0
LINE
  8
0
 10
48.205
 11
47.888
 20
7.735
 21
7.377
  0
LINE
  8
0
 10
47.888
 11
47.441
 20
7.377
 21
7.207
  0
LINE
  8
0
 10
47.441
 11
46.965
 20
7.207
 21
7.265
  0
LINE
  8
0
 10
46.965
 11
46.571
 20
7.265
 21
7.537
  0
LINE
  8
0
 10
46.571
 11
46.349
 20
7.537
 21
7.961
  0
LINE
  8
0
 10
106.54
 11
106.635
 20
58.01
 21
58.488
  0
LINE
  8
0
 10
106.635
 11
106.906
 20
58.488
 21
58.894
  0
LINE
  8
0
 10
106.906
 11
107.312
 20
58.894
 21
59.165
  0
LINE
  8
0
 10
107.312
 11
107.79
 20
59.165
 21
59.26
  0
LINE
  8
0
 10
107.79
 11
108.268
 20
59.26
 21
59.165
  0
LINE
  8
0
 10
108.268
 11
108.674
 20
59.165
 21
58.894
  0
LINE
  8
0
 10
108.674
 11
108.945
 20
58.894
 21
58.488
  0
LINE
  8
0
 10
108.945
 11
109.04
 20
58.488
 21
58.01
  0
LINE
  8
0
 10
109.04
 11
108.945
 20
58.01
 21
57.532
  0
LINE
  8
0
 10
108.945
 11
108.674
 20
57.532
 21
57.126
  0
LINE
  8
0
 10
108.674
 11
108.268
 20
57.126
 21
56.855
  0
LINE
  8
0
 10
108.268
 11
107.79
 20
56.855
 21
56.76
  0
LINE
  8
0
 10
107.79
 11
107.312
 20
56.76
 21
56.855
  0
LINE
  8
0
 10
107.312
 11
106.906
 20
56.855
 21
57.126
  0
LINE
  8
0
 10
106.906
 11
106.635
 20
57.126
 21
57.532
  0
LINE
  8
0
 10
106.635
 11
106.54
 20
57.532
 21
58.01
  0
LINE
  8
0
 10
106.54
 11
106.635
 20
101.19
 21
101.668
  0
LINE
  8
0
 10
106.635
 11
106.906
 20
101.668
 21
102.074
  0
LINE
  8
0
 10
106.906
 11
107.312
 20
102.074
 21
102.345
  0
LINE
  8
0
 10
107.312
 11
107.79
 20
102.345
 21
102.44
  0
LINE
  8
0
 10
107.79
 11
108.268
 20
102.44
 21
102.345
  0
LINE
  8
0
 10
108.268
 11
108.674
 20
102.345
 21
102.074
  0
LINE
  8
0
 10
108.674
 11
108.945
 20
102.074
 21
101.668
  0
LINE
  8
0
 10
108.945
 11
109.04
 20
101.668
 21
101.19
  0
LINE
  8
0
 10
109.04
 11
108.945
 20
101.19
 21
100.712
  0
LINE
  8
0
 10
108.945
 11
108.674
 20
100.712
 21
100.306
  0
LINE
  8
0
 10
108.674
 11
108.268
 20
100.306
 21
100.035
  0
LINE
  8
0
 10
108.268
 11
107.79
 20
100.035
 21
99.94
  0
LINE
  8
0
 10
107.79
 11
107.312
 20
99.94
 21
100.035
  0
LINE
  8
0
 10
107.312
 11
106.906
 20
100.035
 21
100.306
  0
LINE
  8
0
 10
106.906
 11
106.635
 20
100.306
 21
100.712
  0
LINE
  8
0
 10
106.635
 11
106.54
 20
100.712
 21
101.19
  0
LINE
  8
0
 10
288.368
 11
288.368
 20
25.154
 21
25.646
  0
LINE
  8
0
 10
288.368
 11
288.513
 20
25.646
 21
26.116
  0
LINE
  8
0
 10
288.513
 11
288.79
 20
26.116
 21
26.522
  0
LINE
  8
0
 10
288.79
 11
289.175
 20
26.522
 21
26.829
  0
LINE
  8
0
 10
289.175
 11
289.633
 20
26.829
 21
27.009
  0
LINE
  8
0
 10
289.633
 11
290.123
 20
27.009
 21
27.045
  0
LINE
  8
0
 10
290.123
 11
290.603
 20
27.045
 21
26.936
  0
LINE
  8
0
 10
290.603
 11
291.029
 20
26.936
 21
26.69
  0
LINE
  8
0
 10
291.029
 11
291.363
 20
26.69
 21
26.329
  0
LINE
  8
0
 10
291.363
 11
291.577
 20
26.329
 21
25.886
  0
LINE
  8
0
 10
291.577
 11
291.65
 20
25.886
 21
25.4
  0
LINE
  8
0
 10
291.65
 11
291.577
 20
25.4
 21
24.914
  0
LINE
  8
0
 10
291.577
 11
291.363
 20
24.914
 21
24.471
  0
LINE
  8
0
 10
291.363
 11
291.029
 20
24.471
 21
24.11
  0
LINE
  8
0
 10
291.029
 11
290.603
 20
24.11
 21
23.864
  0
LINE
  8
0
 10
290.603
 11
290.123
 20
23.864
 21
23.755
  0
LINE
  8
0
 10
290.123
 11
289.633
 20
23.755
 21
23.791
  0
LINE
  8
0
 10
289.633
 11
289.175
 20
23.791
 21
23.971
  0
LINE
  8
0
 10
289.175
 11
288.79
 20
23.971
 21
24.278
  0
LINE
  8
0
 10
288.79
 11
288.513
 20
24.278
 21
24.684
  0
LINE
  8
0
 10
288.513
 11
288.368
 20
24.684
 21
25.154
  0
LINE
  8
0
 10
288.368
 11
288.368
 20
109.154
 21
109.646
  0
LINE
  8
0
 10
288.368
 11
288.513
 20
109.646
 21
110.116
  0
LINE
  8
0
 10
288.513
 11
288.79
 20
110.116
 21
110.522
  0
LINE
  8
0
 10
288.79
 11
289.175
 20
110.522
 21
110.829
  0
LINE
  8
0
 10
289.175
 11
289.633
 20
110.829
 21
111.009
  0
LINE
  8
0
 10
289.633
 11
290.123
 20
111.009
 21
111.045
  0
LINE
  8
0
 10
290.123
 11
290.603
 20
111.045
 21
110.936
  0
LINE
  8
0
 10
290.603
 11
291.029
 20
110.936
 21
110.69
  0
LINE
  8
0
 10
291.029
 11
291.363
 20
110.69
 21
110.329
  0
LINE
  8
0
 10
291.363
 11
291.577
 20
110.329
 21
109.886
  0
LINE
  8
0
 10
291.577
 11
291.65
 20
109.886
 21
109.4
  0
LINE
  8
0
 10
291.65
 11
291.577
 20
109.4
 21
108.914
  0
LINE
  8
0
 10
291.577
 11
291.363
 20
108.914
 21
108.471
  0
LINE
  8
0
 10
291.363
 11
291.029
 20
108.471
 21
108.11
  0
LINE
  8
0
 10
291.029
 11
290.603
 20
108.11
 21
107.864
  0
LINE
  8
0
 10
290.603
 11
290.123
 20
107.864
 21
107.755
  0
LINE
  8
0
 10
290.123
 11
289.633
 20
107.755
 21
107.791
  0
LINE
  8
0
 10
289.633
 11
289.175
 20
107.791
 21
107.971
  0
LINE
  8
0
 10
289.175
 11
288.79
 20
107.971
 21
108.278
  0
LINE
  8
0
 10
288.79
 11
288.513
 20
108.278
 21
108.684
  0
LINE
  8
0
 10
288.513
 11
288.368
 20
108.684
 21
109.154
  0
LINE
  8
0
 10
355.08
 11
355.121
 20
8
 21
8.494
  0
LINE
  8
0
 10
355.121
 11
355.243
 20
8.494
 21
8.974
  0
LINE
  8
0
 10
355.243
 11
355.442
 20
8.974
 21
9.428
  0
LINE
  8
0
 10
355.442
 11
355.713
 20
9.428
 21
9.843
  0
LINE
  8
0
 10
355.713
 11
356.048
 20
9.843
 21
10.207
  0
LINE
  8
0
 10
356.048
 11
356.439
 20
10.207
 21
10.511
  0
LINE
  8
0
 10
356.439
 11
356.875
 20
10.511
 21
10.747
  0
LINE
  8
0
 10
356.875
 11
357.344
 20
10.747
 21
10.908
  0
LINE
  8
0
 10
357.344
 11
357.832
 20
10.908
 21
10.99
  0
LINE
  8
0
 10
357.832
 11
358.328
 20
10.99
 21
10.99
  0
LINE
  8
0
 10
358.328
 11
358.816
 20
10.99
 21
10.908
  0
LINE
  8
0
 10
358.816
 11
359.285
 20
10.908
 21
10.747
  0
LINE
  8
0
 10
359.285
 11
359.721
 20
10.747
 21
10.511
  0
LINE
  8
0
 10
359.721
 11
360.112
 20
10.511
 21
10.207
  0
LINE
  8
0
 10
360.112
 11
360.447
 20
10.207
 21
9.843
  0
LINE
  8
0
 10
360.447
 11
360.718
 20
9.843
 21
9.428
  0
LINE
  8
0
 10
360.718
 11
360.917
 20
9.428
 21
8.974
  0
LINE
  8
0
 10
360.917
 11
361.039
 20
8.974
 21
8.494
  0
LINE
  8
0
 10
361.039
 11
361.08
 20
8.494
 21
8
  0
LINE
  8
0
 10
361.08
 11
361.039
 20
8
 21
7.506
  0
LINE
  8
0
 10
361.039
 11
360.917
 20
7.506
 21
7.026
  0
LINE
  8
0
 10
360.917
 11
360.718
 20
7.026
 21
6.572
  0
LINE
  8
0
 10
360.718
 11
360.447
 20
6.572
 21
6.157
  0
LINE
  8
0
 10
360.447
 11
360.112
 20
6.157
 21
5.793
  0
LINE
  8
0
 10
360.112
 11
359.721
 20
5.793
 21
5.489
  0
LINE
  8
0
 10
359.721
 11
359.285
 20
5.489
 21
5.253
  0
LINE
  8
0
 10
359.285
 11
358.816
 20
5.253
 21
5.092
  0
LINE
  8
0
 10
358.816
 11
358.328
 20
5.092
 21
5.01
  0
LINE
  8
0
 10
358.328
 11
357.832
 20
5.01
 21
5.01
  0
LINE
  8
0
 10
357.832
 11
357.344
 20
5.01
 21
5.092
  0
LINE
  8
0
 10
357.344
 11
356.875
 20
5.092
 21
5.253
  0
LINE
  8
0
 10
356.875
 11
356.439
 20
5.253
 21
5.489
  0
LINE
  8
0
 10
356.439
 11
356.048
 20
5.489
 21
5.793
  0
LINE
  8
0
 10
356.048
 11
355.713
 20
5.793
 21
6.157
  0
LINE
  8
0
 10
355.713
 11
355.442
 20
6.157
 21
6.572
  0
LINE
  8
0
 10
355.442
 11
355.243
 20
6.572
 21
7.026
  0
LINE
  8
0
 10
355.243
 11
355.121
 20
7.026
 21
7.506
  0
LINE
  8
0
 10
355.121
 11
355.08
 20
7.506
 21
8
  0
LINE
  8
0
 10
367.58
 11
367.638
 20
7
 21
7.479
  0
LINE
  8
0
 10
367.638
 11
367.809
 20
7.479
 21
7.929
  0
LINE
  8
0
 10
367.809
 11
368.083
 20
7.929
 21
8.326
  0
LINE
  8
0
 10
368.083
 11
368.444
 20
8.326
 21
8.646
  0
LINE
  8
0
 10
368.444
 11
368.871
 20
8.646
 21
8.87
  0
LINE
  8
0
 10
368.871
 11
369.339
 20
8.87
 21
8.985
  0
LINE
  8
0
 10
369.339
 11
369.821
 20
8.985
 21
8.985
  0
LINE
  8
0
 10
369.821
 11
370.289
 20
8.985
 21
8.87
  0
LINE
  8
0
 10
370.289
 11
370.716
 20
8.87
 21
8.646
  0
LINE
  8
0
 10
370.716
 11
371.077
 20
8.646
 21
8.326
  0
LINE
  8
0
 10
371.077
 11
371.351
 20
8.326
 21
7.929
  0
LINE
  8
0
 10
371.351
 11
371.522
 20
7.929
 21
7.479
  0
LINE
  8
0
 10
371.522
 11
371.58
 20
7.479
 21
7
  0
LINE
  8
0
 10
371.58
 11
371.522
 20
7
 21
6.521
  0
LINE
  8
0
 10
371.522
 11
371.351
 20
6.521
 21
6.071
  0
LINE
  8
0
 10
371.351
 11
371.077
 20
6.071
 21
5.674
  0
LINE
  8
0
 10
371.077
 11
370.716
 20
5.674
 21
5.354
  0
LINE
  8
0
 10
370.716
 11
370.289
 20
5.354
 21
5.13
  0
LINE
  8
0
 10
370.289
 11
369.821
 20
5.13
 21
5.015
  0
LINE
  8
0
 10
369.821
 11
369.339
 20
5.015
 21
5.015
  0
LINE
  8
0
 10
369.339
 11
368.871
 20
5.015
 21
5.13
  0
LINE
  8
0
 10
368.871
 11
368.444
 20
5.13
 21
5.354
  0
LINE
  8
0
 10
368.444
 11
368.083
 20
5.354
 21
5.674
  0
LINE
  8
0
 10
368.083
 11
367.809
 20
5.674
 21
6.071
  0
LINE
  8
0
 10
367.809
 11
367.638
 20
6.071
 21
6.521
  0
LINE
  8
0
 10
367.638
 11
367.58
 20
6.521
 21
7
  0
LINE
  8
0
 10
381.709
 11
381.709
 20
7.961
 21
8.439
  0
LINE
  8
0
 10
381.709
 11
381.931
 20
8.439
 21
8.863
  0
LINE
  8
0
 10
381.931
 11
382.325
 20
8.863
 21
9.135
  0
LINE
  8
0
 10
382.325
 11
382.801
 20
9.135
 21
9.193
  0
LINE
  8
0
 10
382.801
 11
383.248
 20
9.193
 21
9.023
  0
LINE
  8
0
 10
383.248
 11
383.565
 20
9.023
 21
8.665
  0
LINE
  8
0
 10
383.565
 11
383.68
 20
8.665
 21
8.2
  0
LINE
  8
0
 10
383.68
 11
383.565
 20
8.2
 21
7.735
  0
LINE
  8
0
 10
383.565
 11
383.248
 20
7.735
 21
7.377
  0
LINE
  8
0
 10
383.248
 11
382.801
 20
7.377
 21
7.207
  0
LINE
  8
0
 10
382.801
 11
382.325
 20
7.207
 21
7.265
  0
LINE
  8
0
 10
382.325
 11
381.931
 20
7.265
 21
7.537
  0
LINE
  8
0
 10
381.931
 11
381.709
 20
7.537
 21
7.961
  0
LINE
  8
0
 10
402.929
 11
402.929
 20
7.961
 21
8.439
  0
LINE
  8
0
 10
402.929
 11
403.151
 20
8.439
 21
8.863
  0
LINE
  8
0
 10
403.151
 11
403.545
 20
8.863
 21
9.135
  0
LINE
  8
0
 10
403.545
 11
404.021
 20
9.135
 21
9.193
  0
LINE
  8
0
 10
404.021
 11
404.468
 20
9.193
 21
9.023
  0
LINE
  8
0
 10
404.468
 11
404.785
 20
9.023
 21
8.665
  0
LINE
  8
0
 10
404.785
 11
404.9
 20
8.665
 21
8.2
  0
LINE
  8
0
 10
404.9
 11
404.785
 20
8.2
 21
7.735
  0
LINE
  8
0
 10
404.785
 11
404.468
 20
7.735
 21
7.377
  0
LINE
  8
0
 10
404.468
 11
404.021
 20
7.377
 21
7.207
  0
LINE
  8
0
 10
404.021
 11
403.545
 20
7.207
 21
7.265
  0
LINE
  8
0
 10
403.545
 11
403.151
 20
7.265
 21
7.537
  0
LINE
  8
0
 10
403.151
 11
402.929
 20
7.537
 21
7.961
  0
LINE
  8
0
 10
414.368
 11
414.368
 20
25.154
 21
25.646
  0
LINE
  8
0
 10
414.368
 11
414.513
 20
25.646
 21
26.116
  0
LINE
  8
0
 10
414.513
 11
414.79
 20
26.116
 21
26.522
  0
LINE
  8
0
 10
414.79
 11
415.175
 20
26.522
 21
26.829
  0
LINE
  8
0
 10
415.175
 11
415.633
 20
26.829
 21
27.009
  0
LINE
  8
0
 10
415.633
 11
416.123
 20
27.009
 21
27.045
  0
LINE
  8
0
 10
416.123
 11
416.603
 20
27.045
 21
26.936
  0
LINE
  8
0
 10
416.603
 11
417.029
 20
26.936
 21
26.69
  0
LINE
  8
0
 10
417.029
 11
417.363
 20
26.69
 21
26.329
  0
LINE
  8
0
 10
417.363
 11
417.577
 20
26.329
 21
25.886
  0
LINE
  8
0
 10
417.577
 11
417.65
 20
25.886
 21
25.4
  0
LINE
  8
0
 10
417.65
 11
417.577
 20
25.4
 21
24.914
  0
LINE
  8
0
 10
417.577
 11
417.363
 20
24.914
 21
24.471
  0
LINE
  8
0
 10
417.363
 11
417.029
 20
24.471
 21
24.11
  0
LINE
  8
0
 10
417.029
 11
416.603
 20
24.11
 21
23.864
  0
LINE
  8
0
 10
416.603
 11
416.123
 20
23.864
 21
23.755
  0
LINE
  8
0
 10
416.123
 11
415.633
 20
23.755
 21
23.791
  0
LINE
  8
0
 10
415.633
 11
415.175
 20
23.791
 21
23.971
  0
LINE
  8
0
 10
415.175
 11
414.79
 20
23.971
 21
24.278
  0
LINE
  8
0
 10
414.79
 11
414.513
 20
24.278
 21
24.684
  0
LINE
  8
0
 10
414.513
 11
414.368
 20
24.684
 21
25.154
  0
LINE
  8
0
 10
414.368
 11
414.368
 20
109.154
 21
109.646
  0
LINE
  8
0
 10
414.368
 11
414.513
 20
109.646
 21
110.116
  0
LINE
  8
0
 10
414.513
 11
414.79
 20
110.116
 21
110.522
  0
LINE
  8
0
 10
414.79
 11
415.175
 20
110.522
 21
110.829
  0
LINE
  8
0
 10
415.175
 11
415.633
 20
110.829
 21
111.009
  0
LINE
  8
0
 10
415.633
 11
416.123
 20
111.009
 21
111.045
  0
LINE
  8
0
 10
416.123
 11
416.603
 20
111.045
 21
110.936
  0
LINE
  8
0
 10
416.603
 11
417.029
 20
110.936
 21
110.69
  0
LINE
  8
0
 10
417.029
 11
417.363
 20
110.69
 21
110.329
  0
LINE
  8
0
 10
417.363
 11
417.577
 20
110.329
 21
109.886
  0
LINE
  8
0
 10
417.577
 11
417.65
 20
109.886
 21
109.4
  0
LINE
  8
0
 10
417.65
 11
417.577
 20
109.4
 21
108.914
  0
LINE
  8
0
 10
417.577
 11
417.363
 20
108.914
 21
108.471
  0
LINE
  8
0
 10
417.363
 11
417.029
 20
108.471
 21
108.11
  0
LINE
  8
0
 10
417.029
 11
416.603
 20
108.11
 21
107.864
  0
LINE
  8
0
 10
416.603
 11
416.123
 20
107.864
 21
107.755
  0
LINE
  8
0
 10
416.123
 11
415.633
 20
107.755
 21
107.791
  0
LINE
  8
0
 10
415.633
 11
415.175
 20
107.791
 21
107.971
  0
LINE
  8
0
 10
415.175
 11
414.79
 20
107.971
 21
108.278
  0
LINE
  8
0
 10
414.79
 11
414.513
 20
108.278
 21
108.684
  0
LINE
  8
0
 10
414.513
 11
414.368
 20
108.684
 21
109.154
  0
ENDSEC
  0
SECTION
  2
OBJECTS
  0
DICTIONARY
  0
ENDSEC
  0
EOF
