<?xml version="1.0"?>
<svg xmlns="http://www.w3.org/2000/svg" version="1.1" height="165mm" width="440mm" >
 <g style="fill-opacity:1.0; stroke:black; stroke-width:1;">
  <line x1="430.000000mm" y1="155.000000mm" x2="430.000000mm" y2="155.000000mm" />
  <line x1="430.000000mm" y1="155.000000mm" x2="0.000000mm" y2="155.000000mm" />
  <line x1="0.000000mm" y1="155.000000mm" x2="0.000000mm" y2="0.000000mm" />
  <line x1="0.000000mm" y1="0.000000mm" x2="405.000000mm" y2="0.000000mm" />
  <line x1="405.000000mm" y1="0.000000mm" x2="407.179000mm" y2="0.095000mm" />
  <line x1="407.179000mm" y1="0.095000mm" x2="409.341000mm" y2="0.380000mm" />
  <line x1="409.341000mm" y1="0.380000mm" x2="411.470000mm" y2="0.852000mm" />
  <line x1="411.470000mm" y1="0.852000mm" x2="413.551000mm" y2="1.508000mm" />
  <line x1="413.551000mm" y1="1.508000mm" x2="415.565000mm" y2="2.342000mm" />
  <line x1="415.565000mm" y1="2.342000mm" x2="417.500000mm" y2="3.349000mm" />
  <line x1="417.500000mm" y1="3.349000mm" x2="419.339000mm" y2="4.521000mm" />
  <line x1="419.339000mm" y1="4.521000mm" x2="421.070000mm" y2="5.849000mm" />
  <line x1="421.070000mm" y1="5.849000mm" x2="422.678000mm" y2="7.322000mm" />
  <line x1="422.678000mm" y1="7.322000mm" x2="424.151000mm" y2="8.930000mm" />
  <line x1="424.151000mm" y1="8.930000mm" x2="425.479000mm" y2="10.661000mm" />
  <line x1="425.479000mm" y1="10.661000mm" x2="426.651000mm" y2="12.500000mm" />
  <line x1="426.651000mm" y1="12.500000mm" x2="427.658000mm" y2="14.435000mm" />
  <line x1="427.658000mm" y1="14.435000mm" x2="428.492000mm" y2="16.449000mm" />
  <line x1="428.492000mm" y1="16.449000mm" x2="429.148000mm" y2="18.530000mm" />
  <line x1="429.148000mm" y1="18.530000mm" x2="429.620000mm" y2="20.659000mm" />
  <line x1="429.620000mm" y1="20.659000mm" x2="429.905000mm" y2="22.821000mm" />
  <line x1="429.905000mm" y1="22.821000mm" x2="430.000000mm" y2="25.000000mm" />
  <line x1="430.000000mm" y1="25.000000mm" x2="430.000000mm" y2="155.000000mm" />
  <circle cx="7.500170mm" cy="136.099939mm" r="2.500268mm" fill="none"/>
  <line x1="12.500707mm" y1="136.099939mm" x2="2.499633mm" y2="136.099939mm" />
  <line x1="7.500170mm" y1="131.099402mm" x2="7.500170mm" y2="141.100476mm" />
  <text x="10mm" y="133mm" font-size="24">
   5.0
  </text>
  <circle cx="7.500170mm" cy="126.099939mm" r="2.500268mm" fill="none"/>
  <line x1="12.500707mm" y1="126.099939mm" x2="2.499633mm" y2="126.099939mm" />
  <line x1="7.500170mm" y1="121.099402mm" x2="7.500170mm" y2="131.100476mm" />
  <text x="10mm" y="123mm" font-size="24">
   5.0
  </text>
  <circle cx="6.999818mm" cy="116.600055mm" r="2.000011mm" fill="none"/>
  <line x1="10.999840mm" y1="116.600055mm" x2="2.999795mm" y2="116.600055mm" />
  <line x1="6.999818mm" y1="112.600033mm" x2="6.999818mm" y2="120.600077mm" />
  <text x="8mm" y="114mm" font-size="24">
   4.0
  </text>
  <circle cx="6.999818mm" cy="54.620055mm" r="2.000011mm" fill="none"/>
  <line x1="10.999840mm" y1="54.620055mm" x2="2.999795mm" y2="54.620055mm" />
  <line x1="6.999818mm" y1="50.620033mm" x2="6.999818mm" y2="58.620077mm" />
  <text x="8mm" y="52mm" font-size="24">
   4.0
  </text>
  <circle cx="8.500151mm" cy="44.119567mm" r="3.499825mm" fill="none"/>
  <line x1="15.499802mm" y1="44.119567mm" x2="1.500500mm" y2="44.119567mm" />
  <line x1="8.500151mm" y1="37.119917mm" x2="8.500151mm" y2="51.119218mm" />
  <text x="11mm" y="40mm" font-size="24">
   7.0
  </text>
  <circle cx="8.200000mm" cy="30.919997mm" r="0.999978mm" fill="none"/>
  <line x1="10.199956mm" y1="30.919997mm" x2="6.200044mm" y2="30.919997mm" />
  <line x1="8.200000mm" y1="28.920041mm" x2="8.200000mm" y2="32.919953mm" />
  <text x="9mm" y="29mm" font-size="24">
   2.0
  </text>
  <circle cx="8.200000mm" cy="9.699997mm" r="0.999978mm" fill="none"/>
  <line x1="10.199956mm" y1="9.699997mm" x2="6.200044mm" y2="9.699997mm" />
  <line x1="8.200000mm" y1="7.700041mm" x2="8.200000mm" y2="11.699953mm" />
  <text x="9mm" y="8mm" font-size="24">
   2.0
  </text>
  <circle cx="13.810087mm" cy="96.990061mm" r="1.250061mm" fill="none"/>
  <line x1="16.310208mm" y1="96.990061mm" x2="11.309966mm" y2="96.990061mm" />
  <line x1="13.810087mm" y1="94.489939mm" x2="13.810087mm" y2="99.490182mm" />
  <text x="15mm" y="95mm" font-size="24">
   2.5
  </text>
  <circle cx="13.810087mm" cy="53.810061mm" r="1.250061mm" fill="none"/>
  <line x1="16.310208mm" y1="53.810061mm" x2="11.309966mm" y2="53.810061mm" />
  <line x1="13.810087mm" y1="51.309939mm" x2="13.810087mm" y2="56.310182mm" />
  <text x="15mm" y="52mm" font-size="24">
   2.5
  </text>
  <circle cx="26.099659mm" cy="146.800016mm" r="1.000019mm" fill="none"/>
  <line x1="28.099698mm" y1="146.800016mm" x2="24.099621mm" y2="146.800016mm" />
  <line x1="26.099659mm" y1="144.799978mm" x2="26.099659mm" y2="148.800054mm" />
  <text x="27mm" y="145mm" font-size="24">
   2.0
  </text>
  <circle cx="47.319659mm" cy="146.800016mm" r="1.000019mm" fill="none"/>
  <line x1="49.319698mm" y1="146.800016mm" x2="45.319621mm" y2="146.800016mm" />
  <line x1="47.319659mm" y1="144.799978mm" x2="47.319659mm" y2="148.800054mm" />
  <text x="48mm" y="145mm" font-size="24">
   2.0
  </text>
  <circle cx="107.790087mm" cy="96.990061mm" r="1.250061mm" fill="none"/>
  <line x1="110.290208mm" y1="96.990061mm" x2="105.289966mm" y2="96.990061mm" />
  <line x1="107.790087mm" y1="94.489939mm" x2="107.790087mm" y2="99.490182mm" />
  <text x="109mm" y="95mm" font-size="24">
   2.5
  </text>
  <circle cx="107.790087mm" cy="53.810061mm" r="1.250061mm" fill="none"/>
  <line x1="110.290208mm" y1="53.810061mm" x2="105.289966mm" y2="53.810061mm" />
  <line x1="107.790087mm" y1="51.309939mm" x2="107.790087mm" y2="56.310182mm" />
  <text x="109mm" y="52mm" font-size="24">
   2.5
  </text>
  <circle cx="289.999456mm" cy="129.600195mm" r="1.649827mm" fill="none"/>
  <line x1="293.299111mm" y1="129.600195mm" x2="286.699802mm" y2="129.600195mm" />
  <line x1="289.999456mm" y1="126.300541mm" x2="289.999456mm" y2="132.899849mm" />
  <text x="291mm" y="127mm" font-size="24">
   3.3
  </text>
  <circle cx="289.999456mm" cy="45.600195mm" r="1.649827mm" fill="none"/>
  <line x1="293.299111mm" y1="45.600195mm" x2="286.699802mm" y2="45.600195mm" />
  <line x1="289.999456mm" y1="42.300541mm" x2="289.999456mm" y2="48.899849mm" />
  <text x="291mm" y="43mm" font-size="24">
   3.3
  </text>
  <circle cx="358.079808mm" cy="147.000013mm" r="2.999761mm" fill="none"/>
  <line x1="364.079330mm" y1="147.000013mm" x2="352.080285mm" y2="147.000013mm" />
  <line x1="358.079808mm" y1="141.000490mm" x2="358.079808mm" y2="152.999535mm" />
  <text x="361mm" y="144mm" font-size="24">
   6.0
  </text>
  <circle cx="369.579818mm" cy="148.000055mm" r="2.000011mm" fill="none"/>
  <line x1="373.579840mm" y1="148.000055mm" x2="365.579795mm" y2="148.000055mm" />
  <line x1="369.579818mm" y1="144.000033mm" x2="369.579818mm" y2="152.000077mm" />
  <text x="371mm" y="146mm" font-size="24">
   4.0
  </text>
  <circle cx="382.679659mm" cy="146.800016mm" r="1.000019mm" fill="none"/>
  <line x1="384.679698mm" y1="146.800016mm" x2="380.679621mm" y2="146.800016mm" />
  <line x1="382.679659mm" y1="144.799978mm" x2="382.679659mm" y2="148.800054mm" />
  <text x="383mm" y="145mm" font-size="24">
   2.0
  </text>
  <circle cx="403.899659mm" cy="146.800016mm" r="1.000019mm" fill="none"/>
  <line x1="405.899698mm" y1="146.800016mm" x2="401.899621mm" y2="146.800016mm" />
  <line x1="403.899659mm" y1="144.799978mm" x2="403.899659mm" y2="148.800054mm" />
  <text x="404mm" y="145mm" font-size="24">
   2.0
  </text>
  <circle cx="415.999456mm" cy="129.600195mm" r="1.649827mm" fill="none"/>
  <line x1="419.299111mm" y1="129.600195mm" x2="412.699802mm" y2="129.600195mm" />
  <line x1="415.999456mm" y1="126.300541mm" x2="415.999456mm" y2="132.899849mm" />
  <text x="417mm" y="127mm" font-size="24">
   3.3
  </text>
  <circle cx="415.999456mm" cy="45.600195mm" r="1.649827mm" fill="none"/>
  <line x1="419.299111mm" y1="45.600195mm" x2="412.699802mm" y2="45.600195mm" />
  <line x1="415.999456mm" y1="42.300541mm" x2="415.999456mm" y2="48.899849mm" />
  <text x="417mm" y="43mm" font-size="24">
   3.3
  </text>
 </g>
</svg>
