  0
SECTION
  2
BLOCKS
  0
ENDSEC
  0
SECTION
  2
ENTITIES
  0
LINE
  8
0
 10
-279.25
 11
-279.25
 20
-161
 21
161
  0
LINE
  8
0
 10
-279.25
 11
-279.06
 20
161
 21
165.358
  0
LINE
  8
0
 10
-279.06
 11
-278.49
 20
165.358
 21
169.682
  0
LINE
  8
0
 10
-278.49
 11
-277.546
 20
169.682
 21
173.941
  0
LINE
  8
0
 10
-277.546
 11
-276.235
 20
173.941
 21
178.101
  0
LINE
  8
0
 10
-276.235
 11
-274.565
 20
178.101
 21
182.131
  0
LINE
  8
0
 10
-274.565
 11
-272.551
 20
182.131
 21
186
  0
LINE
  8
0
 10
-272.551
 11
-270.208
 20
186
 21
189.679
  0
LINE
  8
0
 10
-270.208
 11
-267.552
 20
189.679
 21
193.139
  0
LINE
  8
0
 10
-267.552
 11
-264.605
 20
193.139
 21
196.355
  0
LINE
  8
0
 10
-264.605
 11
-261.389
 20
196.355
 21
199.302
  0
LINE
  8
0
 10
-261.389
 11
-257.929
 20
199.302
 21
201.958
  0
LINE
  8
0
 10
-257.929
 11
-254.25
 20
201.958
 21
204.301
  0
LINE
  8
0
 10
-254.25
 11
-250.381
 20
204.301
 21
206.315
  0
LINE
  8
0
 10
-250.381
 11
-246.351
 20
206.315
 21
207.985
  0
LINE
  8
0
 10
-246.351
 11
-242.191
 20
207.985
 21
209.296
  0
LINE
  8
0
 10
-242.191
 11
-237.932
 20
209.296
 21
210.24
  0
LINE
  8
0
 10
-237.932
 11
-233.608
 20
210.24
 21
210.81
  0
LINE
  8
0
 10
-233.608
 11
-229.25
 20
210.81
 21
211
  0
LINE
  8
0
 10
-229.25
 11
229.25
 20
211
 21
211
  0
LINE
  8
0
 10
229.25
 11
233.608
 20
211
 21
210.81
  0
LINE
  8
0
 10
233.608
 11
237.932
 20
210.81
 21
210.24
  0
LINE
  8
0
 10
237.932
 11
242.191
 20
210.24
 21
209.296
  0
LINE
  8
0
 10
242.191
 11
246.351
 20
209.296
 21
207.985
  0
LINE
  8
0
 10
246.351
 11
250.381
 20
207.985
 21
206.315
  0
LINE
  8
0
 10
250.381
 11
254.25
 20
206.315
 21
204.301
  0
LINE
  8
0
 10
254.25
 11
257.929
 20
204.301
 21
201.958
  0
LINE
  8
0
 10
257.929
 11
261.389
 20
201.958
 21
199.302
  0
LINE
  8
0
 10
261.389
 11
264.605
 20
199.302
 21
196.355
  0
LINE
  8
0
 10
264.605
 11
267.552
 20
196.355
 21
193.139
  0
LINE
  8
0
 10
267.552
 11
270.208
 20
193.139
 21
189.679
  0
LINE
  8
0
 10
270.208
 11
272.551
 20
189.679
 21
186
  0
LINE
  8
0
 10
272.551
 11
274.565
 20
186
 21
182.131
  0
LINE
  8
0
 10
274.565
 11
276.235
 20
182.131
 21
178.101
  0
LINE
  8
0
 10
276.235
 11
277.546
 20
178.101
 21
173.941
  0
LINE
  8
0
 10
277.546
 11
278.49
 20
173.941
 21
169.682
  0
LINE
  8
0
 10
278.49
 11
279.06
 20
169.682
 21
165.358
  0
LINE
  8
0
 10
279.06
 11
279.25
 20
165.358
 21
161
  0
LINE
  8
0
 10
279.25
 11
279.25
 20
161
 21
-161
  0
LINE
  8
0
 10
279.25
 11
279.06
 20
-161
 21
-165.358
  0
LINE
  8
0
 10
279.06
 11
278.49
 20
-165.358
 21
-169.682
  0
LINE
  8
0
 10
278.49
 11
277.546
 20
-169.682
 21
-173.941
  0
LINE
  8
0
 10
277.546
 11
276.235
 20
-173.941
 21
-178.101
  0
LINE
  8
0
 10
276.235
 11
274.565
 20
-178.101
 21
-182.131
  0
LINE
  8
0
 10
274.565
 11
272.551
 20
-182.131
 21
-186
  0
LINE
  8
0
 10
272.551
 11
270.208
 20
-186
 21
-189.679
  0
LINE
  8
0
 10
270.208
 11
267.552
 20
-189.679
 21
-193.139
  0
LINE
  8
0
 10
267.552
 11
264.605
 20
-193.139
 21
-196.355
  0
LINE
  8
0
 10
264.605
 11
261.389
 20
-196.355
 21
-199.302
  0
LINE
  8
0
 10
261.389
 11
257.929
 20
-199.302
 21
-201.958
  0
LINE
  8
0
 10
257.929
 11
254.25
 20
-201.958
 21
-204.301
  0
LINE
  8
0
 10
254.25
 11
250.381
 20
-204.301
 21
-206.315
  0
LINE
  8
0
 10
250.381
 11
246.351
 20
-206.315
 21
-207.985
  0
LINE
  8
0
 10
246.351
 11
242.191
 20
-207.985
 21
-209.296
  0
LINE
  8
0
 10
242.191
 11
237.932
 20
-209.296
 21
-210.24
  0
LINE
  8
0
 10
237.932
 11
233.608
 20
-210.24
 21
-210.81
  0
LINE
  8
0
 10
233.608
 11
229.25
 20
-210.81
 21
-211
  0
LINE
  8
0
 10
229.25
 11
-229.25
 20
-211
 21
-211
  0
LINE
  8
0
 10
-229.25
 11
-233.608
 20
-211
 21
-210.81
  0
LINE
  8
0
 10
-233.608
 11
-237.932
 20
-210.81
 21
-210.24
  0
LINE
  8
0
 10
-237.932
 11
-242.191
 20
-210.24
 21
-209.296
  0
LINE
  8
0
 10
-242.191
 11
-246.351
 20
-209.296
 21
-207.985
  0
LINE
  8
0
 10
-246.351
 11
-250.381
 20
-207.985
 21
-206.315
  0
LINE
  8
0
 10
-250.381
 11
-254.25
 20
-206.315
 21
-204.301
  0
LINE
  8
0
 10
-254.25
 11
-257.929
 20
-204.301
 21
-201.958
  0
LINE
  8
0
 10
-257.929
 11
-261.389
 20
-201.958
 21
-199.302
  0
LINE
  8
0
 10
-261.389
 11
-264.605
 20
-199.302
 21
-196.355
  0
LINE
  8
0
 10
-264.605
 11
-267.552
 20
-196.355
 21
-193.139
  0
LINE
  8
0
 10
-267.552
 11
-270.208
 20
-193.139
 21
-189.679
  0
LINE
  8
0
 10
-270.208
 11
-272.551
 20
-189.679
 21
-186
  0
LINE
  8
0
 10
-272.551
 11
-274.565
 20
-186
 21
-182.131
  0
LINE
  8
0
 10
-274.565
 11
-276.235
 20
-182.131
 21
-178.101
  0
LINE
  8
0
 10
-276.235
 11
-277.546
 20
-178.101
 21
-173.941
  0
LINE
  8
0
 10
-277.546
 11
-278.49
 20
-173.941
 21
-169.682
  0
LINE
  8
0
 10
-278.49
 11
-279.06
 20
-169.682
 21
-165.358
  0
LINE
  8
0
 10
-279.06
 11
-279.25
 20
-165.358
 21
-161
  0
LINE
  8
0
 10
-259.911
 11
-259.911
 20
63.961
 21
64.439
  0
LINE
  8
0
 10
-259.911
 11
-259.689
 20
64.439
 21
64.863
  0
LINE
  8
0
 10
-259.689
 11
-259.295
 20
64.863
 21
65.135
  0
LINE
  8
0
 10
-259.295
 11
-258.819
 20
65.135
 21
65.193
  0
LINE
  8
0
 10
-258.819
 11
-258.372
 20
65.193
 21
65.023
  0
LINE
  8
0
 10
-258.372
 11
-258.055
 20
65.023
 21
64.665
  0
LINE
  8
0
 10
-258.055
 11
-257.94
 20
64.665
 21
64.2
  0
LINE
  8
0
 10
-257.94
 11
-258.055
 20
64.2
 21
63.735
  0
LINE
  8
0
 10
-258.055
 11
-258.372
 20
63.735
 21
63.377
  0
LINE
  8
0
 10
-258.372
 11
-258.819
 20
63.377
 21
63.207
  0
LINE
  8
0
 10
-258.819
 11
-259.295
 20
63.207
 21
63.265
  0
LINE
  8
0
 10
-259.295
 11
-259.689
 20
63.265
 21
63.537
  0
LINE
  8
0
 10
-259.689
 11
-259.911
 20
63.537
 21
63.961
  0
LINE
  8
0
 10
-250.742
 11
-250.742
 20
-0.246
 21
0.246
  0
LINE
  8
0
 10
-250.742
 11
-250.682
 20
0.246
 21
0.735
  0
LINE
  8
0
 10
-250.682
 11
-250.562
 20
0.735
 21
1.213
  0
LINE
  8
0
 10
-250.562
 11
-250.384
 20
1.213
 21
1.672
  0
LINE
  8
0
 10
-250.384
 11
-250.151
 20
1.672
 21
2.106
  0
LINE
  8
0
 10
-250.151
 11
-249.866
 20
2.106
 21
2.508
  0
LINE
  8
0
 10
-249.866
 11
-249.535
 20
2.508
 21
2.872
  0
LINE
  8
0
 10
-249.535
 11
-249.161
 20
2.872
 21
3.192
  0
LINE
  8
0
 10
-249.161
 11
-248.75
 20
3.192
 21
3.464
  0
LINE
  8
0
 10
-248.75
 11
-248.309
 20
3.464
 21
3.684
  0
LINE
  8
0
 10
-248.309
 11
-247.845
 20
3.684
 21
3.847
  0
LINE
  8
0
 10
-247.845
 11
-247.364
 20
3.847
 21
3.953
  0
LINE
  8
0
 10
-247.364
 11
-246.873
 20
3.953
 21
3.998
  0
LINE
  8
0
 10
-246.873
 11
-246.381
 20
3.998
 21
3.983
  0
LINE
  8
0
 10
-246.381
 11
-245.894
 20
3.983
 21
3.907
  0
LINE
  8
0
 10
-245.894
 11
-245.421
 20
3.907
 21
3.773
  0
LINE
  8
0
 10
-245.421
 11
-244.967
 20
3.773
 21
3.581
  0
LINE
  8
0
 10
-244.967
 11
-244.541
 20
3.581
 21
3.334
  0
LINE
  8
0
 10
-244.541
 11
-244.148
 20
3.334
 21
3.038
  0
LINE
  8
0
 10
-244.148
 11
-243.794
 20
3.038
 21
2.695
  0
LINE
  8
0
 10
-243.794
 11
-243.485
 20
2.695
 21
2.311
  0
LINE
  8
0
 10
-243.485
 11
-243.226
 20
2.311
 21
1.892
  0
LINE
  8
0
 10
-243.226
 11
-243.02
 20
1.892
 21
1.445
  0
LINE
  8
0
 10
-243.02
 11
-242.871
 20
1.445
 21
0.976
  0
LINE
  8
0
 10
-242.871
 11
-242.78
 20
0.976
 21
0.492
  0
LINE
  8
0
 10
-242.78
 11
-242.75
 20
0.492
 21
0
  0
LINE
  8
0
 10
-242.75
 11
-242.78
 20
0
 21
-0.492
  0
LINE
  8
0
 10
-242.78
 11
-242.871
 20
-0.492
 21
-0.976
  0
LINE
  8
0
 10
-242.871
 11
-243.02
 20
-0.976
 21
-1.445
  0
LINE
  8
0
 10
-243.02
 11
-243.226
 20
-1.445
 21
-1.892
  0
LINE
  8
0
 10
-243.226
 11
-243.485
 20
-1.892
 21
-2.311
  0
LINE
  8
0
 10
-243.485
 11
-243.794
 20
-2.311
 21
-2.695
  0
LINE
  8
0
 10
-243.794
 11
-244.148
 20
-2.695
 21
-3.038
  0
LINE
  8
0
 10
-244.148
 11
-244.541
 20
-3.038
 21
-3.334
  0
LINE
  8
0
 10
-244.541
 11
-244.967
 20
-3.334
 21
-3.581
  0
LINE
  8
0
 10
-244.967
 11
-245.421
 20
-3.581
 21
-3.773
  0
LINE
  8
0
 10
-245.421
 11
-245.894
 20
-3.773
 21
-3.907
  0
LINE
  8
0
 10
-245.894
 11
-246.381
 20
-3.907
 21
-3.983
  0
LINE
  8
0
 10
-246.381
 11
-246.873
 20
-3.983
 21
-3.998
  0
LINE
  8
0
 10
-246.873
 11
-247.364
 20
-3.998
 21
-3.953
  0
LINE
  8
0
 10
-247.364
 11
-247.845
 20
-3.953
 21
-3.847
  0
LINE
  8
0
 10
-247.845
 11
-248.309
 20
-3.847
 21
-3.684
  0
LINE
  8
0
 10
-248.309
 11
-248.75
 20
-3.684
 21
-3.464
  0
LINE
  8
0
 10
-248.75
 11
-249.161
 20
-3.464
 21
-3.192
  0
LINE
  8
0
 10
-249.161
 11
-249.535
 20
-3.192
 21
-2.872
  0
LINE
  8
0
 10
-249.535
 11
-249.866
 20
-2.872
 21
-2.508
  0
LINE
  8
0
 10
-249.866
 11
-250.151
 20
-2.508
 21
-2.106
  0
LINE
  8
0
 10
-250.151
 11
-250.384
 20
-2.106
 21
-1.672
  0
LINE
  8
0
 10
-250.384
 11
-250.562
 20
-1.672
 21
-1.213
  0
LINE
  8
0
 10
-250.562
 11
-250.682
 20
-1.213
 21
-0.735
  0
LINE
  8
0
 10
-250.682
 11
-250.742
 20
-0.735
 21
-0.246
  0
LINE
  8
0
 10
-204.043
 11
-203.985
 20
190.569
 21
191.045
  0
LINE
  8
0
 10
-203.985
 11
-203.713
 20
191.045
 21
191.439
  0
LINE
  8
0
 10
-203.713
 11
-203.289
 20
191.439
 21
191.661
  0
LINE
  8
0
 10
-203.289
 11
-202.811
 20
191.661
 21
191.661
  0
LINE
  8
0
 10
-202.811
 11
-202.387
 20
191.661
 21
191.439
  0
LINE
  8
0
 10
-202.387
 11
-202.115
 20
191.439
 21
191.045
  0
LINE
  8
0
 10
-202.115
 11
-202.057
 20
191.045
 21
190.569
  0
LINE
  8
0
 10
-202.057
 11
-202.227
 20
190.569
 21
190.122
  0
LINE
  8
0
 10
-202.227
 11
-202.585
 20
190.122
 21
189.805
  0
LINE
  8
0
 10
-202.585
 11
-203.05
 20
189.805
 21
189.69
  0
LINE
  8
0
 10
-203.05
 11
-203.515
 20
189.69
 21
189.805
  0
LINE
  8
0
 10
-203.515
 11
-203.873
 20
189.805
 21
190.122
  0
LINE
  8
0
 10
-203.873
 11
-204.043
 20
190.122
 21
190.569
  0
LINE
  8
0
 10
-188.531
 11
-188.531
 20
63.961
 21
64.439
  0
LINE
  8
0
 10
-188.531
 11
-188.309
 20
64.439
 21
64.863
  0
LINE
  8
0
 10
-188.309
 11
-187.915
 20
64.863
 21
65.135
  0
LINE
  8
0
 10
-187.915
 11
-187.439
 20
65.135
 21
65.193
  0
LINE
  8
0
 10
-187.439
 11
-186.992
 20
65.193
 21
65.023
  0
LINE
  8
0
 10
-186.992
 11
-186.675
 20
65.023
 21
64.665
  0
LINE
  8
0
 10
-186.675
 11
-186.56
 20
64.665
 21
64.2
  0
LINE
  8
0
 10
-186.56
 11
-186.675
 20
64.2
 21
63.735
  0
LINE
  8
0
 10
-186.675
 11
-186.992
 20
63.735
 21
63.377
  0
LINE
  8
0
 10
-186.992
 11
-187.439
 20
63.377
 21
63.207
  0
LINE
  8
0
 10
-187.439
 11
-187.915
 20
63.207
 21
63.265
  0
LINE
  8
0
 10
-187.915
 11
-188.309
 20
63.265
 21
63.537
  0
LINE
  8
0
 10
-188.309
 11
-188.531
 20
63.537
 21
63.961
  0
LINE
  8
0
 10
-144.743
 11
-144.573
 20
-202.379
 21
-201.932
  0
LINE
  8
0
 10
-144.573
 11
-144.215
 20
-201.932
 21
-201.615
  0
LINE
  8
0
 10
-144.215
 11
-143.75
 20
-201.615
 21
-201.5
  0
LINE
  8
0
 10
-143.75
 11
-143.285
 20
-201.5
 21
-201.615
  0
LINE
  8
0
 10
-143.285
 11
-142.927
 20
-201.615
 21
-201.932
  0
LINE
  8
0
 10
-142.927
 11
-142.757
 20
-201.932
 21
-202.379
  0
LINE
  8
0
 10
-142.757
 11
-142.815
 20
-202.379
 21
-202.855
  0
LINE
  8
0
 10
-142.815
 11
-143.087
 20
-202.855
 21
-203.249
  0
LINE
  8
0
 10
-143.087
 11
-143.511
 20
-203.249
 21
-203.471
  0
LINE
  8
0
 10
-143.511
 11
-143.989
 20
-203.471
 21
-203.471
  0
LINE
  8
0
 10
-143.989
 11
-144.413
 20
-203.471
 21
-203.249
  0
LINE
  8
0
 10
-144.413
 11
-144.685
 20
-203.249
 21
-202.855
  0
LINE
  8
0
 10
-144.685
 11
-144.743
 20
-202.855
 21
-202.379
  0
LINE
  8
0
 10
-144.743
 11
-144.573
 20
202.621
 21
203.068
  0
LINE
  8
0
 10
-144.573
 11
-144.215
 20
203.068
 21
203.385
  0
LINE
  8
0
 10
-144.215
 11
-143.75
 20
203.385
 21
203.5
  0
LINE
  8
0
 10
-143.75
 11
-143.285
 20
203.5
 21
203.385
  0
LINE
  8
0
 10
-143.285
 11
-142.927
 20
203.385
 21
203.068
  0
LINE
  8
0
 10
-142.927
 11
-142.757
 20
203.068
 21
202.621
  0
LINE
  8
0
 10
-142.757
 11
-142.815
 20
202.621
 21
202.145
  0
LINE
  8
0
 10
-142.815
 11
-143.087
 20
202.145
 21
201.751
  0
LINE
  8
0
 10
-143.087
 11
-143.511
 20
201.751
 21
201.529
  0
LINE
  8
0
 10
-143.511
 11
-143.989
 20
201.529
 21
201.529
  0
LINE
  8
0
 10
-143.989
 11
-144.413
 20
201.529
 21
201.751
  0
LINE
  8
0
 10
-144.413
 11
-144.685
 20
201.751
 21
202.145
  0
LINE
  8
0
 10
-144.685
 11
-144.743
 20
202.145
 21
202.621
  0
LINE
  8
0
 10
-109.743
 11
-109.573
 20
-202.379
 21
-201.932
  0
LINE
  8
0
 10
-109.573
 11
-109.215
 20
-201.932
 21
-201.615
  0
LINE
  8
0
 10
-109.215
 11
-108.75
 20
-201.615
 21
-201.5
  0
LINE
  8
0
 10
-108.75
 11
-108.285
 20
-201.5
 21
-201.615
  0
LINE
  8
0
 10
-108.285
 11
-107.927
 20
-201.615
 21
-201.932
  0
LINE
  8
0
 10
-107.927
 11
-107.757
 20
-201.932
 21
-202.379
  0
LINE
  8
0
 10
-107.757
 11
-107.815
 20
-202.379
 21
-202.855
  0
LINE
  8
0
 10
-107.815
 11
-108.087
 20
-202.855
 21
-203.249
  0
LINE
  8
0
 10
-108.087
 11
-108.511
 20
-203.249
 21
-203.471
  0
LINE
  8
0
 10
-108.511
 11
-108.989
 20
-203.471
 21
-203.471
  0
LINE
  8
0
 10
-108.989
 11
-109.413
 20
-203.471
 21
-203.249
  0
LINE
  8
0
 10
-109.413
 11
-109.685
 20
-203.249
 21
-202.855
  0
LINE
  8
0
 10
-109.685
 11
-109.743
 20
-202.855
 21
-202.379
  0
LINE
  8
0
 10
-109.743
 11
-109.573
 20
202.621
 21
203.068
  0
LINE
  8
0
 10
-109.573
 11
-109.215
 20
203.068
 21
203.385
  0
LINE
  8
0
 10
-109.215
 11
-108.75
 20
203.385
 21
203.5
  0
LINE
  8
0
 10
-108.75
 11
-108.285
 20
203.5
 21
203.385
  0
LINE
  8
0
 10
-108.285
 11
-107.927
 20
203.385
 21
203.068
  0
LINE
  8
0
 10
-107.927
 11
-107.757
 20
203.068
 21
202.621
  0
LINE
  8
0
 10
-107.757
 11
-107.815
 20
202.621
 21
202.145
  0
LINE
  8
0
 10
-107.815
 11
-108.087
 20
202.145
 21
201.751
  0
LINE
  8
0
 10
-108.087
 11
-108.511
 20
201.751
 21
201.529
  0
LINE
  8
0
 10
-108.511
 11
-108.989
 20
201.529
 21
201.529
  0
LINE
  8
0
 10
-108.989
 11
-109.413
 20
201.529
 21
201.751
  0
LINE
  8
0
 10
-109.413
 11
-109.685
 20
201.751
 21
202.145
  0
LINE
  8
0
 10
-109.685
 11
-109.743
 20
202.145
 21
202.621
  0
LINE
  8
0
 10
-36.191
 11
-36.191
 20
193.261
 21
193.739
  0
LINE
  8
0
 10
-36.191
 11
-35.969
 20
193.739
 21
194.163
  0
LINE
  8
0
 10
-35.969
 11
-35.575
 20
194.163
 21
194.435
  0
LINE
  8
0
 10
-35.575
 11
-35.099
 20
194.435
 21
194.493
  0
LINE
  8
0
 10
-35.099
 11
-34.652
 20
194.493
 21
194.323
  0
LINE
  8
0
 10
-34.652
 11
-34.335
 20
194.323
 21
193.965
  0
LINE
  8
0
 10
-34.335
 11
-34.22
 20
193.965
 21
193.5
  0
LINE
  8
0
 10
-34.22
 11
-34.335
 20
193.5
 21
193.035
  0
LINE
  8
0
 10
-34.335
 11
-34.652
 20
193.035
 21
192.677
  0
LINE
  8
0
 10
-34.652
 11
-35.099
 20
192.677
 21
192.507
  0
LINE
  8
0
 10
-35.099
 11
-35.575
 20
192.507
 21
192.565
  0
LINE
  8
0
 10
-35.575
 11
-35.969
 20
192.565
 21
192.837
  0
LINE
  8
0
 10
-35.969
 11
-36.191
 20
192.837
 21
193.261
  0
LINE
  8
0
 10
-25.691
 11
-25.691
 20
93.761
 21
94.239
  0
LINE
  8
0
 10
-25.691
 11
-25.469
 20
94.239
 21
94.663
  0
LINE
  8
0
 10
-25.469
 11
-25.075
 20
94.663
 21
94.935
  0
LINE
  8
0
 10
-25.075
 11
-24.599
 20
94.935
 21
94.993
  0
LINE
  8
0
 10
-24.599
 11
-24.152
 20
94.993
 21
94.823
  0
LINE
  8
0
 10
-24.152
 11
-23.835
 20
94.823
 21
94.465
  0
LINE
  8
0
 10
-23.835
 11
-23.72
 20
94.465
 21
94
  0
LINE
  8
0
 10
-23.72
 11
-23.835
 20
94
 21
93.535
  0
LINE
  8
0
 10
-23.835
 11
-24.152
 20
93.535
 21
93.177
  0
LINE
  8
0
 10
-24.152
 11
-24.599
 20
93.177
 21
93.007
  0
LINE
  8
0
 10
-24.599
 11
-25.075
 20
93.007
 21
93.065
  0
LINE
  8
0
 10
-25.075
 11
-25.469
 20
93.065
 21
93.337
  0
LINE
  8
0
 10
-25.469
 11
-25.691
 20
93.337
 21
93.761
  0
LINE
  8
0
 10
-17.713
 11
-17.655
 20
-203.621
 21
-203.145
  0
LINE
  8
0
 10
-17.655
 11
-17.383
 20
-203.145
 21
-202.751
  0
LINE
  8
0
 10
-17.383
 11
-16.959
 20
-202.751
 21
-202.529
  0
LINE
  8
0
 10
-16.959
 11
-16.481
 20
-202.529
 21
-202.529
  0
LINE
  8
0
 10
-16.481
 11
-16.057
 20
-202.529
 21
-202.751
  0
LINE
  8
0
 10
-16.057
 11
-15.785
 20
-202.751
 21
-203.145
  0
LINE
  8
0
 10
-15.785
 11
-15.727
 20
-203.145
 21
-203.621
  0
LINE
  8
0
 10
-15.727
 11
-15.897
 20
-203.621
 21
-204.068
  0
LINE
  8
0
 10
-15.897
 11
-16.255
 20
-204.068
 21
-204.385
  0
LINE
  8
0
 10
-16.255
 11
-16.72
 20
-204.385
 21
-204.5
  0
LINE
  8
0
 10
-16.72
 11
-17.185
 20
-204.5
 21
-204.385
  0
LINE
  8
0
 10
-17.185
 11
-17.543
 20
-204.385
 21
-204.068
  0
LINE
  8
0
 10
-17.543
 11
-17.713
 20
-204.068
 21
-203.621
  0
LINE
  8
0
 10
-17.713
 11
-17.655
 20
-140.621
 21
-140.145
  0
LINE
  8
0
 10
-17.655
 11
-17.383
 20
-140.145
 21
-139.751
  0
LINE
  8
0
 10
-17.383
 11
-16.959
 20
-139.751
 21
-139.529
  0
LINE
  8
0
 10
-16.959
 11
-16.481
 20
-139.529
 21
-139.529
  0
LINE
  8
0
 10
-16.481
 11
-16.057
 20
-139.529
 21
-139.751
  0
LINE
  8
0
 10
-16.057
 11
-15.785
 20
-139.751
 21
-140.145
  0
LINE
  8
0
 10
-15.785
 11
-15.727
 20
-140.145
 21
-140.621
  0
LINE
  8
0
 10
-15.727
 11
-15.897
 20
-140.621
 21
-141.068
  0
LINE
  8
0
 10
-15.897
 11
-16.255
 20
-141.068
 21
-141.385
  0
LINE
  8
0
 10
-16.255
 11
-16.72
 20
-141.385
 21
-141.5
  0
LINE
  8
0
 10
-16.72
 11
-17.185
 20
-141.5
 21
-141.385
  0
LINE
  8
0
 10
-17.185
 11
-17.543
 20
-141.385
 21
-141.068
  0
LINE
  8
0
 10
-17.543
 11
-17.713
 20
-141.068
 21
-140.621
  0
LINE
  8
0
 10
11.249
 11
11.249
 20
93.761
 21
94.239
  0
LINE
  8
0
 10
11.249
 11
11.471
 20
94.239
 21
94.663
  0
LINE
  8
0
 10
11.471
 11
11.865
 20
94.663
 21
94.935
  0
LINE
  8
0
 10
11.865
 11
12.341
 20
94.935
 21
94.993
  0
LINE
  8
0
 10
12.341
 11
12.788
 20
94.993
 21
94.823
  0
LINE
  8
0
 10
12.788
 11
13.105
 20
94.823
 21
94.465
  0
LINE
  8
0
 10
13.105
 11
13.22
 20
94.465
 21
94
  0
LINE
  8
0
 10
13.22
 11
13.105
 20
94
 21
93.535
  0
LINE
  8
0
 10
13.105
 11
12.788
 20
93.535
 21
93.177
  0
LINE
  8
0
 10
12.788
 11
12.341
 20
93.177
 21
93.007
  0
LINE
  8
0
 10
12.341
 11
11.865
 20
93.007
 21
93.065
  0
LINE
  8
0
 10
11.865
 11
11.471
 20
93.065
 21
93.337
  0
LINE
  8
0
 10
11.471
 11
11.249
 20
93.337
 21
93.761
  0
LINE
  8
0
 10
12.287
 11
12.345
 20
-203.621
 21
-203.145
  0
LINE
  8
0
 10
12.345
 11
12.617
 20
-203.145
 21
-202.751
  0
LINE
  8
0
 10
12.617
 11
13.041
 20
-202.751
 21
-202.529
  0
LINE
  8
0
 10
13.041
 11
13.519
 20
-202.529
 21
-202.529
  0
LINE
  8
0
 10
13.519
 11
13.943
 20
-202.529
 21
-202.751
  0
LINE
  8
0
 10
13.943
 11
14.215
 20
-202.751
 21
-203.145
  0
LINE
  8
0
 10
14.215
 11
14.273
 20
-203.145
 21
-203.621
  0
LINE
  8
0
 10
14.273
 11
14.103
 20
-203.621
 21
-204.068
  0
LINE
  8
0
 10
14.103
 11
13.745
 20
-204.068
 21
-204.385
  0
LINE
  8
0
 10
13.745
 11
13.28
 20
-204.385
 21
-204.5
  0
LINE
  8
0
 10
13.28
 11
12.815
 20
-204.5
 21
-204.385
  0
LINE
  8
0
 10
12.815
 11
12.457
 20
-204.385
 21
-204.068
  0
LINE
  8
0
 10
12.457
 11
12.287
 20
-204.068
 21
-203.621
  0
LINE
  8
0
 10
12.287
 11
12.345
 20
-140.621
 21
-140.145
  0
LINE
  8
0
 10
12.345
 11
12.617
 20
-140.145
 21
-139.751
  0
LINE
  8
0
 10
12.617
 11
13.041
 20
-139.751
 21
-139.529
  0
LINE
  8
0
 10
13.041
 11
13.519
 20
-139.529
 21
-139.529
  0
LINE
  8
0
 10
13.519
 11
13.943
 20
-139.529
 21
-139.751
  0
LINE
  8
0
 10
13.943
 11
14.215
 20
-139.751
 21
-140.145
  0
LINE
  8
0
 10
14.215
 11
14.273
 20
-140.145
 21
-140.621
  0
LINE
  8
0
 10
14.273
 11
14.103
 20
-140.621
 21
-141.068
  0
LINE
  8
0
 10
14.103
 11
13.745
 20
-141.068
 21
-141.385
  0
LINE
  8
0
 10
13.745
 11
13.28
 20
-141.385
 21
-141.5
  0
LINE
  8
0
 10
13.28
 11
12.815
 20
-141.5
 21
-141.385
  0
LINE
  8
0
 10
12.815
 11
12.457
 20
-141.385
 21
-141.068
  0
LINE
  8
0
 10
12.457
 11
12.287
 20
-141.068
 21
-140.621
  0
LINE
  8
0
 10
19.007
 11
19.065
 20
158.659
 21
159.135
  0
LINE
  8
0
 10
19.065
 11
19.337
 20
159.135
 21
159.529
  0
LINE
  8
0
 10
19.337
 11
19.761
 20
159.529
 21
159.751
  0
LINE
  8
0
 10
19.761
 11
20.239
 20
159.751
 21
159.751
  0
LINE
  8
0
 10
20.239
 11
20.663
 20
159.751
 21
159.529
  0
LINE
  8
0
 10
20.663
 11
20.935
 20
159.529
 21
159.135
  0
LINE
  8
0
 10
20.935
 11
20.993
 20
159.135
 21
158.659
  0
LINE
  8
0
 10
20.993
 11
20.823
 20
158.659
 21
158.212
  0
LINE
  8
0
 10
20.823
 11
20.465
 20
158.212
 21
157.895
  0
LINE
  8
0
 10
20.465
 11
20
 20
157.895
 21
157.78
  0
LINE
  8
0
 10
20
 11
19.535
 20
157.78
 21
157.895
  0
LINE
  8
0
 10
19.535
 11
19.177
 20
157.895
 21
158.212
  0
LINE
  8
0
 10
19.177
 11
19.007
 20
158.212
 21
158.659
  0
LINE
  8
0
 10
95.257
 11
95.315
 20
-138.121
 21
-137.645
  0
LINE
  8
0
 10
95.315
 11
95.587
 20
-137.645
 21
-137.251
  0
LINE
  8
0
 10
95.587
 11
96.011
 20
-137.251
 21
-137.029
  0
LINE
  8
0
 10
96.011
 11
96.489
 20
-137.029
 21
-137.029
  0
LINE
  8
0
 10
96.489
 11
96.913
 20
-137.029
 21
-137.251
  0
LINE
  8
0
 10
96.913
 11
97.185
 20
-137.251
 21
-137.645
  0
LINE
  8
0
 10
97.185
 11
97.243
 20
-137.645
 21
-138.121
  0
LINE
  8
0
 10
97.243
 11
97.073
 20
-138.121
 21
-138.568
  0
LINE
  8
0
 10
97.073
 11
96.715
 20
-138.568
 21
-138.885
  0
LINE
  8
0
 10
96.715
 11
96.25
 20
-138.885
 21
-139
  0
LINE
  8
0
 10
96.25
 11
95.785
 20
-139
 21
-138.885
  0
LINE
  8
0
 10
95.785
 11
95.427
 20
-138.885
 21
-138.568
  0
LINE
  8
0
 10
95.427
 11
95.257
 20
-138.568
 21
-138.121
  0
LINE
  8
0
 10
95.257
 11
95.315
 20
127.879
 21
128.355
  0
LINE
  8
0
 10
95.315
 11
95.587
 20
128.355
 21
128.749
  0
LINE
  8
0
 10
95.587
 11
96.011
 20
128.749
 21
128.971
  0
LINE
  8
0
 10
96.011
 11
96.489
 20
128.971
 21
128.971
  0
LINE
  8
0
 10
96.489
 11
96.913
 20
128.971
 21
128.749
  0
LINE
  8
0
 10
96.913
 11
97.185
 20
128.749
 21
128.355
  0
LINE
  8
0
 10
97.185
 11
97.243
 20
128.355
 21
127.879
  0
LINE
  8
0
 10
97.243
 11
97.073
 20
127.879
 21
127.432
  0
LINE
  8
0
 10
97.073
 11
96.715
 20
127.432
 21
127.115
  0
LINE
  8
0
 10
96.715
 11
96.25
 20
127.115
 21
127
  0
LINE
  8
0
 10
96.25
 11
95.785
 20
127
 21
127.115
  0
LINE
  8
0
 10
95.785
 11
95.427
 20
127.115
 21
127.432
  0
LINE
  8
0
 10
95.427
 11
95.257
 20
127.432
 21
127.879
  0
LINE
  8
0
 10
130.257
 11
130.315
 20
-138.121
 21
-137.645
  0
LINE
  8
0
 10
130.315
 11
130.587
 20
-137.645
 21
-137.251
  0
LINE
  8
0
 10
130.587
 11
131.011
 20
-137.251
 21
-137.029
  0
LINE
  8
0
 10
131.011
 11
131.489
 20
-137.029
 21
-137.029
  0
LINE
  8
0
 10
131.489
 11
131.913
 20
-137.029
 21
-137.251
  0
LINE
  8
0
 10
131.913
 11
132.185
 20
-137.251
 21
-137.645
  0
LINE
  8
0
 10
132.185
 11
132.243
 20
-137.645
 21
-138.121
  0
LINE
  8
0
 10
132.243
 11
132.073
 20
-138.121
 21
-138.568
  0
LINE
  8
0
 10
132.073
 11
131.715
 20
-138.568
 21
-138.885
  0
LINE
  8
0
 10
131.715
 11
131.25
 20
-138.885
 21
-139
  0
LINE
  8
0
 10
131.25
 11
130.785
 20
-139
 21
-138.885
  0
LINE
  8
0
 10
130.785
 11
130.427
 20
-138.885
 21
-138.568
  0
LINE
  8
0
 10
130.427
 11
130.257
 20
-138.568
 21
-138.121
  0
LINE
  8
0
 10
130.257
 11
130.315
 20
127.879
 21
128.355
  0
LINE
  8
0
 10
130.315
 11
130.587
 20
128.355
 21
128.749
  0
LINE
  8
0
 10
130.587
 11
131.011
 20
128.749
 21
128.971
  0
LINE
  8
0
 10
131.011
 11
131.489
 20
128.971
 21
128.971
  0
LINE
  8
0
 10
131.489
 11
131.913
 20
128.971
 21
128.749
  0
LINE
  8
0
 10
131.913
 11
132.185
 20
128.749
 21
128.355
  0
LINE
  8
0
 10
132.185
 11
132.243
 20
128.355
 21
127.879
  0
LINE
  8
0
 10
132.243
 11
132.073
 20
127.879
 21
127.432
  0
LINE
  8
0
 10
132.073
 11
131.715
 20
127.432
 21
127.115
  0
LINE
  8
0
 10
131.715
 11
131.25
 20
127.115
 21
127
  0
LINE
  8
0
 10
131.25
 11
130.785
 20
127
 21
127.115
  0
LINE
  8
0
 10
130.785
 11
130.427
 20
127.115
 21
127.432
  0
LINE
  8
0
 10
130.427
 11
130.257
 20
127.432
 21
127.879
  0
LINE
  8
0
 10
145.479
 11
145.479
 20
-119.739
 21
-119.261
  0
LINE
  8
0
 10
145.479
 11
145.701
 20
-119.261
 21
-118.837
  0
LINE
  8
0
 10
145.701
 11
146.095
 20
-118.837
 21
-118.565
  0
LINE
  8
0
 10
146.095
 11
146.571
 20
-118.565
 21
-118.507
  0
LINE
  8
0
 10
146.571
 11
147.018
 20
-118.507
 21
-118.677
  0
LINE
  8
0
 10
147.018
 11
147.335
 20
-118.677
 21
-119.035
  0
LINE
  8
0
 10
147.335
 11
147.45
 20
-119.035
 21
-119.5
  0
LINE
  8
0
 10
147.45
 11
147.335
 20
-119.5
 21
-119.965
  0
LINE
  8
0
 10
147.335
 11
147.018
 20
-119.965
 21
-120.323
  0
LINE
  8
0
 10
147.018
 11
146.571
 20
-120.323
 21
-120.493
  0
LINE
  8
0
 10
146.571
 11
146.095
 20
-120.493
 21
-120.435
  0
LINE
  8
0
 10
146.095
 11
145.701
 20
-120.435
 21
-120.163
  0
LINE
  8
0
 10
145.701
 11
145.479
 20
-120.163
 21
-119.739
  0
LINE
  8
0
 10
145.479
 11
145.479
 20
63.761
 21
64.239
  0
LINE
  8
0
 10
145.479
 11
145.701
 20
64.239
 21
64.663
  0
LINE
  8
0
 10
145.701
 11
146.095
 20
64.663
 21
64.935
  0
LINE
  8
0
 10
146.095
 11
146.571
 20
64.935
 21
64.993
  0
LINE
  8
0
 10
146.571
 11
147.018
 20
64.993
 21
64.823
  0
LINE
  8
0
 10
147.018
 11
147.335
 20
64.823
 21
64.465
  0
LINE
  8
0
 10
147.335
 11
147.45
 20
64.465
 21
64
  0
LINE
  8
0
 10
147.45
 11
147.335
 20
64
 21
63.535
  0
LINE
  8
0
 10
147.335
 11
147.018
 20
63.535
 21
63.177
  0
LINE
  8
0
 10
147.018
 11
146.571
 20
63.177
 21
63.007
  0
LINE
  8
0
 10
146.571
 11
146.095
 20
63.007
 21
63.065
  0
LINE
  8
0
 10
146.095
 11
145.701
 20
63.065
 21
63.337
  0
LINE
  8
0
 10
145.701
 11
145.479
 20
63.337
 21
63.761
  0
LINE
  8
0
 10
174.589
 11
174.589
 20
63.961
 21
64.439
  0
LINE
  8
0
 10
174.589
 11
174.811
 20
64.439
 21
64.863
  0
LINE
  8
0
 10
174.811
 11
175.205
 20
64.863
 21
65.135
  0
LINE
  8
0
 10
175.205
 11
175.681
 20
65.135
 21
65.193
  0
LINE
  8
0
 10
175.681
 11
176.128
 20
65.193
 21
65.023
  0
LINE
  8
0
 10
176.128
 11
176.445
 20
65.023
 21
64.665
  0
LINE
  8
0
 10
176.445
 11
176.56
 20
64.665
 21
64.2
  0
LINE
  8
0
 10
176.56
 11
176.445
 20
64.2
 21
63.735
  0
LINE
  8
0
 10
176.445
 11
176.128
 20
63.735
 21
63.377
  0
LINE
  8
0
 10
176.128
 11
175.681
 20
63.377
 21
63.207
  0
LINE
  8
0
 10
175.681
 11
175.205
 20
63.207
 21
63.265
  0
LINE
  8
0
 10
175.205
 11
174.811
 20
63.265
 21
63.537
  0
LINE
  8
0
 10
174.811
 11
174.589
 20
63.537
 21
63.961
  0
LINE
  8
0
 10
198.258
 11
198.258
 20
-0.246
 21
0.246
  0
LINE
  8
0
 10
198.258
 11
198.318
 20
0.246
 21
0.735
  0
LINE
  8
0
 10
198.318
 11
198.438
 20
0.735
 21
1.213
  0
LINE
  8
0
 10
198.438
 11
198.616
 20
1.213
 21
1.672
  0
LINE
  8
0
 10
198.616
 11
198.849
 20
1.672
 21
2.106
  0
LINE
  8
0
 10
198.849
 11
199.134
 20
2.106
 21
2.508
  0
LINE
  8
0
 10
199.134
 11
199.465
 20
2.508
 21
2.872
  0
LINE
  8
0
 10
199.465
 11
199.839
 20
2.872
 21
3.192
  0
LINE
  8
0
 10
199.839
 11
200.25
 20
3.192
 21
3.464
  0
LINE
  8
0
 10
200.25
 11
200.691
 20
3.464
 21
3.684
  0
LINE
  8
0
 10
200.691
 11
201.155
 20
3.684
 21
3.847
  0
LINE
  8
0
 10
201.155
 11
201.636
 20
3.847
 21
3.953
  0
LINE
  8
0
 10
201.636
 11
202.127
 20
3.953
 21
3.998
  0
LINE
  8
0
 10
202.127
 11
202.619
 20
3.998
 21
3.983
  0
LINE
  8
0
 10
202.619
 11
203.106
 20
3.983
 21
3.907
  0
LINE
  8
0
 10
203.106
 11
203.579
 20
3.907
 21
3.773
  0
LINE
  8
0
 10
203.579
 11
204.033
 20
3.773
 21
3.581
  0
LINE
  8
0
 10
204.033
 11
204.459
 20
3.581
 21
3.334
  0
LINE
  8
0
 10
204.459
 11
204.852
 20
3.334
 21
3.038
  0
LINE
  8
0
 10
204.852
 11
205.206
 20
3.038
 21
2.695
  0
LINE
  8
0
 10
205.206
 11
205.515
 20
2.695
 21
2.311
  0
LINE
  8
0
 10
205.515
 11
205.774
 20
2.311
 21
1.892
  0
LINE
  8
0
 10
205.774
 11
205.98
 20
1.892
 21
1.445
  0
LINE
  8
0
 10
205.98
 11
206.129
 20
1.445
 21
0.976
  0
LINE
  8
0
 10
206.129
 11
206.22
 20
0.976
 21
0.492
  0
LINE
  8
0
 10
206.22
 11
206.25
 20
0.492
 21
0
  0
LINE
  8
0
 10
206.25
 11
206.22
 20
0
 21
-0.492
  0
LINE
  8
0
 10
206.22
 11
206.129
 20
-0.492
 21
-0.976
  0
LINE
  8
0
 10
206.129
 11
205.98
 20
-0.976
 21
-1.445
  0
LINE
  8
0
 10
205.98
 11
205.774
 20
-1.445
 21
-1.892
  0
LINE
  8
0
 10
205.774
 11
205.515
 20
-1.892
 21
-2.311
  0
LINE
  8
0
 10
205.515
 11
205.206
 20
-2.311
 21
-2.695
  0
LINE
  8
0
 10
205.206
 11
204.852
 20
-2.695
 21
-3.038
  0
LINE
  8
0
 10
204.852
 11
204.459
 20
-3.038
 21
-3.334
  0
LINE
  8
0
 10
204.459
 11
204.033
 20
-3.334
 21
-3.581
  0
LINE
  8
0
 10
204.033
 11
203.579
 20
-3.581
 21
-3.773
  0
LINE
  8
0
 10
203.579
 11
203.106
 20
-3.773
 21
-3.907
  0
LINE
  8
0
 10
203.106
 11
202.619
 20
-3.907
 21
-3.983
  0
LINE
  8
0
 10
202.619
 11
202.127
 20
-3.983
 21
-3.998
  0
LINE
  8
0
 10
202.127
 11
201.636
 20
-3.998
 21
-3.953
  0
LINE
  8
0
 10
201.636
 11
201.155
 20
-3.953
 21
-3.847
  0
LINE
  8
0
 10
201.155
 11
200.691
 20
-3.847
 21
-3.684
  0
LINE
  8
0
 10
200.691
 11
200.25
 20
-3.684
 21
-3.464
  0
LINE
  8
0
 10
200.25
 11
199.839
 20
-3.464
 21
-3.192
  0
LINE
  8
0
 10
199.839
 11
199.465
 20
-3.192
 21
-2.872
  0
LINE
  8
0
 10
199.465
 11
199.134
 20
-2.872
 21
-2.508
  0
LINE
  8
0
 10
199.134
 11
198.849
 20
-2.508
 21
-2.106
  0
LINE
  8
0
 10
198.849
 11
198.616
 20
-2.106
 21
-1.672
  0
LINE
  8
0
 10
198.616
 11
198.438
 20
-1.672
 21
-1.213
  0
LINE
  8
0
 10
198.438
 11
198.318
 20
-1.213
 21
-0.735
  0
LINE
  8
0
 10
198.318
 11
198.258
 20
-0.735
 21
-0.246
  0
LINE
  8
0
 10
214.557
 11
214.727
 20
190.811
 21
191.258
  0
LINE
  8
0
 10
214.727
 11
215.085
 20
191.258
 21
191.575
  0
LINE
  8
0
 10
215.085
 11
215.55
 20
191.575
 21
191.69
  0
LINE
  8
0
 10
215.55
 11
216.015
 20
191.69
 21
191.575
  0
LINE
  8
0
 10
216.015
 11
216.373
 20
191.575
 21
191.258
  0
LINE
  8
0
 10
216.373
 11
216.543
 20
191.258
 21
190.811
  0
LINE
  8
0
 10
216.543
 11
216.485
 20
190.811
 21
190.335
  0
LINE
  8
0
 10
216.485
 11
216.213
 20
190.335
 21
189.941
  0
LINE
  8
0
 10
216.213
 11
215.789
 20
189.941
 21
189.719
  0
LINE
  8
0
 10
215.789
 11
215.311
 20
189.719
 21
189.719
  0
LINE
  8
0
 10
215.311
 11
214.887
 20
189.719
 21
189.941
  0
LINE
  8
0
 10
214.887
 11
214.615
 20
189.941
 21
190.335
  0
LINE
  8
0
 10
214.615
 11
214.557
 20
190.335
 21
190.811
  0
LINE
  8
0
 10
257.969
 11
257.969
 20
63.961
 21
64.439
  0
LINE
  8
0
 10
257.969
 11
258.191
 20
64.439
 21
64.863
  0
LINE
  8
0
 10
258.191
 11
258.585
 20
64.863
 21
65.135
  0
LINE
  8
0
 10
258.585
 11
259.061
 20
65.135
 21
65.193
  0
LINE
  8
0
 10
259.061
 11
259.508
 20
65.193
 21
65.023
  0
LINE
  8
0
 10
259.508
 11
259.825
 20
65.023
 21
64.665
  0
LINE
  8
0
 10
259.825
 11
259.94
 20
64.665
 21
64.2
  0
LINE
  8
0
 10
259.94
 11
259.825
 20
64.2
 21
63.735
  0
LINE
  8
0
 10
259.825
 11
259.508
 20
63.735
 21
63.377
  0
LINE
  8
0
 10
259.508
 11
259.061
 20
63.377
 21
63.207
  0
LINE
  8
0
 10
259.061
 11
258.585
 20
63.207
 21
63.265
  0
LINE
  8
0
 10
258.585
 11
258.191
 20
63.265
 21
63.537
  0
LINE
  8
0
 10
258.191
 11
257.969
 20
63.537
 21
63.961
  0
ENDSEC
  0
SECTION
  2
OBJECTS
  0
DICTIONARY
  0
ENDSEC
  0
EOF
