  0
SECTION
  2
BLOCKS
  0
ENDSEC
  0
SECTION
  2
ENTITIES
  0
LINE
  8
0
 10
0
 11
0
 20
-153
 21
0
  0
LINE
  8
0
 10
0
 11
435
 20
0
 21
0
  0
LINE
  8
0
 10
435
 11
435
 20
0
 21
-128
  0
LINE
  8
0
 10
435
 11
434.905
 20
-128
 21
-130.179
  0
LINE
  8
0
 10
434.905
 11
434.62
 20
-130.179
 21
-132.341
  0
LINE
  8
0
 10
434.62
 11
434.148
 20
-132.341
 21
-134.47
  0
LINE
  8
0
 10
434.148
 11
433.492
 20
-134.47
 21
-136.551
  0
LINE
  8
0
 10
433.492
 11
432.658
 20
-136.551
 21
-138.565
  0
LINE
  8
0
 10
432.658
 11
431.651
 20
-138.565
 21
-140.5
  0
LINE
  8
0
 10
431.651
 11
430.479
 20
-140.5
 21
-142.339
  0
LINE
  8
0
 10
430.479
 11
429.151
 20
-142.339
 21
-144.07
  0
LINE
  8
0
 10
429.151
 11
427.678
 20
-144.07
 21
-145.678
  0
LINE
  8
0
 10
427.678
 11
426.07
 20
-145.678
 21
-147.151
  0
LINE
  8
0
 10
426.07
 11
424.339
 20
-147.151
 21
-148.479
  0
LINE
  8
0
 10
424.339
 11
422.5
 20
-148.479
 21
-149.651
  0
LINE
  8
0
 10
422.5
 11
420.565
 20
-149.651
 21
-150.658
  0
LINE
  8
0
 10
420.565
 11
418.551
 20
-150.658
 21
-151.492
  0
LINE
  8
0
 10
418.551
 11
416.47
 20
-151.492
 21
-152.148
  0
LINE
  8
0
 10
416.47
 11
414.341
 20
-152.148
 21
-152.62
  0
LINE
  8
0
 10
414.341
 11
412.179
 20
-152.62
 21
-152.905
  0
LINE
  8
0
 10
412.179
 11
410
 20
-152.905
 21
-153
  0
LINE
  8
0
 10
410
 11
0
 20
-153
 21
-153
  0
LINE
  8
0
 10
5
 11
5.036
 20
-94.6
 21
-94.102
  0
LINE
  8
0
 10
5.036
 11
5.142
 20
-94.102
 21
-93.614
  0
LINE
  8
0
 10
5.142
 11
5.316
 20
-93.614
 21
-93.146
  0
LINE
  8
0
 10
5.316
 11
5.556
 20
-93.146
 21
-92.708
  0
LINE
  8
0
 10
5.556
 11
5.855
 20
-92.708
 21
-92.308
  0
LINE
  8
0
 10
5.855
 11
6.208
 20
-92.308
 21
-91.955
  0
LINE
  8
0
 10
6.208
 11
6.608
 20
-91.955
 21
-91.656
  0
LINE
  8
0
 10
6.608
 11
7.046
 20
-91.656
 21
-91.416
  0
LINE
  8
0
 10
7.046
 11
7.514
 20
-91.416
 21
-91.242
  0
LINE
  8
0
 10
7.514
 11
8.002
 20
-91.242
 21
-91.136
  0
LINE
  8
0
 10
8.002
 11
8.5
 20
-91.136
 21
-91.1
  0
LINE
  8
0
 10
8.5
 11
8.998
 20
-91.1
 21
-91.136
  0
LINE
  8
0
 10
8.998
 11
9.486
 20
-91.136
 21
-91.242
  0
LINE
  8
0
 10
9.486
 11
9.954
 20
-91.242
 21
-91.416
  0
LINE
  8
0
 10
9.954
 11
10.392
 20
-91.416
 21
-91.656
  0
LINE
  8
0
 10
10.392
 11
10.792
 20
-91.656
 21
-91.955
  0
LINE
  8
0
 10
10.792
 11
11.145
 20
-91.955
 21
-92.308
  0
LINE
  8
0
 10
11.145
 11
11.444
 20
-92.308
 21
-92.708
  0
LINE
  8
0
 10
11.444
 11
11.684
 20
-92.708
 21
-93.146
  0
LINE
  8
0
 10
11.684
 11
11.858
 20
-93.146
 21
-93.614
  0
LINE
  8
0
 10
11.858
 11
11.964
 20
-93.614
 21
-94.102
  0
LINE
  8
0
 10
11.964
 11
12
 20
-94.102
 21
-94.6
  0
LINE
  8
0
 10
12
 11
11.964
 20
-94.6
 21
-95.098
  0
LINE
  8
0
 10
11.964
 11
11.858
 20
-95.098
 21
-95.586
  0
LINE
  8
0
 10
11.858
 11
11.684
 20
-95.586
 21
-96.054
  0
LINE
  8
0
 10
11.684
 11
11.444
 20
-96.054
 21
-96.492
  0
LINE
  8
0
 10
11.444
 11
11.145
 20
-96.492
 21
-96.892
  0
LINE
  8
0
 10
11.145
 11
10.792
 20
-96.892
 21
-97.245
  0
LINE
  8
0
 10
10.792
 11
10.392
 20
-97.245
 21
-97.544
  0
LINE
  8
0
 10
10.392
 11
9.954
 20
-97.544
 21
-97.784
  0
LINE
  8
0
 10
9.954
 11
9.486
 20
-97.784
 21
-97.958
  0
LINE
  8
0
 10
9.486
 11
8.998
 20
-97.958
 21
-98.064
  0
LINE
  8
0
 10
8.998
 11
8.5
 20
-98.064
 21
-98.1
  0
LINE
  8
0
 10
8.5
 11
8.002
 20
-98.1
 21
-98.064
  0
LINE
  8
0
 10
8.002
 11
7.514
 20
-98.064
 21
-97.958
  0
LINE
  8
0
 10
7.514
 11
7.046
 20
-97.958
 21
-97.784
  0
LINE
  8
0
 10
7.046
 11
6.608
 20
-97.784
 21
-97.544
  0
LINE
  8
0
 10
6.608
 11
6.208
 20
-97.544
 21
-97.245
  0
LINE
  8
0
 10
6.208
 11
5.855
 20
-97.245
 21
-96.892
  0
LINE
  8
0
 10
5.855
 11
5.556
 20
-96.892
 21
-96.492
  0
LINE
  8
0
 10
5.556
 11
5.316
 20
-96.492
 21
-96.054
  0
LINE
  8
0
 10
5.316
 11
5.142
 20
-96.054
 21
-95.586
  0
LINE
  8
0
 10
5.142
 11
5.036
 20
-95.586
 21
-95.098
  0
LINE
  8
0
 10
5.036
 11
5
 20
-95.098
 21
-94.6
  0
LINE
  8
0
 10
5
 11
5.048
 20
-18.9
 21
-18.412
  0
LINE
  8
0
 10
5.048
 11
5.19
 20
-18.412
 21
-17.943
  0
LINE
  8
0
 10
5.19
 11
5.421
 20
-17.943
 21
-17.511
  0
LINE
  8
0
 10
5.421
 11
5.732
 20
-17.511
 21
-17.132
  0
LINE
  8
0
 10
5.732
 11
6.111
 20
-17.132
 21
-16.821
  0
LINE
  8
0
 10
6.111
 11
6.543
 20
-16.821
 21
-16.59
  0
LINE
  8
0
 10
6.543
 11
7.012
 20
-16.59
 21
-16.448
  0
LINE
  8
0
 10
7.012
 11
7.5
 20
-16.448
 21
-16.4
  0
LINE
  8
0
 10
7.5
 11
7.988
 20
-16.4
 21
-16.448
  0
LINE
  8
0
 10
7.988
 11
8.457
 20
-16.448
 21
-16.59
  0
LINE
  8
0
 10
8.457
 11
8.889
 20
-16.59
 21
-16.821
  0
LINE
  8
0
 10
8.889
 11
9.268
 20
-16.821
 21
-17.132
  0
LINE
  8
0
 10
9.268
 11
9.579
 20
-17.132
 21
-17.511
  0
LINE
  8
0
 10
9.579
 11
9.81
 20
-17.511
 21
-17.943
  0
LINE
  8
0
 10
9.81
 11
9.952
 20
-17.943
 21
-18.412
  0
LINE
  8
0
 10
9.952
 11
10
 20
-18.412
 21
-18.9
  0
LINE
  8
0
 10
10
 11
9.952
 20
-18.9
 21
-19.388
  0
LINE
  8
0
 10
9.952
 11
9.81
 20
-19.388
 21
-19.857
  0
LINE
  8
0
 10
9.81
 11
9.579
 20
-19.857
 21
-20.289
  0
LINE
  8
0
 10
9.579
 11
9.268
 20
-20.289
 21
-20.668
  0
LINE
  8
0
 10
9.268
 11
8.889
 20
-20.668
 21
-20.979
  0
LINE
  8
0
 10
8.889
 11
8.457
 20
-20.979
 21
-21.21
  0
LINE
  8
0
 10
8.457
 11
7.988
 20
-21.21
 21
-21.352
  0
LINE
  8
0
 10
7.988
 11
7.5
 20
-21.352
 21
-21.4
  0
LINE
  8
0
 10
7.5
 11
7.012
 20
-21.4
 21
-21.352
  0
LINE
  8
0
 10
7.012
 11
6.543
 20
-21.352
 21
-21.21
  0
LINE
  8
0
 10
6.543
 11
6.111
 20
-21.21
 21
-20.979
  0
LINE
  8
0
 10
6.111
 11
5.732
 20
-20.979
 21
-20.668
  0
LINE
  8
0
 10
5.732
 11
5.421
 20
-20.668
 21
-20.289
  0
LINE
  8
0
 10
5.421
 11
5.19
 20
-20.289
 21
-19.857
  0
LINE
  8
0
 10
5.19
 11
5.048
 20
-19.857
 21
-19.388
  0
LINE
  8
0
 10
5.048
 11
5
 20
-19.388
 21
-18.9
  0
LINE
  8
0
 10
5.015
 11
5.015
 20
-82.641
 21
-82.159
  0
LINE
  8
0
 10
5.015
 11
5.13
 20
-82.159
 21
-81.691
  0
LINE
  8
0
 10
5.13
 11
5.354
 20
-81.691
 21
-81.264
  0
LINE
  8
0
 10
5.354
 11
5.674
 20
-81.264
 21
-80.903
  0
LINE
  8
0
 10
5.674
 11
6.071
 20
-80.903
 21
-80.629
  0
LINE
  8
0
 10
6.071
 11
6.521
 20
-80.629
 21
-80.458
  0
LINE
  8
0
 10
6.521
 11
7
 20
-80.458
 21
-80.4
  0
LINE
  8
0
 10
7
 11
7.479
 20
-80.4
 21
-80.458
  0
LINE
  8
0
 10
7.479
 11
7.929
 20
-80.458
 21
-80.629
  0
LINE
  8
0
 10
7.929
 11
8.326
 20
-80.629
 21
-80.903
  0
LINE
  8
0
 10
8.326
 11
8.646
 20
-80.903
 21
-81.264
  0
LINE
  8
0
 10
8.646
 11
8.87
 20
-81.264
 21
-81.691
  0
LINE
  8
0
 10
8.87
 11
8.985
 20
-81.691
 21
-82.159
  0
LINE
  8
0
 10
8.985
 11
8.985
 20
-82.159
 21
-82.641
  0
LINE
  8
0
 10
8.985
 11
8.87
 20
-82.641
 21
-83.109
  0
LINE
  8
0
 10
8.87
 11
8.646
 20
-83.109
 21
-83.536
  0
LINE
  8
0
 10
8.646
 11
8.326
 20
-83.536
 21
-83.897
  0
LINE
  8
0
 10
8.326
 11
7.929
 20
-83.897
 21
-84.171
  0
LINE
  8
0
 10
7.929
 11
7.479
 20
-84.171
 21
-84.342
  0
LINE
  8
0
 10
7.479
 11
7
 20
-84.342
 21
-84.4
  0
LINE
  8
0
 10
7
 11
6.521
 20
-84.4
 21
-84.342
  0
LINE
  8
0
 10
6.521
 11
6.071
 20
-84.342
 21
-84.171
  0
LINE
  8
0
 10
6.071
 11
5.674
 20
-84.171
 21
-83.897
  0
LINE
  8
0
 10
5.674
 11
5.354
 20
-83.897
 21
-83.536
  0
LINE
  8
0
 10
5.354
 11
5.13
 20
-83.536
 21
-83.109
  0
LINE
  8
0
 10
5.13
 11
5.015
 20
-83.109
 21
-82.641
  0
LINE
  8
0
 10
5.015
 11
5.015
 20
-28.641
 21
-28.159
  0
LINE
  8
0
 10
5.015
 11
5.13
 20
-28.159
 21
-27.691
  0
LINE
  8
0
 10
5.13
 11
5.354
 20
-27.691
 21
-27.264
  0
LINE
  8
0
 10
5.354
 11
5.674
 20
-27.264
 21
-26.903
  0
LINE
  8
0
 10
5.674
 11
6.071
 20
-26.903
 21
-26.629
  0
LINE
  8
0
 10
6.071
 11
6.521
 20
-26.629
 21
-26.458
  0
LINE
  8
0
 10
6.521
 11
7
 20
-26.458
 21
-26.4
  0
LINE
  8
0
 10
7
 11
7.479
 20
-26.4
 21
-26.458
  0
LINE
  8
0
 10
7.479
 11
7.929
 20
-26.458
 21
-26.629
  0
LINE
  8
0
 10
7.929
 11
8.326
 20
-26.629
 21
-26.903
  0
LINE
  8
0
 10
8.326
 11
8.646
 20
-26.903
 21
-27.264
  0
LINE
  8
0
 10
8.646
 11
8.87
 20
-27.264
 21
-27.691
  0
LINE
  8
0
 10
8.87
 11
8.985
 20
-27.691
 21
-28.159
  0
LINE
  8
0
 10
8.985
 11
8.985
 20
-28.159
 21
-28.641
  0
LINE
  8
0
 10
8.985
 11
8.87
 20
-28.641
 21
-29.109
  0
LINE
  8
0
 10
8.87
 11
8.646
 20
-29.109
 21
-29.536
  0
LINE
  8
0
 10
8.646
 11
8.326
 20
-29.536
 21
-29.897
  0
LINE
  8
0
 10
8.326
 11
7.929
 20
-29.897
 21
-30.171
  0
LINE
  8
0
 10
7.929
 11
7.479
 20
-30.171
 21
-30.342
  0
LINE
  8
0
 10
7.479
 11
7
 20
-30.342
 21
-30.4
  0
LINE
  8
0
 10
7
 11
6.521
 20
-30.4
 21
-30.342
  0
LINE
  8
0
 10
6.521
 11
6.071
 20
-30.342
 21
-30.171
  0
LINE
  8
0
 10
6.071
 11
5.674
 20
-30.171
 21
-29.897
  0
LINE
  8
0
 10
5.674
 11
5.354
 20
-29.897
 21
-29.536
  0
LINE
  8
0
 10
5.354
 11
5.13
 20
-29.536
 21
-29.109
  0
LINE
  8
0
 10
5.13
 11
5.015
 20
-29.109
 21
-28.641
  0
LINE
  8
0
 10
7.207
 11
7.377
 20
-143.179
 21
-142.732
  0
LINE
  8
0
 10
7.377
 11
7.735
 20
-142.732
 21
-142.415
  0
LINE
  8
0
 10
7.735
 11
8.2
 20
-142.415
 21
-142.3
  0
LINE
  8
0
 10
8.2
 11
8.665
 20
-142.3
 21
-142.415
  0
LINE
  8
0
 10
8.665
 11
9.023
 20
-142.415
 21
-142.732
  0
LINE
  8
0
 10
9.023
 11
9.193
 20
-142.732
 21
-143.179
  0
LINE
  8
0
 10
9.193
 11
9.135
 20
-143.179
 21
-143.655
  0
LINE
  8
0
 10
9.135
 11
8.863
 20
-143.655
 21
-144.049
  0
LINE
  8
0
 10
8.863
 11
8.439
 20
-144.049
 21
-144.271
  0
LINE
  8
0
 10
8.439
 11
7.961
 20
-144.271
 21
-144.271
  0
LINE
  8
0
 10
7.961
 11
7.537
 20
-144.271
 21
-144.049
  0
LINE
  8
0
 10
7.537
 11
7.265
 20
-144.049
 21
-143.655
  0
LINE
  8
0
 10
7.265
 11
7.207
 20
-143.655
 21
-143.179
  0
LINE
  8
0
 10
7.207
 11
7.377
 20
-121.959
 21
-121.512
  0
LINE
  8
0
 10
7.377
 11
7.735
 20
-121.512
 21
-121.195
  0
LINE
  8
0
 10
7.735
 11
8.2
 20
-121.195
 21
-121.08
  0
LINE
  8
0
 10
8.2
 11
8.665
 20
-121.08
 21
-121.195
  0
LINE
  8
0
 10
8.665
 11
9.023
 20
-121.195
 21
-121.512
  0
LINE
  8
0
 10
9.023
 11
9.193
 20
-121.512
 21
-121.959
  0
LINE
  8
0
 10
9.193
 11
9.135
 20
-121.959
 21
-122.435
  0
LINE
  8
0
 10
9.135
 11
8.863
 20
-122.435
 21
-122.829
  0
LINE
  8
0
 10
8.863
 11
8.439
 20
-122.829
 21
-123.051
  0
LINE
  8
0
 10
8.439
 11
7.961
 20
-123.051
 21
-123.051
  0
LINE
  8
0
 10
7.961
 11
7.537
 20
-123.051
 21
-122.829
  0
LINE
  8
0
 10
7.537
 11
7.265
 20
-122.829
 21
-122.435
  0
LINE
  8
0
 10
7.265
 11
7.207
 20
-122.435
 21
-121.959
  0
LINE
  8
0
 10
25.129
 11
25.129
 20
-8.439
 21
-7.961
  0
LINE
  8
0
 10
25.129
 11
25.351
 20
-7.961
 21
-7.537
  0
LINE
  8
0
 10
25.351
 11
25.745
 20
-7.537
 21
-7.265
  0
LINE
  8
0
 10
25.745
 11
26.221
 20
-7.265
 21
-7.207
  0
LINE
  8
0
 10
26.221
 11
26.668
 20
-7.207
 21
-7.377
  0
LINE
  8
0
 10
26.668
 11
26.985
 20
-7.377
 21
-7.735
  0
LINE
  8
0
 10
26.985
 11
27.1
 20
-7.735
 21
-8.2
  0
LINE
  8
0
 10
27.1
 11
26.985
 20
-8.2
 21
-8.665
  0
LINE
  8
0
 10
26.985
 11
26.668
 20
-8.665
 21
-9.023
  0
LINE
  8
0
 10
26.668
 11
26.221
 20
-9.023
 21
-9.193
  0
LINE
  8
0
 10
26.221
 11
25.745
 20
-9.193
 21
-9.135
  0
LINE
  8
0
 10
25.745
 11
25.351
 20
-9.135
 21
-8.863
  0
LINE
  8
0
 10
25.351
 11
25.129
 20
-8.863
 21
-8.439
  0
LINE
  8
0
 10
31.929
 11
31.929
 20
-146.239
 21
-145.761
  0
LINE
  8
0
 10
31.929
 11
32.151
 20
-145.761
 21
-145.337
  0
LINE
  8
0
 10
32.151
 11
32.545
 20
-145.337
 21
-145.065
  0
LINE
  8
0
 10
32.545
 11
33.021
 20
-145.065
 21
-145.007
  0
LINE
  8
0
 10
33.021
 11
33.468
 20
-145.007
 21
-145.177
  0
LINE
  8
0
 10
33.468
 11
33.785
 20
-145.177
 21
-145.535
  0
LINE
  8
0
 10
33.785
 11
33.9
 20
-145.535
 21
-146
  0
LINE
  8
0
 10
33.9
 11
33.785
 20
-146
 21
-146.465
  0
LINE
  8
0
 10
33.785
 11
33.468
 20
-146.465
 21
-146.823
  0
LINE
  8
0
 10
33.468
 11
33.021
 20
-146.823
 21
-146.993
  0
LINE
  8
0
 10
33.021
 11
32.545
 20
-146.993
 21
-146.935
  0
LINE
  8
0
 10
32.545
 11
32.151
 20
-146.935
 21
-146.663
  0
LINE
  8
0
 10
32.151
 11
31.929
 20
-146.663
 21
-146.239
  0
LINE
  8
0
 10
46.349
 11
46.349
 20
-8.439
 21
-7.961
  0
LINE
  8
0
 10
46.349
 11
46.571
 20
-7.961
 21
-7.537
  0
LINE
  8
0
 10
46.571
 11
46.965
 20
-7.537
 21
-7.265
  0
LINE
  8
0
 10
46.965
 11
47.441
 20
-7.265
 21
-7.207
  0
LINE
  8
0
 10
47.441
 11
47.888
 20
-7.207
 21
-7.377
  0
LINE
  8
0
 10
47.888
 11
48.205
 20
-7.377
 21
-7.735
  0
LINE
  8
0
 10
48.205
 11
48.32
 20
-7.735
 21
-8.2
  0
LINE
  8
0
 10
48.32
 11
48.205
 20
-8.2
 21
-8.665
  0
LINE
  8
0
 10
48.205
 11
47.888
 20
-8.665
 21
-9.023
  0
LINE
  8
0
 10
47.888
 11
47.441
 20
-9.023
 21
-9.193
  0
LINE
  8
0
 10
47.441
 11
46.965
 20
-9.193
 21
-9.135
  0
LINE
  8
0
 10
46.965
 11
46.571
 20
-9.135
 21
-8.863
  0
LINE
  8
0
 10
46.571
 11
46.349
 20
-8.863
 21
-8.439
  0
LINE
  8
0
 10
148.929
 11
148.929
 20
-146.239
 21
-145.761
  0
LINE
  8
0
 10
148.929
 11
149.151
 20
-145.761
 21
-145.337
  0
LINE
  8
0
 10
149.151
 11
149.545
 20
-145.337
 21
-145.065
  0
LINE
  8
0
 10
149.545
 11
150.021
 20
-145.065
 21
-145.007
  0
LINE
  8
0
 10
150.021
 11
150.468
 20
-145.007
 21
-145.177
  0
LINE
  8
0
 10
150.468
 11
150.785
 20
-145.177
 21
-145.535
  0
LINE
  8
0
 10
150.785
 11
150.9
 20
-145.535
 21
-146
  0
LINE
  8
0
 10
150.9
 11
150.785
 20
-146
 21
-146.465
  0
LINE
  8
0
 10
150.785
 11
150.468
 20
-146.465
 21
-146.823
  0
LINE
  8
0
 10
150.468
 11
150.021
 20
-146.823
 21
-146.993
  0
LINE
  8
0
 10
150.021
 11
149.545
 20
-146.993
 21
-146.935
  0
LINE
  8
0
 10
149.545
 11
149.151
 20
-146.935
 21
-146.663
  0
LINE
  8
0
 10
149.151
 11
148.929
 20
-146.663
 21
-146.239
  0
LINE
  8
0
 10
191.234
 11
191.234
 20
-138.689
 21
-138.211
  0
LINE
  8
0
 10
191.234
 11
191.493
 20
-138.211
 21
-137.808
  0
LINE
  8
0
 10
191.493
 11
191.929
 20
-137.808
 21
-137.609
  0
LINE
  8
0
 10
191.929
 11
192.403
 20
-137.609
 21
-137.677
  0
LINE
  8
0
 10
192.403
 11
192.765
 20
-137.677
 21
-137.99
  0
LINE
  8
0
 10
192.765
 11
192.9
 20
-137.99
 21
-138.45
  0
LINE
  8
0
 10
192.9
 11
192.765
 20
-138.45
 21
-138.91
  0
LINE
  8
0
 10
192.765
 11
192.403
 20
-138.91
 21
-139.223
  0
LINE
  8
0
 10
192.403
 11
191.929
 20
-139.223
 21
-139.291
  0
LINE
  8
0
 10
191.929
 11
191.493
 20
-139.291
 21
-139.092
  0
LINE
  8
0
 10
191.493
 11
191.234
 20
-139.092
 21
-138.689
  0
LINE
  8
0
 10
191.234
 11
191.234
 20
-107.189
 21
-106.711
  0
LINE
  8
0
 10
191.234
 11
191.493
 20
-106.711
 21
-106.308
  0
LINE
  8
0
 10
191.493
 11
191.929
 20
-106.308
 21
-106.109
  0
LINE
  8
0
 10
191.929
 11
192.403
 20
-106.109
 21
-106.177
  0
LINE
  8
0
 10
192.403
 11
192.765
 20
-106.177
 21
-106.49
  0
LINE
  8
0
 10
192.765
 11
192.9
 20
-106.49
 21
-106.95
  0
LINE
  8
0
 10
192.9
 11
192.765
 20
-106.95
 21
-107.41
  0
LINE
  8
0
 10
192.765
 11
192.403
 20
-107.41
 21
-107.723
  0
LINE
  8
0
 10
192.403
 11
191.929
 20
-107.723
 21
-107.791
  0
LINE
  8
0
 10
191.929
 11
191.493
 20
-107.791
 21
-107.592
  0
LINE
  8
0
 10
191.493
 11
191.234
 20
-107.592
 21
-107.189
  0
LINE
  8
0
 10
205.534
 11
205.534
 20
-122.789
 21
-122.311
  0
LINE
  8
0
 10
205.534
 11
205.793
 20
-122.311
 21
-121.908
  0
LINE
  8
0
 10
205.793
 11
206.229
 20
-121.908
 21
-121.709
  0
LINE
  8
0
 10
206.229
 11
206.703
 20
-121.709
 21
-121.777
  0
LINE
  8
0
 10
206.703
 11
207.065
 20
-121.777
 21
-122.09
  0
LINE
  8
0
 10
207.065
 11
207.2
 20
-122.09
 21
-122.55
  0
LINE
  8
0
 10
207.2
 11
207.065
 20
-122.55
 21
-123.01
  0
LINE
  8
0
 10
207.065
 11
206.703
 20
-123.01
 21
-123.323
  0
LINE
  8
0
 10
206.703
 11
206.229
 20
-123.323
 21
-123.391
  0
LINE
  8
0
 10
206.229
 11
205.793
 20
-123.391
 21
-123.192
  0
LINE
  8
0
 10
205.793
 11
205.534
 20
-123.192
 21
-122.789
  0
LINE
  8
0
 10
205.534
 11
205.534
 20
-91.289
 21
-90.811
  0
LINE
  8
0
 10
205.534
 11
205.793
 20
-90.811
 21
-90.408
  0
LINE
  8
0
 10
205.793
 11
206.229
 20
-90.408
 21
-90.209
  0
LINE
  8
0
 10
206.229
 11
206.703
 20
-90.209
 21
-90.277
  0
LINE
  8
0
 10
206.703
 11
207.065
 20
-90.277
 21
-90.59
  0
LINE
  8
0
 10
207.065
 11
207.2
 20
-90.59
 21
-91.05
  0
LINE
  8
0
 10
207.2
 11
207.065
 20
-91.05
 21
-91.51
  0
LINE
  8
0
 10
207.065
 11
206.703
 20
-91.51
 21
-91.823
  0
LINE
  8
0
 10
206.703
 11
206.229
 20
-91.823
 21
-91.891
  0
LINE
  8
0
 10
206.229
 11
205.793
 20
-91.891
 21
-91.692
  0
LINE
  8
0
 10
205.793
 11
205.534
 20
-91.692
 21
-91.289
  0
LINE
  8
0
 10
252.46
 11
252.555
 20
-98.09
 21
-97.612
  0
LINE
  8
0
 10
252.555
 11
252.826
 20
-97.612
 21
-97.206
  0
LINE
  8
0
 10
252.826
 11
253.232
 20
-97.206
 21
-96.935
  0
LINE
  8
0
 10
253.232
 11
253.71
 20
-96.935
 21
-96.84
  0
LINE
  8
0
 10
253.71
 11
254.188
 20
-96.84
 21
-96.935
  0
LINE
  8
0
 10
254.188
 11
254.594
 20
-96.935
 21
-97.206
  0
LINE
  8
0
 10
254.594
 11
254.865
 20
-97.206
 21
-97.612
  0
LINE
  8
0
 10
254.865
 11
254.96
 20
-97.612
 21
-98.09
  0
LINE
  8
0
 10
254.96
 11
254.865
 20
-98.09
 21
-98.568
  0
LINE
  8
0
 10
254.865
 11
254.594
 20
-98.568
 21
-98.974
  0
LINE
  8
0
 10
254.594
 11
254.188
 20
-98.974
 21
-99.245
  0
LINE
  8
0
 10
254.188
 11
253.71
 20
-99.245
 21
-99.34
  0
LINE
  8
0
 10
253.71
 11
253.232
 20
-99.34
 21
-99.245
  0
LINE
  8
0
 10
253.232
 11
252.826
 20
-99.245
 21
-98.974
  0
LINE
  8
0
 10
252.826
 11
252.555
 20
-98.974
 21
-98.568
  0
LINE
  8
0
 10
252.555
 11
252.46
 20
-98.568
 21
-98.09
  0
LINE
  8
0
 10
252.46
 11
252.555
 20
-54.91
 21
-54.432
  0
LINE
  8
0
 10
252.555
 11
252.826
 20
-54.432
 21
-54.026
  0
LINE
  8
0
 10
252.826
 11
253.232
 20
-54.026
 21
-53.755
  0
LINE
  8
0
 10
253.232
 11
253.71
 20
-53.755
 21
-53.66
  0
LINE
  8
0
 10
253.71
 11
254.188
 20
-53.66
 21
-53.755
  0
LINE
  8
0
 10
254.188
 11
254.594
 20
-53.755
 21
-54.026
  0
LINE
  8
0
 10
254.594
 11
254.865
 20
-54.026
 21
-54.432
  0
LINE
  8
0
 10
254.865
 11
254.96
 20
-54.432
 21
-54.91
  0
LINE
  8
0
 10
254.96
 11
254.865
 20
-54.91
 21
-55.388
  0
LINE
  8
0
 10
254.865
 11
254.594
 20
-55.388
 21
-55.794
  0
LINE
  8
0
 10
254.594
 11
254.188
 20
-55.794
 21
-56.065
  0
LINE
  8
0
 10
254.188
 11
253.71
 20
-56.065
 21
-56.16
  0
LINE
  8
0
 10
253.71
 11
253.232
 20
-56.16
 21
-56.065
  0
LINE
  8
0
 10
253.232
 11
252.826
 20
-56.065
 21
-55.794
  0
LINE
  8
0
 10
252.826
 11
252.555
 20
-55.794
 21
-55.388
  0
LINE
  8
0
 10
252.555
 11
252.46
 20
-55.388
 21
-54.91
  0
LINE
  8
0
 10
335.512
 11
335.626
 20
-32.1
 21
-31.635
  0
LINE
  8
0
 10
335.626
 11
335.944
 20
-31.635
 21
-31.277
  0
LINE
  8
0
 10
335.944
 11
336.391
 20
-31.277
 21
-31.107
  0
LINE
  8
0
 10
336.391
 11
336.866
 20
-31.107
 21
-31.165
  0
LINE
  8
0
 10
336.866
 11
337.26
 20
-31.165
 21
-31.437
  0
LINE
  8
0
 10
337.26
 11
337.483
 20
-31.437
 21
-31.861
  0
LINE
  8
0
 10
337.483
 11
337.483
 20
-31.861
 21
-32.339
  0
LINE
  8
0
 10
337.483
 11
337.26
 20
-32.339
 21
-32.763
  0
LINE
  8
0
 10
337.26
 11
336.866
 20
-32.763
 21
-33.035
  0
LINE
  8
0
 10
336.866
 11
336.391
 20
-33.035
 21
-33.093
  0
LINE
  8
0
 10
336.391
 11
335.944
 20
-33.093
 21
-32.923
  0
LINE
  8
0
 10
335.944
 11
335.626
 20
-32.923
 21
-32.565
  0
LINE
  8
0
 10
335.626
 11
335.512
 20
-32.565
 21
-32.1
  0
LINE
  8
0
 10
346.44
 11
346.535
 20
-98.09
 21
-97.612
  0
LINE
  8
0
 10
346.535
 11
346.806
 20
-97.612
 21
-97.206
  0
LINE
  8
0
 10
346.806
 11
347.212
 20
-97.206
 21
-96.935
  0
LINE
  8
0
 10
347.212
 11
347.69
 20
-96.935
 21
-96.84
  0
LINE
  8
0
 10
347.69
 11
348.168
 20
-96.84
 21
-96.935
  0
LINE
  8
0
 10
348.168
 11
348.574
 20
-96.935
 21
-97.206
  0
LINE
  8
0
 10
348.574
 11
348.845
 20
-97.206
 21
-97.612
  0
LINE
  8
0
 10
348.845
 11
348.94
 20
-97.612
 21
-98.09
  0
LINE
  8
0
 10
348.94
 11
348.845
 20
-98.09
 21
-98.568
  0
LINE
  8
0
 10
348.845
 11
348.574
 20
-98.568
 21
-98.974
  0
LINE
  8
0
 10
348.574
 11
348.168
 20
-98.974
 21
-99.245
  0
LINE
  8
0
 10
348.168
 11
347.69
 20
-99.245
 21
-99.34
  0
LINE
  8
0
 10
347.69
 11
347.212
 20
-99.34
 21
-99.245
  0
LINE
  8
0
 10
347.212
 11
346.806
 20
-99.245
 21
-98.974
  0
LINE
  8
0
 10
346.806
 11
346.535
 20
-98.974
 21
-98.568
  0
LINE
  8
0
 10
346.535
 11
346.44
 20
-98.568
 21
-98.09
  0
LINE
  8
0
 10
346.44
 11
346.535
 20
-54.91
 21
-54.432
  0
LINE
  8
0
 10
346.535
 11
346.806
 20
-54.432
 21
-54.026
  0
LINE
  8
0
 10
346.806
 11
347.212
 20
-54.026
 21
-53.755
  0
LINE
  8
0
 10
347.212
 11
347.69
 20
-53.755
 21
-53.66
  0
LINE
  8
0
 10
347.69
 11
348.168
 20
-53.66
 21
-53.755
  0
LINE
  8
0
 10
348.168
 11
348.574
 20
-53.755
 21
-54.026
  0
LINE
  8
0
 10
348.574
 11
348.845
 20
-54.026
 21
-54.432
  0
LINE
  8
0
 10
348.845
 11
348.94
 20
-54.432
 21
-54.91
  0
LINE
  8
0
 10
348.94
 11
348.845
 20
-54.91
 21
-55.388
  0
LINE
  8
0
 10
348.845
 11
348.574
 20
-55.388
 21
-55.794
  0
LINE
  8
0
 10
348.574
 11
348.168
 20
-55.794
 21
-56.065
  0
LINE
  8
0
 10
348.168
 11
347.69
 20
-56.065
 21
-56.16
  0
LINE
  8
0
 10
347.69
 11
347.212
 20
-56.16
 21
-56.065
  0
LINE
  8
0
 10
347.212
 11
346.806
 20
-56.065
 21
-55.794
  0
LINE
  8
0
 10
346.806
 11
346.535
 20
-55.794
 21
-55.388
  0
LINE
  8
0
 10
346.535
 11
346.44
 20
-55.388
 21
-54.91
  0
LINE
  8
0
 10
360.08
 11
360.121
 20
-8
 21
-7.506
  0
LINE
  8
0
 10
360.121
 11
360.243
 20
-7.506
 21
-7.026
  0
LINE
  8
0
 10
360.243
 11
360.442
 20
-7.026
 21
-6.572
  0
LINE
  8
0
 10
360.442
 11
360.713
 20
-6.572
 21
-6.157
  0
LINE
  8
0
 10
360.713
 11
361.048
 20
-6.157
 21
-5.793
  0
LINE
  8
0
 10
361.048
 11
361.439
 20
-5.793
 21
-5.489
  0
LINE
  8
0
 10
361.439
 11
361.875
 20
-5.489
 21
-5.253
  0
LINE
  8
0
 10
361.875
 11
362.344
 20
-5.253
 21
-5.092
  0
LINE
  8
0
 10
362.344
 11
362.832
 20
-5.092
 21
-5.01
  0
LINE
  8
0
 10
362.832
 11
363.328
 20
-5.01
 21
-5.01
  0
LINE
  8
0
 10
363.328
 11
363.816
 20
-5.01
 21
-5.092
  0
LINE
  8
0
 10
363.816
 11
364.285
 20
-5.092
 21
-5.253
  0
LINE
  8
0
 10
364.285
 11
364.721
 20
-5.253
 21
-5.489
  0
LINE
  8
0
 10
364.721
 11
365.112
 20
-5.489
 21
-5.793
  0
LINE
  8
0
 10
365.112
 11
365.447
 20
-5.793
 21
-6.157
  0
LINE
  8
0
 10
365.447
 11
365.718
 20
-6.157
 21
-6.572
  0
LINE
  8
0
 10
365.718
 11
365.917
 20
-6.572
 21
-7.026
  0
LINE
  8
0
 10
365.917
 11
366.039
 20
-7.026
 21
-7.506
  0
LINE
  8
0
 10
366.039
 11
366.08
 20
-7.506
 21
-8
  0
LINE
  8
0
 10
366.08
 11
366.039
 20
-8
 21
-8.494
  0
LINE
  8
0
 10
366.039
 11
365.917
 20
-8.494
 21
-8.974
  0
LINE
  8
0
 10
365.917
 11
365.718
 20
-8.974
 21
-9.428
  0
LINE
  8
0
 10
365.718
 11
365.447
 20
-9.428
 21
-9.843
  0
LINE
  8
0
 10
365.447
 11
365.112
 20
-9.843
 21
-10.207
  0
LINE
  8
0
 10
365.112
 11
364.721
 20
-10.207
 21
-10.511
  0
LINE
  8
0
 10
364.721
 11
364.285
 20
-10.511
 21
-10.747
  0
LINE
  8
0
 10
364.285
 11
363.816
 20
-10.747
 21
-10.908
  0
LINE
  8
0
 10
363.816
 11
363.328
 20
-10.908
 21
-10.99
  0
LINE
  8
0
 10
363.328
 11
362.832
 20
-10.99
 21
-10.99
  0
LINE
  8
0
 10
362.832
 11
362.344
 20
-10.99
 21
-10.908
  0
LINE
  8
0
 10
362.344
 11
361.875
 20
-10.908
 21
-10.747
  0
LINE
  8
0
 10
361.875
 11
361.439
 20
-10.747
 21
-10.511
  0
LINE
  8
0
 10
361.439
 11
361.048
 20
-10.511
 21
-10.207
  0
LINE
  8
0
 10
361.048
 11
360.713
 20
-10.207
 21
-9.843
  0
LINE
  8
0
 10
360.713
 11
360.442
 20
-9.843
 21
-9.428
  0
LINE
  8
0
 10
360.442
 11
360.243
 20
-9.428
 21
-8.974
  0
LINE
  8
0
 10
360.243
 11
360.121
 20
-8.974
 21
-8.494
  0
LINE
  8
0
 10
360.121
 11
360.08
 20
-8.494
 21
-8
  0
LINE
  8
0
 10
372.58
 11
372.638
 20
-7
 21
-6.521
  0
LINE
  8
0
 10
372.638
 11
372.809
 20
-6.521
 21
-6.071
  0
LINE
  8
0
 10
372.809
 11
373.083
 20
-6.071
 21
-5.674
  0
LINE
  8
0
 10
373.083
 11
373.444
 20
-5.674
 21
-5.354
  0
LINE
  8
0
 10
373.444
 11
373.871
 20
-5.354
 21
-5.13
  0
LINE
  8
0
 10
373.871
 11
374.339
 20
-5.13
 21
-5.015
  0
LINE
  8
0
 10
374.339
 11
374.821
 20
-5.015
 21
-5.015
  0
LINE
  8
0
 10
374.821
 11
375.289
 20
-5.015
 21
-5.13
  0
LINE
  8
0
 10
375.289
 11
375.716
 20
-5.13
 21
-5.354
  0
LINE
  8
0
 10
375.716
 11
376.077
 20
-5.354
 21
-5.674
  0
LINE
  8
0
 10
376.077
 11
376.351
 20
-5.674
 21
-6.071
  0
LINE
  8
0
 10
376.351
 11
376.522
 20
-6.071
 21
-6.521
  0
LINE
  8
0
 10
376.522
 11
376.58
 20
-6.521
 21
-7
  0
LINE
  8
0
 10
376.58
 11
376.522
 20
-7
 21
-7.479
  0
LINE
  8
0
 10
376.522
 11
376.351
 20
-7.479
 21
-7.929
  0
LINE
  8
0
 10
376.351
 11
376.077
 20
-7.929
 21
-8.326
  0
LINE
  8
0
 10
376.077
 11
375.716
 20
-8.326
 21
-8.646
  0
LINE
  8
0
 10
375.716
 11
375.289
 20
-8.646
 21
-8.87
  0
LINE
  8
0
 10
375.289
 11
374.821
 20
-8.87
 21
-8.985
  0
LINE
  8
0
 10
374.821
 11
374.339
 20
-8.985
 21
-8.985
  0
LINE
  8
0
 10
374.339
 11
373.871
 20
-8.985
 21
-8.87
  0
LINE
  8
0
 10
373.871
 11
373.444
 20
-8.87
 21
-8.646
  0
LINE
  8
0
 10
373.444
 11
373.083
 20
-8.646
 21
-8.326
  0
LINE
  8
0
 10
373.083
 11
372.809
 20
-8.326
 21
-7.929
  0
LINE
  8
0
 10
372.809
 11
372.638
 20
-7.929
 21
-7.479
  0
LINE
  8
0
 10
372.638
 11
372.58
 20
-7.479
 21
-7
  0
LINE
  8
0
 10
386.709
 11
386.709
 20
-8.439
 21
-7.961
  0
LINE
  8
0
 10
386.709
 11
386.931
 20
-7.961
 21
-7.537
  0
LINE
  8
0
 10
386.931
 11
387.325
 20
-7.537
 21
-7.265
  0
LINE
  8
0
 10
387.325
 11
387.801
 20
-7.265
 21
-7.207
  0
LINE
  8
0
 10
387.801
 11
388.248
 20
-7.207
 21
-7.377
  0
LINE
  8
0
 10
388.248
 11
388.565
 20
-7.377
 21
-7.735
  0
LINE
  8
0
 10
388.565
 11
388.68
 20
-7.735
 21
-8.2
  0
LINE
  8
0
 10
388.68
 11
388.565
 20
-8.2
 21
-8.665
  0
LINE
  8
0
 10
388.565
 11
388.248
 20
-8.665
 21
-9.023
  0
LINE
  8
0
 10
388.248
 11
387.801
 20
-9.023
 21
-9.193
  0
LINE
  8
0
 10
387.801
 11
387.325
 20
-9.193
 21
-9.135
  0
LINE
  8
0
 10
387.325
 11
386.931
 20
-9.135
 21
-8.863
  0
LINE
  8
0
 10
386.931
 11
386.709
 20
-8.863
 21
-8.439
  0
LINE
  8
0
 10
407.929
 11
407.929
 20
-8.439
 21
-7.961
  0
LINE
  8
0
 10
407.929
 11
408.151
 20
-7.961
 21
-7.537
  0
LINE
  8
0
 10
408.151
 11
408.545
 20
-7.537
 21
-7.265
  0
LINE
  8
0
 10
408.545
 11
409.021
 20
-7.265
 21
-7.207
  0
LINE
  8
0
 10
409.021
 11
409.468
 20
-7.207
 21
-7.377
  0
LINE
  8
0
 10
409.468
 11
409.785
 20
-7.377
 21
-7.735
  0
LINE
  8
0
 10
409.785
 11
409.9
 20
-7.735
 21
-8.2
  0
LINE
  8
0
 10
409.9
 11
409.785
 20
-8.2
 21
-8.665
  0
LINE
  8
0
 10
409.785
 11
409.468
 20
-8.665
 21
-9.023
  0
LINE
  8
0
 10
409.468
 11
409.021
 20
-9.023
 21
-9.193
  0
LINE
  8
0
 10
409.021
 11
408.545
 20
-9.193
 21
-9.135
  0
LINE
  8
0
 10
408.545
 11
408.151
 20
-9.135
 21
-8.863
  0
LINE
  8
0
 10
408.151
 11
407.929
 20
-8.863
 21
-8.439
  0
ENDSEC
  0
SECTION
  2
OBJECTS
  0
DICTIONARY
  0
ENDSEC
  0
EOF
