  0
SECTION
  2
BLOCKS
  0
ENDSEC
  0
SECTION
  2
ENTITIES
  0
LINE
  8
0
 10
-261.411
 11
-261.411
 20
64.461
 21
64.939
  0
LINE
  8
0
 10
-261.411
 11
-261.189
 20
64.939
 21
65.363
  0
LINE
  8
0
 10
-261.189
 11
-260.795
 20
65.363
 21
65.635
  0
LINE
  8
0
 10
-260.795
 11
-260.319
 20
65.635
 21
65.693
  0
LINE
  8
0
 10
-260.319
 11
-259.872
 20
65.693
 21
65.523
  0
LINE
  8
0
 10
-259.872
 11
-259.555
 20
65.523
 21
65.165
  0
LINE
  8
0
 10
-259.555
 11
-259.44
 20
65.165
 21
64.7
  0
LINE
  8
0
 10
-259.44
 11
-259.555
 20
64.7
 21
64.235
  0
LINE
  8
0
 10
-259.555
 11
-259.872
 20
64.235
 21
63.877
  0
LINE
  8
0
 10
-259.872
 11
-260.319
 20
63.877
 21
63.707
  0
LINE
  8
0
 10
-260.319
 11
-260.795
 20
63.707
 21
63.765
  0
LINE
  8
0
 10
-260.795
 11
-261.189
 20
63.765
 21
64.037
  0
LINE
  8
0
 10
-261.189
 11
-261.411
 20
64.037
 21
64.461
  0
LINE
  8
0
 10
-252.242
 11
-252.242
 20
-0.246
 21
0.246
  0
LINE
  8
0
 10
-252.242
 11
-252.182
 20
0.246
 21
0.735
  0
LINE
  8
0
 10
-252.182
 11
-252.062
 20
0.735
 21
1.213
  0
LINE
  8
0
 10
-252.062
 11
-251.884
 20
1.213
 21
1.672
  0
LINE
  8
0
 10
-251.884
 11
-251.651
 20
1.672
 21
2.106
  0
LINE
  8
0
 10
-251.651
 11
-251.366
 20
2.106
 21
2.508
  0
LINE
  8
0
 10
-251.366
 11
-251.035
 20
2.508
 21
2.872
  0
LINE
  8
0
 10
-251.035
 11
-250.661
 20
2.872
 21
3.192
  0
LINE
  8
0
 10
-250.661
 11
-250.25
 20
3.192
 21
3.464
  0
LINE
  8
0
 10
-250.25
 11
-249.809
 20
3.464
 21
3.684
  0
LINE
  8
0
 10
-249.809
 11
-249.345
 20
3.684
 21
3.847
  0
LINE
  8
0
 10
-249.345
 11
-248.864
 20
3.847
 21
3.953
  0
LINE
  8
0
 10
-248.864
 11
-248.373
 20
3.953
 21
3.998
  0
LINE
  8
0
 10
-248.373
 11
-247.881
 20
3.998
 21
3.983
  0
LINE
  8
0
 10
-247.881
 11
-247.394
 20
3.983
 21
3.907
  0
LINE
  8
0
 10
-247.394
 11
-246.921
 20
3.907
 21
3.773
  0
LINE
  8
0
 10
-246.921
 11
-246.467
 20
3.773
 21
3.581
  0
LINE
  8
0
 10
-246.467
 11
-246.041
 20
3.581
 21
3.334
  0
LINE
  8
0
 10
-246.041
 11
-245.648
 20
3.334
 21
3.038
  0
LINE
  8
0
 10
-245.648
 11
-245.294
 20
3.038
 21
2.695
  0
LINE
  8
0
 10
-245.294
 11
-244.985
 20
2.695
 21
2.311
  0
LINE
  8
0
 10
-244.985
 11
-244.726
 20
2.311
 21
1.892
  0
LINE
  8
0
 10
-244.726
 11
-244.52
 20
1.892
 21
1.445
  0
LINE
  8
0
 10
-244.52
 11
-244.371
 20
1.445
 21
0.976
  0
LINE
  8
0
 10
-244.371
 11
-244.28
 20
0.976
 21
0.492
  0
LINE
  8
0
 10
-244.28
 11
-244.25
 20
0.492
 21
0
  0
LINE
  8
0
 10
-244.25
 11
-244.28
 20
0
 21
-0.492
  0
LINE
  8
0
 10
-244.28
 11
-244.371
 20
-0.492
 21
-0.976
  0
LINE
  8
0
 10
-244.371
 11
-244.52
 20
-0.976
 21
-1.445
  0
LINE
  8
0
 10
-244.52
 11
-244.726
 20
-1.445
 21
-1.892
  0
LINE
  8
0
 10
-244.726
 11
-244.985
 20
-1.892
 21
-2.311
  0
LINE
  8
0
 10
-244.985
 11
-245.294
 20
-2.311
 21
-2.695
  0
LINE
  8
0
 10
-245.294
 11
-245.648
 20
-2.695
 21
-3.038
  0
LINE
  8
0
 10
-245.648
 11
-246.041
 20
-3.038
 21
-3.334
  0
LINE
  8
0
 10
-246.041
 11
-246.467
 20
-3.334
 21
-3.581
  0
LINE
  8
0
 10
-246.467
 11
-246.921
 20
-3.581
 21
-3.773
  0
LINE
  8
0
 10
-246.921
 11
-247.394
 20
-3.773
 21
-3.907
  0
LINE
  8
0
 10
-247.394
 11
-247.881
 20
-3.907
 21
-3.983
  0
LINE
  8
0
 10
-247.881
 11
-248.373
 20
-3.983
 21
-3.998
  0
LINE
  8
0
 10
-248.373
 11
-248.864
 20
-3.998
 21
-3.953
  0
LINE
  8
0
 10
-248.864
 11
-249.345
 20
-3.953
 21
-3.847
  0
LINE
  8
0
 10
-249.345
 11
-249.809
 20
-3.847
 21
-3.684
  0
LINE
  8
0
 10
-249.809
 11
-250.25
 20
-3.684
 21
-3.464
  0
LINE
  8
0
 10
-250.25
 11
-250.661
 20
-3.464
 21
-3.192
  0
LINE
  8
0
 10
-250.661
 11
-251.035
 20
-3.192
 21
-2.872
  0
LINE
  8
0
 10
-251.035
 11
-251.366
 20
-2.872
 21
-2.508
  0
LINE
  8
0
 10
-251.366
 11
-251.651
 20
-2.508
 21
-2.106
  0
LINE
  8
0
 10
-251.651
 11
-251.884
 20
-2.106
 21
-1.672
  0
LINE
  8
0
 10
-251.884
 11
-252.062
 20
-1.672
 21
-1.213
  0
LINE
  8
0
 10
-252.062
 11
-252.182
 20
-1.213
 21
-0.735
  0
LINE
  8
0
 10
-252.182
 11
-252.242
 20
-0.735
 21
-0.246
  0
LINE
  8
0
 10
-205.043
 11
-204.985
 20
189.069
 21
189.545
  0
LINE
  8
0
 10
-204.985
 11
-204.713
 20
189.545
 21
189.939
  0
LINE
  8
0
 10
-204.713
 11
-204.289
 20
189.939
 21
190.161
  0
LINE
  8
0
 10
-204.289
 11
-203.811
 20
190.161
 21
190.161
  0
LINE
  8
0
 10
-203.811
 11
-203.387
 20
190.161
 21
189.939
  0
LINE
  8
0
 10
-203.387
 11
-203.115
 20
189.939
 21
189.545
  0
LINE
  8
0
 10
-203.115
 11
-203.057
 20
189.545
 21
189.069
  0
LINE
  8
0
 10
-203.057
 11
-203.227
 20
189.069
 21
188.622
  0
LINE
  8
0
 10
-203.227
 11
-203.585
 20
188.622
 21
188.305
  0
LINE
  8
0
 10
-203.585
 11
-204.05
 20
188.305
 21
188.19
  0
LINE
  8
0
 10
-204.05
 11
-204.515
 20
188.19
 21
188.305
  0
LINE
  8
0
 10
-204.515
 11
-204.873
 20
188.305
 21
188.622
  0
LINE
  8
0
 10
-204.873
 11
-205.043
 20
188.622
 21
189.069
  0
LINE
  8
0
 10
-189.031
 11
-189.031
 20
64.461
 21
64.939
  0
LINE
  8
0
 10
-189.031
 11
-188.809
 20
64.939
 21
65.363
  0
LINE
  8
0
 10
-188.809
 11
-188.415
 20
65.363
 21
65.635
  0
LINE
  8
0
 10
-188.415
 11
-187.939
 20
65.635
 21
65.693
  0
LINE
  8
0
 10
-187.939
 11
-187.492
 20
65.693
 21
65.523
  0
LINE
  8
0
 10
-187.492
 11
-187.175
 20
65.523
 21
65.165
  0
LINE
  8
0
 10
-187.175
 11
-187.06
 20
65.165
 21
64.7
  0
LINE
  8
0
 10
-187.06
 11
-187.175
 20
64.7
 21
64.235
  0
LINE
  8
0
 10
-187.175
 11
-187.492
 20
64.235
 21
63.877
  0
LINE
  8
0
 10
-187.492
 11
-187.939
 20
63.877
 21
63.707
  0
LINE
  8
0
 10
-187.939
 11
-188.415
 20
63.707
 21
63.765
  0
LINE
  8
0
 10
-188.415
 11
-188.809
 20
63.765
 21
64.037
  0
LINE
  8
0
 10
-188.809
 11
-189.031
 20
64.037
 21
64.461
  0
LINE
  8
0
 10
-145.243
 11
-145.073
 20
-200.879
 21
-200.432
  0
LINE
  8
0
 10
-145.073
 11
-144.715
 20
-200.432
 21
-200.115
  0
LINE
  8
0
 10
-144.715
 11
-144.25
 20
-200.115
 21
-200
  0
LINE
  8
0
 10
-144.25
 11
-143.785
 20
-200
 21
-200.115
  0
LINE
  8
0
 10
-143.785
 11
-143.427
 20
-200.115
 21
-200.432
  0
LINE
  8
0
 10
-143.427
 11
-143.257
 20
-200.432
 21
-200.879
  0
LINE
  8
0
 10
-143.257
 11
-143.315
 20
-200.879
 21
-201.355
  0
LINE
  8
0
 10
-143.315
 11
-143.587
 20
-201.355
 21
-201.749
  0
LINE
  8
0
 10
-143.587
 11
-144.011
 20
-201.749
 21
-201.971
  0
LINE
  8
0
 10
-144.011
 11
-144.489
 20
-201.971
 21
-201.971
  0
LINE
  8
0
 10
-144.489
 11
-144.913
 20
-201.971
 21
-201.749
  0
LINE
  8
0
 10
-144.913
 11
-145.185
 20
-201.749
 21
-201.355
  0
LINE
  8
0
 10
-145.185
 11
-145.243
 20
-201.355
 21
-200.879
  0
LINE
  8
0
 10
-145.243
 11
-145.073
 20
201.121
 21
201.568
  0
LINE
  8
0
 10
-145.073
 11
-144.715
 20
201.568
 21
201.885
  0
LINE
  8
0
 10
-144.715
 11
-144.25
 20
201.885
 21
202
  0
LINE
  8
0
 10
-144.25
 11
-143.785
 20
202
 21
201.885
  0
LINE
  8
0
 10
-143.785
 11
-143.427
 20
201.885
 21
201.568
  0
LINE
  8
0
 10
-143.427
 11
-143.257
 20
201.568
 21
201.121
  0
LINE
  8
0
 10
-143.257
 11
-143.315
 20
201.121
 21
200.645
  0
LINE
  8
0
 10
-143.315
 11
-143.587
 20
200.645
 21
200.251
  0
LINE
  8
0
 10
-143.587
 11
-144.011
 20
200.251
 21
200.029
  0
LINE
  8
0
 10
-144.011
 11
-144.489
 20
200.029
 21
200.029
  0
LINE
  8
0
 10
-144.489
 11
-144.913
 20
200.029
 21
200.251
  0
LINE
  8
0
 10
-144.913
 11
-145.185
 20
200.251
 21
200.645
  0
LINE
  8
0
 10
-145.185
 11
-145.243
 20
200.645
 21
201.121
  0
LINE
  8
0
 10
-110.243
 11
-110.073
 20
-200.879
 21
-200.432
  0
LINE
  8
0
 10
-110.073
 11
-109.715
 20
-200.432
 21
-200.115
  0
LINE
  8
0
 10
-109.715
 11
-109.25
 20
-200.115
 21
-200
  0
LINE
  8
0
 10
-109.25
 11
-108.785
 20
-200
 21
-200.115
  0
LINE
  8
0
 10
-108.785
 11
-108.427
 20
-200.115
 21
-200.432
  0
LINE
  8
0
 10
-108.427
 11
-108.257
 20
-200.432
 21
-200.879
  0
LINE
  8
0
 10
-108.257
 11
-108.315
 20
-200.879
 21
-201.355
  0
LINE
  8
0
 10
-108.315
 11
-108.587
 20
-201.355
 21
-201.749
  0
LINE
  8
0
 10
-108.587
 11
-109.011
 20
-201.749
 21
-201.971
  0
LINE
  8
0
 10
-109.011
 11
-109.489
 20
-201.971
 21
-201.971
  0
LINE
  8
0
 10
-109.489
 11
-109.913
 20
-201.971
 21
-201.749
  0
LINE
  8
0
 10
-109.913
 11
-110.185
 20
-201.749
 21
-201.355
  0
LINE
  8
0
 10
-110.185
 11
-110.243
 20
-201.355
 21
-200.879
  0
LINE
  8
0
 10
-110.243
 11
-110.073
 20
201.121
 21
201.568
  0
LINE
  8
0
 10
-110.073
 11
-109.715
 20
201.568
 21
201.885
  0
LINE
  8
0
 10
-109.715
 11
-109.25
 20
201.885
 21
202
  0
LINE
  8
0
 10
-109.25
 11
-108.785
 20
202
 21
201.885
  0
LINE
  8
0
 10
-108.785
 11
-108.427
 20
201.885
 21
201.568
  0
LINE
  8
0
 10
-108.427
 11
-108.257
 20
201.568
 21
201.121
  0
LINE
  8
0
 10
-108.257
 11
-108.315
 20
201.121
 21
200.645
  0
LINE
  8
0
 10
-108.315
 11
-108.587
 20
200.645
 21
200.251
  0
LINE
  8
0
 10
-108.587
 11
-109.011
 20
200.251
 21
200.029
  0
LINE
  8
0
 10
-109.011
 11
-109.489
 20
200.029
 21
200.029
  0
LINE
  8
0
 10
-109.489
 11
-109.913
 20
200.029
 21
200.251
  0
LINE
  8
0
 10
-109.913
 11
-110.185
 20
200.251
 21
200.645
  0
LINE
  8
0
 10
-110.185
 11
-110.243
 20
200.645
 21
201.121
  0
LINE
  8
0
 10
-39.231
 11
-39.231
 20
186.761
 21
187.239
  0
LINE
  8
0
 10
-39.231
 11
-39.009
 20
187.239
 21
187.663
  0
LINE
  8
0
 10
-39.009
 11
-38.615
 20
187.663
 21
187.935
  0
LINE
  8
0
 10
-38.615
 11
-38.139
 20
187.935
 21
187.993
  0
LINE
  8
0
 10
-38.139
 11
-37.692
 20
187.993
 21
187.823
  0
LINE
  8
0
 10
-37.692
 11
-37.375
 20
187.823
 21
187.465
  0
LINE
  8
0
 10
-37.375
 11
-37.26
 20
187.465
 21
187
  0
LINE
  8
0
 10
-37.26
 11
-37.375
 20
187
 21
186.535
  0
LINE
  8
0
 10
-37.375
 11
-37.692
 20
186.535
 21
186.177
  0
LINE
  8
0
 10
-37.692
 11
-38.139
 20
186.177
 21
186.007
  0
LINE
  8
0
 10
-38.139
 11
-38.615
 20
186.007
 21
186.065
  0
LINE
  8
0
 10
-38.615
 11
-39.009
 20
186.065
 21
186.337
  0
LINE
  8
0
 10
-39.009
 11
-39.231
 20
186.337
 21
186.761
  0
LINE
  8
0
 10
-28.731
 11
-28.731
 20
93.061
 21
93.539
  0
LINE
  8
0
 10
-28.731
 11
-28.509
 20
93.539
 21
93.963
  0
LINE
  8
0
 10
-28.509
 11
-28.115
 20
93.963
 21
94.235
  0
LINE
  8
0
 10
-28.115
 11
-27.639
 20
94.235
 21
94.293
  0
LINE
  8
0
 10
-27.639
 11
-27.192
 20
94.293
 21
94.123
  0
LINE
  8
0
 10
-27.192
 11
-26.875
 20
94.123
 21
93.765
  0
LINE
  8
0
 10
-26.875
 11
-26.76
 20
93.765
 21
93.3
  0
LINE
  8
0
 10
-26.76
 11
-26.875
 20
93.3
 21
92.835
  0
LINE
  8
0
 10
-26.875
 11
-27.192
 20
92.835
 21
92.477
  0
LINE
  8
0
 10
-27.192
 11
-27.639
 20
92.477
 21
92.307
  0
LINE
  8
0
 10
-27.639
 11
-28.115
 20
92.307
 21
92.365
  0
LINE
  8
0
 10
-28.115
 11
-28.509
 20
92.365
 21
92.637
  0
LINE
  8
0
 10
-28.509
 11
-28.731
 20
92.637
 21
93.061
  0
LINE
  8
0
 10
-20.753
 11
-20.695
 20
-202.121
 21
-201.645
  0
LINE
  8
0
 10
-20.695
 11
-20.423
 20
-201.645
 21
-201.251
  0
LINE
  8
0
 10
-20.423
 11
-19.999
 20
-201.251
 21
-201.029
  0
LINE
  8
0
 10
-19.999
 11
-19.521
 20
-201.029
 21
-201.029
  0
LINE
  8
0
 10
-19.521
 11
-19.097
 20
-201.029
 21
-201.251
  0
LINE
  8
0
 10
-19.097
 11
-18.825
 20
-201.251
 21
-201.645
  0
LINE
  8
0
 10
-18.825
 11
-18.767
 20
-201.645
 21
-202.121
  0
LINE
  8
0
 10
-18.767
 11
-18.937
 20
-202.121
 21
-202.568
  0
LINE
  8
0
 10
-18.937
 11
-19.295
 20
-202.568
 21
-202.885
  0
LINE
  8
0
 10
-19.295
 11
-19.76
 20
-202.885
 21
-203
  0
LINE
  8
0
 10
-19.76
 11
-20.225
 20
-203
 21
-202.885
  0
LINE
  8
0
 10
-20.225
 11
-20.583
 20
-202.885
 21
-202.568
  0
LINE
  8
0
 10
-20.583
 11
-20.753
 20
-202.568
 21
-202.121
  0
LINE
  8
0
 10
-20.753
 11
-20.695
 20
-139.121
 21
-138.645
  0
LINE
  8
0
 10
-20.695
 11
-20.423
 20
-138.645
 21
-138.251
  0
LINE
  8
0
 10
-20.423
 11
-19.999
 20
-138.251
 21
-138.029
  0
LINE
  8
0
 10
-19.999
 11
-19.521
 20
-138.029
 21
-138.029
  0
LINE
  8
0
 10
-19.521
 11
-19.097
 20
-138.029
 21
-138.251
  0
LINE
  8
0
 10
-19.097
 11
-18.825
 20
-138.251
 21
-138.645
  0
LINE
  8
0
 10
-18.825
 11
-18.767
 20
-138.645
 21
-139.121
  0
LINE
  8
0
 10
-18.767
 11
-18.937
 20
-139.121
 21
-139.568
  0
LINE
  8
0
 10
-18.937
 11
-19.295
 20
-139.568
 21
-139.885
  0
LINE
  8
0
 10
-19.295
 11
-19.76
 20
-139.885
 21
-140
  0
LINE
  8
0
 10
-19.76
 11
-20.225
 20
-140
 21
-139.885
  0
LINE
  8
0
 10
-20.225
 11
-20.583
 20
-139.885
 21
-139.568
  0
LINE
  8
0
 10
-20.583
 11
-20.753
 20
-139.568
 21
-139.121
  0
LINE
  8
0
 10
9.247
 11
9.305
 20
-202.121
 21
-201.645
  0
LINE
  8
0
 10
9.305
 11
9.577
 20
-201.645
 21
-201.251
  0
LINE
  8
0
 10
9.577
 11
10.001
 20
-201.251
 21
-201.029
  0
LINE
  8
0
 10
10.001
 11
10.479
 20
-201.029
 21
-201.029
  0
LINE
  8
0
 10
10.479
 11
10.903
 20
-201.029
 21
-201.251
  0
LINE
  8
0
 10
10.903
 11
11.175
 20
-201.251
 21
-201.645
  0
LINE
  8
0
 10
11.175
 11
11.233
 20
-201.645
 21
-202.121
  0
LINE
  8
0
 10
11.233
 11
11.063
 20
-202.121
 21
-202.568
  0
LINE
  8
0
 10
11.063
 11
10.705
 20
-202.568
 21
-202.885
  0
LINE
  8
0
 10
10.705
 11
10.24
 20
-202.885
 21
-203
  0
LINE
  8
0
 10
10.24
 11
9.775
 20
-203
 21
-202.885
  0
LINE
  8
0
 10
9.775
 11
9.417
 20
-202.885
 21
-202.568
  0
LINE
  8
0
 10
9.417
 11
9.247
 20
-202.568
 21
-202.121
  0
LINE
  8
0
 10
9.247
 11
9.305
 20
-139.121
 21
-138.645
  0
LINE
  8
0
 10
9.305
 11
9.577
 20
-138.645
 21
-138.251
  0
LINE
  8
0
 10
9.577
 11
10.001
 20
-138.251
 21
-138.029
  0
LINE
  8
0
 10
10.001
 11
10.479
 20
-138.029
 21
-138.029
  0
LINE
  8
0
 10
10.479
 11
10.903
 20
-138.029
 21
-138.251
  0
LINE
  8
0
 10
10.903
 11
11.175
 20
-138.251
 21
-138.645
  0
LINE
  8
0
 10
11.175
 11
11.233
 20
-138.645
 21
-139.121
  0
LINE
  8
0
 10
11.233
 11
11.063
 20
-139.121
 21
-139.568
  0
LINE
  8
0
 10
11.063
 11
10.705
 20
-139.568
 21
-139.885
  0
LINE
  8
0
 10
10.705
 11
10.24
 20
-139.885
 21
-140
  0
LINE
  8
0
 10
10.24
 11
9.775
 20
-140
 21
-139.885
  0
LINE
  8
0
 10
9.775
 11
9.417
 20
-139.885
 21
-139.568
  0
LINE
  8
0
 10
9.417
 11
9.247
 20
-139.568
 21
-139.121
  0
LINE
  8
0
 10
13.289
 11
13.289
 20
93.061
 21
93.539
  0
LINE
  8
0
 10
13.289
 11
13.511
 20
93.539
 21
93.963
  0
LINE
  8
0
 10
13.511
 11
13.905
 20
93.963
 21
94.235
  0
LINE
  8
0
 10
13.905
 11
14.381
 20
94.235
 21
94.293
  0
LINE
  8
0
 10
14.381
 11
14.828
 20
94.293
 21
94.123
  0
LINE
  8
0
 10
14.828
 11
15.145
 20
94.123
 21
93.765
  0
LINE
  8
0
 10
15.145
 11
15.26
 20
93.765
 21
93.3
  0
LINE
  8
0
 10
15.26
 11
15.145
 20
93.3
 21
92.835
  0
LINE
  8
0
 10
15.145
 11
14.828
 20
92.835
 21
92.477
  0
LINE
  8
0
 10
14.828
 11
14.381
 20
92.477
 21
92.307
  0
LINE
  8
0
 10
14.381
 11
13.905
 20
92.307
 21
92.365
  0
LINE
  8
0
 10
13.905
 11
13.511
 20
92.365
 21
92.637
  0
LINE
  8
0
 10
13.511
 11
13.289
 20
92.637
 21
93.061
  0
LINE
  8
0
 10
19.007
 11
19.065
 20
144.179
 21
144.655
  0
LINE
  8
0
 10
19.065
 11
19.337
 20
144.655
 21
145.049
  0
LINE
  8
0
 10
19.337
 11
19.761
 20
145.049
 21
145.271
  0
LINE
  8
0
 10
19.761
 11
20.239
 20
145.271
 21
145.271
  0
LINE
  8
0
 10
20.239
 11
20.663
 20
145.271
 21
145.049
  0
LINE
  8
0
 10
20.663
 11
20.935
 20
145.049
 21
144.655
  0
LINE
  8
0
 10
20.935
 11
20.993
 20
144.655
 21
144.179
  0
LINE
  8
0
 10
20.993
 11
20.823
 20
144.179
 21
143.732
  0
LINE
  8
0
 10
20.823
 11
20.465
 20
143.732
 21
143.415
  0
LINE
  8
0
 10
20.465
 11
20
 20
143.415
 21
143.3
  0
LINE
  8
0
 10
20
 11
19.535
 20
143.3
 21
143.415
  0
LINE
  8
0
 10
19.535
 11
19.177
 20
143.415
 21
143.732
  0
LINE
  8
0
 10
19.177
 11
19.007
 20
143.732
 21
144.179
  0
LINE
  8
0
 10
94.757
 11
94.815
 20
-138.621
 21
-138.145
  0
LINE
  8
0
 10
94.815
 11
95.087
 20
-138.145
 21
-137.751
  0
LINE
  8
0
 10
95.087
 11
95.511
 20
-137.751
 21
-137.529
  0
LINE
  8
0
 10
95.511
 11
95.989
 20
-137.529
 21
-137.529
  0
LINE
  8
0
 10
95.989
 11
96.413
 20
-137.529
 21
-137.751
  0
LINE
  8
0
 10
96.413
 11
96.685
 20
-137.751
 21
-138.145
  0
LINE
  8
0
 10
96.685
 11
96.743
 20
-138.145
 21
-138.621
  0
LINE
  8
0
 10
96.743
 11
96.573
 20
-138.621
 21
-139.068
  0
LINE
  8
0
 10
96.573
 11
96.215
 20
-139.068
 21
-139.385
  0
LINE
  8
0
 10
96.215
 11
95.75
 20
-139.385
 21
-139.5
  0
LINE
  8
0
 10
95.75
 11
95.285
 20
-139.5
 21
-139.385
  0
LINE
  8
0
 10
95.285
 11
94.927
 20
-139.385
 21
-139.068
  0
LINE
  8
0
 10
94.927
 11
94.757
 20
-139.068
 21
-138.621
  0
LINE
  8
0
 10
94.757
 11
94.815
 20
128.379
 21
128.855
  0
LINE
  8
0
 10
94.815
 11
95.087
 20
128.855
 21
129.249
  0
LINE
  8
0
 10
95.087
 11
95.511
 20
129.249
 21
129.471
  0
LINE
  8
0
 10
95.511
 11
95.989
 20
129.471
 21
129.471
  0
LINE
  8
0
 10
95.989
 11
96.413
 20
129.471
 21
129.249
  0
LINE
  8
0
 10
96.413
 11
96.685
 20
129.249
 21
128.855
  0
LINE
  8
0
 10
96.685
 11
96.743
 20
128.855
 21
128.379
  0
LINE
  8
0
 10
96.743
 11
96.573
 20
128.379
 21
127.932
  0
LINE
  8
0
 10
96.573
 11
96.215
 20
127.932
 21
127.615
  0
LINE
  8
0
 10
96.215
 11
95.75
 20
127.615
 21
127.5
  0
LINE
  8
0
 10
95.75
 11
95.285
 20
127.5
 21
127.615
  0
LINE
  8
0
 10
95.285
 11
94.927
 20
127.615
 21
127.932
  0
LINE
  8
0
 10
94.927
 11
94.757
 20
127.932
 21
128.379
  0
LINE
  8
0
 10
129.757
 11
129.815
 20
-138.621
 21
-138.145
  0
LINE
  8
0
 10
129.815
 11
130.087
 20
-138.145
 21
-137.751
  0
LINE
  8
0
 10
130.087
 11
130.511
 20
-137.751
 21
-137.529
  0
LINE
  8
0
 10
130.511
 11
130.989
 20
-137.529
 21
-137.529
  0
LINE
  8
0
 10
130.989
 11
131.413
 20
-137.529
 21
-137.751
  0
LINE
  8
0
 10
131.413
 11
131.685
 20
-137.751
 21
-138.145
  0
LINE
  8
0
 10
131.685
 11
131.743
 20
-138.145
 21
-138.621
  0
LINE
  8
0
 10
131.743
 11
131.573
 20
-138.621
 21
-139.068
  0
LINE
  8
0
 10
131.573
 11
131.215
 20
-139.068
 21
-139.385
  0
LINE
  8
0
 10
131.215
 11
130.75
 20
-139.385
 21
-139.5
  0
LINE
  8
0
 10
130.75
 11
130.285
 20
-139.5
 21
-139.385
  0
LINE
  8
0
 10
130.285
 11
129.927
 20
-139.385
 21
-139.068
  0
LINE
  8
0
 10
129.927
 11
129.757
 20
-139.068
 21
-138.621
  0
LINE
  8
0
 10
129.757
 11
129.815
 20
128.379
 21
128.855
  0
LINE
  8
0
 10
129.815
 11
130.087
 20
128.855
 21
129.249
  0
LINE
  8
0
 10
130.087
 11
130.511
 20
129.249
 21
129.471
  0
LINE
  8
0
 10
130.511
 11
130.989
 20
129.471
 21
129.471
  0
LINE
  8
0
 10
130.989
 11
131.413
 20
129.471
 21
129.249
  0
LINE
  8
0
 10
131.413
 11
131.685
 20
129.249
 21
128.855
  0
LINE
  8
0
 10
131.685
 11
131.743
 20
128.855
 21
128.379
  0
LINE
  8
0
 10
131.743
 11
131.573
 20
128.379
 21
127.932
  0
LINE
  8
0
 10
131.573
 11
131.215
 20
127.932
 21
127.615
  0
LINE
  8
0
 10
131.215
 11
130.75
 20
127.615
 21
127.5
  0
LINE
  8
0
 10
130.75
 11
130.285
 20
127.5
 21
127.615
  0
LINE
  8
0
 10
130.285
 11
129.927
 20
127.615
 21
127.932
  0
LINE
  8
0
 10
129.927
 11
129.757
 20
127.932
 21
128.379
  0
LINE
  8
0
 10
-280.75
 11
-280.75
 20
-159.5
 21
159.5
  0
LINE
  8
0
 10
-280.75
 11
-280.56
 20
159.5
 21
163.858
  0
LINE
  8
0
 10
-280.56
 11
-279.99
 20
163.858
 21
168.182
  0
LINE
  8
0
 10
-279.99
 11
-279.046
 20
168.182
 21
172.441
  0
LINE
  8
0
 10
-279.046
 11
-277.735
 20
172.441
 21
176.601
  0
LINE
  8
0
 10
-277.735
 11
-276.065
 20
176.601
 21
180.631
  0
LINE
  8
0
 10
-276.065
 11
-274.051
 20
180.631
 21
184.5
  0
LINE
  8
0
 10
-274.051
 11
-271.708
 20
184.5
 21
188.179
  0
LINE
  8
0
 10
-271.708
 11
-269.052
 20
188.179
 21
191.639
  0
LINE
  8
0
 10
-269.052
 11
-266.105
 20
191.639
 21
194.855
  0
LINE
  8
0
 10
-266.105
 11
-262.889
 20
194.855
 21
197.802
  0
LINE
  8
0
 10
-262.889
 11
-259.429
 20
197.802
 21
200.458
  0
LINE
  8
0
 10
-259.429
 11
-255.75
 20
200.458
 21
202.801
  0
LINE
  8
0
 10
-255.75
 11
-251.881
 20
202.801
 21
204.815
  0
LINE
  8
0
 10
-251.881
 11
-247.851
 20
204.815
 21
206.485
  0
LINE
  8
0
 10
-247.851
 11
-243.691
 20
206.485
 21
207.796
  0
LINE
  8
0
 10
-243.691
 11
-239.432
 20
207.796
 21
208.74
  0
LINE
  8
0
 10
-239.432
 11
-235.108
 20
208.74
 21
209.31
  0
LINE
  8
0
 10
-235.108
 11
-230.75
 20
209.31
 21
209.5
  0
LINE
  8
0
 10
-230.75
 11
230.75
 20
209.5
 21
209.5
  0
LINE
  8
0
 10
230.75
 11
235.108
 20
209.5
 21
209.31
  0
LINE
  8
0
 10
235.108
 11
239.432
 20
209.31
 21
208.74
  0
LINE
  8
0
 10
239.432
 11
243.691
 20
208.74
 21
207.796
  0
LINE
  8
0
 10
243.691
 11
247.851
 20
207.796
 21
206.485
  0
LINE
  8
0
 10
247.851
 11
251.881
 20
206.485
 21
204.815
  0
LINE
  8
0
 10
251.881
 11
255.75
 20
204.815
 21
202.801
  0
LINE
  8
0
 10
255.75
 11
259.429
 20
202.801
 21
200.458
  0
LINE
  8
0
 10
259.429
 11
262.889
 20
200.458
 21
197.802
  0
LINE
  8
0
 10
262.889
 11
266.105
 20
197.802
 21
194.855
  0
LINE
  8
0
 10
266.105
 11
269.052
 20
194.855
 21
191.639
  0
LINE
  8
0
 10
269.052
 11
271.708
 20
191.639
 21
188.179
  0
LINE
  8
0
 10
271.708
 11
274.051
 20
188.179
 21
184.5
  0
LINE
  8
0
 10
274.051
 11
276.065
 20
184.5
 21
180.631
  0
LINE
  8
0
 10
276.065
 11
277.735
 20
180.631
 21
176.601
  0
LINE
  8
0
 10
277.735
 11
279.046
 20
176.601
 21
172.441
  0
LINE
  8
0
 10
279.046
 11
279.99
 20
172.441
 21
168.182
  0
LINE
  8
0
 10
279.99
 11
280.56
 20
168.182
 21
163.858
  0
LINE
  8
0
 10
280.56
 11
280.75
 20
163.858
 21
159.5
  0
LINE
  8
0
 10
280.75
 11
280.75
 20
159.5
 21
-159.5
  0
LINE
  8
0
 10
280.75
 11
280.56
 20
-159.5
 21
-163.858
  0
LINE
  8
0
 10
280.56
 11
279.99
 20
-163.858
 21
-168.182
  0
LINE
  8
0
 10
279.99
 11
279.046
 20
-168.182
 21
-172.441
  0
LINE
  8
0
 10
279.046
 11
277.735
 20
-172.441
 21
-176.601
  0
LINE
  8
0
 10
277.735
 11
276.065
 20
-176.601
 21
-180.631
  0
LINE
  8
0
 10
276.065
 11
274.051
 20
-180.631
 21
-184.5
  0
LINE
  8
0
 10
274.051
 11
271.708
 20
-184.5
 21
-188.179
  0
LINE
  8
0
 10
271.708
 11
269.052
 20
-188.179
 21
-191.639
  0
LINE
  8
0
 10
269.052
 11
266.105
 20
-191.639
 21
-194.855
  0
LINE
  8
0
 10
266.105
 11
262.889
 20
-194.855
 21
-197.802
  0
LINE
  8
0
 10
262.889
 11
259.429
 20
-197.802
 21
-200.458
  0
LINE
  8
0
 10
259.429
 11
255.75
 20
-200.458
 21
-202.801
  0
LINE
  8
0
 10
255.75
 11
251.881
 20
-202.801
 21
-204.815
  0
LINE
  8
0
 10
251.881
 11
247.851
 20
-204.815
 21
-206.485
  0
LINE
  8
0
 10
247.851
 11
243.691
 20
-206.485
 21
-207.796
  0
LINE
  8
0
 10
243.691
 11
239.432
 20
-207.796
 21
-208.74
  0
LINE
  8
0
 10
239.432
 11
235.108
 20
-208.74
 21
-209.31
  0
LINE
  8
0
 10
235.108
 11
230.75
 20
-209.31
 21
-209.5
  0
LINE
  8
0
 10
230.75
 11
-230.75
 20
-209.5
 21
-209.5
  0
LINE
  8
0
 10
-230.75
 11
-235.108
 20
-209.5
 21
-209.31
  0
LINE
  8
0
 10
-235.108
 11
-239.432
 20
-209.31
 21
-208.74
  0
LINE
  8
0
 10
-239.432
 11
-243.691
 20
-208.74
 21
-207.796
  0
LINE
  8
0
 10
-243.691
 11
-247.851
 20
-207.796
 21
-206.485
  0
LINE
  8
0
 10
-247.851
 11
-251.881
 20
-206.485
 21
-204.815
  0
LINE
  8
0
 10
-251.881
 11
-255.75
 20
-204.815
 21
-202.801
  0
LINE
  8
0
 10
-255.75
 11
-259.429
 20
-202.801
 21
-200.458
  0
LINE
  8
0
 10
-259.429
 11
-262.889
 20
-200.458
 21
-197.802
  0
LINE
  8
0
 10
-262.889
 11
-266.105
 20
-197.802
 21
-194.855
  0
LINE
  8
0
 10
-266.105
 11
-269.052
 20
-194.855
 21
-191.639
  0
LINE
  8
0
 10
-269.052
 11
-271.708
 20
-191.639
 21
-188.179
  0
LINE
  8
0
 10
-271.708
 11
-274.051
 20
-188.179
 21
-184.5
  0
LINE
  8
0
 10
-274.051
 11
-276.065
 20
-184.5
 21
-180.631
  0
LINE
  8
0
 10
-276.065
 11
-277.735
 20
-180.631
 21
-176.601
  0
LINE
  8
0
 10
-277.735
 11
-279.046
 20
-176.601
 21
-172.441
  0
LINE
  8
0
 10
-279.046
 11
-279.99
 20
-172.441
 21
-168.182
  0
LINE
  8
0
 10
-279.99
 11
-280.56
 20
-168.182
 21
-163.858
  0
LINE
  8
0
 10
-280.56
 11
-280.75
 20
-163.858
 21
-159.5
  0
LINE
  8
0
 10
144.979
 11
144.979
 20
-120.239
 21
-119.761
  0
LINE
  8
0
 10
144.979
 11
145.201
 20
-119.761
 21
-119.337
  0
LINE
  8
0
 10
145.201
 11
145.595
 20
-119.337
 21
-119.065
  0
LINE
  8
0
 10
145.595
 11
146.071
 20
-119.065
 21
-119.007
  0
LINE
  8
0
 10
146.071
 11
146.518
 20
-119.007
 21
-119.177
  0
LINE
  8
0
 10
146.518
 11
146.835
 20
-119.177
 21
-119.535
  0
LINE
  8
0
 10
146.835
 11
146.95
 20
-119.535
 21
-120
  0
LINE
  8
0
 10
146.95
 11
146.835
 20
-120
 21
-120.465
  0
LINE
  8
0
 10
146.835
 11
146.518
 20
-120.465
 21
-120.823
  0
LINE
  8
0
 10
146.518
 11
146.071
 20
-120.823
 21
-120.993
  0
LINE
  8
0
 10
146.071
 11
145.595
 20
-120.993
 21
-120.935
  0
LINE
  8
0
 10
145.595
 11
145.201
 20
-120.935
 21
-120.663
  0
LINE
  8
0
 10
145.201
 11
144.979
 20
-120.663
 21
-120.239
  0
LINE
  8
0
 10
144.979
 11
144.979
 20
67.661
 21
68.139
  0
LINE
  8
0
 10
144.979
 11
145.201
 20
68.139
 21
68.563
  0
LINE
  8
0
 10
145.201
 11
145.595
 20
68.563
 21
68.835
  0
LINE
  8
0
 10
145.595
 11
146.071
 20
68.835
 21
68.893
  0
LINE
  8
0
 10
146.071
 11
146.518
 20
68.893
 21
68.723
  0
LINE
  8
0
 10
146.518
 11
146.835
 20
68.723
 21
68.365
  0
LINE
  8
0
 10
146.835
 11
146.95
 20
68.365
 21
67.9
  0
LINE
  8
0
 10
146.95
 11
146.835
 20
67.9
 21
67.435
  0
LINE
  8
0
 10
146.835
 11
146.518
 20
67.435
 21
67.077
  0
LINE
  8
0
 10
146.518
 11
146.071
 20
67.077
 21
66.907
  0
LINE
  8
0
 10
146.071
 11
145.595
 20
66.907
 21
66.965
  0
LINE
  8
0
 10
145.595
 11
145.201
 20
66.965
 21
67.237
  0
LINE
  8
0
 10
145.201
 11
144.979
 20
67.237
 21
67.661
  0
LINE
  8
0
 10
167.557
 11
167.727
 20
189.311
 21
189.758
  0
LINE
  8
0
 10
167.727
 11
168.085
 20
189.758
 21
190.075
  0
LINE
  8
0
 10
168.085
 11
168.55
 20
190.075
 21
190.19
  0
LINE
  8
0
 10
168.55
 11
169.015
 20
190.19
 21
190.075
  0
LINE
  8
0
 10
169.015
 11
169.373
 20
190.075
 21
189.758
  0
LINE
  8
0
 10
169.373
 11
169.543
 20
189.758
 21
189.311
  0
LINE
  8
0
 10
169.543
 11
169.485
 20
189.311
 21
188.835
  0
LINE
  8
0
 10
169.485
 11
169.213
 20
188.835
 21
188.441
  0
LINE
  8
0
 10
169.213
 11
168.789
 20
188.441
 21
188.219
  0
LINE
  8
0
 10
168.789
 11
168.311
 20
188.219
 21
188.219
  0
LINE
  8
0
 10
168.311
 11
167.887
 20
188.219
 21
188.441
  0
LINE
  8
0
 10
167.887
 11
167.615
 20
188.441
 21
188.835
  0
LINE
  8
0
 10
167.615
 11
167.557
 20
188.835
 21
189.311
  0
LINE
  8
0
 10
199.758
 11
199.758
 20
-0.246
 21
0.246
  0
LINE
  8
0
 10
199.758
 11
199.818
 20
0.246
 21
0.735
  0
LINE
  8
0
 10
199.818
 11
199.938
 20
0.735
 21
1.213
  0
LINE
  8
0
 10
199.938
 11
200.116
 20
1.213
 21
1.672
  0
LINE
  8
0
 10
200.116
 11
200.349
 20
1.672
 21
2.106
  0
LINE
  8
0
 10
200.349
 11
200.634
 20
2.106
 21
2.508
  0
LINE
  8
0
 10
200.634
 11
200.965
 20
2.508
 21
2.872
  0
LINE
  8
0
 10
200.965
 11
201.339
 20
2.872
 21
3.192
  0
LINE
  8
0
 10
201.339
 11
201.75
 20
3.192
 21
3.464
  0
LINE
  8
0
 10
201.75
 11
202.191
 20
3.464
 21
3.684
  0
LINE
  8
0
 10
202.191
 11
202.655
 20
3.684
 21
3.847
  0
LINE
  8
0
 10
202.655
 11
203.136
 20
3.847
 21
3.953
  0
LINE
  8
0
 10
203.136
 11
203.627
 20
3.953
 21
3.998
  0
LINE
  8
0
 10
203.627
 11
204.119
 20
3.998
 21
3.983
  0
LINE
  8
0
 10
204.119
 11
204.606
 20
3.983
 21
3.907
  0
LINE
  8
0
 10
204.606
 11
205.079
 20
3.907
 21
3.773
  0
LINE
  8
0
 10
205.079
 11
205.533
 20
3.773
 21
3.581
  0
LINE
  8
0
 10
205.533
 11
205.959
 20
3.581
 21
3.334
  0
LINE
  8
0
 10
205.959
 11
206.352
 20
3.334
 21
3.038
  0
LINE
  8
0
 10
206.352
 11
206.706
 20
3.038
 21
2.695
  0
LINE
  8
0
 10
206.706
 11
207.015
 20
2.695
 21
2.311
  0
LINE
  8
0
 10
207.015
 11
207.274
 20
2.311
 21
1.892
  0
LINE
  8
0
 10
207.274
 11
207.48
 20
1.892
 21
1.445
  0
LINE
  8
0
 10
207.48
 11
207.629
 20
1.445
 21
0.976
  0
LINE
  8
0
 10
207.629
 11
207.72
 20
0.976
 21
0.492
  0
LINE
  8
0
 10
207.72
 11
207.75
 20
0.492
 21
0
  0
LINE
  8
0
 10
207.75
 11
207.72
 20
0
 21
-0.492
  0
LINE
  8
0
 10
207.72
 11
207.629
 20
-0.492
 21
-0.976
  0
LINE
  8
0
 10
207.629
 11
207.48
 20
-0.976
 21
-1.445
  0
LINE
  8
0
 10
207.48
 11
207.274
 20
-1.445
 21
-1.892
  0
LINE
  8
0
 10
207.274
 11
207.015
 20
-1.892
 21
-2.311
  0
LINE
  8
0
 10
207.015
 11
206.706
 20
-2.311
 21
-2.695
  0
LINE
  8
0
 10
206.706
 11
206.352
 20
-2.695
 21
-3.038
  0
LINE
  8
0
 10
206.352
 11
205.959
 20
-3.038
 21
-3.334
  0
LINE
  8
0
 10
205.959
 11
205.533
 20
-3.334
 21
-3.581
  0
LINE
  8
0
 10
205.533
 11
205.079
 20
-3.581
 21
-3.773
  0
LINE
  8
0
 10
205.079
 11
204.606
 20
-3.773
 21
-3.907
  0
LINE
  8
0
 10
204.606
 11
204.119
 20
-3.907
 21
-3.983
  0
LINE
  8
0
 10
204.119
 11
203.627
 20
-3.983
 21
-3.998
  0
LINE
  8
0
 10
203.627
 11
203.136
 20
-3.998
 21
-3.953
  0
LINE
  8
0
 10
203.136
 11
202.655
 20
-3.953
 21
-3.847
  0
LINE
  8
0
 10
202.655
 11
202.191
 20
-3.847
 21
-3.684
  0
LINE
  8
0
 10
202.191
 11
201.75
 20
-3.684
 21
-3.464
  0
LINE
  8
0
 10
201.75
 11
201.339
 20
-3.464
 21
-3.192
  0
LINE
  8
0
 10
201.339
 11
200.965
 20
-3.192
 21
-2.872
  0
LINE
  8
0
 10
200.965
 11
200.634
 20
-2.872
 21
-2.508
  0
LINE
  8
0
 10
200.634
 11
200.349
 20
-2.508
 21
-2.106
  0
LINE
  8
0
 10
200.349
 11
200.116
 20
-2.106
 21
-1.672
  0
LINE
  8
0
 10
200.116
 11
199.938
 20
-1.672
 21
-1.213
  0
LINE
  8
0
 10
199.938
 11
199.818
 20
-1.213
 21
-0.735
  0
LINE
  8
0
 10
199.818
 11
199.758
 20
-0.735
 21
-0.246
  0
LINE
  8
0
 10
208.089
 11
208.089
 20
64.461
 21
64.939
  0
LINE
  8
0
 10
208.089
 11
208.311
 20
64.939
 21
65.363
  0
LINE
  8
0
 10
208.311
 11
208.705
 20
65.363
 21
65.635
  0
LINE
  8
0
 10
208.705
 11
209.181
 20
65.635
 21
65.693
  0
LINE
  8
0
 10
209.181
 11
209.628
 20
65.693
 21
65.523
  0
LINE
  8
0
 10
209.628
 11
209.945
 20
65.523
 21
65.165
  0
LINE
  8
0
 10
209.945
 11
210.06
 20
65.165
 21
64.7
  0
LINE
  8
0
 10
210.06
 11
209.945
 20
64.7
 21
64.235
  0
LINE
  8
0
 10
209.945
 11
209.628
 20
64.235
 21
63.877
  0
LINE
  8
0
 10
209.628
 11
209.181
 20
63.877
 21
63.707
  0
LINE
  8
0
 10
209.181
 11
208.705
 20
63.707
 21
63.765
  0
LINE
  8
0
 10
208.705
 11
208.311
 20
63.765
 21
64.037
  0
LINE
  8
0
 10
208.311
 11
208.089
 20
64.037
 21
64.461
  0
LINE
  8
0
 10
259.469
 11
259.469
 20
64.461
 21
64.939
  0
LINE
  8
0
 10
259.469
 11
259.691
 20
64.939
 21
65.363
  0
LINE
  8
0
 10
259.691
 11
260.085
 20
65.363
 21
65.635
  0
LINE
  8
0
 10
260.085
 11
260.561
 20
65.635
 21
65.693
  0
LINE
  8
0
 10
260.561
 11
261.008
 20
65.693
 21
65.523
  0
LINE
  8
0
 10
261.008
 11
261.325
 20
65.523
 21
65.165
  0
LINE
  8
0
 10
261.325
 11
261.44
 20
65.165
 21
64.7
  0
LINE
  8
0
 10
261.44
 11
261.325
 20
64.7
 21
64.235
  0
LINE
  8
0
 10
261.325
 11
261.008
 20
64.235
 21
63.877
  0
LINE
  8
0
 10
261.008
 11
260.561
 20
63.877
 21
63.707
  0
LINE
  8
0
 10
260.561
 11
260.085
 20
63.707
 21
63.765
  0
LINE
  8
0
 10
260.085
 11
259.691
 20
63.765
 21
64.037
  0
LINE
  8
0
 10
259.691
 11
259.469
 20
64.037
 21
64.461
  0
LINE
  8
0
 10
269.257
 11
269.315
 20
83.779
 21
84.255
  0
LINE
  8
0
 10
269.315
 11
269.587
 20
84.255
 21
84.649
  0
LINE
  8
0
 10
269.587
 11
270.011
 20
84.649
 21
84.871
  0
LINE
  8
0
 10
270.011
 11
270.489
 20
84.871
 21
84.871
  0
LINE
  8
0
 10
270.489
 11
270.913
 20
84.871
 21
84.649
  0
LINE
  8
0
 10
270.913
 11
271.185
 20
84.649
 21
84.255
  0
LINE
  8
0
 10
271.185
 11
271.243
 20
84.255
 21
83.779
  0
LINE
  8
0
 10
271.243
 11
271.073
 20
83.779
 21
83.332
  0
LINE
  8
0
 10
271.073
 11
270.715
 20
83.332
 21
83.015
  0
LINE
  8
0
 10
270.715
 11
270.25
 20
83.015
 21
82.9
  0
LINE
  8
0
 10
270.25
 11
269.785
 20
82.9
 21
83.015
  0
LINE
  8
0
 10
269.785
 11
269.427
 20
83.015
 21
83.332
  0
LINE
  8
0
 10
269.427
 11
269.257
 20
83.332
 21
83.779
  0
ENDSEC
  0
SECTION
  2
OBJECTS
  0
DICTIONARY
  0
ENDSEC
  0
EOF
