<?xml version="1.0"?>
<svg xmlns="http://www.w3.org/2000/svg" version="1.1" height="445mm" width="572mm" >
 <g style="fill-opacity:1.0; stroke:black; stroke-width:1;">
  <line x1="112.500000mm" y1="435.000000mm" x2="112.500000mm" y2="435.000000mm" />
  <line x1="112.500000mm" y1="435.000000mm" x2="0.000000mm" y2="435.000000mm" />
  <line x1="0.000000mm" y1="435.000000mm" x2="0.000000mm" y2="25.000000mm" />
  <line x1="0.000000mm" y1="25.000000mm" x2="0.095000mm" y2="22.821000mm" />
  <line x1="0.095000mm" y1="22.821000mm" x2="0.380000mm" y2="20.659000mm" />
  <line x1="0.380000mm" y1="20.659000mm" x2="0.852000mm" y2="18.530000mm" />
  <line x1="0.852000mm" y1="18.530000mm" x2="1.508000mm" y2="16.449000mm" />
  <line x1="1.508000mm" y1="16.449000mm" x2="2.342000mm" y2="14.435000mm" />
  <line x1="2.342000mm" y1="14.435000mm" x2="3.349000mm" y2="12.500000mm" />
  <line x1="3.349000mm" y1="12.500000mm" x2="4.521000mm" y2="10.661000mm" />
  <line x1="4.521000mm" y1="10.661000mm" x2="5.849000mm" y2="8.930000mm" />
  <line x1="5.849000mm" y1="8.930000mm" x2="7.322000mm" y2="7.322000mm" />
  <line x1="7.322000mm" y1="7.322000mm" x2="8.930000mm" y2="5.849000mm" />
  <line x1="8.930000mm" y1="5.849000mm" x2="10.661000mm" y2="4.521000mm" />
  <line x1="10.661000mm" y1="4.521000mm" x2="12.500000mm" y2="3.349000mm" />
  <line x1="12.500000mm" y1="3.349000mm" x2="14.435000mm" y2="2.342000mm" />
  <line x1="14.435000mm" y1="2.342000mm" x2="16.449000mm" y2="1.508000mm" />
  <line x1="16.449000mm" y1="1.508000mm" x2="18.530000mm" y2="0.852000mm" />
  <line x1="18.530000mm" y1="0.852000mm" x2="20.659000mm" y2="0.380000mm" />
  <line x1="20.659000mm" y1="0.380000mm" x2="22.821000mm" y2="0.095000mm" />
  <line x1="22.821000mm" y1="0.095000mm" x2="25.000000mm" y2="0.000000mm" />
  <line x1="25.000000mm" y1="0.000000mm" x2="536.500000mm" y2="0.000000mm" />
  <line x1="536.500000mm" y1="0.000000mm" x2="538.679000mm" y2="0.095000mm" />
  <line x1="538.679000mm" y1="0.095000mm" x2="540.841000mm" y2="0.380000mm" />
  <line x1="540.841000mm" y1="0.380000mm" x2="542.970000mm" y2="0.852000mm" />
  <line x1="542.970000mm" y1="0.852000mm" x2="545.051000mm" y2="1.508000mm" />
  <line x1="545.051000mm" y1="1.508000mm" x2="547.065000mm" y2="2.342000mm" />
  <line x1="547.065000mm" y1="2.342000mm" x2="549.000000mm" y2="3.349000mm" />
  <line x1="549.000000mm" y1="3.349000mm" x2="550.839000mm" y2="4.521000mm" />
  <line x1="550.839000mm" y1="4.521000mm" x2="552.570000mm" y2="5.849000mm" />
  <line x1="552.570000mm" y1="5.849000mm" x2="554.178000mm" y2="7.322000mm" />
  <line x1="554.178000mm" y1="7.322000mm" x2="555.651000mm" y2="8.930000mm" />
  <line x1="555.651000mm" y1="8.930000mm" x2="556.979000mm" y2="10.661000mm" />
  <line x1="556.979000mm" y1="10.661000mm" x2="558.151000mm" y2="12.500000mm" />
  <line x1="558.151000mm" y1="12.500000mm" x2="559.158000mm" y2="14.435000mm" />
  <line x1="559.158000mm" y1="14.435000mm" x2="559.992000mm" y2="16.449000mm" />
  <line x1="559.992000mm" y1="16.449000mm" x2="560.648000mm" y2="18.530000mm" />
  <line x1="560.648000mm" y1="18.530000mm" x2="561.120000mm" y2="20.659000mm" />
  <line x1="561.120000mm" y1="20.659000mm" x2="561.405000mm" y2="22.821000mm" />
  <line x1="561.405000mm" y1="22.821000mm" x2="561.500000mm" y2="25.000000mm" />
  <line x1="561.500000mm" y1="25.000000mm" x2="561.500000mm" y2="435.000000mm" />
  <line x1="561.500000mm" y1="435.000000mm" x2="435.500000mm" y2="435.000000mm" />
  <line x1="435.500000mm" y1="435.000000mm" x2="435.500000mm" y2="106.900000mm" />
  <line x1="435.500000mm" y1="106.900000mm" x2="435.475000mm" y2="106.402000mm" />
  <line x1="435.475000mm" y1="106.402000mm" x2="435.401000mm" y2="105.909000mm" />
  <line x1="435.401000mm" y1="105.909000mm" x2="435.278000mm" y2="105.426000mm" />
  <line x1="435.278000mm" y1="105.426000mm" x2="435.107000mm" y2="104.958000mm" />
  <line x1="435.107000mm" y1="104.958000mm" x2="434.891000mm" y2="104.509000mm" />
  <line x1="434.891000mm" y1="104.509000mm" x2="434.631000mm" y2="104.083000mm" />
  <line x1="434.631000mm" y1="104.083000mm" x2="434.330000mm" y2="103.686000mm" />
  <line x1="434.330000mm" y1="103.686000mm" x2="433.991000mm" y2="103.321000mm" />
  <line x1="433.991000mm" y1="103.321000mm" x2="433.617000mm" y2="102.991000mm" />
  <line x1="433.617000mm" y1="102.991000mm" x2="433.213000mm" y2="102.700000mm" />
  <line x1="433.213000mm" y1="102.700000mm" x2="432.781000mm" y2="102.451000mm" />
  <line x1="432.781000mm" y1="102.451000mm" x2="432.327000mm" y2="102.246000mm" />
  <line x1="432.327000mm" y1="102.246000mm" x2="431.854000mm" y2="102.087000mm" />
  <line x1="431.854000mm" y1="102.087000mm" x2="431.368000mm" y2="101.976000mm" />
  <line x1="431.368000mm" y1="101.976000mm" x2="430.874000mm" y2="101.914000mm" />
  <line x1="430.874000mm" y1="101.914000mm" x2="430.500000mm" y2="101.905000mm" />
  <line x1="430.500000mm" y1="101.905000mm" x2="430.500000mm" y2="101.900000mm" />
  <line x1="430.500000mm" y1="101.900000mm" x2="117.500000mm" y2="101.900000mm" />
  <line x1="117.500000mm" y1="101.900000mm" x2="117.500000mm" y2="101.905000mm" />
  <line x1="117.500000mm" y1="101.905000mm" x2="117.375000mm" y2="101.902000mm" />
  <line x1="117.375000mm" y1="101.902000mm" x2="116.878000mm" y2="101.939000mm" />
  <line x1="116.878000mm" y1="101.939000mm" x2="116.387000mm" y2="102.025000mm" />
  <line x1="116.387000mm" y1="102.025000mm" x2="115.908000mm" y2="102.160000mm" />
  <line x1="115.908000mm" y1="102.160000mm" x2="115.444000mm" y2="102.342000mm" />
  <line x1="115.444000mm" y1="102.342000mm" x2="115.000000mm" y2="102.570000mm" />
  <line x1="115.000000mm" y1="102.570000mm" x2="114.581000mm" y2="102.840000mm" />
  <line x1="114.581000mm" y1="102.840000mm" x2="114.192000mm" y2="103.151000mm" />
  <line x1="114.192000mm" y1="103.151000mm" x2="113.835000mm" y2="103.499000mm" />
  <line x1="113.835000mm" y1="103.499000mm" x2="113.514000mm" y2="103.881000mm" />
  <line x1="113.514000mm" y1="103.881000mm" x2="113.234000mm" y2="104.293000mm" />
  <line x1="113.234000mm" y1="104.293000mm" x2="112.995000mm" y2="104.731000mm" />
  <line x1="112.995000mm" y1="104.731000mm" x2="112.802000mm" y2="105.190000mm" />
  <line x1="112.802000mm" y1="105.190000mm" x2="112.655000mm" y2="105.666000mm" />
  <line x1="112.655000mm" y1="105.666000mm" x2="112.556000mm" y2="106.155000mm" />
  <line x1="112.556000mm" y1="106.155000mm" x2="112.506000mm" y2="106.651000mm" />
  <line x1="112.506000mm" y1="106.651000mm" x2="112.506000mm" y2="106.900000mm" />
  <line x1="112.506000mm" y1="106.900000mm" x2="112.500000mm" y2="106.900000mm" />
  <line x1="112.500000mm" y1="106.900000mm" x2="112.500000mm" y2="435.000000mm" />
  <circle cx="7.499659mm" cy="325.900016mm" r="1.000019mm" fill="none"/>
  <line x1="9.499698mm" y1="325.900016mm" x2="5.499621mm" y2="325.900016mm" />
  <line x1="7.499659mm" y1="323.899978mm" x2="7.499659mm" y2="327.900054mm" />
  <text x="8mm" y="324mm" font-size="24">
   2.0
  </text>
  <circle cx="7.499659mm" cy="284.500016mm" r="1.000019mm" fill="none"/>
  <line x1="9.499698mm" y1="284.500016mm" x2="5.499621mm" y2="284.500016mm" />
  <line x1="7.499659mm" y1="282.499978mm" x2="7.499659mm" y2="286.500054mm" />
  <text x="8mm" y="283mm" font-size="24">
   2.0
  </text>
  <circle cx="9.700371mm" cy="426.799769mm" r="1.000161mm" fill="none"/>
  <line x1="11.700692mm" y1="426.799769mm" x2="7.700050mm" y2="426.799769mm" />
  <line x1="9.700371mm" y1="424.799448mm" x2="9.700371mm" y2="428.800090mm" />
  <text x="10mm" y="425mm" font-size="24">
   2.0
  </text>
  <circle cx="16.499659mm" cy="373.500016mm" r="1.000019mm" fill="none"/>
  <line x1="18.499698mm" y1="373.500016mm" x2="14.499621mm" y2="373.500016mm" />
  <line x1="16.499659mm" y1="371.499978mm" x2="16.499659mm" y2="375.500054mm" />
  <text x="17mm" y="372mm" font-size="24">
   2.0
  </text>
  <circle cx="30.920371mm" cy="426.799769mm" r="1.000161mm" fill="none"/>
  <line x1="32.920692mm" y1="426.799769mm" x2="28.920050mm" y2="426.799769mm" />
  <line x1="30.920371mm" y1="424.799448mm" x2="30.920371mm" y2="428.800090mm" />
  <text x="31mm" y="425mm" font-size="24">
   2.0
  </text>
  <circle cx="33.499818mm" cy="361.500055mm" r="2.000011mm" fill="none"/>
  <line x1="37.499840mm" y1="361.500055mm" x2="29.499795mm" y2="361.500055mm" />
  <line x1="33.499818mm" y1="357.500033mm" x2="33.499818mm" y2="365.500077mm" />
  <text x="35mm" y="359mm" font-size="24">
   4.0
  </text>
  <circle cx="39.499818mm" cy="19.000055mm" r="2.000011mm" fill="none"/>
  <line x1="43.499840mm" y1="19.000055mm" x2="35.499795mm" y2="19.000055mm" />
  <line x1="39.499818mm" y1="15.000033mm" x2="39.499818mm" y2="23.000077mm" />
  <text x="41mm" y="17mm" font-size="24">
   4.0
  </text>
  <circle cx="39.500000mm" cy="8.499997mm" r="0.999978mm" fill="none"/>
  <line x1="41.499956mm" y1="8.499997mm" x2="37.500044mm" y2="8.499997mm" />
  <line x1="39.500000mm" y1="6.500041mm" x2="39.500000mm" y2="10.499953mm" />
  <text x="40mm" y="7mm" font-size="24">
   2.0
  </text>
  <circle cx="43.120170mm" cy="427.499939mm" r="2.500268mm" fill="none"/>
  <line x1="48.120707mm" y1="427.499939mm" x2="38.119633mm" y2="427.499939mm" />
  <line x1="43.120170mm" y1="422.499402mm" x2="43.120170mm" y2="432.500476mm" />
  <text x="45mm" y="424mm" font-size="24">
   5.0
  </text>
  <circle cx="48.499659mm" cy="373.500016mm" r="1.000019mm" fill="none"/>
  <line x1="50.499698mm" y1="373.500016mm" x2="46.499621mm" y2="373.500016mm" />
  <line x1="48.499659mm" y1="371.499978mm" x2="48.499659mm" y2="375.500054mm" />
  <text x="49mm" y="372mm" font-size="24">
   2.0
  </text>
  <circle cx="74.500000mm" cy="8.499997mm" r="0.999978mm" fill="none"/>
  <line x1="76.499956mm" y1="8.499997mm" x2="72.500044mm" y2="8.499997mm" />
  <line x1="74.500000mm" y1="6.500041mm" x2="74.500000mm" y2="10.499953mm" />
  <text x="75mm" y="7mm" font-size="24">
   2.0
  </text>
  <circle cx="76.700066mm" cy="398.290138mm" r="1.000138mm" fill="none"/>
  <line x1="78.700342mm" y1="398.290138mm" x2="74.699790mm" y2="398.290138mm" />
  <line x1="76.700066mm" y1="396.289862mm" x2="76.700066mm" y2="400.290414mm" />
  <text x="77mm" y="397mm" font-size="24">
   2.0
  </text>
  <circle cx="76.700066mm" cy="36.710138mm" r="1.000138mm" fill="none"/>
  <line x1="78.700342mm" y1="36.710138mm" x2="74.699790mm" y2="36.710138mm" />
  <line x1="76.700066mm" y1="34.709862mm" x2="76.700066mm" y2="38.710414mm" />
  <text x="77mm" y="35mm" font-size="24">
   2.0
  </text>
  <circle cx="77.500000mm" cy="65.819997mm" r="0.999978mm" fill="none"/>
  <line x1="79.499956mm" y1="65.819997mm" x2="75.500044mm" y2="65.819997mm" />
  <line x1="77.500000mm" y1="63.820041mm" x2="77.500000mm" y2="67.819953mm" />
  <text x="78mm" y="64mm" font-size="24">
   2.0
  </text>
  <circle cx="82.080371mm" cy="426.799769mm" r="1.000161mm" fill="none"/>
  <line x1="84.080692mm" y1="426.799769mm" x2="80.080050mm" y2="426.799769mm" />
  <line x1="82.080371mm" y1="424.799448mm" x2="82.080371mm" y2="428.800090mm" />
  <text x="83mm" y="425mm" font-size="24">
   2.0
  </text>
  <circle cx="103.300371mm" cy="426.799769mm" r="1.000161mm" fill="none"/>
  <line x1="105.300692mm" y1="426.799769mm" x2="101.300050mm" y2="426.799769mm" />
  <line x1="103.300371mm" y1="424.799448mm" x2="103.300371mm" y2="428.800090mm" />
  <text x="104mm" y="425mm" font-size="24">
   2.0
  </text>
  <circle cx="117.499962mm" cy="106.899817mm" r="4.989768mm" fill="none"/>
  <line x1="127.479499mm" y1="106.899817mm" x2="107.520425mm" y2="106.899817mm" />
  <line x1="117.499962mm" y1="96.920280mm" x2="117.499962mm" y2="116.879354mm" />
  <text x="122mm" y="101mm" font-size="24">
   10.0
  </text>
  <circle cx="430.499962mm" cy="106.899817mm" r="4.989768mm" fill="none"/>
  <line x1="440.479499mm" y1="106.899817mm" x2="420.520425mm" y2="106.899817mm" />
  <line x1="430.499962mm" y1="96.920280mm" x2="430.499962mm" y2="116.879354mm" />
  <text x="435mm" y="101mm" font-size="24">
   10.0
  </text>
  <circle cx="448.500000mm" cy="65.819997mm" r="0.999978mm" fill="none"/>
  <line x1="450.499956mm" y1="65.819997mm" x2="446.500044mm" y2="65.819997mm" />
  <line x1="448.500000mm" y1="63.820041mm" x2="448.500000mm" y2="67.819953mm" />
  <text x="449mm" y="64mm" font-size="24">
   2.0
  </text>
  <circle cx="449.300000mm" cy="398.289997mm" r="0.999978mm" fill="none"/>
  <line x1="451.299956mm" y1="398.289997mm" x2="447.300044mm" y2="398.289997mm" />
  <line x1="449.300000mm" y1="396.290041mm" x2="449.300000mm" y2="400.289953mm" />
  <text x="450mm" y="397mm" font-size="24">
   2.0
  </text>
  <circle cx="449.300000mm" cy="36.709997mm" r="0.999978mm" fill="none"/>
  <line x1="451.299956mm" y1="36.709997mm" x2="447.300044mm" y2="36.709997mm" />
  <line x1="449.300000mm" y1="34.710041mm" x2="449.300000mm" y2="38.709953mm" />
  <text x="450mm" y="35mm" font-size="24">
   2.0
  </text>
  <circle cx="449.500000mm" cy="8.499997mm" r="0.999978mm" fill="none"/>
  <line x1="451.499956mm" y1="8.499997mm" x2="447.500044mm" y2="8.499997mm" />
  <line x1="449.500000mm" y1="6.500041mm" x2="449.500000mm" y2="10.499953mm" />
  <text x="450mm" y="7mm" font-size="24">
   2.0
  </text>
  <circle cx="468.499659mm" cy="373.500016mm" r="1.000019mm" fill="none"/>
  <line x1="470.499698mm" y1="373.500016mm" x2="466.499621mm" y2="373.500016mm" />
  <line x1="468.499659mm" y1="371.499978mm" x2="468.499659mm" y2="375.500054mm" />
  <text x="469mm" y="372mm" font-size="24">
   2.0
  </text>
  <circle cx="479.200371mm" cy="426.799769mm" r="1.000161mm" fill="none"/>
  <line x1="481.200692mm" y1="426.799769mm" x2="477.200050mm" y2="426.799769mm" />
  <line x1="479.200371mm" y1="424.799448mm" x2="479.200371mm" y2="428.800090mm" />
  <text x="480mm" y="425mm" font-size="24">
   2.0
  </text>
  <circle cx="483.500170mm" cy="414.099939mm" r="2.500268mm" fill="none"/>
  <line x1="488.500707mm" y1="414.099939mm" x2="478.499633mm" y2="414.099939mm" />
  <line x1="483.500170mm" y1="409.099402mm" x2="483.500170mm" y2="419.100476mm" />
  <text x="486mm" y="411mm" font-size="24">
   5.0
  </text>
  <circle cx="484.500000mm" cy="8.499997mm" r="0.999978mm" fill="none"/>
  <line x1="486.499956mm" y1="8.499997mm" x2="482.500044mm" y2="8.499997mm" />
  <line x1="484.500000mm" y1="6.500041mm" x2="484.500000mm" y2="10.499953mm" />
  <text x="485mm" y="7mm" font-size="24">
   2.0
  </text>
  <circle cx="500.420371mm" cy="426.799769mm" r="1.000161mm" fill="none"/>
  <line x1="502.420692mm" y1="426.799769mm" x2="498.420050mm" y2="426.799769mm" />
  <line x1="500.420371mm" y1="424.799448mm" x2="500.420371mm" y2="428.800090mm" />
  <text x="501mm" y="425mm" font-size="24">
   2.0
  </text>
  <circle cx="500.499659mm" cy="373.500016mm" r="1.000019mm" fill="none"/>
  <line x1="502.499698mm" y1="373.500016mm" x2="498.499621mm" y2="373.500016mm" />
  <line x1="500.499659mm" y1="371.499978mm" x2="500.499659mm" y2="375.500054mm" />
  <text x="501mm" y="372mm" font-size="24">
   2.0
  </text>
  <circle cx="510.799659mm" cy="12.000016mm" r="1.000019mm" fill="none"/>
  <line x1="512.799698mm" y1="12.000016mm" x2="508.799621mm" y2="12.000016mm" />
  <line x1="510.799659mm" y1="9.999978mm" x2="510.799659mm" y2="14.000054mm" />
  <text x="511mm" y="10mm" font-size="24">
   2.0
  </text>
  <circle cx="530.580371mm" cy="426.799769mm" r="1.000161mm" fill="none"/>
  <line x1="532.580692mm" y1="426.799769mm" x2="528.580050mm" y2="426.799769mm" />
  <line x1="530.580371mm" y1="424.799448mm" x2="530.580371mm" y2="428.800090mm" />
  <text x="531mm" y="425mm" font-size="24">
   2.0
  </text>
  <circle cx="545.199659mm" cy="12.000016mm" r="1.000019mm" fill="none"/>
  <line x1="547.199698mm" y1="12.000016mm" x2="543.199621mm" y2="12.000016mm" />
  <line x1="545.199659mm" y1="9.999978mm" x2="545.199659mm" y2="14.000054mm" />
  <text x="546mm" y="10mm" font-size="24">
   2.0
  </text>
  <circle cx="551.800371mm" cy="426.799769mm" r="1.000161mm" fill="none"/>
  <line x1="553.800692mm" y1="426.799769mm" x2="549.800050mm" y2="426.799769mm" />
  <line x1="551.800371mm" y1="424.799448mm" x2="551.800371mm" y2="428.800090mm" />
  <text x="552mm" y="425mm" font-size="24">
   2.0
  </text>
 </g>
</svg>
