  0
SECTION
  2
BLOCKS
  0
ENDSEC
  0
SECTION
  2
ENTITIES
  0
LINE
  8
0
 10
-148.5
 11
-148.459
 20
102
 21
102.494
  0
LINE
  8
0
 10
-148.459
 11
-148.337
 20
102.494
 21
102.974
  0
LINE
  8
0
 10
-148.337
 11
-148.138
 20
102.974
 21
103.428
  0
LINE
  8
0
 10
-148.138
 11
-147.867
 20
103.428
 21
103.843
  0
LINE
  8
0
 10
-147.867
 11
-147.532
 20
103.843
 21
104.207
  0
LINE
  8
0
 10
-147.532
 11
-147.141
 20
104.207
 21
104.511
  0
LINE
  8
0
 10
-147.141
 11
-146.705
 20
104.511
 21
104.747
  0
LINE
  8
0
 10
-146.705
 11
-146.236
 20
104.747
 21
104.908
  0
LINE
  8
0
 10
-146.236
 11
-145.748
 20
104.908
 21
104.99
  0
LINE
  8
0
 10
-145.748
 11
-18.51
 20
104.99
 21
104.994
  0
LINE
  8
0
 10
-18.51
 11
-18.51
 20
104.994
 21
99.15
  0
LINE
  8
0
 10
-18.51
 11
18.51
 20
99.15
 21
99.15
  0
LINE
  8
0
 10
18.51
 11
18.51
 20
99.15
 21
104.996
  0
LINE
  8
0
 10
18.51
 11
145.5
 20
104.996
 21
105
  0
LINE
  8
0
 10
145.5
 11
145.994
 20
105
 21
104.959
  0
LINE
  8
0
 10
145.994
 11
146.474
 20
104.959
 21
104.837
  0
LINE
  8
0
 10
146.474
 11
146.928
 20
104.837
 21
104.638
  0
LINE
  8
0
 10
146.928
 11
147.343
 20
104.638
 21
104.367
  0
LINE
  8
0
 10
147.343
 11
147.707
 20
104.367
 21
104.032
  0
LINE
  8
0
 10
147.707
 11
148.011
 20
104.032
 21
103.641
  0
LINE
  8
0
 10
148.011
 11
148.247
 20
103.641
 21
103.205
  0
LINE
  8
0
 10
148.247
 11
148.408
 20
103.205
 21
102.736
  0
LINE
  8
0
 10
148.408
 11
148.49
 20
102.736
 21
102.248
  0
LINE
  8
0
 10
148.49
 11
148.5
 20
102.248
 21
-102
  0
LINE
  8
0
 10
148.5
 11
148.459
 20
-102
 21
-102.494
  0
LINE
  8
0
 10
148.459
 11
148.337
 20
-102.494
 21
-102.974
  0
LINE
  8
0
 10
148.337
 11
148.138
 20
-102.974
 21
-103.428
  0
LINE
  8
0
 10
148.138
 11
147.867
 20
-103.428
 21
-103.843
  0
LINE
  8
0
 10
147.867
 11
147.532
 20
-103.843
 21
-104.207
  0
LINE
  8
0
 10
147.532
 11
147.141
 20
-104.207
 21
-104.511
  0
LINE
  8
0
 10
147.141
 11
146.705
 20
-104.511
 21
-104.747
  0
LINE
  8
0
 10
146.705
 11
146.236
 20
-104.747
 21
-104.908
  0
LINE
  8
0
 10
146.236
 11
145.748
 20
-104.908
 21
-104.99
  0
LINE
  8
0
 10
145.748
 11
-145.5
 20
-104.99
 21
-105
  0
LINE
  8
0
 10
-145.5
 11
-145.994
 20
-105
 21
-104.959
  0
LINE
  8
0
 10
-145.994
 11
-146.474
 20
-104.959
 21
-104.837
  0
LINE
  8
0
 10
-146.474
 11
-146.928
 20
-104.837
 21
-104.638
  0
LINE
  8
0
 10
-146.928
 11
-147.343
 20
-104.638
 21
-104.367
  0
LINE
  8
0
 10
-147.343
 11
-147.707
 20
-104.367
 21
-104.032
  0
LINE
  8
0
 10
-147.707
 11
-148.011
 20
-104.032
 21
-103.641
  0
LINE
  8
0
 10
-148.011
 11
-148.247
 20
-103.641
 21
-103.205
  0
LINE
  8
0
 10
-148.247
 11
-148.408
 20
-103.205
 21
-102.736
  0
LINE
  8
0
 10
-148.408
 11
-148.49
 20
-102.736
 21
-102.248
  0
LINE
  8
0
 10
-148.49
 11
-148.5
 20
-102.248
 21
102
  0
LINE
  8
0
 10
-144.2
 11
-144.145
 20
-84.5
 21
-84.01
  0
LINE
  8
0
 10
-144.145
 11
-143.982
 20
-84.01
 21
-83.545
  0
LINE
  8
0
 10
-143.982
 11
-143.72
 20
-83.545
 21
-83.128
  0
LINE
  8
0
 10
-143.72
 11
-143.372
 20
-83.128
 21
-82.78
  0
LINE
  8
0
 10
-143.372
 11
-142.955
 20
-82.78
 21
-82.518
  0
LINE
  8
0
 10
-142.955
 11
-142.49
 20
-82.518
 21
-82.355
  0
LINE
  8
0
 10
-142.49
 11
-142
 20
-82.355
 21
-82.3
  0
LINE
  8
0
 10
-142
 11
-141.51
 20
-82.3
 21
-82.355
  0
LINE
  8
0
 10
-141.51
 11
-141.045
 20
-82.355
 21
-82.518
  0
LINE
  8
0
 10
-141.045
 11
-140.628
 20
-82.518
 21
-82.78
  0
LINE
  8
0
 10
-140.628
 11
-140.28
 20
-82.78
 21
-83.128
  0
LINE
  8
0
 10
-140.28
 11
-140.018
 20
-83.128
 21
-83.545
  0
LINE
  8
0
 10
-140.018
 11
-139.855
 20
-83.545
 21
-84.01
  0
LINE
  8
0
 10
-139.855
 11
-139.8
 20
-84.01
 21
-84.5
  0
LINE
  8
0
 10
-139.8
 11
-139.855
 20
-84.5
 21
-84.99
  0
LINE
  8
0
 10
-139.855
 11
-140.018
 20
-84.99
 21
-85.455
  0
LINE
  8
0
 10
-140.018
 11
-140.28
 20
-85.455
 21
-85.872
  0
LINE
  8
0
 10
-140.28
 11
-140.628
 20
-85.872
 21
-86.22
  0
LINE
  8
0
 10
-140.628
 11
-141.045
 20
-86.22
 21
-86.482
  0
LINE
  8
0
 10
-141.045
 11
-141.51
 20
-86.482
 21
-86.645
  0
LINE
  8
0
 10
-141.51
 11
-142
 20
-86.645
 21
-86.7
  0
LINE
  8
0
 10
-142
 11
-142.49
 20
-86.7
 21
-86.645
  0
LINE
  8
0
 10
-142.49
 11
-142.955
 20
-86.645
 21
-86.482
  0
LINE
  8
0
 10
-142.955
 11
-143.372
 20
-86.482
 21
-86.22
  0
LINE
  8
0
 10
-143.372
 11
-143.72
 20
-86.22
 21
-85.872
  0
LINE
  8
0
 10
-143.72
 11
-143.982
 20
-85.872
 21
-85.455
  0
LINE
  8
0
 10
-143.982
 11
-144.145
 20
-85.455
 21
-84.99
  0
LINE
  8
0
 10
-144.145
 11
-144.2
 20
-84.99
 21
-84.5
  0
LINE
  8
0
 10
-144.2
 11
-144.145
 20
60.5
 21
60.99
  0
LINE
  8
0
 10
-144.145
 11
-143.982
 20
60.99
 21
61.455
  0
LINE
  8
0
 10
-143.982
 11
-143.72
 20
61.455
 21
61.872
  0
LINE
  8
0
 10
-143.72
 11
-143.372
 20
61.872
 21
62.22
  0
LINE
  8
0
 10
-143.372
 11
-142.955
 20
62.22
 21
62.482
  0
LINE
  8
0
 10
-142.955
 11
-142.49
 20
62.482
 21
62.645
  0
LINE
  8
0
 10
-142.49
 11
-142
 20
62.645
 21
62.7
  0
LINE
  8
0
 10
-142
 11
-141.51
 20
62.7
 21
62.645
  0
LINE
  8
0
 10
-141.51
 11
-141.045
 20
62.645
 21
62.482
  0
LINE
  8
0
 10
-141.045
 11
-140.628
 20
62.482
 21
62.22
  0
LINE
  8
0
 10
-140.628
 11
-140.28
 20
62.22
 21
61.872
  0
LINE
  8
0
 10
-140.28
 11
-140.018
 20
61.872
 21
61.455
  0
LINE
  8
0
 10
-140.018
 11
-139.855
 20
61.455
 21
60.99
  0
LINE
  8
0
 10
-139.855
 11
-139.8
 20
60.99
 21
60.5
  0
LINE
  8
0
 10
-139.8
 11
-139.855
 20
60.5
 21
60.01
  0
LINE
  8
0
 10
-139.855
 11
-140.018
 20
60.01
 21
59.545
  0
LINE
  8
0
 10
-140.018
 11
-140.28
 20
59.545
 21
59.128
  0
LINE
  8
0
 10
-140.28
 11
-140.628
 20
59.128
 21
58.78
  0
LINE
  8
0
 10
-140.628
 11
-141.045
 20
58.78
 21
58.518
  0
LINE
  8
0
 10
-141.045
 11
-141.51
 20
58.518
 21
58.355
  0
LINE
  8
0
 10
-141.51
 11
-142
 20
58.355
 21
58.3
  0
LINE
  8
0
 10
-142
 11
-142.49
 20
58.3
 21
58.355
  0
LINE
  8
0
 10
-142.49
 11
-142.955
 20
58.355
 21
58.518
  0
LINE
  8
0
 10
-142.955
 11
-143.372
 20
58.518
 21
58.78
  0
LINE
  8
0
 10
-143.372
 11
-143.72
 20
58.78
 21
59.128
  0
LINE
  8
0
 10
-143.72
 11
-143.982
 20
59.128
 21
59.545
  0
LINE
  8
0
 10
-143.982
 11
-144.145
 20
59.545
 21
60.01
  0
LINE
  8
0
 10
-144.145
 11
-144.2
 20
60.01
 21
60.5
  0
LINE
  8
0
 10
-139.75
 11
-139.655
 20
-95
 21
-94.522
  0
LINE
  8
0
 10
-139.655
 11
-139.384
 20
-94.522
 21
-94.116
  0
LINE
  8
0
 10
-139.384
 11
-138.978
 20
-94.116
 21
-93.845
  0
LINE
  8
0
 10
-138.978
 11
-138.5
 20
-93.845
 21
-93.75
  0
LINE
  8
0
 10
-138.5
 11
-138.022
 20
-93.75
 21
-93.845
  0
LINE
  8
0
 10
-138.022
 11
-137.616
 20
-93.845
 21
-94.116
  0
LINE
  8
0
 10
-137.616
 11
-137.345
 20
-94.116
 21
-94.522
  0
LINE
  8
0
 10
-137.345
 11
-137.25
 20
-94.522
 21
-95
  0
LINE
  8
0
 10
-137.25
 11
-137.345
 20
-95
 21
-95.478
  0
LINE
  8
0
 10
-137.345
 11
-137.616
 20
-95.478
 21
-95.884
  0
LINE
  8
0
 10
-137.616
 11
-138.022
 20
-95.884
 21
-96.155
  0
LINE
  8
0
 10
-138.022
 11
-138.5
 20
-96.155
 21
-96.25
  0
LINE
  8
0
 10
-138.5
 11
-138.978
 20
-96.25
 21
-96.155
  0
LINE
  8
0
 10
-138.978
 11
-139.384
 20
-96.155
 21
-95.884
  0
LINE
  8
0
 10
-139.384
 11
-139.655
 20
-95.884
 21
-95.478
  0
LINE
  8
0
 10
-139.655
 11
-139.75
 20
-95.478
 21
-95
  0
LINE
  8
0
 10
-139.75
 11
-139.655
 20
95
 21
95.478
  0
LINE
  8
0
 10
-139.655
 11
-139.384
 20
95.478
 21
95.884
  0
LINE
  8
0
 10
-139.384
 11
-138.978
 20
95.884
 21
96.155
  0
LINE
  8
0
 10
-138.978
 11
-138.5
 20
96.155
 21
96.25
  0
LINE
  8
0
 10
-138.5
 11
-138.022
 20
96.25
 21
96.155
  0
LINE
  8
0
 10
-138.022
 11
-137.616
 20
96.155
 21
95.884
  0
LINE
  8
0
 10
-137.616
 11
-137.345
 20
95.884
 21
95.478
  0
LINE
  8
0
 10
-137.345
 11
-137.25
 20
95.478
 21
95
  0
LINE
  8
0
 10
-137.25
 11
-137.345
 20
95
 21
94.522
  0
LINE
  8
0
 10
-137.345
 11
-137.616
 20
94.522
 21
94.116
  0
LINE
  8
0
 10
-137.616
 11
-138.022
 20
94.116
 21
93.845
  0
LINE
  8
0
 10
-138.022
 11
-138.5
 20
93.845
 21
93.75
  0
LINE
  8
0
 10
-138.5
 11
-138.978
 20
93.75
 21
93.845
  0
LINE
  8
0
 10
-138.978
 11
-139.384
 20
93.845
 21
94.116
  0
LINE
  8
0
 10
-139.384
 11
-139.655
 20
94.116
 21
94.522
  0
LINE
  8
0
 10
-139.655
 11
-139.75
 20
94.522
 21
95
  0
LINE
  8
0
 10
-107.2
 11
-107.145
 20
-60.5
 21
-60.01
  0
LINE
  8
0
 10
-107.145
 11
-106.982
 20
-60.01
 21
-59.545
  0
LINE
  8
0
 10
-106.982
 11
-106.72
 20
-59.545
 21
-59.128
  0
LINE
  8
0
 10
-106.72
 11
-106.372
 20
-59.128
 21
-58.78
  0
LINE
  8
0
 10
-106.372
 11
-105.955
 20
-58.78
 21
-58.518
  0
LINE
  8
0
 10
-105.955
 11
-105.49
 20
-58.518
 21
-58.355
  0
LINE
  8
0
 10
-105.49
 11
-105
 20
-58.355
 21
-58.3
  0
LINE
  8
0
 10
-105
 11
-104.51
 20
-58.3
 21
-58.355
  0
LINE
  8
0
 10
-104.51
 11
-104.045
 20
-58.355
 21
-58.518
  0
LINE
  8
0
 10
-104.045
 11
-103.628
 20
-58.518
 21
-58.78
  0
LINE
  8
0
 10
-103.628
 11
-103.28
 20
-58.78
 21
-59.128
  0
LINE
  8
0
 10
-103.28
 11
-103.018
 20
-59.128
 21
-59.545
  0
LINE
  8
0
 10
-103.018
 11
-102.855
 20
-59.545
 21
-60.01
  0
LINE
  8
0
 10
-102.855
 11
-102.8
 20
-60.01
 21
-60.5
  0
LINE
  8
0
 10
-102.8
 11
-102.855
 20
-60.5
 21
-60.99
  0
LINE
  8
0
 10
-102.855
 11
-103.018
 20
-60.99
 21
-61.455
  0
LINE
  8
0
 10
-103.018
 11
-103.28
 20
-61.455
 21
-61.872
  0
LINE
  8
0
 10
-103.28
 11
-103.628
 20
-61.872
 21
-62.22
  0
LINE
  8
0
 10
-103.628
 11
-104.045
 20
-62.22
 21
-62.482
  0
LINE
  8
0
 10
-104.045
 11
-104.51
 20
-62.482
 21
-62.645
  0
LINE
  8
0
 10
-104.51
 11
-105
 20
-62.645
 21
-62.7
  0
LINE
  8
0
 10
-105
 11
-105.49
 20
-62.7
 21
-62.645
  0
LINE
  8
0
 10
-105.49
 11
-105.955
 20
-62.645
 21
-62.482
  0
LINE
  8
0
 10
-105.955
 11
-106.372
 20
-62.482
 21
-62.22
  0
LINE
  8
0
 10
-106.372
 11
-106.72
 20
-62.22
 21
-61.872
  0
LINE
  8
0
 10
-106.72
 11
-106.982
 20
-61.872
 21
-61.455
  0
LINE
  8
0
 10
-106.982
 11
-107.145
 20
-61.455
 21
-60.99
  0
LINE
  8
0
 10
-107.145
 11
-107.2
 20
-60.99
 21
-60.5
  0
LINE
  8
0
 10
-107.2
 11
-107.145
 20
84.5
 21
84.99
  0
LINE
  8
0
 10
-107.145
 11
-106.982
 20
84.99
 21
85.455
  0
LINE
  8
0
 10
-106.982
 11
-106.72
 20
85.455
 21
85.872
  0
LINE
  8
0
 10
-106.72
 11
-106.372
 20
85.872
 21
86.22
  0
LINE
  8
0
 10
-106.372
 11
-105.955
 20
86.22
 21
86.482
  0
LINE
  8
0
 10
-105.955
 11
-105.49
 20
86.482
 21
86.645
  0
LINE
  8
0
 10
-105.49
 11
-105
 20
86.645
 21
86.7
  0
LINE
  8
0
 10
-105
 11
-104.51
 20
86.7
 21
86.645
  0
LINE
  8
0
 10
-104.51
 11
-104.045
 20
86.645
 21
86.482
  0
LINE
  8
0
 10
-104.045
 11
-103.628
 20
86.482
 21
86.22
  0
LINE
  8
0
 10
-103.628
 11
-103.28
 20
86.22
 21
85.872
  0
LINE
  8
0
 10
-103.28
 11
-103.018
 20
85.872
 21
85.455
  0
LINE
  8
0
 10
-103.018
 11
-102.855
 20
85.455
 21
84.99
  0
LINE
  8
0
 10
-102.855
 11
-102.8
 20
84.99
 21
84.5
  0
LINE
  8
0
 10
-102.8
 11
-102.855
 20
84.5
 21
84.01
  0
LINE
  8
0
 10
-102.855
 11
-103.018
 20
84.01
 21
83.545
  0
LINE
  8
0
 10
-103.018
 11
-103.28
 20
83.545
 21
83.128
  0
LINE
  8
0
 10
-103.28
 11
-103.628
 20
83.128
 21
82.78
  0
LINE
  8
0
 10
-103.628
 11
-104.045
 20
82.78
 21
82.518
  0
LINE
  8
0
 10
-104.045
 11
-104.51
 20
82.518
 21
82.355
  0
LINE
  8
0
 10
-104.51
 11
-105
 20
82.355
 21
82.3
  0
LINE
  8
0
 10
-105
 11
-105.49
 20
82.3
 21
82.355
  0
LINE
  8
0
 10
-105.49
 11
-105.955
 20
82.355
 21
82.518
  0
LINE
  8
0
 10
-105.955
 11
-106.372
 20
82.518
 21
82.78
  0
LINE
  8
0
 10
-106.372
 11
-106.72
 20
82.78
 21
83.128
  0
LINE
  8
0
 10
-106.72
 11
-106.982
 20
83.128
 21
83.545
  0
LINE
  8
0
 10
-106.982
 11
-107.145
 20
83.545
 21
84.01
  0
LINE
  8
0
 10
-107.145
 11
-107.2
 20
84.01
 21
84.5
  0
LINE
  8
0
 10
-33.16
 11
-33.087
 20
-50.175
 21
-49.688
  0
LINE
  8
0
 10
-33.087
 11
-32.873
 20
-49.688
 21
-49.245
  0
LINE
  8
0
 10
-32.873
 11
-32.539
 20
-49.245
 21
-48.885
  0
LINE
  8
0
 10
-32.539
 11
-32.113
 20
-48.885
 21
-48.639
  0
LINE
  8
0
 10
-32.113
 11
-31.633
 20
-48.639
 21
-48.529
  0
LINE
  8
0
 10
-31.633
 11
-31.143
 20
-48.529
 21
-48.566
  0
LINE
  8
0
 10
-31.143
 11
-30.685
 20
-48.566
 21
-48.746
  0
LINE
  8
0
 10
-30.685
 11
-30.3
 20
-48.746
 21
-49.052
  0
LINE
  8
0
 10
-30.3
 11
-30.023
 20
-49.052
 21
-49.459
  0
LINE
  8
0
 10
-30.023
 11
-29.878
 20
-49.459
 21
-49.929
  0
LINE
  8
0
 10
-29.878
 11
-29.878
 20
-49.929
 21
-50.421
  0
LINE
  8
0
 10
-29.878
 11
-30.023
 20
-50.421
 21
-50.89
  0
LINE
  8
0
 10
-30.023
 11
-30.3
 20
-50.89
 21
-51.297
  0
LINE
  8
0
 10
-30.3
 11
-30.685
 20
-51.297
 21
-51.604
  0
LINE
  8
0
 10
-30.685
 11
-31.143
 20
-51.604
 21
-51.783
  0
LINE
  8
0
 10
-31.143
 11
-31.633
 20
-51.783
 21
-51.82
  0
LINE
  8
0
 10
-31.633
 11
-32.113
 20
-51.82
 21
-51.711
  0
LINE
  8
0
 10
-32.113
 11
-32.539
 20
-51.711
 21
-51.465
  0
LINE
  8
0
 10
-32.539
 11
-32.873
 20
-51.465
 21
-51.104
  0
LINE
  8
0
 10
-32.873
 11
-33.087
 20
-51.104
 21
-50.661
  0
LINE
  8
0
 10
-33.087
 11
-33.16
 20
-50.661
 21
-50.175
  0
LINE
  8
0
 10
-33.16
 11
-33.087
 20
-35.525
 21
-35.039
  0
LINE
  8
0
 10
-33.087
 11
-32.873
 20
-35.039
 21
-34.596
  0
LINE
  8
0
 10
-32.873
 11
-32.539
 20
-34.596
 21
-34.235
  0
LINE
  8
0
 10
-32.539
 11
-32.113
 20
-34.235
 21
-33.989
  0
LINE
  8
0
 10
-32.113
 11
-31.633
 20
-33.989
 21
-33.88
  0
LINE
  8
0
 10
-31.633
 11
-31.143
 20
-33.88
 21
-33.917
  0
LINE
  8
0
 10
-31.143
 11
-30.685
 20
-33.917
 21
-34.096
  0
LINE
  8
0
 10
-30.685
 11
-30.3
 20
-34.096
 21
-34.403
  0
LINE
  8
0
 10
-30.3
 11
-30.023
 20
-34.403
 21
-34.81
  0
LINE
  8
0
 10
-30.023
 11
-29.878
 20
-34.81
 21
-35.279
  0
LINE
  8
0
 10
-29.878
 11
-29.878
 20
-35.279
 21
-35.771
  0
LINE
  8
0
 10
-29.878
 11
-30.023
 20
-35.771
 21
-36.241
  0
LINE
  8
0
 10
-30.023
 11
-30.3
 20
-36.241
 21
-36.648
  0
LINE
  8
0
 10
-30.3
 11
-30.685
 20
-36.648
 21
-36.954
  0
LINE
  8
0
 10
-30.685
 11
-31.143
 20
-36.954
 21
-37.134
  0
LINE
  8
0
 10
-31.143
 11
-31.633
 20
-37.134
 21
-37.171
  0
LINE
  8
0
 10
-31.633
 11
-32.113
 20
-37.171
 21
-37.061
  0
LINE
  8
0
 10
-32.113
 11
-32.539
 20
-37.061
 21
-36.815
  0
LINE
  8
0
 10
-32.539
 11
-32.873
 20
-36.815
 21
-36.455
  0
LINE
  8
0
 10
-32.873
 11
-33.087
 20
-36.455
 21
-36.012
  0
LINE
  8
0
 10
-33.087
 11
-33.16
 20
-36.012
 21
-35.525
  0
LINE
  8
0
 10
-33.142
 11
-33.142
 20
31.429
 21
31.921
  0
LINE
  8
0
 10
-33.142
 11
-32.997
 20
31.921
 21
32.391
  0
LINE
  8
0
 10
-32.997
 11
-32.72
 20
32.391
 21
32.798
  0
LINE
  8
0
 10
-32.72
 11
-32.335
 20
32.798
 21
33.104
  0
LINE
  8
0
 10
-32.335
 11
-31.877
 20
33.104
 21
33.284
  0
LINE
  8
0
 10
-31.877
 11
-31.387
 20
33.284
 21
33.321
  0
LINE
  8
0
 10
-31.387
 11
-30.907
 20
33.321
 21
33.211
  0
LINE
  8
0
 10
-30.907
 11
-30.481
 20
33.211
 21
32.965
  0
LINE
  8
0
 10
-30.481
 11
-30.147
 20
32.965
 21
32.605
  0
LINE
  8
0
 10
-30.147
 11
-29.933
 20
32.605
 21
32.162
  0
LINE
  8
0
 10
-29.933
 11
-29.86
 20
32.162
 21
31.675
  0
LINE
  8
0
 10
-29.86
 11
-29.933
 20
31.675
 21
31.189
  0
LINE
  8
0
 10
-29.933
 11
-30.147
 20
31.189
 21
30.746
  0
LINE
  8
0
 10
-30.147
 11
-30.481
 20
30.746
 21
30.385
  0
LINE
  8
0
 10
-30.481
 11
-30.907
 20
30.385
 21
30.139
  0
LINE
  8
0
 10
-30.907
 11
-31.387
 20
30.139
 21
30.03
  0
LINE
  8
0
 10
-31.387
 11
-31.877
 20
30.03
 21
30.067
  0
LINE
  8
0
 10
-31.877
 11
-32.335
 20
30.067
 21
30.246
  0
LINE
  8
0
 10
-32.335
 11
-32.72
 20
30.246
 21
30.553
  0
LINE
  8
0
 10
-32.72
 11
-32.997
 20
30.553
 21
30.96
  0
LINE
  8
0
 10
-32.997
 11
-33.142
 20
30.96
 21
31.429
  0
LINE
  8
0
 10
-33.142
 11
-33.142
 20
46.079
 21
46.571
  0
LINE
  8
0
 10
-33.142
 11
-32.997
 20
46.571
 21
47.04
  0
LINE
  8
0
 10
-32.997
 11
-32.72
 20
47.04
 21
47.447
  0
LINE
  8
0
 10
-32.72
 11
-32.335
 20
47.447
 21
47.754
  0
LINE
  8
0
 10
-32.335
 11
-31.877
 20
47.754
 21
47.933
  0
LINE
  8
0
 10
-31.877
 11
-31.387
 20
47.933
 21
47.97
  0
LINE
  8
0
 10
-31.387
 11
-30.907
 20
47.97
 21
47.861
  0
LINE
  8
0
 10
-30.907
 11
-30.481
 20
47.861
 21
47.615
  0
LINE
  8
0
 10
-30.481
 11
-30.147
 20
47.615
 21
47.254
  0
LINE
  8
0
 10
-30.147
 11
-29.933
 20
47.254
 21
46.811
  0
LINE
  8
0
 10
-29.933
 11
-29.86
 20
46.811
 21
46.325
  0
LINE
  8
0
 10
-29.86
 11
-29.933
 20
46.325
 21
45.838
  0
LINE
  8
0
 10
-29.933
 11
-30.147
 20
45.838
 21
45.395
  0
LINE
  8
0
 10
-30.147
 11
-30.481
 20
45.395
 21
45.035
  0
LINE
  8
0
 10
-30.481
 11
-30.907
 20
45.035
 21
44.789
  0
LINE
  8
0
 10
-30.907
 11
-31.387
 20
44.789
 21
44.679
  0
LINE
  8
0
 10
-31.387
 11
-31.877
 20
44.679
 21
44.716
  0
LINE
  8
0
 10
-31.877
 11
-32.335
 20
44.716
 21
44.896
  0
LINE
  8
0
 10
-32.335
 11
-32.72
 20
44.896
 21
45.202
  0
LINE
  8
0
 10
-32.72
 11
-32.997
 20
45.202
 21
45.609
  0
LINE
  8
0
 10
-32.997
 11
-33.142
 20
45.609
 21
46.079
  0
LINE
  8
0
 10
-23.41
 11
-23.355
 20
93.3
 21
93.79
  0
LINE
  8
0
 10
-23.355
 11
-23.192
 20
93.79
 21
94.255
  0
LINE
  8
0
 10
-23.192
 11
-22.93
 20
94.255
 21
94.672
  0
LINE
  8
0
 10
-22.93
 11
-22.582
 20
94.672
 21
95.02
  0
LINE
  8
0
 10
-22.582
 11
-22.165
 20
95.02
 21
95.282
  0
LINE
  8
0
 10
-22.165
 11
-21.7
 20
95.282
 21
95.445
  0
LINE
  8
0
 10
-21.7
 11
-21.21
 20
95.445
 21
95.5
  0
LINE
  8
0
 10
-21.21
 11
-20.72
 20
95.5
 21
95.445
  0
LINE
  8
0
 10
-20.72
 11
-20.255
 20
95.445
 21
95.282
  0
LINE
  8
0
 10
-20.255
 11
-19.838
 20
95.282
 21
95.02
  0
LINE
  8
0
 10
-19.838
 11
-19.49
 20
95.02
 21
94.672
  0
LINE
  8
0
 10
-19.49
 11
-19.228
 20
94.672
 21
94.255
  0
LINE
  8
0
 10
-19.228
 11
-19.065
 20
94.255
 21
93.79
  0
LINE
  8
0
 10
-19.065
 11
-19.01
 20
93.79
 21
93.3
  0
LINE
  8
0
 10
-19.01
 11
-19.065
 20
93.3
 21
92.81
  0
LINE
  8
0
 10
-19.065
 11
-19.228
 20
92.81
 21
92.345
  0
LINE
  8
0
 10
-19.228
 11
-19.49
 20
92.345
 21
91.928
  0
LINE
  8
0
 10
-19.49
 11
-19.838
 20
91.928
 21
91.58
  0
LINE
  8
0
 10
-19.838
 11
-20.255
 20
91.58
 21
91.318
  0
LINE
  8
0
 10
-20.255
 11
-20.72
 20
91.318
 21
91.155
  0
LINE
  8
0
 10
-20.72
 11
-21.21
 20
91.155
 21
91.1
  0
LINE
  8
0
 10
-21.21
 11
-21.7
 20
91.1
 21
91.155
  0
LINE
  8
0
 10
-21.7
 11
-22.165
 20
91.155
 21
91.318
  0
LINE
  8
0
 10
-22.165
 11
-22.582
 20
91.318
 21
91.58
  0
LINE
  8
0
 10
-22.582
 11
-22.93
 20
91.58
 21
91.928
  0
LINE
  8
0
 10
-22.93
 11
-23.192
 20
91.928
 21
92.345
  0
LINE
  8
0
 10
-23.192
 11
-23.355
 20
92.345
 21
92.81
  0
LINE
  8
0
 10
-23.355
 11
-23.41
 20
92.81
 21
93.3
  0
LINE
  8
0
 10
19.01
 11
19.065
 20
93.3
 21
93.79
  0
LINE
  8
0
 10
19.065
 11
19.228
 20
93.79
 21
94.255
  0
LINE
  8
0
 10
19.228
 11
19.49
 20
94.255
 21
94.672
  0
LINE
  8
0
 10
19.49
 11
19.838
 20
94.672
 21
95.02
  0
LINE
  8
0
 10
19.838
 11
20.255
 20
95.02
 21
95.282
  0
LINE
  8
0
 10
20.255
 11
20.72
 20
95.282
 21
95.445
  0
LINE
  8
0
 10
20.72
 11
21.21
 20
95.445
 21
95.5
  0
LINE
  8
0
 10
21.21
 11
21.7
 20
95.5
 21
95.445
  0
LINE
  8
0
 10
21.7
 11
22.165
 20
95.445
 21
95.282
  0
LINE
  8
0
 10
22.165
 11
22.582
 20
95.282
 21
95.02
  0
LINE
  8
0
 10
22.582
 11
22.93
 20
95.02
 21
94.672
  0
LINE
  8
0
 10
22.93
 11
23.192
 20
94.672
 21
94.255
  0
LINE
  8
0
 10
23.192
 11
23.355
 20
94.255
 21
93.79
  0
LINE
  8
0
 10
23.355
 11
23.41
 20
93.79
 21
93.3
  0
LINE
  8
0
 10
23.41
 11
23.355
 20
93.3
 21
92.81
  0
LINE
  8
0
 10
23.355
 11
23.192
 20
92.81
 21
92.345
  0
LINE
  8
0
 10
23.192
 11
22.93
 20
92.345
 21
91.928
  0
LINE
  8
0
 10
22.93
 11
22.582
 20
91.928
 21
91.58
  0
LINE
  8
0
 10
22.582
 11
22.165
 20
91.58
 21
91.318
  0
LINE
  8
0
 10
22.165
 11
21.7
 20
91.318
 21
91.155
  0
LINE
  8
0
 10
21.7
 11
21.21
 20
91.155
 21
91.1
  0
LINE
  8
0
 10
21.21
 11
20.72
 20
91.1
 21
91.155
  0
LINE
  8
0
 10
20.72
 11
20.255
 20
91.155
 21
91.318
  0
LINE
  8
0
 10
20.255
 11
19.838
 20
91.318
 21
91.58
  0
LINE
  8
0
 10
19.838
 11
19.49
 20
91.58
 21
91.928
  0
LINE
  8
0
 10
19.49
 11
19.228
 20
91.928
 21
92.345
  0
LINE
  8
0
 10
19.228
 11
19.065
 20
92.345
 21
92.81
  0
LINE
  8
0
 10
19.065
 11
19.01
 20
92.81
 21
93.3
  0
LINE
  8
0
 10
102.8
 11
102.855
 20
-12
 21
-11.51
  0
LINE
  8
0
 10
102.855
 11
103.018
 20
-11.51
 21
-11.045
  0
LINE
  8
0
 10
103.018
 11
103.28
 20
-11.045
 21
-10.628
  0
LINE
  8
0
 10
103.28
 11
103.628
 20
-10.628
 21
-10.28
  0
LINE
  8
0
 10
103.628
 11
104.045
 20
-10.28
 21
-10.018
  0
LINE
  8
0
 10
104.045
 11
104.51
 20
-10.018
 21
-9.855
  0
LINE
  8
0
 10
104.51
 11
105
 20
-9.855
 21
-9.8
  0
LINE
  8
0
 10
105
 11
105.49
 20
-9.8
 21
-9.855
  0
LINE
  8
0
 10
105.49
 11
105.955
 20
-9.855
 21
-10.018
  0
LINE
  8
0
 10
105.955
 11
106.372
 20
-10.018
 21
-10.28
  0
LINE
  8
0
 10
106.372
 11
106.72
 20
-10.28
 21
-10.628
  0
LINE
  8
0
 10
106.72
 11
106.982
 20
-10.628
 21
-11.045
  0
LINE
  8
0
 10
106.982
 11
107.145
 20
-11.045
 21
-11.51
  0
LINE
  8
0
 10
107.145
 11
107.2
 20
-11.51
 21
-12
  0
LINE
  8
0
 10
107.2
 11
107.145
 20
-12
 21
-12.49
  0
LINE
  8
0
 10
107.145
 11
106.982
 20
-12.49
 21
-12.955
  0
LINE
  8
0
 10
106.982
 11
106.72
 20
-12.955
 21
-13.372
  0
LINE
  8
0
 10
106.72
 11
106.372
 20
-13.372
 21
-13.72
  0
LINE
  8
0
 10
106.372
 11
105.955
 20
-13.72
 21
-13.982
  0
LINE
  8
0
 10
105.955
 11
105.49
 20
-13.982
 21
-14.145
  0
LINE
  8
0
 10
105.49
 11
105
 20
-14.145
 21
-14.2
  0
LINE
  8
0
 10
105
 11
104.51
 20
-14.2
 21
-14.145
  0
LINE
  8
0
 10
104.51
 11
104.045
 20
-14.145
 21
-13.982
  0
LINE
  8
0
 10
104.045
 11
103.628
 20
-13.982
 21
-13.72
  0
LINE
  8
0
 10
103.628
 11
103.28
 20
-13.72
 21
-13.372
  0
LINE
  8
0
 10
103.28
 11
103.018
 20
-13.372
 21
-12.955
  0
LINE
  8
0
 10
103.018
 11
102.855
 20
-12.955
 21
-12.49
  0
LINE
  8
0
 10
102.855
 11
102.8
 20
-12.49
 21
-12
  0
LINE
  8
0
 10
137.25
 11
137.345
 20
-95
 21
-94.522
  0
LINE
  8
0
 10
137.345
 11
137.616
 20
-94.522
 21
-94.116
  0
LINE
  8
0
 10
137.616
 11
138.022
 20
-94.116
 21
-93.845
  0
LINE
  8
0
 10
138.022
 11
138.5
 20
-93.845
 21
-93.75
  0
LINE
  8
0
 10
138.5
 11
138.978
 20
-93.75
 21
-93.845
  0
LINE
  8
0
 10
138.978
 11
139.384
 20
-93.845
 21
-94.116
  0
LINE
  8
0
 10
139.384
 11
139.655
 20
-94.116
 21
-94.522
  0
LINE
  8
0
 10
139.655
 11
139.75
 20
-94.522
 21
-95
  0
LINE
  8
0
 10
139.75
 11
139.655
 20
-95
 21
-95.478
  0
LINE
  8
0
 10
139.655
 11
139.384
 20
-95.478
 21
-95.884
  0
LINE
  8
0
 10
139.384
 11
138.978
 20
-95.884
 21
-96.155
  0
LINE
  8
0
 10
138.978
 11
138.5
 20
-96.155
 21
-96.25
  0
LINE
  8
0
 10
138.5
 11
138.022
 20
-96.25
 21
-96.155
  0
LINE
  8
0
 10
138.022
 11
137.616
 20
-96.155
 21
-95.884
  0
LINE
  8
0
 10
137.616
 11
137.345
 20
-95.884
 21
-95.478
  0
LINE
  8
0
 10
137.345
 11
137.25
 20
-95.478
 21
-95
  0
LINE
  8
0
 10
137.25
 11
137.345
 20
95
 21
95.478
  0
LINE
  8
0
 10
137.345
 11
137.616
 20
95.478
 21
95.884
  0
LINE
  8
0
 10
137.616
 11
138.022
 20
95.884
 21
96.155
  0
LINE
  8
0
 10
138.022
 11
138.5
 20
96.155
 21
96.25
  0
LINE
  8
0
 10
138.5
 11
138.978
 20
96.25
 21
96.155
  0
LINE
  8
0
 10
138.978
 11
139.384
 20
96.155
 21
95.884
  0
LINE
  8
0
 10
139.384
 11
139.655
 20
95.884
 21
95.478
  0
LINE
  8
0
 10
139.655
 11
139.75
 20
95.478
 21
95
  0
LINE
  8
0
 10
139.75
 11
139.655
 20
95
 21
94.522
  0
LINE
  8
0
 10
139.655
 11
139.384
 20
94.522
 21
94.116
  0
LINE
  8
0
 10
139.384
 11
138.978
 20
94.116
 21
93.845
  0
LINE
  8
0
 10
138.978
 11
138.5
 20
93.845
 21
93.75
  0
LINE
  8
0
 10
138.5
 11
138.022
 20
93.75
 21
93.845
  0
LINE
  8
0
 10
138.022
 11
137.616
 20
93.845
 21
94.116
  0
LINE
  8
0
 10
137.616
 11
137.345
 20
94.116
 21
94.522
  0
LINE
  8
0
 10
137.345
 11
137.25
 20
94.522
 21
95
  0
LINE
  8
0
 10
139.8
 11
139.855
 20
12
 21
12.49
  0
LINE
  8
0
 10
139.855
 11
140.018
 20
12.49
 21
12.955
  0
LINE
  8
0
 10
140.018
 11
140.28
 20
12.955
 21
13.372
  0
LINE
  8
0
 10
140.28
 11
140.628
 20
13.372
 21
13.72
  0
LINE
  8
0
 10
140.628
 11
141.045
 20
13.72
 21
13.982
  0
LINE
  8
0
 10
141.045
 11
141.51
 20
13.982
 21
14.145
  0
LINE
  8
0
 10
141.51
 11
142
 20
14.145
 21
14.2
  0
LINE
  8
0
 10
142
 11
142.49
 20
14.2
 21
14.145
  0
LINE
  8
0
 10
142.49
 11
142.955
 20
14.145
 21
13.982
  0
LINE
  8
0
 10
142.955
 11
143.372
 20
13.982
 21
13.72
  0
LINE
  8
0
 10
143.372
 11
143.72
 20
13.72
 21
13.372
  0
LINE
  8
0
 10
143.72
 11
143.982
 20
13.372
 21
12.955
  0
LINE
  8
0
 10
143.982
 11
144.145
 20
12.955
 21
12.49
  0
LINE
  8
0
 10
144.145
 11
144.2
 20
12.49
 21
12
  0
LINE
  8
0
 10
144.2
 11
144.145
 20
12
 21
11.51
  0
LINE
  8
0
 10
144.145
 11
143.982
 20
11.51
 21
11.045
  0
LINE
  8
0
 10
143.982
 11
143.72
 20
11.045
 21
10.628
  0
LINE
  8
0
 10
143.72
 11
143.372
 20
10.628
 21
10.28
  0
LINE
  8
0
 10
143.372
 11
142.955
 20
10.28
 21
10.018
  0
LINE
  8
0
 10
142.955
 11
142.49
 20
10.018
 21
9.855
  0
LINE
  8
0
 10
142.49
 11
142
 20
9.855
 21
9.8
  0
LINE
  8
0
 10
142
 11
141.51
 20
9.8
 21
9.855
  0
LINE
  8
0
 10
141.51
 11
141.045
 20
9.855
 21
10.018
  0
LINE
  8
0
 10
141.045
 11
140.628
 20
10.018
 21
10.28
  0
LINE
  8
0
 10
140.628
 11
140.28
 20
10.28
 21
10.628
  0
LINE
  8
0
 10
140.28
 11
140.018
 20
10.628
 21
11.045
  0
LINE
  8
0
 10
140.018
 11
139.855
 20
11.045
 21
11.51
  0
LINE
  8
0
 10
139.855
 11
139.8
 20
11.51
 21
12
  0
ENDSEC
  0
SECTION
  2
OBJECTS
  0
DICTIONARY
  0
ENDSEC
  0
EOF
