  0
SECTION
  2
BLOCKS
  0
ENDSEC
  0
SECTION
  2
ENTITIES
  0
LINE
  8
0
 10
-148.5
 11
-148.459
 20
102
 21
102.494
  0
LINE
  8
0
 10
-148.459
 11
-148.337
 20
102.494
 21
102.974
  0
LINE
  8
0
 10
-148.337
 11
-148.138
 20
102.974
 21
103.428
  0
LINE
  8
0
 10
-148.138
 11
-147.867
 20
103.428
 21
103.843
  0
LINE
  8
0
 10
-147.867
 11
-147.532
 20
103.843
 21
104.207
  0
LINE
  8
0
 10
-147.532
 11
-147.141
 20
104.207
 21
104.511
  0
LINE
  8
0
 10
-147.141
 11
-146.705
 20
104.511
 21
104.747
  0
LINE
  8
0
 10
-146.705
 11
-146.236
 20
104.747
 21
104.908
  0
LINE
  8
0
 10
-146.236
 11
-145.748
 20
104.908
 21
104.99
  0
LINE
  8
0
 10
-145.748
 11
145.5
 20
104.99
 21
105
  0
LINE
  8
0
 10
145.5
 11
145.994
 20
105
 21
104.959
  0
LINE
  8
0
 10
145.994
 11
146.474
 20
104.959
 21
104.837
  0
LINE
  8
0
 10
146.474
 11
146.928
 20
104.837
 21
104.638
  0
LINE
  8
0
 10
146.928
 11
147.343
 20
104.638
 21
104.367
  0
LINE
  8
0
 10
147.343
 11
147.707
 20
104.367
 21
104.032
  0
LINE
  8
0
 10
147.707
 11
148.011
 20
104.032
 21
103.641
  0
LINE
  8
0
 10
148.011
 11
148.247
 20
103.641
 21
103.205
  0
LINE
  8
0
 10
148.247
 11
148.408
 20
103.205
 21
102.736
  0
LINE
  8
0
 10
148.408
 11
148.49
 20
102.736
 21
102.248
  0
LINE
  8
0
 10
148.49
 11
148.5
 20
102.248
 21
-102
  0
LINE
  8
0
 10
148.5
 11
148.459
 20
-102
 21
-102.494
  0
LINE
  8
0
 10
148.459
 11
148.337
 20
-102.494
 21
-102.974
  0
LINE
  8
0
 10
148.337
 11
148.138
 20
-102.974
 21
-103.428
  0
LINE
  8
0
 10
148.138
 11
147.867
 20
-103.428
 21
-103.843
  0
LINE
  8
0
 10
147.867
 11
147.532
 20
-103.843
 21
-104.207
  0
LINE
  8
0
 10
147.532
 11
147.141
 20
-104.207
 21
-104.511
  0
LINE
  8
0
 10
147.141
 11
146.705
 20
-104.511
 21
-104.747
  0
LINE
  8
0
 10
146.705
 11
146.236
 20
-104.747
 21
-104.908
  0
LINE
  8
0
 10
146.236
 11
145.748
 20
-104.908
 21
-104.99
  0
LINE
  8
0
 10
145.748
 11
-145.5
 20
-104.99
 21
-105
  0
LINE
  8
0
 10
-145.5
 11
-145.994
 20
-105
 21
-104.959
  0
LINE
  8
0
 10
-145.994
 11
-146.474
 20
-104.959
 21
-104.837
  0
LINE
  8
0
 10
-146.474
 11
-146.928
 20
-104.837
 21
-104.638
  0
LINE
  8
0
 10
-146.928
 11
-147.343
 20
-104.638
 21
-104.367
  0
LINE
  8
0
 10
-147.343
 11
-147.707
 20
-104.367
 21
-104.032
  0
LINE
  8
0
 10
-147.707
 11
-148.011
 20
-104.032
 21
-103.641
  0
LINE
  8
0
 10
-148.011
 11
-148.247
 20
-103.641
 21
-103.205
  0
LINE
  8
0
 10
-148.247
 11
-148.408
 20
-103.205
 21
-102.736
  0
LINE
  8
0
 10
-148.408
 11
-148.49
 20
-102.736
 21
-102.248
  0
LINE
  8
0
 10
-148.49
 11
-148.5
 20
-102.248
 21
102
  0
LINE
  8
0
 10
-144.2
 11
-144.145
 20
-86.5
 21
-86.01
  0
LINE
  8
0
 10
-144.145
 11
-143.982
 20
-86.01
 21
-85.545
  0
LINE
  8
0
 10
-143.982
 11
-143.72
 20
-85.545
 21
-85.128
  0
LINE
  8
0
 10
-143.72
 11
-143.372
 20
-85.128
 21
-84.78
  0
LINE
  8
0
 10
-143.372
 11
-142.955
 20
-84.78
 21
-84.518
  0
LINE
  8
0
 10
-142.955
 11
-142.49
 20
-84.518
 21
-84.355
  0
LINE
  8
0
 10
-142.49
 11
-142
 20
-84.355
 21
-84.3
  0
LINE
  8
0
 10
-142
 11
-141.51
 20
-84.3
 21
-84.355
  0
LINE
  8
0
 10
-141.51
 11
-141.045
 20
-84.355
 21
-84.518
  0
LINE
  8
0
 10
-141.045
 11
-140.628
 20
-84.518
 21
-84.78
  0
LINE
  8
0
 10
-140.628
 11
-140.28
 20
-84.78
 21
-85.128
  0
LINE
  8
0
 10
-140.28
 11
-140.018
 20
-85.128
 21
-85.545
  0
LINE
  8
0
 10
-140.018
 11
-139.855
 20
-85.545
 21
-86.01
  0
LINE
  8
0
 10
-139.855
 11
-139.8
 20
-86.01
 21
-86.5
  0
LINE
  8
0
 10
-139.8
 11
-139.855
 20
-86.5
 21
-86.99
  0
LINE
  8
0
 10
-139.855
 11
-140.018
 20
-86.99
 21
-87.455
  0
LINE
  8
0
 10
-140.018
 11
-140.28
 20
-87.455
 21
-87.872
  0
LINE
  8
0
 10
-140.28
 11
-140.628
 20
-87.872
 21
-88.22
  0
LINE
  8
0
 10
-140.628
 11
-141.045
 20
-88.22
 21
-88.482
  0
LINE
  8
0
 10
-141.045
 11
-141.51
 20
-88.482
 21
-88.645
  0
LINE
  8
0
 10
-141.51
 11
-142
 20
-88.645
 21
-88.7
  0
LINE
  8
0
 10
-142
 11
-142.49
 20
-88.7
 21
-88.645
  0
LINE
  8
0
 10
-142.49
 11
-142.955
 20
-88.645
 21
-88.482
  0
LINE
  8
0
 10
-142.955
 11
-143.372
 20
-88.482
 21
-88.22
  0
LINE
  8
0
 10
-143.372
 11
-143.72
 20
-88.22
 21
-87.872
  0
LINE
  8
0
 10
-143.72
 11
-143.982
 20
-87.872
 21
-87.455
  0
LINE
  8
0
 10
-143.982
 11
-144.145
 20
-87.455
 21
-86.99
  0
LINE
  8
0
 10
-144.145
 11
-144.2
 20
-86.99
 21
-86.5
  0
LINE
  8
0
 10
-144.2
 11
-144.145
 20
62.5
 21
62.99
  0
LINE
  8
0
 10
-144.145
 11
-143.982
 20
62.99
 21
63.455
  0
LINE
  8
0
 10
-143.982
 11
-143.72
 20
63.455
 21
63.872
  0
LINE
  8
0
 10
-143.72
 11
-143.372
 20
63.872
 21
64.22
  0
LINE
  8
0
 10
-143.372
 11
-142.955
 20
64.22
 21
64.482
  0
LINE
  8
0
 10
-142.955
 11
-142.49
 20
64.482
 21
64.645
  0
LINE
  8
0
 10
-142.49
 11
-142
 20
64.645
 21
64.7
  0
LINE
  8
0
 10
-142
 11
-141.51
 20
64.7
 21
64.645
  0
LINE
  8
0
 10
-141.51
 11
-141.045
 20
64.645
 21
64.482
  0
LINE
  8
0
 10
-141.045
 11
-140.628
 20
64.482
 21
64.22
  0
LINE
  8
0
 10
-140.628
 11
-140.28
 20
64.22
 21
63.872
  0
LINE
  8
0
 10
-140.28
 11
-140.018
 20
63.872
 21
63.455
  0
LINE
  8
0
 10
-140.018
 11
-139.855
 20
63.455
 21
62.99
  0
LINE
  8
0
 10
-139.855
 11
-139.8
 20
62.99
 21
62.5
  0
LINE
  8
0
 10
-139.8
 11
-139.855
 20
62.5
 21
62.01
  0
LINE
  8
0
 10
-139.855
 11
-140.018
 20
62.01
 21
61.545
  0
LINE
  8
0
 10
-140.018
 11
-140.28
 20
61.545
 21
61.128
  0
LINE
  8
0
 10
-140.28
 11
-140.628
 20
61.128
 21
60.78
  0
LINE
  8
0
 10
-140.628
 11
-141.045
 20
60.78
 21
60.518
  0
LINE
  8
0
 10
-141.045
 11
-141.51
 20
60.518
 21
60.355
  0
LINE
  8
0
 10
-141.51
 11
-142
 20
60.355
 21
60.3
  0
LINE
  8
0
 10
-142
 11
-142.49
 20
60.3
 21
60.355
  0
LINE
  8
0
 10
-142.49
 11
-142.955
 20
60.355
 21
60.518
  0
LINE
  8
0
 10
-142.955
 11
-143.372
 20
60.518
 21
60.78
  0
LINE
  8
0
 10
-143.372
 11
-143.72
 20
60.78
 21
61.128
  0
LINE
  8
0
 10
-143.72
 11
-143.982
 20
61.128
 21
61.545
  0
LINE
  8
0
 10
-143.982
 11
-144.145
 20
61.545
 21
62.01
  0
LINE
  8
0
 10
-144.145
 11
-144.2
 20
62.01
 21
62.5
  0
LINE
  8
0
 10
-107.2
 11
-107.145
 20
-62.5
 21
-62.01
  0
LINE
  8
0
 10
-107.145
 11
-106.982
 20
-62.01
 21
-61.545
  0
LINE
  8
0
 10
-106.982
 11
-106.72
 20
-61.545
 21
-61.128
  0
LINE
  8
0
 10
-106.72
 11
-106.372
 20
-61.128
 21
-60.78
  0
LINE
  8
0
 10
-106.372
 11
-105.955
 20
-60.78
 21
-60.518
  0
LINE
  8
0
 10
-105.955
 11
-105.49
 20
-60.518
 21
-60.355
  0
LINE
  8
0
 10
-105.49
 11
-105
 20
-60.355
 21
-60.3
  0
LINE
  8
0
 10
-105
 11
-104.51
 20
-60.3
 21
-60.355
  0
LINE
  8
0
 10
-104.51
 11
-104.045
 20
-60.355
 21
-60.518
  0
LINE
  8
0
 10
-104.045
 11
-103.628
 20
-60.518
 21
-60.78
  0
LINE
  8
0
 10
-103.628
 11
-103.28
 20
-60.78
 21
-61.128
  0
LINE
  8
0
 10
-103.28
 11
-103.018
 20
-61.128
 21
-61.545
  0
LINE
  8
0
 10
-103.018
 11
-102.855
 20
-61.545
 21
-62.01
  0
LINE
  8
0
 10
-102.855
 11
-102.8
 20
-62.01
 21
-62.5
  0
LINE
  8
0
 10
-102.8
 11
-102.855
 20
-62.5
 21
-62.99
  0
LINE
  8
0
 10
-102.855
 11
-103.018
 20
-62.99
 21
-63.455
  0
LINE
  8
0
 10
-103.018
 11
-103.28
 20
-63.455
 21
-63.872
  0
LINE
  8
0
 10
-103.28
 11
-103.628
 20
-63.872
 21
-64.22
  0
LINE
  8
0
 10
-103.628
 11
-104.045
 20
-64.22
 21
-64.482
  0
LINE
  8
0
 10
-104.045
 11
-104.51
 20
-64.482
 21
-64.645
  0
LINE
  8
0
 10
-104.51
 11
-105
 20
-64.645
 21
-64.7
  0
LINE
  8
0
 10
-105
 11
-105.49
 20
-64.7
 21
-64.645
  0
LINE
  8
0
 10
-105.49
 11
-105.955
 20
-64.645
 21
-64.482
  0
LINE
  8
0
 10
-105.955
 11
-106.372
 20
-64.482
 21
-64.22
  0
LINE
  8
0
 10
-106.372
 11
-106.72
 20
-64.22
 21
-63.872
  0
LINE
  8
0
 10
-106.72
 11
-106.982
 20
-63.872
 21
-63.455
  0
LINE
  8
0
 10
-106.982
 11
-107.145
 20
-63.455
 21
-62.99
  0
LINE
  8
0
 10
-107.145
 11
-107.2
 20
-62.99
 21
-62.5
  0
LINE
  8
0
 10
-107.2
 11
-107.145
 20
86.5
 21
86.99
  0
LINE
  8
0
 10
-107.145
 11
-106.982
 20
86.99
 21
87.455
  0
LINE
  8
0
 10
-106.982
 11
-106.72
 20
87.455
 21
87.872
  0
LINE
  8
0
 10
-106.72
 11
-106.372
 20
87.872
 21
88.22
  0
LINE
  8
0
 10
-106.372
 11
-105.955
 20
88.22
 21
88.482
  0
LINE
  8
0
 10
-105.955
 11
-105.49
 20
88.482
 21
88.645
  0
LINE
  8
0
 10
-105.49
 11
-105
 20
88.645
 21
88.7
  0
LINE
  8
0
 10
-105
 11
-104.51
 20
88.7
 21
88.645
  0
LINE
  8
0
 10
-104.51
 11
-104.045
 20
88.645
 21
88.482
  0
LINE
  8
0
 10
-104.045
 11
-103.628
 20
88.482
 21
88.22
  0
LINE
  8
0
 10
-103.628
 11
-103.28
 20
88.22
 21
87.872
  0
LINE
  8
0
 10
-103.28
 11
-103.018
 20
87.872
 21
87.455
  0
LINE
  8
0
 10
-103.018
 11
-102.855
 20
87.455
 21
86.99
  0
LINE
  8
0
 10
-102.855
 11
-102.8
 20
86.99
 21
86.5
  0
LINE
  8
0
 10
-102.8
 11
-102.855
 20
86.5
 21
86.01
  0
LINE
  8
0
 10
-102.855
 11
-103.018
 20
86.01
 21
85.545
  0
LINE
  8
0
 10
-103.018
 11
-103.28
 20
85.545
 21
85.128
  0
LINE
  8
0
 10
-103.28
 11
-103.628
 20
85.128
 21
84.78
  0
LINE
  8
0
 10
-103.628
 11
-104.045
 20
84.78
 21
84.518
  0
LINE
  8
0
 10
-104.045
 11
-104.51
 20
84.518
 21
84.355
  0
LINE
  8
0
 10
-104.51
 11
-105
 20
84.355
 21
84.3
  0
LINE
  8
0
 10
-105
 11
-105.49
 20
84.3
 21
84.355
  0
LINE
  8
0
 10
-105.49
 11
-105.955
 20
84.355
 21
84.518
  0
LINE
  8
0
 10
-105.955
 11
-106.372
 20
84.518
 21
84.78
  0
LINE
  8
0
 10
-106.372
 11
-106.72
 20
84.78
 21
85.128
  0
LINE
  8
0
 10
-106.72
 11
-106.982
 20
85.128
 21
85.545
  0
LINE
  8
0
 10
-106.982
 11
-107.145
 20
85.545
 21
86.01
  0
LINE
  8
0
 10
-107.145
 11
-107.2
 20
86.01
 21
86.5
  0
LINE
  8
0
 10
-30.62
 11
-30.547
 20
-51.675
 21
-51.188
  0
LINE
  8
0
 10
-30.547
 11
-30.333
 20
-51.188
 21
-50.745
  0
LINE
  8
0
 10
-30.333
 11
-29.999
 20
-50.745
 21
-50.385
  0
LINE
  8
0
 10
-29.999
 11
-29.573
 20
-50.385
 21
-50.139
  0
LINE
  8
0
 10
-29.573
 11
-29.093
 20
-50.139
 21
-50.029
  0
LINE
  8
0
 10
-29.093
 11
-28.603
 20
-50.029
 21
-50.066
  0
LINE
  8
0
 10
-28.603
 11
-28.145
 20
-50.066
 21
-50.246
  0
LINE
  8
0
 10
-28.145
 11
-27.76
 20
-50.246
 21
-50.552
  0
LINE
  8
0
 10
-27.76
 11
-27.483
 20
-50.552
 21
-50.959
  0
LINE
  8
0
 10
-27.483
 11
-27.338
 20
-50.959
 21
-51.429
  0
LINE
  8
0
 10
-27.338
 11
-27.338
 20
-51.429
 21
-51.921
  0
LINE
  8
0
 10
-27.338
 11
-27.483
 20
-51.921
 21
-52.39
  0
LINE
  8
0
 10
-27.483
 11
-27.76
 20
-52.39
 21
-52.797
  0
LINE
  8
0
 10
-27.76
 11
-28.145
 20
-52.797
 21
-53.104
  0
LINE
  8
0
 10
-28.145
 11
-28.603
 20
-53.104
 21
-53.283
  0
LINE
  8
0
 10
-28.603
 11
-29.093
 20
-53.283
 21
-53.32
  0
LINE
  8
0
 10
-29.093
 11
-29.573
 20
-53.32
 21
-53.211
  0
LINE
  8
0
 10
-29.573
 11
-29.999
 20
-53.211
 21
-52.965
  0
LINE
  8
0
 10
-29.999
 11
-30.333
 20
-52.965
 21
-52.604
  0
LINE
  8
0
 10
-30.333
 11
-30.547
 20
-52.604
 21
-52.161
  0
LINE
  8
0
 10
-30.547
 11
-30.62
 20
-52.161
 21
-51.675
  0
LINE
  8
0
 10
-30.62
 11
-30.547
 20
-37.025
 21
-36.539
  0
LINE
  8
0
 10
-30.547
 11
-30.333
 20
-36.539
 21
-36.096
  0
LINE
  8
0
 10
-30.333
 11
-29.999
 20
-36.096
 21
-35.735
  0
LINE
  8
0
 10
-29.999
 11
-29.573
 20
-35.735
 21
-35.489
  0
LINE
  8
0
 10
-29.573
 11
-29.093
 20
-35.489
 21
-35.38
  0
LINE
  8
0
 10
-29.093
 11
-28.603
 20
-35.38
 21
-35.417
  0
LINE
  8
0
 10
-28.603
 11
-28.145
 20
-35.417
 21
-35.596
  0
LINE
  8
0
 10
-28.145
 11
-27.76
 20
-35.596
 21
-35.903
  0
LINE
  8
0
 10
-27.76
 11
-27.483
 20
-35.903
 21
-36.31
  0
LINE
  8
0
 10
-27.483
 11
-27.338
 20
-36.31
 21
-36.779
  0
LINE
  8
0
 10
-27.338
 11
-27.338
 20
-36.779
 21
-37.271
  0
LINE
  8
0
 10
-27.338
 11
-27.483
 20
-37.271
 21
-37.741
  0
LINE
  8
0
 10
-27.483
 11
-27.76
 20
-37.741
 21
-38.148
  0
LINE
  8
0
 10
-27.76
 11
-28.145
 20
-38.148
 21
-38.454
  0
LINE
  8
0
 10
-28.145
 11
-28.603
 20
-38.454
 21
-38.634
  0
LINE
  8
0
 10
-28.603
 11
-29.093
 20
-38.634
 21
-38.671
  0
LINE
  8
0
 10
-29.093
 11
-29.573
 20
-38.671
 21
-38.561
  0
LINE
  8
0
 10
-29.573
 11
-29.999
 20
-38.561
 21
-38.315
  0
LINE
  8
0
 10
-29.999
 11
-30.333
 20
-38.315
 21
-37.955
  0
LINE
  8
0
 10
-30.333
 11
-30.547
 20
-37.955
 21
-37.512
  0
LINE
  8
0
 10
-30.547
 11
-30.62
 20
-37.512
 21
-37.025
  0
LINE
  8
0
 10
-30.602
 11
-30.602
 20
37.929
 21
38.421
  0
LINE
  8
0
 10
-30.602
 11
-30.457
 20
38.421
 21
38.891
  0
LINE
  8
0
 10
-30.457
 11
-30.18
 20
38.891
 21
39.298
  0
LINE
  8
0
 10
-30.18
 11
-29.795
 20
39.298
 21
39.604
  0
LINE
  8
0
 10
-29.795
 11
-29.337
 20
39.604
 21
39.784
  0
LINE
  8
0
 10
-29.337
 11
-28.847
 20
39.784
 21
39.821
  0
LINE
  8
0
 10
-28.847
 11
-28.367
 20
39.821
 21
39.711
  0
LINE
  8
0
 10
-28.367
 11
-27.941
 20
39.711
 21
39.465
  0
LINE
  8
0
 10
-27.941
 11
-27.607
 20
39.465
 21
39.105
  0
LINE
  8
0
 10
-27.607
 11
-27.393
 20
39.105
 21
38.662
  0
LINE
  8
0
 10
-27.393
 11
-27.32
 20
38.662
 21
38.175
  0
LINE
  8
0
 10
-27.32
 11
-27.393
 20
38.175
 21
37.689
  0
LINE
  8
0
 10
-27.393
 11
-27.607
 20
37.689
 21
37.246
  0
LINE
  8
0
 10
-27.607
 11
-27.941
 20
37.246
 21
36.885
  0
LINE
  8
0
 10
-27.941
 11
-28.367
 20
36.885
 21
36.639
  0
LINE
  8
0
 10
-28.367
 11
-28.847
 20
36.639
 21
36.53
  0
LINE
  8
0
 10
-28.847
 11
-29.337
 20
36.53
 21
36.567
  0
LINE
  8
0
 10
-29.337
 11
-29.795
 20
36.567
 21
36.746
  0
LINE
  8
0
 10
-29.795
 11
-30.18
 20
36.746
 21
37.053
  0
LINE
  8
0
 10
-30.18
 11
-30.457
 20
37.053
 21
37.46
  0
LINE
  8
0
 10
-30.457
 11
-30.602
 20
37.46
 21
37.929
  0
LINE
  8
0
 10
-30.602
 11
-30.602
 20
52.579
 21
53.071
  0
LINE
  8
0
 10
-30.602
 11
-30.457
 20
53.071
 21
53.54
  0
LINE
  8
0
 10
-30.457
 11
-30.18
 20
53.54
 21
53.947
  0
LINE
  8
0
 10
-30.18
 11
-29.795
 20
53.947
 21
54.254
  0
LINE
  8
0
 10
-29.795
 11
-29.337
 20
54.254
 21
54.433
  0
LINE
  8
0
 10
-29.337
 11
-28.847
 20
54.433
 21
54.47
  0
LINE
  8
0
 10
-28.847
 11
-28.367
 20
54.47
 21
54.361
  0
LINE
  8
0
 10
-28.367
 11
-27.941
 20
54.361
 21
54.115
  0
LINE
  8
0
 10
-27.941
 11
-27.607
 20
54.115
 21
53.754
  0
LINE
  8
0
 10
-27.607
 11
-27.393
 20
53.754
 21
53.311
  0
LINE
  8
0
 10
-27.393
 11
-27.32
 20
53.311
 21
52.825
  0
LINE
  8
0
 10
-27.32
 11
-27.393
 20
52.825
 21
52.338
  0
LINE
  8
0
 10
-27.393
 11
-27.607
 20
52.338
 21
51.895
  0
LINE
  8
0
 10
-27.607
 11
-27.941
 20
51.895
 21
51.535
  0
LINE
  8
0
 10
-27.941
 11
-28.367
 20
51.535
 21
51.289
  0
LINE
  8
0
 10
-28.367
 11
-28.847
 20
51.289
 21
51.179
  0
LINE
  8
0
 10
-28.847
 11
-29.337
 20
51.179
 21
51.216
  0
LINE
  8
0
 10
-29.337
 11
-29.795
 20
51.216
 21
51.396
  0
LINE
  8
0
 10
-29.795
 11
-30.18
 20
51.396
 21
51.702
  0
LINE
  8
0
 10
-30.18
 11
-30.457
 20
51.702
 21
52.109
  0
LINE
  8
0
 10
-30.457
 11
-30.602
 20
52.109
 21
52.579
  0
LINE
  8
0
 10
-20.87
 11
-20.815
 20
94
 21
94.49
  0
LINE
  8
0
 10
-20.815
 11
-20.652
 20
94.49
 21
94.955
  0
LINE
  8
0
 10
-20.652
 11
-20.39
 20
94.955
 21
95.372
  0
LINE
  8
0
 10
-20.39
 11
-20.042
 20
95.372
 21
95.72
  0
LINE
  8
0
 10
-20.042
 11
-19.625
 20
95.72
 21
95.982
  0
LINE
  8
0
 10
-19.625
 11
-19.16
 20
95.982
 21
96.145
  0
LINE
  8
0
 10
-19.16
 11
-18.67
 20
96.145
 21
96.2
  0
LINE
  8
0
 10
-18.67
 11
-18.18
 20
96.2
 21
96.145
  0
LINE
  8
0
 10
-18.18
 11
-17.715
 20
96.145
 21
95.982
  0
LINE
  8
0
 10
-17.715
 11
-17.298
 20
95.982
 21
95.72
  0
LINE
  8
0
 10
-17.298
 11
-16.95
 20
95.72
 21
95.372
  0
LINE
  8
0
 10
-16.95
 11
-16.688
 20
95.372
 21
94.955
  0
LINE
  8
0
 10
-16.688
 11
-16.525
 20
94.955
 21
94.49
  0
LINE
  8
0
 10
-16.525
 11
-16.47
 20
94.49
 21
94
  0
LINE
  8
0
 10
-16.47
 11
-16.525
 20
94
 21
93.51
  0
LINE
  8
0
 10
-16.525
 11
-16.688
 20
93.51
 21
93.045
  0
LINE
  8
0
 10
-16.688
 11
-16.95
 20
93.045
 21
92.628
  0
LINE
  8
0
 10
-16.95
 11
-17.298
 20
92.628
 21
92.28
  0
LINE
  8
0
 10
-17.298
 11
-17.715
 20
92.28
 21
92.018
  0
LINE
  8
0
 10
-17.715
 11
-18.18
 20
92.018
 21
91.855
  0
LINE
  8
0
 10
-18.18
 11
-18.67
 20
91.855
 21
91.8
  0
LINE
  8
0
 10
-18.67
 11
-19.16
 20
91.8
 21
91.855
  0
LINE
  8
0
 10
-19.16
 11
-19.625
 20
91.855
 21
92.018
  0
LINE
  8
0
 10
-19.625
 11
-20.042
 20
92.018
 21
92.28
  0
LINE
  8
0
 10
-20.042
 11
-20.39
 20
92.28
 21
92.628
  0
LINE
  8
0
 10
-20.39
 11
-20.652
 20
92.628
 21
93.045
  0
LINE
  8
0
 10
-20.652
 11
-20.815
 20
93.045
 21
93.51
  0
LINE
  8
0
 10
-20.815
 11
-20.87
 20
93.51
 21
94
  0
LINE
  8
0
 10
-1.25
 11
-1.155
 20
0
 21
0.478
  0
LINE
  8
0
 10
-1.155
 11
-0.884
 20
0.478
 21
0.884
  0
LINE
  8
0
 10
-0.884
 11
-0.478
 20
0.884
 21
1.155
  0
LINE
  8
0
 10
-0.478
 11
0
 20
1.155
 21
1.25
  0
LINE
  8
0
 10
0
 11
0.478
 20
1.25
 21
1.155
  0
LINE
  8
0
 10
0.478
 11
0.884
 20
1.155
 21
0.884
  0
LINE
  8
0
 10
0.884
 11
1.155
 20
0.884
 21
0.478
  0
LINE
  8
0
 10
1.155
 11
1.25
 20
0.478
 21
0
  0
LINE
  8
0
 10
1.25
 11
1.155
 20
0
 21
-0.478
  0
LINE
  8
0
 10
1.155
 11
0.884
 20
-0.478
 21
-0.884
  0
LINE
  8
0
 10
0.884
 11
0.478
 20
-0.884
 21
-1.155
  0
LINE
  8
0
 10
0.478
 11
0
 20
-1.155
 21
-1.25
  0
LINE
  8
0
 10
0
 11
-0.478
 20
-1.25
 21
-1.155
  0
LINE
  8
0
 10
-0.478
 11
-0.884
 20
-1.155
 21
-0.884
  0
LINE
  8
0
 10
-0.884
 11
-1.155
 20
-0.884
 21
-0.478
  0
LINE
  8
0
 10
-1.155
 11
-1.25
 20
-0.478
 21
0
  0
LINE
  8
0
 10
16.47
 11
16.525
 20
94
 21
94.49
  0
LINE
  8
0
 10
16.525
 11
16.688
 20
94.49
 21
94.955
  0
LINE
  8
0
 10
16.688
 11
16.95
 20
94.955
 21
95.372
  0
LINE
  8
0
 10
16.95
 11
17.298
 20
95.372
 21
95.72
  0
LINE
  8
0
 10
17.298
 11
17.715
 20
95.72
 21
95.982
  0
LINE
  8
0
 10
17.715
 11
18.18
 20
95.982
 21
96.145
  0
LINE
  8
0
 10
18.18
 11
18.67
 20
96.145
 21
96.2
  0
LINE
  8
0
 10
18.67
 11
19.16
 20
96.2
 21
96.145
  0
LINE
  8
0
 10
19.16
 11
19.625
 20
96.145
 21
95.982
  0
LINE
  8
0
 10
19.625
 11
20.042
 20
95.982
 21
95.72
  0
LINE
  8
0
 10
20.042
 11
20.39
 20
95.72
 21
95.372
  0
LINE
  8
0
 10
20.39
 11
20.652
 20
95.372
 21
94.955
  0
LINE
  8
0
 10
20.652
 11
20.815
 20
94.955
 21
94.49
  0
LINE
  8
0
 10
20.815
 11
20.87
 20
94.49
 21
94
  0
LINE
  8
0
 10
20.87
 11
20.815
 20
94
 21
93.51
  0
LINE
  8
0
 10
20.815
 11
20.652
 20
93.51
 21
93.045
  0
LINE
  8
0
 10
20.652
 11
20.39
 20
93.045
 21
92.628
  0
LINE
  8
0
 10
20.39
 11
20.042
 20
92.628
 21
92.28
  0
LINE
  8
0
 10
20.042
 11
19.625
 20
92.28
 21
92.018
  0
LINE
  8
0
 10
19.625
 11
19.16
 20
92.018
 21
91.855
  0
LINE
  8
0
 10
19.16
 11
18.67
 20
91.855
 21
91.8
  0
LINE
  8
0
 10
18.67
 11
18.18
 20
91.8
 21
91.855
  0
LINE
  8
0
 10
18.18
 11
17.715
 20
91.855
 21
92.018
  0
LINE
  8
0
 10
17.715
 11
17.298
 20
92.018
 21
92.28
  0
LINE
  8
0
 10
17.298
 11
16.95
 20
92.28
 21
92.628
  0
LINE
  8
0
 10
16.95
 11
16.688
 20
92.628
 21
93.045
  0
LINE
  8
0
 10
16.688
 11
16.525
 20
93.045
 21
93.51
  0
LINE
  8
0
 10
16.525
 11
16.47
 20
93.51
 21
94
  0
LINE
  8
0
 10
102.8
 11
102.855
 20
-12
 21
-11.51
  0
LINE
  8
0
 10
102.855
 11
103.018
 20
-11.51
 21
-11.045
  0
LINE
  8
0
 10
103.018
 11
103.28
 20
-11.045
 21
-10.628
  0
LINE
  8
0
 10
103.28
 11
103.628
 20
-10.628
 21
-10.28
  0
LINE
  8
0
 10
103.628
 11
104.045
 20
-10.28
 21
-10.018
  0
LINE
  8
0
 10
104.045
 11
104.51
 20
-10.018
 21
-9.855
  0
LINE
  8
0
 10
104.51
 11
105
 20
-9.855
 21
-9.8
  0
LINE
  8
0
 10
105
 11
105.49
 20
-9.8
 21
-9.855
  0
LINE
  8
0
 10
105.49
 11
105.955
 20
-9.855
 21
-10.018
  0
LINE
  8
0
 10
105.955
 11
106.372
 20
-10.018
 21
-10.28
  0
LINE
  8
0
 10
106.372
 11
106.72
 20
-10.28
 21
-10.628
  0
LINE
  8
0
 10
106.72
 11
106.982
 20
-10.628
 21
-11.045
  0
LINE
  8
0
 10
106.982
 11
107.145
 20
-11.045
 21
-11.51
  0
LINE
  8
0
 10
107.145
 11
107.2
 20
-11.51
 21
-12
  0
LINE
  8
0
 10
107.2
 11
107.145
 20
-12
 21
-12.49
  0
LINE
  8
0
 10
107.145
 11
106.982
 20
-12.49
 21
-12.955
  0
LINE
  8
0
 10
106.982
 11
106.72
 20
-12.955
 21
-13.372
  0
LINE
  8
0
 10
106.72
 11
106.372
 20
-13.372
 21
-13.72
  0
LINE
  8
0
 10
106.372
 11
105.955
 20
-13.72
 21
-13.982
  0
LINE
  8
0
 10
105.955
 11
105.49
 20
-13.982
 21
-14.145
  0
LINE
  8
0
 10
105.49
 11
105
 20
-14.145
 21
-14.2
  0
LINE
  8
0
 10
105
 11
104.51
 20
-14.2
 21
-14.145
  0
LINE
  8
0
 10
104.51
 11
104.045
 20
-14.145
 21
-13.982
  0
LINE
  8
0
 10
104.045
 11
103.628
 20
-13.982
 21
-13.72
  0
LINE
  8
0
 10
103.628
 11
103.28
 20
-13.72
 21
-13.372
  0
LINE
  8
0
 10
103.28
 11
103.018
 20
-13.372
 21
-12.955
  0
LINE
  8
0
 10
103.018
 11
102.855
 20
-12.955
 21
-12.49
  0
LINE
  8
0
 10
102.855
 11
102.8
 20
-12.49
 21
-12
  0
LINE
  8
0
 10
139.8
 11
139.855
 20
12
 21
12.49
  0
LINE
  8
0
 10
139.855
 11
140.018
 20
12.49
 21
12.955
  0
LINE
  8
0
 10
140.018
 11
140.28
 20
12.955
 21
13.372
  0
LINE
  8
0
 10
140.28
 11
140.628
 20
13.372
 21
13.72
  0
LINE
  8
0
 10
140.628
 11
141.045
 20
13.72
 21
13.982
  0
LINE
  8
0
 10
141.045
 11
141.51
 20
13.982
 21
14.145
  0
LINE
  8
0
 10
141.51
 11
142
 20
14.145
 21
14.2
  0
LINE
  8
0
 10
142
 11
142.49
 20
14.2
 21
14.145
  0
LINE
  8
0
 10
142.49
 11
142.955
 20
14.145
 21
13.982
  0
LINE
  8
0
 10
142.955
 11
143.372
 20
13.982
 21
13.72
  0
LINE
  8
0
 10
143.372
 11
143.72
 20
13.72
 21
13.372
  0
LINE
  8
0
 10
143.72
 11
143.982
 20
13.372
 21
12.955
  0
LINE
  8
0
 10
143.982
 11
144.145
 20
12.955
 21
12.49
  0
LINE
  8
0
 10
144.145
 11
144.2
 20
12.49
 21
12
  0
LINE
  8
0
 10
144.2
 11
144.145
 20
12
 21
11.51
  0
LINE
  8
0
 10
144.145
 11
143.982
 20
11.51
 21
11.045
  0
LINE
  8
0
 10
143.982
 11
143.72
 20
11.045
 21
10.628
  0
LINE
  8
0
 10
143.72
 11
143.372
 20
10.628
 21
10.28
  0
LINE
  8
0
 10
143.372
 11
142.955
 20
10.28
 21
10.018
  0
LINE
  8
0
 10
142.955
 11
142.49
 20
10.018
 21
9.855
  0
LINE
  8
0
 10
142.49
 11
142
 20
9.855
 21
9.8
  0
LINE
  8
0
 10
142
 11
141.51
 20
9.8
 21
9.855
  0
LINE
  8
0
 10
141.51
 11
141.045
 20
9.855
 21
10.018
  0
LINE
  8
0
 10
141.045
 11
140.628
 20
10.018
 21
10.28
  0
LINE
  8
0
 10
140.628
 11
140.28
 20
10.28
 21
10.628
  0
LINE
  8
0
 10
140.28
 11
140.018
 20
10.628
 21
11.045
  0
LINE
  8
0
 10
140.018
 11
139.855
 20
11.045
 21
11.51
  0
LINE
  8
0
 10
139.855
 11
139.8
 20
11.51
 21
12
  0
ENDSEC
  0
SECTION
  2
OBJECTS
  0
DICTIONARY
  0
ENDSEC
  0
EOF
