<?xml version="1.0"?>
<svg xmlns="http://www.w3.org/2000/svg" version="1.1" height="220mm" width="307mm" >
 <g style="fill-opacity:1.0; stroke:black; stroke-width:1;">
  <line x1="0.010000mm" y1="207.248000mm" x2="0.010000mm" y2="207.248000mm" />
  <line x1="0.010000mm" y1="207.248000mm" x2="0.000000mm" y2="3.000000mm" />
  <line x1="0.000000mm" y1="3.000000mm" x2="0.041000mm" y2="2.506000mm" />
  <line x1="0.041000mm" y1="2.506000mm" x2="0.163000mm" y2="2.026000mm" />
  <line x1="0.163000mm" y1="2.026000mm" x2="0.362000mm" y2="1.572000mm" />
  <line x1="0.362000mm" y1="1.572000mm" x2="0.633000mm" y2="1.157000mm" />
  <line x1="0.633000mm" y1="1.157000mm" x2="0.968000mm" y2="0.793000mm" />
  <line x1="0.968000mm" y1="0.793000mm" x2="1.359000mm" y2="0.489000mm" />
  <line x1="1.359000mm" y1="0.489000mm" x2="1.795000mm" y2="0.253000mm" />
  <line x1="1.795000mm" y1="0.253000mm" x2="2.264000mm" y2="0.092000mm" />
  <line x1="2.264000mm" y1="0.092000mm" x2="2.752000mm" y2="0.010000mm" />
  <line x1="2.752000mm" y1="0.010000mm" x2="294.000000mm" y2="0.000000mm" />
  <line x1="294.000000mm" y1="0.000000mm" x2="294.494000mm" y2="0.041000mm" />
  <line x1="294.494000mm" y1="0.041000mm" x2="294.974000mm" y2="0.163000mm" />
  <line x1="294.974000mm" y1="0.163000mm" x2="295.428000mm" y2="0.362000mm" />
  <line x1="295.428000mm" y1="0.362000mm" x2="295.843000mm" y2="0.633000mm" />
  <line x1="295.843000mm" y1="0.633000mm" x2="296.207000mm" y2="0.968000mm" />
  <line x1="296.207000mm" y1="0.968000mm" x2="296.511000mm" y2="1.359000mm" />
  <line x1="296.511000mm" y1="1.359000mm" x2="296.747000mm" y2="1.795000mm" />
  <line x1="296.747000mm" y1="1.795000mm" x2="296.908000mm" y2="2.264000mm" />
  <line x1="296.908000mm" y1="2.264000mm" x2="296.990000mm" y2="2.752000mm" />
  <line x1="296.990000mm" y1="2.752000mm" x2="297.000000mm" y2="207.000000mm" />
  <line x1="297.000000mm" y1="207.000000mm" x2="296.959000mm" y2="207.494000mm" />
  <line x1="296.959000mm" y1="207.494000mm" x2="296.837000mm" y2="207.974000mm" />
  <line x1="296.837000mm" y1="207.974000mm" x2="296.638000mm" y2="208.428000mm" />
  <line x1="296.638000mm" y1="208.428000mm" x2="296.367000mm" y2="208.843000mm" />
  <line x1="296.367000mm" y1="208.843000mm" x2="296.032000mm" y2="209.207000mm" />
  <line x1="296.032000mm" y1="209.207000mm" x2="295.641000mm" y2="209.511000mm" />
  <line x1="295.641000mm" y1="209.511000mm" x2="295.205000mm" y2="209.747000mm" />
  <line x1="295.205000mm" y1="209.747000mm" x2="294.736000mm" y2="209.908000mm" />
  <line x1="294.736000mm" y1="209.908000mm" x2="294.248000mm" y2="209.990000mm" />
  <line x1="294.248000mm" y1="209.990000mm" x2="3.000000mm" y2="210.000000mm" />
  <line x1="3.000000mm" y1="210.000000mm" x2="2.506000mm" y2="209.959000mm" />
  <line x1="2.506000mm" y1="209.959000mm" x2="2.026000mm" y2="209.837000mm" />
  <line x1="2.026000mm" y1="209.837000mm" x2="1.572000mm" y2="209.638000mm" />
  <line x1="1.572000mm" y1="209.638000mm" x2="1.157000mm" y2="209.367000mm" />
  <line x1="1.157000mm" y1="209.367000mm" x2="0.793000mm" y2="209.032000mm" />
  <line x1="0.793000mm" y1="209.032000mm" x2="0.489000mm" y2="208.641000mm" />
  <line x1="0.489000mm" y1="208.641000mm" x2="0.253000mm" y2="208.205000mm" />
  <line x1="0.253000mm" y1="208.205000mm" x2="0.092000mm" y2="207.736000mm" />
  <line x1="0.092000mm" y1="207.736000mm" x2="0.010000mm" y2="207.248000mm" />
  <circle cx="6.499964mm" cy="191.499964mm" r="2.200229mm" fill="none"/>
  <line x1="10.900421mm" y1="191.499964mm" x2="2.099507mm" y2="191.499964mm" />
  <line x1="6.499964mm" y1="187.099507mm" x2="6.499964mm" y2="195.900421mm" />
  <text x="8mm" y="189mm" font-size="24">
   4.4
  </text>
  <circle cx="6.499964mm" cy="42.499964mm" r="2.200229mm" fill="none"/>
  <line x1="10.900421mm" y1="42.499964mm" x2="2.099507mm" y2="42.499964mm" />
  <line x1="6.499964mm" y1="38.099507mm" x2="6.499964mm" y2="46.900421mm" />
  <text x="8mm" y="40mm" font-size="24">
   4.4
  </text>
  <circle cx="43.499964mm" cy="167.499964mm" r="2.200229mm" fill="none"/>
  <line x1="47.900421mm" y1="167.499964mm" x2="39.099507mm" y2="167.499964mm" />
  <line x1="43.499964mm" y1="163.099507mm" x2="43.499964mm" y2="171.900421mm" />
  <text x="45mm" y="165mm" font-size="24">
   4.4
  </text>
  <circle cx="43.499964mm" cy="18.499964mm" r="2.200229mm" fill="none"/>
  <line x1="47.900421mm" y1="18.499964mm" x2="39.099507mm" y2="18.499964mm" />
  <line x1="43.499964mm" y1="14.099507mm" x2="43.499964mm" y2="22.900421mm" />
  <text x="45mm" y="16mm" font-size="24">
   4.4
  </text>
  <circle cx="119.529999mm" cy="156.674893mm" r="1.650220mm" fill="none"/>
  <line x1="122.830439mm" y1="156.674893mm" x2="116.229559mm" y2="156.674893mm" />
  <line x1="119.529999mm" y1="153.374453mm" x2="119.529999mm" y2="159.975333mm" />
  <text x="121mm" y="155mm" font-size="24">
   3.3
  </text>
  <circle cx="119.529999mm" cy="142.025893mm" r="1.650220mm" fill="none"/>
  <line x1="122.830439mm" y1="142.025893mm" x2="116.229559mm" y2="142.025893mm" />
  <line x1="119.529999mm" y1="138.725453mm" x2="119.529999mm" y2="145.326333mm" />
  <text x="121mm" y="140mm" font-size="24">
   3.3
  </text>
  <circle cx="119.529767mm" cy="66.824407mm" r="1.650015mm" fill="none"/>
  <line x1="122.829796mm" y1="66.824407mm" x2="116.229737mm" y2="66.824407mm" />
  <line x1="119.529767mm" y1="63.524377mm" x2="119.529767mm" y2="70.124436mm" />
  <text x="121mm" y="65mm" font-size="24">
   3.3
  </text>
  <circle cx="119.529767mm" cy="52.175407mm" r="1.650015mm" fill="none"/>
  <line x1="122.829796mm" y1="52.175407mm" x2="116.229737mm" y2="52.175407mm" />
  <line x1="119.529767mm" y1="48.875377mm" x2="119.529767mm" y2="55.475436mm" />
  <text x="121mm" y="50mm" font-size="24">
   3.3
  </text>
  <circle cx="129.829964mm" cy="10.999964mm" r="2.200229mm" fill="none"/>
  <line x1="134.230421mm" y1="10.999964mm" x2="125.429507mm" y2="10.999964mm" />
  <line x1="129.829964mm" y1="6.599507mm" x2="129.829964mm" y2="15.400421mm" />
  <text x="132mm" y="8mm" font-size="24">
   4.4
  </text>
  <circle cx="148.500087mm" cy="105.000061mm" r="1.250061mm" fill="none"/>
  <line x1="151.000208mm" y1="105.000061mm" x2="145.999966mm" y2="105.000061mm" />
  <line x1="148.500087mm" y1="102.499939mm" x2="148.500087mm" y2="107.500182mm" />
  <text x="149mm" y="103mm" font-size="24">
   2.5
  </text>
  <circle cx="167.169964mm" cy="10.999964mm" r="2.200229mm" fill="none"/>
  <line x1="171.570421mm" y1="10.999964mm" x2="162.769507mm" y2="10.999964mm" />
  <line x1="167.169964mm" y1="6.599507mm" x2="167.169964mm" y2="15.400421mm" />
  <text x="169mm" y="8mm" font-size="24">
   4.4
  </text>
  <circle cx="253.499964mm" cy="116.999964mm" r="2.200229mm" fill="none"/>
  <line x1="257.900421mm" y1="116.999964mm" x2="249.099507mm" y2="116.999964mm" />
  <line x1="253.499964mm" y1="112.599507mm" x2="253.499964mm" y2="121.400421mm" />
  <text x="255mm" y="114mm" font-size="24">
   4.4
  </text>
  <circle cx="290.499964mm" cy="92.999964mm" r="2.200229mm" fill="none"/>
  <line x1="294.900421mm" y1="92.999964mm" x2="286.099507mm" y2="92.999964mm" />
  <line x1="290.499964mm" y1="88.599507mm" x2="290.499964mm" y2="97.400421mm" />
  <text x="292mm" y="90mm" font-size="24">
   4.4
  </text>
 </g>
</svg>
