<?xml version="1.0"?>
<svg xmlns="http://www.w3.org/2000/svg" version="1.1" height="220mm" width="307mm" >
 <g style="fill-opacity:1.0; stroke:black; stroke-width:1;">
  <line x1="0.010000mm" y1="207.248000mm" x2="0.010000mm" y2="207.248000mm" />
  <line x1="0.010000mm" y1="207.248000mm" x2="0.000000mm" y2="3.000000mm" />
  <line x1="0.000000mm" y1="3.000000mm" x2="0.041000mm" y2="2.506000mm" />
  <line x1="0.041000mm" y1="2.506000mm" x2="0.163000mm" y2="2.026000mm" />
  <line x1="0.163000mm" y1="2.026000mm" x2="0.362000mm" y2="1.572000mm" />
  <line x1="0.362000mm" y1="1.572000mm" x2="0.633000mm" y2="1.157000mm" />
  <line x1="0.633000mm" y1="1.157000mm" x2="0.968000mm" y2="0.793000mm" />
  <line x1="0.968000mm" y1="0.793000mm" x2="1.359000mm" y2="0.489000mm" />
  <line x1="1.359000mm" y1="0.489000mm" x2="1.795000mm" y2="0.253000mm" />
  <line x1="1.795000mm" y1="0.253000mm" x2="2.264000mm" y2="0.092000mm" />
  <line x1="2.264000mm" y1="0.092000mm" x2="2.752000mm" y2="0.010000mm" />
  <line x1="2.752000mm" y1="0.010000mm" x2="129.990000mm" y2="0.006000mm" />
  <line x1="129.990000mm" y1="0.006000mm" x2="129.990000mm" y2="5.850000mm" />
  <line x1="129.990000mm" y1="5.850000mm" x2="167.010000mm" y2="5.850000mm" />
  <line x1="167.010000mm" y1="5.850000mm" x2="167.010000mm" y2="0.004000mm" />
  <line x1="167.010000mm" y1="0.004000mm" x2="294.000000mm" y2="0.000000mm" />
  <line x1="294.000000mm" y1="0.000000mm" x2="294.494000mm" y2="0.041000mm" />
  <line x1="294.494000mm" y1="0.041000mm" x2="294.974000mm" y2="0.163000mm" />
  <line x1="294.974000mm" y1="0.163000mm" x2="295.428000mm" y2="0.362000mm" />
  <line x1="295.428000mm" y1="0.362000mm" x2="295.843000mm" y2="0.633000mm" />
  <line x1="295.843000mm" y1="0.633000mm" x2="296.207000mm" y2="0.968000mm" />
  <line x1="296.207000mm" y1="0.968000mm" x2="296.511000mm" y2="1.359000mm" />
  <line x1="296.511000mm" y1="1.359000mm" x2="296.747000mm" y2="1.795000mm" />
  <line x1="296.747000mm" y1="1.795000mm" x2="296.908000mm" y2="2.264000mm" />
  <line x1="296.908000mm" y1="2.264000mm" x2="296.990000mm" y2="2.752000mm" />
  <line x1="296.990000mm" y1="2.752000mm" x2="297.000000mm" y2="207.000000mm" />
  <line x1="297.000000mm" y1="207.000000mm" x2="296.959000mm" y2="207.494000mm" />
  <line x1="296.959000mm" y1="207.494000mm" x2="296.837000mm" y2="207.974000mm" />
  <line x1="296.837000mm" y1="207.974000mm" x2="296.638000mm" y2="208.428000mm" />
  <line x1="296.638000mm" y1="208.428000mm" x2="296.367000mm" y2="208.843000mm" />
  <line x1="296.367000mm" y1="208.843000mm" x2="296.032000mm" y2="209.207000mm" />
  <line x1="296.032000mm" y1="209.207000mm" x2="295.641000mm" y2="209.511000mm" />
  <line x1="295.641000mm" y1="209.511000mm" x2="295.205000mm" y2="209.747000mm" />
  <line x1="295.205000mm" y1="209.747000mm" x2="294.736000mm" y2="209.908000mm" />
  <line x1="294.736000mm" y1="209.908000mm" x2="294.248000mm" y2="209.990000mm" />
  <line x1="294.248000mm" y1="209.990000mm" x2="3.000000mm" y2="210.000000mm" />
  <line x1="3.000000mm" y1="210.000000mm" x2="2.506000mm" y2="209.959000mm" />
  <line x1="2.506000mm" y1="209.959000mm" x2="2.026000mm" y2="209.837000mm" />
  <line x1="2.026000mm" y1="209.837000mm" x2="1.572000mm" y2="209.638000mm" />
  <line x1="1.572000mm" y1="209.638000mm" x2="1.157000mm" y2="209.367000mm" />
  <line x1="1.157000mm" y1="209.367000mm" x2="0.793000mm" y2="209.032000mm" />
  <line x1="0.793000mm" y1="209.032000mm" x2="0.489000mm" y2="208.641000mm" />
  <line x1="0.489000mm" y1="208.641000mm" x2="0.253000mm" y2="208.205000mm" />
  <line x1="0.253000mm" y1="208.205000mm" x2="0.092000mm" y2="207.736000mm" />
  <line x1="0.092000mm" y1="207.736000mm" x2="0.010000mm" y2="207.248000mm" />
  <circle cx="6.499964mm" cy="189.499964mm" r="2.200229mm" fill="none"/>
  <line x1="10.900421mm" y1="189.499964mm" x2="2.099507mm" y2="189.499964mm" />
  <line x1="6.499964mm" y1="185.099507mm" x2="6.499964mm" y2="193.900421mm" />
  <text x="8mm" y="187mm" font-size="24">
   4.4
  </text>
  <circle cx="6.499964mm" cy="44.499964mm" r="2.200229mm" fill="none"/>
  <line x1="10.900421mm" y1="44.499964mm" x2="2.099507mm" y2="44.499964mm" />
  <line x1="6.499964mm" y1="40.099507mm" x2="6.499964mm" y2="48.900421mm" />
  <text x="8mm" y="42mm" font-size="24">
   4.4
  </text>
  <circle cx="10.000087mm" cy="200.000061mm" r="1.250061mm" fill="none"/>
  <line x1="12.500208mm" y1="200.000061mm" x2="7.499966mm" y2="200.000061mm" />
  <line x1="10.000087mm" y1="197.499939mm" x2="10.000087mm" y2="202.500182mm" />
  <text x="11mm" y="198mm" font-size="24">
   2.5
  </text>
  <circle cx="10.000087mm" cy="10.000061mm" r="1.250061mm" fill="none"/>
  <line x1="12.500208mm" y1="10.000061mm" x2="7.499966mm" y2="10.000061mm" />
  <line x1="10.000087mm" y1="7.499939mm" x2="10.000087mm" y2="12.500182mm" />
  <text x="11mm" y="8mm" font-size="24">
   2.5
  </text>
  <circle cx="43.499964mm" cy="165.499964mm" r="2.200229mm" fill="none"/>
  <line x1="47.900421mm" y1="165.499964mm" x2="39.099507mm" y2="165.499964mm" />
  <line x1="43.499964mm" y1="161.099507mm" x2="43.499964mm" y2="169.900421mm" />
  <text x="45mm" y="163mm" font-size="24">
   4.4
  </text>
  <circle cx="43.499964mm" cy="20.499964mm" r="2.200229mm" fill="none"/>
  <line x1="47.900421mm" y1="20.499964mm" x2="39.099507mm" y2="20.499964mm" />
  <line x1="43.499964mm" y1="16.099507mm" x2="43.499964mm" y2="24.900421mm" />
  <text x="45mm" y="18mm" font-size="24">
   4.4
  </text>
  <circle cx="116.989999mm" cy="155.174893mm" r="1.650220mm" fill="none"/>
  <line x1="120.290439mm" y1="155.174893mm" x2="113.689559mm" y2="155.174893mm" />
  <line x1="116.989999mm" y1="151.874453mm" x2="116.989999mm" y2="158.475333mm" />
  <text x="118mm" y="153mm" font-size="24">
   3.3
  </text>
  <circle cx="116.989999mm" cy="140.525893mm" r="1.650220mm" fill="none"/>
  <line x1="120.290439mm" y1="140.525893mm" x2="113.689559mm" y2="140.525893mm" />
  <line x1="116.989999mm" y1="137.225453mm" x2="116.989999mm" y2="143.826333mm" />
  <text x="118mm" y="138mm" font-size="24">
   3.3
  </text>
  <circle cx="116.989767mm" cy="73.324407mm" r="1.650015mm" fill="none"/>
  <line x1="120.289796mm" y1="73.324407mm" x2="113.689737mm" y2="73.324407mm" />
  <line x1="116.989767mm" y1="70.024377mm" x2="116.989767mm" y2="76.624436mm" />
  <text x="118mm" y="71mm" font-size="24">
   3.3
  </text>
  <circle cx="116.989767mm" cy="58.675407mm" r="1.650015mm" fill="none"/>
  <line x1="120.289796mm" y1="58.675407mm" x2="113.689737mm" y2="58.675407mm" />
  <line x1="116.989767mm" y1="55.375377mm" x2="116.989767mm" y2="61.975436mm" />
  <text x="118mm" y="57mm" font-size="24">
   3.3
  </text>
  <circle cx="127.289964mm" cy="11.699964mm" r="2.200229mm" fill="none"/>
  <line x1="131.690421mm" y1="11.699964mm" x2="122.889507mm" y2="11.699964mm" />
  <line x1="127.289964mm" y1="7.299507mm" x2="127.289964mm" y2="16.100421mm" />
  <text x="129mm" y="9mm" font-size="24">
   4.4
  </text>
  <circle cx="169.709964mm" cy="11.699964mm" r="2.200229mm" fill="none"/>
  <line x1="174.110421mm" y1="11.699964mm" x2="165.309507mm" y2="11.699964mm" />
  <line x1="169.709964mm" y1="7.299507mm" x2="169.709964mm" y2="16.100421mm" />
  <text x="171mm" y="9mm" font-size="24">
   4.4
  </text>
  <circle cx="253.499964mm" cy="116.999964mm" r="2.200229mm" fill="none"/>
  <line x1="257.900421mm" y1="116.999964mm" x2="249.099507mm" y2="116.999964mm" />
  <line x1="253.499964mm" y1="112.599507mm" x2="253.499964mm" y2="121.400421mm" />
  <text x="255mm" y="114mm" font-size="24">
   4.4
  </text>
  <circle cx="287.000087mm" cy="200.000061mm" r="1.250061mm" fill="none"/>
  <line x1="289.500208mm" y1="200.000061mm" x2="284.499966mm" y2="200.000061mm" />
  <line x1="287.000087mm" y1="197.499939mm" x2="287.000087mm" y2="202.500182mm" />
  <text x="288mm" y="198mm" font-size="24">
   2.5
  </text>
  <circle cx="287.000087mm" cy="10.000061mm" r="1.250061mm" fill="none"/>
  <line x1="289.500208mm" y1="10.000061mm" x2="284.499966mm" y2="10.000061mm" />
  <line x1="287.000087mm" y1="7.499939mm" x2="287.000087mm" y2="12.500182mm" />
  <text x="288mm" y="8mm" font-size="24">
   2.5
  </text>
  <circle cx="290.499964mm" cy="92.999964mm" r="2.200229mm" fill="none"/>
  <line x1="294.900421mm" y1="92.999964mm" x2="286.099507mm" y2="92.999964mm" />
  <line x1="290.499964mm" y1="88.599507mm" x2="290.499964mm" y2="97.400421mm" />
  <text x="292mm" y="90mm" font-size="24">
   4.4
  </text>
 </g>
</svg>
