<?xml version="1.0"?>
<svg xmlns="http://www.w3.org/2000/svg" version="1.1" height="220mm" width="283mm" >
 <g style="fill-opacity:1.0; stroke:black; stroke-width:1;">
  <line x1="36.500000mm" y1="170.500000mm" x2="36.500000mm" y2="170.500000mm" />
  <line x1="36.500000mm" y1="170.500000mm" x2="26.500000mm" y2="170.500000mm" />
  <line x1="26.500000mm" y1="170.500000mm" x2="26.500000mm" y2="160.500000mm" />
  <line x1="26.500000mm" y1="160.500000mm" x2="36.500000mm" y2="160.500000mm" />
  <line x1="36.500000mm" y1="160.500000mm" x2="36.500000mm" y2="170.500000mm" />
  <line x1="36.500000mm" y1="25.500000mm" x2="36.500000mm" y2="25.500000mm" />
  <line x1="36.500000mm" y1="25.500000mm" x2="26.500000mm" y2="25.500000mm" />
  <line x1="26.500000mm" y1="25.500000mm" x2="26.500000mm" y2="15.500000mm" />
  <line x1="26.500000mm" y1="15.500000mm" x2="36.500000mm" y2="15.500000mm" />
  <line x1="36.500000mm" y1="15.500000mm" x2="36.500000mm" y2="25.500000mm" />
  <line x1="273.000000mm" y1="210.000000mm" x2="273.000000mm" y2="210.000000mm" />
  <line x1="273.000000mm" y1="210.000000mm" x2="0.000000mm" y2="210.000000mm" />
  <line x1="0.000000mm" y1="210.000000mm" x2="0.000000mm" y2="0.000000mm" />
  <line x1="0.000000mm" y1="0.000000mm" x2="109.440000mm" y2="0.000000mm" />
  <line x1="109.440000mm" y1="0.000000mm" x2="109.440000mm" y2="35.000000mm" />
  <line x1="109.440000mm" y1="35.000000mm" x2="163.560000mm" y2="35.000000mm" />
  <line x1="163.560000mm" y1="35.000000mm" x2="163.560000mm" y2="0.000000mm" />
  <line x1="163.560000mm" y1="0.000000mm" x2="273.000000mm" y2="0.000000mm" />
  <line x1="273.000000mm" y1="0.000000mm" x2="273.000000mm" y2="210.000000mm" />
  <line x1="109.990000mm" y1="160.175000mm" x2="109.990000mm" y2="160.175000mm" />
  <line x1="109.990000mm" y1="160.175000mm" x2="99.990000mm" y2="160.175000mm" />
  <line x1="99.990000mm" y1="160.175000mm" x2="99.990000mm" y2="135.525000mm" />
  <line x1="99.990000mm" y1="135.525000mm" x2="109.990000mm" y2="135.525000mm" />
  <line x1="109.990000mm" y1="135.525000mm" x2="109.990000mm" y2="160.175000mm" />
  <line x1="109.990000mm" y1="78.325000mm" x2="109.990000mm" y2="78.325000mm" />
  <line x1="109.990000mm" y1="78.325000mm" x2="99.990000mm" y2="78.325000mm" />
  <line x1="99.990000mm" y1="78.325000mm" x2="99.990000mm" y2="53.675000mm" />
  <line x1="99.990000mm" y1="53.675000mm" x2="109.990000mm" y2="53.675000mm" />
  <line x1="109.990000mm" y1="53.675000mm" x2="109.990000mm" y2="78.325000mm" />
  <line x1="246.500000mm" y1="122.000000mm" x2="246.500000mm" y2="122.000000mm" />
  <line x1="246.500000mm" y1="122.000000mm" x2="236.500000mm" y2="122.000000mm" />
  <line x1="236.500000mm" y1="122.000000mm" x2="236.500000mm" y2="112.000000mm" />
  <line x1="236.500000mm" y1="112.000000mm" x2="246.500000mm" y2="112.000000mm" />
  <line x1="246.500000mm" y1="112.000000mm" x2="246.500000mm" y2="122.000000mm" />
 </g>
</svg>
