<?xml version="1.0"?>
<svg xmlns="http://www.w3.org/2000/svg" version="1.1" height="220mm" width="283mm" >
 <g style="fill-opacity:1.0; stroke:black; stroke-width:1;">
  <line x1="273.000000mm" y1="210.000000mm" x2="273.000000mm" y2="210.000000mm" />
  <line x1="273.000000mm" y1="210.000000mm" x2="0.000000mm" y2="210.000000mm" />
  <line x1="0.000000mm" y1="210.000000mm" x2="0.000000mm" y2="0.000000mm" />
  <line x1="0.000000mm" y1="0.000000mm" x2="112.330000mm" y2="0.000000mm" />
  <line x1="112.330000mm" y1="0.000000mm" x2="112.330000mm" y2="35.000000mm" />
  <line x1="112.330000mm" y1="35.000000mm" x2="160.670000mm" y2="35.000000mm" />
  <line x1="160.670000mm" y1="35.000000mm" x2="160.670000mm" y2="0.000000mm" />
  <line x1="160.670000mm" y1="0.000000mm" x2="273.000000mm" y2="0.000000mm" />
  <line x1="273.000000mm" y1="0.000000mm" x2="273.000000mm" y2="210.000000mm" />
  <line x1="36.500000mm" y1="172.500000mm" x2="36.500000mm" y2="172.500000mm" />
  <line x1="36.500000mm" y1="172.500000mm" x2="26.500000mm" y2="172.500000mm" />
  <line x1="26.500000mm" y1="172.500000mm" x2="26.500000mm" y2="162.500000mm" />
  <line x1="26.500000mm" y1="162.500000mm" x2="36.500000mm" y2="162.500000mm" />
  <line x1="36.500000mm" y1="162.500000mm" x2="36.500000mm" y2="172.500000mm" />
  <line x1="36.500000mm" y1="23.500000mm" x2="36.500000mm" y2="23.500000mm" />
  <line x1="36.500000mm" y1="23.500000mm" x2="26.500000mm" y2="23.500000mm" />
  <line x1="26.500000mm" y1="23.500000mm" x2="26.500000mm" y2="13.500000mm" />
  <line x1="26.500000mm" y1="13.500000mm" x2="36.500000mm" y2="13.500000mm" />
  <line x1="36.500000mm" y1="13.500000mm" x2="36.500000mm" y2="23.500000mm" />
  <line x1="112.530000mm" y1="161.675000mm" x2="112.530000mm" y2="161.675000mm" />
  <line x1="112.530000mm" y1="161.675000mm" x2="102.530000mm" y2="161.675000mm" />
  <line x1="102.530000mm" y1="161.675000mm" x2="102.530000mm" y2="137.025000mm" />
  <line x1="102.530000mm" y1="137.025000mm" x2="112.530000mm" y2="137.025000mm" />
  <line x1="112.530000mm" y1="137.025000mm" x2="112.530000mm" y2="161.675000mm" />
  <line x1="112.530000mm" y1="71.825000mm" x2="112.530000mm" y2="71.825000mm" />
  <line x1="112.530000mm" y1="71.825000mm" x2="102.530000mm" y2="71.825000mm" />
  <line x1="102.530000mm" y1="71.825000mm" x2="102.530000mm" y2="47.175000mm" />
  <line x1="102.530000mm" y1="47.175000mm" x2="112.530000mm" y2="47.175000mm" />
  <line x1="112.530000mm" y1="47.175000mm" x2="112.530000mm" y2="71.825000mm" />
  <line x1="246.500000mm" y1="122.000000mm" x2="246.500000mm" y2="122.000000mm" />
  <line x1="246.500000mm" y1="122.000000mm" x2="236.500000mm" y2="122.000000mm" />
  <line x1="236.500000mm" y1="122.000000mm" x2="236.500000mm" y2="112.000000mm" />
  <line x1="236.500000mm" y1="112.000000mm" x2="246.500000mm" y2="112.000000mm" />
  <line x1="246.500000mm" y1="112.000000mm" x2="246.500000mm" y2="122.000000mm" />
 </g>
</svg>
